<?xml version="1.0" encoding="utf-8"?>
<!-- Generator: Adobe Illustrator 19.2.0, SVG Export Plug-In . SVG Version: 6.00 Build 0)  -->
<svg version="1.1" id="レイヤー_1" xmlns="http://www.w3.org/2000/svg" xmlns:xlink="http://www.w3.org/1999/xlink" x="0px"
	 y="0px" viewBox="0 0 142 288.1" style="enable-background:new 0 0 142 288.1;" xml:space="preserve">
<style type="text/css">
	.st0{fill:#262626;}
	.st1{fill:#F6F1E5;}
	.st2{font-family:'Reisho101Std-Medium-83pv-RKSJ-H';}
	.st3{font-size:35.9422px;glyph-orientation-vertical:0;writing-mode:tb;}
</style>
<g>
	<text transform="matrix(1 0 0 1 122.2545 0)" class="st1 st2 st3">創作串揚げと野菜</text>
	<g>
		<path class="st1" d="M69.6,26.3c0.7-0.1,4.5,0,5.4,0c1.3,0,5.5-0.6,5.5-3.4c0-1.9-2.4-4-4.1-5.3c0,0,0,0,0,0l0,0
			c-0.5-0.4-1-0.7-1.3-0.9c0.1-0.1,0.2-0.1,0.4-0.2c0.3-0.1,0.7-0.3,0.7-0.6c0-0.3-0.2-0.6-1.2-1.2c0.9,0.8,0.7,1.2,0.2,1.2
			c-0.5,0.1-1.3-0.1-2-0.5c0,0,0,0.1,0,0.1c-0.3-0.2-0.6-0.3-0.9-0.4c0.6,0,0.6-0.2,0.2-0.5c-0.4-0.3-1.2-0.6-2.1-0.5
			c1.5,0,2.1,0.7,1.8,0.9c-0.6-0.2-1.1-0.2-1.8-0.2c0.2,0,0.3-0.1,0.4-0.2c0.1-0.3-0.3-0.4-0.9-0.5c0-1.1,0-2.5-0.1-3.6
			c0-0.1-0.1-0.2-0.1-0.2c-0.4-0.7-0.7-1-1-1.1c-0.2-0.1-0.4-0.1-0.8-0.2c0.1-0.6-0.8-2-0.8-2.5c-1.4-1-2.3-1.9-3.2-2.7
			c-1-0.8-2-1.7-3.7-2.1c-0.1-0.1-0.1-0.2-0.1-0.3c-0.1-0.1-0.2-0.1-0.2-0.1L60,1.6c-0.7-0.1-1.4-0.3-2.3-0.4
			c-0.3-0.1-0.6-0.1-0.9-0.1c0.3,0.1,0.5,0.1,0.7,0.2c0.4,0.2,0.8,0.4,1.1,0.6c-1.7-0.7-3.8-0.9-5.4-0.3c-0.1,0-0.1,0-0.1,0
			C52.8,1.6,52.4,1.8,52,2c-0.5,0.3-0.9,0.8-1.2,1.3c0.3-0.4,0.6-0.6,0.8-0.7c-0.4,0.4-0.8,1-1.1,1.6C50.2,4.9,50.1,5.5,50,6
			c0,0.1-0.1,0.2-0.1,0.4c-0.1,0.4,0,1,0,1c0.3,0.8,0.9,1.3,1.3,1.6c0.4,0.3,0.7,0.4,0.9,0.5c0.4,0.2,0.6,0.2,0.7,0.2
			c0.2,0,0.2,0,0.2-0.1c0-0.1,0-0.1,0-0.2c0-0.1,0-0.2,0.1-0.3c0.2,0.1,0.5,0.3,0.7,0.4c0.3,0.2,0.6,0.5,0.9,0.8c0,0.1,0,0.2,0,0.4
			c0,0.1,0,0.2-0.1,0.3c0.5-0.2,0.6,0.2,0.7,0.5c0,0.2,0.1,0.4,0.4,0.3c0.1,0.3,0.3,0.6,0.3,0.9c0,0,0,0.1,0,0.1c0,0,0,0,0-0.1
			c0.3,0.9,0.3,1.9,0,2.6c-0.2,0.6,0,0.7,0.1,0.7c0,0-0.1,0-0.2,0c0-0.9,0-1.6,0-2.2c0-0.3,0-0.6,0.1-0.9c0-0.1,0-0.2,0-0.3
			c-0.1,0.2-0.2,0.3-0.3,0.4c-0.2,0.3-0.5,0.5-0.5,2.1l0.7,0.9c-0.3,0-0.7,0.1-1.5,0.3c-1.1,0.3-2.2,0.6-3.3,0.9
			c0-0.1,0-0.3-0.2-0.5c-1,0.4-1.9,0.8-2.1,1.1l0.1-0.2c0,0-0.3,0.2-0.7,0.5c-0.4,0.1-0.8,0.3-1.2,0.4c-0.5,0.2-0.9,0.4-1.4,0.5
			c0.2-0.1,0.3-0.2,0.4-0.3c0.4-0.3,0.6-0.6,0.2-0.8l-1.8,1.3c0.1-0.2,0.1-0.3,0-0.3c-0.1,0-0.1,0-0.2,0l-0.1,0c0,0,0,0-0.1,0
			c-0.2,0.1-0.4,0.2-0.6,0.3l0.6-0.3c-0.6,0.1-1.4,0.4-1.2,0l-5,2.5c0,0,0,0,0,0l-0.3-0.5l1.3-0.2c0.5-0.9-0.1-0.6-1.1-0.1
			c-0.5,0.3-1,0.5-1.6,0.8c-0.6,0.3-1.2,0.5-1.7,0.5l0.2,0.5c-2.5,1-3.1,1.4-3.5,1.5c-0.2,0.1-0.4,0.2-0.8,0.4
			c-0.4,0.3-1,0.5-2.3,1.5c0,0-0.1,0.1-0.2,0.3c0,0.1-0.1,0.2-0.2,0.3c-0.1,0.1-0.1,0.3-0.2,0.4c-0.1,0.1-0.1,0.3-0.2,0.4
			C27.1,27.7,27,27.9,27,28c-0.1,0.3-0.2,0.5-0.2,0.5c0,0.1,0.2-0.5,0.6-1.1c0.4-0.6,0.9-1.2,1.3-1.6c0.9-0.9,1.9-1.5,2-1.2
			c-0.6,0.5-1.2,1.1-2,1.9c-0.4,0.4-0.8,0.8-1.2,1.5c-0.1,0.2-0.2,0.4-0.3,0.6c-0.2,0.3-0.4,0.9-0.5,1.3c0,0.1-0.1,0.3-0.1,0.3
			l0,0.1l0,0.1l0,0l0,0.6l0,0.1l0,0.2l0.1,0.4c0.1,0.6,0.3,1.2,0.6,1.8c0.3,0.5,0.7,1.1,1.1,1.4c0.2,0.2,0.4,0.3,0.6,0.5
			c0.2,0.1,0.4,0.2,0.6,0.3c0.4,0.2,0.7,0.3,1,0.4c1.3,0.4,2.2,0.4,3,0.3c0,0-0.7,0.3-1.4,0.4c-0.8,0.2-1.8,0.2-1.8,0.2
			c0.9-0.1,1.8,0.3,2.9,0.7c1.1,0.4,2.4,0.7,3.8,0.7c0,0-0.6-0.1-1.3-0.2c-0.7-0.1-1.3-0.3-1.3-0.3c0.6-0.2,1.3-0.4,2.1-0.4
			c0.4,0,0.8,0,1.3,0c0.3,0,1.2,0,1.9-0.1c0.3,0,0.6-0.1,0.8-0.1l0.7-0.1c0.5-0.1,0.9-0.2,1.4-0.3c0.9-0.2,1.7-0.5,2.5-0.8
			c-0.8,0.2-1.7,0.4-1.9,0.1c0.3-0.2,1-0.4,1.7-0.6c0.4-0.1,0.7-0.1,1.1-0.2l0.3,0c0.1,0,0.3,0,0.4-0.1c0.3,0,0.5-0.1,0.7-0.2
			c0,0.2-0.2,0.4-0.6,0.6c-0.4,0.2-0.7,0.4-1,0.5c-0.7,0.3-1.5,0.6-2.3,0.8c-1.6,0.5-3.2,0.9-2.7,1.3c1.9-0.3,3.4-1,4.8-1.7
			c0.4-0.2,0.6-0.3,1.1-0.5c0.6-0.2,1.1-0.5,1.3-0.7c0.6-0.3,1.1-0.6,1.6-0.7l-1.4,1.3l1.5-0.8l-0.5,0.1c0.1-0.2,0.3-0.4,0.5-0.5
			c0.2-0.1,0.6-0.3,0.6-0.2c0.2,0,0.3,0.1,0.4-0.1c0,0-0.1,0.8-0.1,0.8c0,0,0.2-0.1,0.2-0.1l0-0.2c0.1-0.1,0.3-0.2,0.4-0.3
			c0.1,0,0.1-0.1,0.2-0.1c0,0,0.1,0,0.1,0c0,0,0,0.1,0,0.1c0,0.4-0.2,0.8-0.5,1c0,0,0.3-0.3,0.3-0.3c0.2-0.1,0.2,0.1,0.1,0.3
			c0.5-0.1,0.3-0.6,0.7-0.8c0,0.3-0.1,0.5-0.2,0.6c-0.1,0.2-0.2,0.2-0.3,0.4c-0.2,1-0.5,2-0.7,3.8c0.3,0.4,1.2-2.3,1.4,0.6
			c-0.6-0.2-1,2.3-1.6,0.4c0.4,2.5-0.6,1.9,0.2,3.9c0-0.2,0-0.6,0-1c0.4-0.7,0.4,1.1,0.5,1.8c-0.1,0.3-0.2,0.6-0.3,0.8l-0.1,0.4
			c0,0.1-0.1,0.3-0.1,0.3c-0.2,0.1-0.3,0.1-0.4,0.1c0,0,0.1,0.1,0.2,0.2c0.1,0.1,0.2,0.3,0.2,0.3c-0.1-0.1-0.3-0.3-0.3-0.3
			c0.1,0.2,0,0.2-0.1,0.1c-0.1,0-0.2-0.1-0.3-0.1c-0.4,0-0.7-0.1-1-0.1c-0.6-0.1-1.1-0.1-1.8-0.1c-0.3,0.1-1,0.3-1.1,0.4
			c0,0.1,0,0.1,0.4,0.2c0.3,0,0.7,0.1,1.4,0.2c-0.2,0-0.5,0.1-0.8,0.1c-0.3,0-0.7,0-1.1,0c-0.3,0-0.7,0-1,0.1c-0.3,0-0.5,0-0.8,0
			c-1.1,0-2.2,0-3.2,0.1c0,0,0.4-0.3,0.7-0.5c0.4-0.2,0.7-0.5,0.7-0.5c-1.1,0.2-2.3,0.5-3.6,0.8c-0.7,0.2-1.3,0.4-2.1,0.7
			c-1,0.4-1.8,0.9-2.6,1.6c-1,0.8-1.5,1.2-2.6,2.6c-0.9,1.2-1.6,2.5-2,3.9c0,0.1,0,0.3-0.1,0.4l-0.1,0c0,0.1,0,0.2,0,0.4
			c0-0.1,0.1-0.2,0.1-0.3c0,0.1-0.1,0.3-0.1,0.4c0,0,0,0,0-0.1c-0.4,1.2-1.9,1.8-0.8,2.4l0.5-1.4c0.1,0,0.2,0.1,0.3,0.1
			c0,0.8,0.1,1.5,0.2,2.3l0.1,0.4l0.1,0.3l0.1,0.5c0.1,0.3,0.2,0.7,0.3,1l0.4-0.9c0.1,0.5,0.2,1,0.3,1.5c0.1,0.3,0.1,0.7,0.2,1
			c0.1,0.5,0.2,0.9,0.4,1.3c0.1,0.3,0.2,0.5,0.3,0.8c0.1,0.2,0.2,0.4,0.2,0.7c0.2,0.4,0.3,0.9,0.5,1.3c0.6,1.7,1.1,3.1,1.7,4.1
			c-0.2-1.5,0.2-1.1,0.6-0.2c0.1,0.2,0.2,0.5,0.3,0.7c0.1,0.3,0.3,0.7,0.4,1c0.2,0.4,0.4,0.8,0.6,1.1c0.2,0.3,0.4,0.5,0.5,0.7
			c-0.2-0.3-0.3-0.6-0.5-0.8c-0.1-0.3-0.3-0.6-0.4-0.9c-0.1-0.3-0.2-0.5-0.3-0.8l-0.2-0.6c-0.3-0.8-0.7-1.6-1-2.2
			c-0.6-1.2-1.1-2.1-1.1-2.3l0,0.1c0,0-0.6-1.2-1.3-2.5c-0.1-0.3-0.3-0.6-0.4-0.8c-0.1-0.3-0.2-0.6-0.2-0.9c-0.1-0.4-0.2-0.7-0.2-1
			c-0.1-0.5-0.2-0.9-0.2-0.9l0.8-0.1c-0.4,0-0.7-0.5-0.8-1.2c0-0.1,0-0.2-0.1-0.3c0-0.2,0-0.3-0.1-0.5c0-0.3-0.1-0.7-0.1-1.1
			c0-0.7,0.1-1.5,0.3-2.2c0.4-1.4,1.3-2.6,1.8-3.3c0.5-0.7,0.7-1.1,0.1-1c1.2-1.4,1.7-1.4,2.3-1.6c0.2,0,0.3,0.1,0.3,0.3
			c0,0,0.3-0.3,0.9-0.7c0.3-0.2,0.6-0.4,1-0.6c0.4-0.2,0.7-0.4,1-0.5c0.7-0.3,1.3-0.6,1.7-0.7c0.5-0.2,0.8-0.3,0.8-0.3
			c0.6,0.2-0.2,1.1-0.8,1.2c-0.5,0.1-1.1,0.4-1.8,0.7c-0.3,0.2-0.8,0.4-1.2,0.7c-0.4,0.2-0.8,0.6-1.1,0.9c-0.5,0.4-0.9,0.8-1.3,1.2
			c-0.5,0.4-1,0.9-1.5,1.3c-0.4,1.1,0.1,0.7,0.3,0.6c0.1,0,0.2,0,0.1,0.3c-0.1,0.3-0.4,0.8-0.6,1.9c-0.4,0.9-0.4,1.8-0.3,2.8
			l0.1,1.2l0.1,1l0.1,1l0.1,0.6c0.1,0.3,0.1,0.5,0.2,0.8c0.3,0.7,0.6,1.4,0.8,2.1c1,2.4,1.9,4.7,2.3,6.5c-0.1-0.9-0.4-1.6,0.4-0.8
			c0,0,0,0.2,0.1,0.4c0,0.1,0,0.2,0.1,0.4c0.1,0.2,0.1,0.5,0.2,0.7c0.2,0.9,0.8,1.7,0.8,1.7c0.3,0.3,0.6,0.6,0.8,0.7
			c0.2,0.2,0.5,0.3,0.7,0.5c0.5,0.2,0.9,0.4,1.3,0.6c0.8,0.3,1.4,0.6,2,1.3c0.4,0-0.5-0.6-1.5-1.5c-0.5-0.4-1-0.9-1.5-1.4
			c-0.2-0.2-0.5-0.5-0.7-0.8c-0.2-0.3-0.3-0.5-0.4-0.7c1.5,0.6,2.1,1.3,3,2.3c0.4,0.4,0.8,0.9,1.3,1.2c0.3,0.2,0.5,0.3,0.8,0.4
			c0.3,0.1,0.7,0.2,1.1,0.1c0.7-0.3-0.9-0.8-2-1.5c-1.1-0.7-2.1-1.4-1-1.3c0,0,0.6,0.5,1.1,0.9c0.6,0.4,1.2,0.8,1.2,0.8
			c-0.6-1-1.6-1.5-2.5-2.1c-0.8-0.5-1.6-1.1-1.4-1.8c0.8,0.9,2,1.9,3.2,2.6c0,0,0.1,0.1,0.1,0.1c0,0,0.1,0,0.1,0
			c1.2,0.7,2.4,1.2,2.9,1.2c1.5,0,3.2-0.6,4.9-1.3c0.1,0.8-2.7,2.4-4.4,2.4c0.7,0.2,1.8,0.1,2.6-0.2c0.9-0.3,1.7-0.6,2.3-0.9
			c0,0-0.6,0.2-1.1,0.3c-0.6,0.1-1.1,0.2-1.1,0.2c1.6-0.6,2-1.2,2.5-1.7c0.2-0.3,0.5-0.6,0.9-0.9c1.2-0.6,2.3-1.3,3-1.8
			c0.2-0.1,0.3,0,0.3,0.1c0.1,0.2,0,0.7,0.6,0.5c0.7-0.7,0.9-1.1,1.1-1.3C59.1,73,59.1,73,59,73c-0.1,0.1-0.6,0.4-1,0.1
			c1-1,1.6-1.5,2.3-2c0.4-0.3,0.7-0.6,1.1-0.9c0.2-0.2,0.4-0.4,0.7-0.6c0.1-0.1,0.3-0.2,0.4-0.3c0.2,0,0.3,0.2,0.5,0.3
			c-0.1,0-0.2-0.1-0.3-0.1c-0.1,0-0.2-0.1-0.3,0c-0.2,0.2-0.3,0.3-0.4,0.5c-0.2,0.3-0.4,0.6-0.6,0.8c-0.4,0.5-0.7,0.9-1.4,1.4
			c0,0,0.7,0.2,0.7,0.2c0.3-0.4,0.6-0.9,1-1.4l0.5-0.8c0.1-0.1,0.2-0.3,0.3-0.4c0.1,0,0.2,0,0.3,0.1c0.7,0.2,1.4,0.4,2.4,0.8
			c0.4,0.3,0.8,0.6,1.2,0.8l0,0.3c0.2,0,1.5,0.8,3.3,2c0.2,0.1,0.3,0.3,0.5,0.4c1,0.8,3,2.3,5.2,2.3c2.7,0,3.5-2.6,3.5-3.2
			c0-0.5-0.3-2.7-0.3-3.2c0-0.1-0.6-1.1-0.7-1.7c-1.4-2.8-1.6-3.2-2.4-3.8c-0.7-0.6-4.4-3.9-5.4-4.4c-1.5-0.7-1.5-0.7-1.9-1.5
			l0.1-4.5V53c0-0.2,0.1-0.4,0.1-0.8c0-0.1-0.1-0.3-0.1-0.4V41.6c0,0,0,0,0,0c0-0.2,0-0.4,0-0.6V30.4C68.2,26.8,68,26.4,69.6,26.3z
			 M47.5,66.6c-0.8-0.5-1.9-1.3-2.5-2.3l-0.1-0.1c0,0-0.2,0-0.2,0.1c0,0-0.1-0.1-0.1-0.1c0.1-0.1,0.1-0.1,0.2-0.2
			c0.4-0.3,0.8-0.6,0.6-0.7c-0.2,0.3-0.9,0.8-1,0.6c0,0,0,0,0,0c0,0,0,0,0-0.1c0.3-0.1,0.5-0.4,0.4-0.5c0,0.1-0.2,0.3-0.4,0.4
			c0,0-0.1-0.1-0.1-0.1c0,0,0.1,0,0.2-0.1c0.5-0.4,0.4-0.7,0.7-0.9c-0.1,0-0.3,0-0.6,0.2c0.3-0.2,0.3-0.3,0.7-0.5
			c-0.6,0,0.3-0.4-0.3-0.4c0.1,0,0.1,0,0.1-0.1l0,0l-0.1,0c-0.2,0-0.3-0.1-0.3-0.1c-0.1,0.1-0.4,0.3-0.6,0.4
			c-0.1,0.1-0.2,0.2-0.3,0.2c0-0.1-0.1-0.1-0.1-0.2c0,0,0,0,0,0C43,61.6,42.8,61,42.7,61c0,0,0-0.5,0.7-0.8l0.2,0c0,0-0.1,0-0.2-0.1
			c0.1,0,0.1-0.1,0.2-0.1c0.3,0,0.3,0,0.3,0c0,0,0,0-0.1,0c0.1,0,0.2,0,0.3,0c0,0,0.1,0,0.1,0c0,0-0.1,0-0.1,0c0.1,0,0.2,0,0.3,0
			c0.1,0,0.2,0.1,0.2,0.1c0.1-0.1,0.5,0,0.8,0.1c-0.2-0.1-0.2,0-0.4-0.1c0.1,0,0.2,0,0.2-0.1c0.1,0,0.2,0,0.4,0l0.1,0.1
			c0.4,0.1,0.6,0.1,1,0.2l-0.3-0.1c0,0-0.1-0.1-0.2-0.1c0.1,0,0.2,0,0.4,0.1c0,0,0,0,0,0c0.2,0.1,0.3,0.2,0.3,0.1
			c-0.2-0.1-0.2-0.1-0.2-0.1c0.1,0,0.1,0,0.2,0c0,0,0,0,0.1,0.1c0,0,0.1,0,0.1,0.1c0,0,0,0-0.1-0.1c0,0-0.1,0-0.1,0c0,0,0.1,0,0.1,0
			c0,0,0,0,0,0c0,0,0,0,0.1,0c0,0,0,0,0.1,0c0,0,0,0,0,0c0,0,0,0,0,0c0.1,0,0.1,0,0.2,0c0,0,0,0,0,0l-0.1,0.1c0.2,0,0.6,0.1,1,0.2
			l-0.1,0.1c0.1,0,0.3,0,0.2,0.1c-0.3-0.1-0.5,0.1-0.6,0c0,0,0,0,0-0.1c-0.1,0.1-0.1,0.1-0.3,0l0-0.1c-0.2,0-0.5-0.1-0.6-0.1
			c0.1,0.1,0.2,0.1,0.1,0.2c-0.1,0-0.1-0.1-0.2-0.1c-0.4-0.2-0.2,0-0.2,0c0,0-0.4-0.1-0.4-0.2c-0.4-0.1,0.1,0.2-0.6,0
			c0.1,0.1,0.4,0.2,0.4,0.2l-0.4-0.2l0.3,0.1c-0.1,0-1.2-0.3-0.9-0.2c0,0,0,0,0.3,0.1c0.4,0.1,0.3,0.2,1,0.4l-0.3-0.1
			c0.4,0.1,0.4,0.1,0.7,0.2c0,0-0.1-0.1-0.1-0.1l0.4,0.1l-0.2-0.1c0.8,0.3,0,0,0.5,0.1L47,60.9c0.3,0.1,0.3,0.1,0.6,0.2L47.4,61
			c-0.1,0,0.2,0.1-0.1,0c-0.2-0.1,0-0.1-0.1-0.2c0,0,0.4,0.3,0.4,0.3c-0.2-0.2,0.3,0.1,0.2,0.1L47.6,61c-0.3-0.2,0.1,0,0-0.1
			c0,0-0.1,0-0.1-0.1c0-0.1,0.1,0,0.1,0c0.2,0.2-0.1,0.1,0.2,0.3c0,0-0.2-0.2-0.1-0.2c0,0,0.1,0.1,0.1,0.1l0,0l0,0
			c-0.1-0.1,0,0,0.1,0l0,0.1l0,0l0,0c0,0,0.1,0,0.1,0.1l0,0c0,0,0,0,0,0c0.1-0.1,0,0,0-0.1c0.1,0,0,0.1,0,0.1c0.1,0,0.2-0.1,0.3-0.1
			c-0.1,0.1-0.2,0.1-0.3,0.1c0.1,0-0.1,0,0.1,0c0,0,0,0,0,0c0.1,0,0.1,0,0.2,0c-0.1,0-0.2,0.1-0.3,0.1c0,0,0.2,0,0.2,0
			c0,0-0.1,0-0.1,0c0.1,0,0,0,0.2,0c0.2,0,0.4,0,0.3,0c0.4,0,0.1,0-0.1,0l-0.4,0c0.2,0-0.5-0.1,0,0l0.4,0.1c0.3,0.1-0.2,0,0.1,0.1
			c0.7,0.2,0.4,0.2,0.6,0.3c0.3,0-0.1-0.2-0.2-0.2l-0.1,0c0,0-0.5-0.1-0.5-0.1l0.6,0.1c-0.7-0.1-0.5-0.1-0.4-0.1
			c0.1,0,0.2,0-0.3-0.1c-0.1,0,0.4,0,0.6,0.1l-0.4-0.1c0.2,0,0.7,0.1,0.6,0.1c0,0,0.6,0.1,0.1,0.1c0.4,0.1,0.5,0.1,0.8,0.1
			c-0.2,0-0.1,0,0,0.1c0.1,0.1,0.1,0.2-0.3,0.2c0.2,0,0.3,0,0.6,0.2c0,0-0.1,0-0.3,0c-0.1,0-0.3,0-0.3,0c0.1,0.1,0.8,0.4,0.3,0.3
			c0.3,0.2,0.5,0,0.8,0.1c0.7,0.3,0.4,0.3,0.2,0.3c-0.3,0-0.5-0.1-0.1,0.2c0.7,0.4,0-0.4,1,0.1l-0.3,0.1c1.1,0.3,0-0.4,0.9-0.1
			c-0.1,0.1-0.1,0.2-0.2,0.3c0,0,0,0,0,0c0,0,0,0,0,0c-0.1,0.2-0.3,0.3-0.5,0.5c-0.5-0.4-0.7-0.7-0.6-0.7c-0.4-0.1-0.4,0-0.4,0.1
			l0.3,0c-0.1,0.1,0.4,0.5,0.5,0.7c-0.1,0.1-0.1,0.1-0.2,0.2c-0.2-0.1-0.5-0.4-0.7-0.5c0.1,0.4,0,0.1,0.5,0.5
			c-0.1,0.2-0.4,0-0.5,0.3c0-0.3-0.3-0.6,0-0.5l-0.4-0.3c0.1,0.3,0.3,0.7,0.4,1.2c0,0-0.1,0.1-0.1,0.1l-0.2-0.2c0,0.1,0,0.2-0.2,0.4
			c-1.1,1-2.3,1.8-2.5,1.8c0,0-0.1,0-0.1,0c0-0.1,0-0.1-0.1-0.1c0,0,0.7,0,0.7,0.1c-0.3,0-0.2-0.1-0.2-0.3c0,0,0,0,0,0
			C48.2,66.6,47.5,66.6,47.5,66.6z M44.3,63.8c0,0-0.1-0.1-0.1-0.1C44.6,63.4,44.3,63.7,44.3,63.8z M69,15.1c0-0.1-0.1-0.5-0.1-0.8
			c0.3,0.1,0.4,0.4,0.4,0.6c0.2,0.1,0.4,0.1,0.6,0.1C69.6,15.1,69.3,15.1,69,15.1z M51.8,8.5c-0.1-0.1-0.3-0.2-0.5-0.3
			c0.4,0.3,1,0.5,1.5,0.8C52.5,8.8,52.2,8.7,51.8,8.5z M41.4,35.7c-0.2,0.1-0.4,0.2-0.7,0.3c-0.3,0.1-0.6,0.2-1.2,0.3
			c-0.4,0-0.8,0-1,0c-0.1,0-0.2,0-0.3-0.1c-0.1,0,0.1-0.1,0.2-0.1c0.5-0.1,1.2-0.3,0.5-0.4c-0.1,0-0.2-0.1-0.3-0.1
			c1-0.1,2-0.2,2.8-0.3C41.7,35.4,41.6,35.5,41.4,35.7z"/>
		<path class="st1" d="M28,40.7c-0.4,0-0.8,0.2-1,0.6l0,0.1l-0.1,0c0,0.1,0,0.2,0,0.3l-3.4,6.5l-0.6,1.7l-4,7.4l-0.3,0.3
			c0-0.1,0-0.3,0-0.5c0.1-0.1,0.1-0.3,0.1-0.5c0-0.1,0-0.2-0.1-0.3c0.1-1.4,0.2-3.5,0.2-4l0.2-2.7c0,0,0,0,0,0c0-0.1,0-0.3,0-0.4
			l0.5-5.9c0.1-1.7,0.8-5,1.1-6.3l1.9-8.7c0.1-0.4,0.1-0.7,0.1-0.8c0-0.2,0-0.6,0.1-1c0.1,0,0.1,0,0.2,0.1l-0.2-0.1
			c0-0.3,0.1-0.7,0.1-1c0.7,0.3,1.5,1,1.6-0.6c-0.6,1.3-1.6,0-1.4-0.9c0,0,0,0-0.1,0c0-0.2,0-0.4,0-0.5c0,0,0-0.1,0-0.1
			c0.5,0.7,0.8-0.3,0.6-1.3c0,0.9-0.3,1.3-0.6,1.2c0-0.4,0-0.8-0.1-1.2c0,0.1,0.1,0.2,0.3,0.3c0.9,0.1,0.6-2.9,0.6-4.2
			c-0.4-1-0.7-0.9-1.2-1c0.3-0.4,0-1.5,0.3-1.9c-0.4-0.4-0.7-0.8-0.9-1.2c-0.2-0.4-0.4-0.8-0.6-1.2c-0.4-0.8-0.8-1.6-1.8-2.1
			c0-0.1,0-0.2,0.1-0.2l-0.1-0.1l0,0.2c-0.5-0.3-1.1-0.7-1.6-1.2c0.4,0.6,0.7,1.2,0.9,1.9c-0.7-1.1-1.5-2-2.3-2.8l0-0.5
			c-0.4-0.4-0.7-0.7-0.9-1c0.3,0.5,0.4,0.9-0.1,0.8c-0.1-0.1-0.2-0.1-0.3-0.2c0-0.1-0.1-0.3-0.1-0.4c-0.1-0.3-0.2-0.5-0.2-0.5
			s-0.6-0.1-1.2-0.1c-0.2,0-0.5-0.1-0.7-0.1c-0.1,0-0.1,0-0.2,0c-0.6-0.2-1.3-0.3-1.9-0.5c0.4-0.2,0.7-0.4,0.9-0.4
			c-0.4,0.1-0.7,0.3-1,0.4c-0.3-0.1-0.6-0.1-1-0.2C9.2,5.5,8.4,6.2,8.2,6.9c-0.7,3.3-0.1,5.8,1.8,8.3c-0.1,0.6-0.2,1.2-0.3,1.7
			c0-0.3,0-0.6-0.1-1c-0.1,0.7-0.3,1.5-0.4,2.3c0.2-0.2,0.3-0.5,0.3-0.7c0,0.3-0.1,0.5-0.1,0.8c-0.1,0-0.1,0-0.2,0
			c-0.1,0.7-0.2,1.3-0.1,1.6l-0.1-0.2c0,0,0,0.3,0.1,0.7c-0.1,0.6-0.2,1.3-0.4,1.9c-0.1-0.6-0.3-1-0.7-0.8L8.5,23
			c-0.5-0.6-0.7,1.2-1.1,0.8l-0.2,3.7l-0.6,0l0.4-0.8c-1.2-1.3-0.2,1.8-1.1,2.7l0.5,0.1c-1,3.1-0.7,1.2-1.6,3.7l0.4,0.9
			c0.1,0.1-0.2-2.4,0.5-2.3c0.1,0.9,0,1.9-0.1,2.9c0,0.2,0,0.4,0,0.6c-0.1,0.6-0.3,1.2-0.4,1.7c0,0,0,0,0-0.1
			c-0.3-0.4-0.5-0.8-0.5-0.8c0.6,0.7-0.9,1.8-1,3.6l0.6-1.5c0.3,0.4,0.3,0.9,0.3,1.5c-0.3,1.5-0.6,3.1-0.8,4.6
			c-0.1-1.4,0.1-3-0.5-2.7c-0.2,1.4,0.1,2.7,0.4,3.8c-0.1,0.5-0.1,1-0.2,1.4l-0.3-0.6l0.1,1.1L3.5,47c0,0,0,0.1,0.1,0.1
			c-0.1,0.7-0.2,1.4-0.3,2.1l-0.6-0.5l-0.2,1.7l0.2-0.2c0.1,2.7-0.2,5-0.8,7.6c0,0,0.1-0.4,0.2-0.8c0.1-0.4,0.2-0.7,0.2-0.7
			c0.1,0.1,0.1,0.9,0,1.7c0.3-0.1,0.4-0.9,0.5-1.4c0,0.4,0,0.8,0,1.2c-0.1,0.3-0.2,0.6-0.2,0.9c-0.2,0.7-0.4,1.5-0.6,2.8
			c0.3,0.2,1.1-1.6,1.5,0.4c-0.7-0.1-0.8,1.6-1.5,0.3c0.6,1.7-0.4,1.3,0.4,2.6c-0.1-0.2,0-0.4,0-0.7c0.4-0.5,0.4,0.7,0.6,1.1
			c-0.4,0.8-0.8,1.3-0.7,2.6c0,0,0.2,0.7,0.4,1.4c0.2,0.7,0.4,1.4,0.4,1.4c-0.1,0.1-0.3,0-0.3,0L3.4,73c0.3,1.2,0.8,2.3,1.4,3.2
			c0.6,0.9,1.5,1.8,2.1,2.2c0.6,0.5,1.2,0.9,1.7,1.2c0.5-0.1,1.4,0.1-0.1-0.9c0.7,0.2,1.4,0.6,2,1.1c0.4,0.3,0.6,0.5,1.1,0.8
			c0.5,0.3,0.9,0.6,1.4,0.8c0,0-1.8,0.1-1.9,0c1.4,0.6,2.8,1.1,4.3,1.3c1.5,0.2,3.1,0.2,4.6-0.2c1.5-0.4,2.9-1,3.9-2.1
			c1-1,1.6-2.2,1.9-3.6c0-0.2,0.1-0.4,0.1-0.6l-0.4,0.4l-0.4,0.3l0.1-0.4c0.1-0.6,0.3-1.2,0.5-1.8l0.2-0.7l0.1-0.4
			c0.2-0.6,0.4-1.2,0.6-1.7c0.4-1.1,0.7-2,0.7-2.7c-1.3,1.6-0.1-1.4-0.2-2.1c-0.8,1.7-1,4.5-1.2,4.8l0.1,0L26,73.6L25.9,74
			c0,0.1-0.1,0.5-0.2,0.8l-0.4,1.7l0,0l-0.3-0.2l-0.4-0.2c0,0,0,0,0.1,0.1c0.3,0.3,0.2,1-0.1,1.7c-0.3,0.7-0.9,1.4-1.7,1.9
			c-1.5,1.1-3.2,1.2-2.3,1.7c-1.7,0.7-2.6,0-2.4-0.4c0,0-1.1,0.3-2.3,0.3c-1.2,0-2.4-0.2-2.4-0.2c-0.4-0.4,0.7-0.9,1.2-0.7
			c0.9,0.2,2,0.1,3.1,0c1.1-0.2,2.1-0.4,3-0.4c0.5-0.5,0.1-0.5-0.1-0.6c-0.1-0.1-0.1-0.1,0-0.3c0.1-0.2,0.4-0.4,0.9-0.9
			c1-0.6,1.5-1.6,2-2.7l0.5-1.5c0.1-0.4,0.2-0.7,0.3-1.1c0.2-0.6,0.4-1.3,0.6-1.9c0.4-1.2,0.7-2.3,1.3-3.1c-0.4,0.4-0.6,1-0.7,0.2
			l1-1.4c0.2-1.3-0.4-2.2,0.3-3c-0.3-0.5-1.1,2.2-1.7,2.9c-1.2-1.7,1.7-2.5,0.8-4.2c-0.8-0.8-0.8,3.5-1.6,2l0.7-1.7
			c-1.5,0.8-0.6,2.9-1.7,3.2c0.3-0.9,0.5-1.8,0.8-2.6c0,0,0,0,0,0c0,0,0,0,0,0c0.6-2.2,1.2-4.1,1.5-5.2c0.7,0.4,0.5,2.4,0.2,3.2
			c0.7-0.6,0.9-2,1.1-2.8l-0.7,1.3c0.4-1.5-0.3-1.8-0.3-2.9l0.6-2.2c0.3-0.3,0.7,0.5,1.1,0.1c0.1-2.3,0.2-0.8-0.7-0.9
			c0.3-1.5,0.7-1.9,1.1-3.4c0.1-0.3,0.1-0.6,0.1-1c0,0.4,0.1,0.7,0.1,1c0,0.8,0.1,1.2-0.3,2.1l0.7-0.2c0-0.6,0-1.1,0-1.8
			c-0.1-0.6-0.2-1.2-0.3-1.8c0.2-0.4,0.4-0.8,0.7-1.2c0.1-0.6,0.1-1.1-0.5-0.5c-0.1,0.4-0.2,0.7-0.4,0.9c0-0.1,0-0.2-0.1-0.4
			l0.2-0.9l0.3-0.1c-0.1-0.1,0-1.3,0.2-3l0.3-1.7C29.4,41.5,28.9,40.7,28,40.7z M23,21.2c0,0.1-0.1,0.3-0.1,0.4
			c0-0.4-0.1-0.8-0.2-1.2C23.2,20.6,23.1,20.9,23,21.2z M16.1,7.7l0.2,0.4C16.1,8,16,7.9,15.9,7.8C15.9,7.8,16,7.7,16.1,7.7z"/>
		<path class="st1" d="M46,60.2l-0.4-0.1c0,0,0.1,0.1,0.1,0.2C45.6,60.2,45.9,60.2,46,60.2z"/>
		<path class="st1" d="M45.7,60.7l0.1,0c0,0-0.2-0.1-0.6-0.3c0.3,0.1-0.6,0.1,0.6,0.3C45.8,60.7,45.8,60.7,45.7,60.7z"/>
		<path class="st1" d="M45.8,60.8C45.8,60.8,45.8,60.8,45.8,60.8C45.9,60.8,45.9,60.8,45.8,60.8C45.9,60.8,45.9,60.8,45.8,60.8z"/>
		<path class="st1" d="M45.8,60.9c0,0,0-0.1,0-0.1C45.5,60.7,45.6,60.8,45.8,60.9z"/>
		<path class="st1" d="M45.1,60.7c0,0,0.1-0.1-0.2-0.2c-0.2,0,0.3,0.2-0.3,0C44.4,60.7,45.2,60.6,45.1,60.7z"/>
		<path class="st1" d="M45.6,61.2c0.1,0,0.1,0,0.2,0C45.7,61.2,45.6,61.2,45.6,61.2z"/>
		<path class="st1" d="M44.4,61.2l0.1-0.1c0.6,0.1,0.1,0.1,0.6,0.2c0.2,0,0.3-0.1,0.5-0.1c-1,0-0.1-0.1-1.3-0.1
			C44.2,61.1,44.3,61.2,44.4,61.2z"/>
		<path class="st1" d="M44.3,61C44.2,61,44.2,61,44.3,61C44.2,61.1,44.2,61.1,44.3,61C44.3,61.1,44.3,61,44.3,61z"/>
		<path class="st1" d="M45,60.9l-0.6-0.1c0.1,0.1,0,0.2,0,0.2C44.5,61,45,61,45,60.9z"/>
		<path class="st1" d="M44.2,61.7l0.6-0.1c0,0-0.2,0-0.5,0c-0.2,0-0.5-0.1-0.5-0.1c0.7,0.1-0.4,0.4,0.7,0.3l-0.3,0.1l0.5-0.1
			c0.1-0.1,0.2-0.1,0.3-0.2C44.8,61.7,44.4,61.8,44.2,61.7z"/>
		<path class="st1" d="M44.7,61.8L44.7,61.8c-0.1,0.1-0.1,0.1-0.1,0.2C44.7,61.9,44.7,61.8,44.7,61.8z"/>
		<path class="st1" d="M45,62.1L45,62.1C45,62.2,45.2,62,45,62.1z"/>
		<path class="st1" d="M44.8,61.5L44.8,61.5C44.7,61.4,44.8,61.4,44.8,61.5z"/>
		<path class="st1" d="M44.8,61.5l0.1,0.1l0.5-0.1C45.7,61.4,45.1,61.5,44.8,61.5z"/>
		<path class="st1" d="M50.7,63.2c-0.1,0,0.1,0.2-0.1,0.2C50.8,63.4,51.3,63.6,50.7,63.2z"/>
		<path class="st1" d="M48.8,61.9L48.8,61.9C48.7,61.8,48.7,61.8,48.8,61.9L48.8,61.9z"/>
		<path class="st1" d="M48.5,61.6c0.1,0.1,0.2,0.1,0.2,0.2c0.1,0,1,0.5,0.2,0l-0.1,0c-0.4-0.2-0.5-0.3-0.5-0.3
			C48.2,61.4,48.4,61.5,48.5,61.6L48.5,61.6z"/>
		<path class="st1" d="M49.1,61.9c0,0-0.1-0.1-0.2-0.2c-0.1-0.1-0.2-0.2-0.2-0.2C48.6,61.6,48.6,61.6,49.1,61.9z"/>
		<path class="st1" d="M49.6,62c-0.3-0.1-0.2-0.1-0.3-0.2C48.9,61.7,49.5,62,49.6,62C49.6,62.1,49.7,62.1,49.6,62z"/>
		<path class="st1" d="M49.9,62L49.9,62C50,62,50,62,49.9,62L49.9,62z"/>
		<path class="st1" d="M49.1,61.5L49.1,61.5C49.1,61.5,49.1,61.5,49.1,61.5z"/>
		<path class="st1" d="M53.1,16.4c0.6-0.2,1.1-0.5,1.7-0.8c-0.4,0.2-1,0.4-1.6,0.6c-0.3,0.1-0.6,0.2-0.9,0.3
			c-0.2,0.1-0.5,0.2-0.7,0.2c-0.1,0.1-0.3,0.1-0.4,0.2c0,0,0,0-0.1,0c0.3,0,0.6-0.1,1-0.2C52.6,16.6,52.8,16.6,53.1,16.4z"/>
		<path class="st1" d="M51,16.9C51,16.9,51,16.9,51,16.9c0.1,0,0.1,0,0.1,0C51.1,16.9,51.1,16.9,51,16.9z"/>
		<path class="st1" d="M54.7,11c-0.1,0-0.1,0-0.2,0.1C54.6,11.2,54.7,11.1,54.7,11z"/>
		<path class="st1" d="M69.2,15.1c0-0.1,0-0.1,0-0.2c-0.1,0-0.2,0-0.3-0.1L69.2,15.1z"/>
		<path class="st1" d="M61.6,2.2c0.5,0.3,0-0.1-0.6-0.4c-0.4-0.2-0.8-0.4-0.9-0.3c0.2,0.1,0.4,0.2,0.6,0.3C61.2,2,61.6,2.2,61.6,2.2
			z"/>
		<path class="st1" d="M50.8,3.3c-0.1,0.1-0.1,0.2-0.2,0.3C50.7,3.5,50.7,3.4,50.8,3.3z"/>
		<path class="st1" d="M56.8,1.1c-1.1-0.3-2.4-0.3-3.8,0.4c0,0,0,0,0.1,0c0.6-0.2,1.2-0.4,1.8-0.4C55.5,1,56.2,1,56.8,1.1z"/>
		<path class="st1" d="M50.6,3.6c-0.1,0.2-0.2,0.4-0.3,0.6C50.4,4,50.5,3.8,50.6,3.6z"/>
		<path class="st1" d="M55.5,76.7c0.3-0.1,0.8-0.4,1.2-0.8c0.5-0.4,1-0.8,1.6-1.2C57.3,75.4,55.5,75.7,55.5,76.7z"/>
		<path class="st1" d="M57,79.2L57,79.1c-0.1,0.1-0.3,0.3-0.5,0.4C56.7,79.4,56.9,79.3,57,79.2z"/>
		<path class="st1" d="M56.8,78.7l0.1,0.3C57.2,78.8,57.3,78.6,56.8,78.7z"/>
		<path class="st1" d="M52.3,81.2c0,0,0.6-0.2,1.2-0.4c0.6-0.2,1.2-0.5,1.2-0.5c0.2,0.5,0.3,0.7-1.3,1.3c0.5,0,1.7-0.8,2.3-1.3
			l-0.5,0.2c0.2-0.3,0.8-0.7,1.2-1.1C54.5,80.5,52.4,79.9,52.3,81.2z"/>
		<path class="st1" d="M51.3,81.3c0,0-0.2,0.1-0.4,0.2c-0.1,0.1-0.3,0.1-0.4,0.2c-0.2,0.1-0.3,0.2-0.6,0.3c-1,0.4-2,0.6-2,0.6
			c0.4,0,0.9-0.1,1.4-0.1c0.3,0,0.5-0.1,0.8-0.2c0.3-0.1,0.4-0.1,0.6-0.2C51.4,81.8,51.8,81.5,51.3,81.3z"/>
		<path class="st1" d="M44.8,81.1c-0.4-0.1-0.8-0.3-1.2-0.5c-0.3-0.1-0.6-0.2-0.7-0.3c0.6,0.4,1.3,0.8,1.6,0.9
			c0.4,0.1,0.6,0.1,0.7,0.1c0.3-0.1,0.4-0.2,1.5-0.1c-0.7-0.1-1.3-0.3-1.9-0.4C45.8,81.4,45.5,81.3,44.8,81.1z"/>
		<path class="st1" d="M46.8,81.3c0.3,0,0.7,0,1,0C47.4,81.3,47,81.3,46.8,81.3z"/>
		<path class="st1" d="M66.5,72.2l0-0.3C66.4,71.9,66.4,71.9,66.5,72.2z"/>
		<path class="st1" d="M38.3,75.8c0.2,0.3,0.4,0.5,0.4,0.5l-0.1-0.2c-0.2-0.2-0.5-0.5-0.7-0.8C38,75.2,38.1,75.5,38.3,75.8z"/>
		<path class="st1" d="M34,68.5L34,68.5C34,68.5,34,68.5,34,68.5z"/>
		<path class="st1" d="M76.4,17.7l0.2-0.1C76.5,17.6,76.4,17.6,76.4,17.7z"/>
		<path class="st1" d="M9.3,18.3C9.4,18.3,9.4,18.3,9.3,18.3C9.4,18.3,9.4,18.3,9.3,18.3C9.4,18.3,9.4,18.3,9.3,18.3z"/>
		<path class="st1" d="M19.6,10.4l0.7,0.8C20.7,11.6,19.8,10.2,19.6,10.4z"/>
		<path class="st1" d="M15.6,6.7c-0.1-0.1-0.1-0.2-0.2-0.3C15.4,6.5,15.5,6.6,15.6,6.7z"/>
		<path class="st1" d="M17.9,9.2c-0.4-0.5-0.8-1-1.4-1.4l0,0c0.2,0.2,0.4,0.5,0.7,0.7C17.4,8.7,17.6,9,17.9,9.2z"/>
		<path class="st1" d="M12.6,6L13,5.7l0-0.2l0-0.1l0,0l0,0l0.1,0l0.2,0.1c0.2,0.1,0.4,0.1,0.5,0.2l0.2,0.1l0.1,0.1
			c0.1,0,0.1,0.1,0.2,0.1c0.3,0.1,0.4,0.2,0.4,0.2s0-0.2,0-0.4c0-0.2-0.1-0.4-0.1-0.4c-0.1-0.1-0.1-0.1-0.2-0.1
			c-0.1-0.1-0.1-0.1-0.2-0.2c-0.3-0.1-0.5-0.2-0.7-0.3c-0.1,0-0.2-0.1-0.3-0.1c0,0-0.1,0-0.1,0c0,0,0,0-0.1,0l-0.6-0.1l0,0l0,0l0,0
			l-0.1,0c-0.4,0.1-0.3,0.2-0.2,0.4c0.1,0.1,0.1,0.2-0.3,0.4c0,0,0,0.4,0,0.4C12.1,5.7,12.3,6,12.6,6L12.6,6z"/>
		<path class="st1" d="M27.8,56.6c0.3-0.4,0.1-1.4,0.5-2C28,55.2,27.1,56.1,27.8,56.6z"/>
		<path class="st1" d="M30.2,57.2l0.3,0.1C30.4,57.1,30.4,57,30.2,57.2z"/>
		<path class="st1" d="M29.3,60.5l0.2,1.6C29.7,61.6,30.1,60.3,29.3,60.5z"/>
		<path class="st1" d="M28.1,62.2C28.1,62.5,28,62.7,28,63c0.5-0.8,0.1,0.6,0.2,1C29.1,62.5,28,63.2,28.1,62.2z"/>
		<path class="st1" d="M29,46.5l-0.3,0.1C28.8,46.6,28.9,46.6,29,46.5z"/>
		<path class="st1" d="M26.6,66.6L26.6,66.6c-0.1,0.2-0.1,0.4-0.2,0.5L26.6,66.6z"/>
		<path class="st1" d="M26.1,71.9L26.1,71.9C26.1,71.9,26.1,71.9,26.1,71.9z"/>
	</g>
	<g>
		<path class="st1" d="M46.6,138.8c0,0.1,0,0.2,0,0.3c0,0,0,0.1,0,0.1L46.6,138.8z"/>
		<path class="st1" d="M47.3,138.8c0,0.1,0,0.1,0,0.2c0,0,0,0,0,0.1L47.3,138.8z"/>
		<path class="st1" d="M45.1,122.4c0,0,0,0.5,0.1,1.1c0.1,0.6,0.1,1.1,0.1,1.1c-0.1-0.1-0.1-0.3-0.2-0.4c0-0.1-0.1-0.2-0.1-0.3
			c-0.1-0.2-0.1-0.5-0.1-0.8c-0.1-0.5-0.1-1-0.4-1c-0.2,0.3-0.2,1.1-0.3,1.4c0.2,0,0.3,0.1,0.4,0.2c0.1,0.1,0.1,0.2,0.1,0.3l0,0.2
			c0,0.1,0,0.2,0.1,0.3c0.1,0.8,0.3,1.3,0.8,0.5c0-0.2-0.1-0.4-0.1-0.7C45.4,123.8,45.3,123.2,45.1,122.4z"/>
		<path class="st1" d="M45.8,130.5l0.8,1.1c-0.4-1.9-0.6-3.2-0.7-4.3C45.7,128,45.3,127.6,45.8,130.5z"/>
		<path class="st1" d="M45.6,125.1C45.6,125.1,45.6,125.1,45.6,125.1c0.1,0.5,0.1,1,0.2,1.5c0,0.2,0,0.4,0.1,0.6
			C45.8,126.8,45.8,126.3,45.6,125.1z"/>
		<path class="st1" d="M44.2,123.7c0,0-0.1,0-0.2,0C44.1,123.8,44.2,123.8,44.2,123.7z"/>
		<path class="st1" d="M40.6,122.2c0.2-0.1,0.4-0.1,0.5-0.2C41.1,122,40.9,122.1,40.6,122.2z"/>
		<path class="st1" d="M26.9,120.3c-0.6-0.4,0,0.1,0.7,0.5c0.5,0.3,1.1,0.6,1.3,0.5c-0.2-0.1-0.6-0.2-0.9-0.4
			C27.5,120.6,26.9,120.3,26.9,120.3z"/>
		<path class="st1" d="M37.7,122.7C37.7,122.7,37.7,122.7,37.7,122.7c-0.2,0-0.3,0-0.4,0c-0.5,0-1-0.1-1.5-0.1
			c-0.6-0.1-1.2-0.1-1.7-0.2c-0.2,0-0.4-0.1-0.6-0.1c0.5,0.1,1.1,0.2,1.6,0.3C36,122.7,36.7,122.8,37.7,122.7z"/>
		<path class="st1" d="M39,122.7c0.6-0.1,1.2-0.3,1.6-0.5c-0.4,0.1-0.9,0.3-1.1,0.2c-0.3,0-0.1-0.2,0.8-0.7c0,0,0.4-0.1,0.7,0
			c0.3,0,0.5,0,0.5,0s0.5-0.5,1.1-1.1c0.6-0.6,1.4-1.3,1.4-1.3c-1.2,0.9-2.1,1.4-3.1,1.8c-0.4,0.2-1,0.4-1.4,0.7
			c-0.5,0.2-0.8,0.5-0.9,0.7c0,0-0.1,0-0.3,0c-0.2,0-0.4-0.1-0.6-0.1c-0.2,0-0.4-0.1-0.5-0.1c-0.1,0-0.2-0.1-0.2-0.1
			s0.7,0.5,0.8,0.5C38.1,122.8,38.6,122.8,39,122.7z"/>
		<path class="st1" d="M44.4,120.6c0,0.1,0.1,0.1,0.1,0.1c0-0.2-0.1-0.4-0.3-0.4c-0.1,0-0.3,0.1-0.4,0.1c-0.2,0.1-0.3,0.2-0.4,0.3
			c0,0,0,0,0,0c0.3-0.2,0.5-0.3,0.8-0.3C44.3,120.4,44.4,120.5,44.4,120.6z"/>
		<path class="st1" d="M43.1,120.9c-0.7,0.4-1.4,0.8-1.4,0.8c0,0,0.5,0.3,0.4,0.4c1-0.4,1-0.6,1-0.9c0-0.1,0-0.3,0.2-0.4
			C43.3,120.8,43.2,120.8,43.1,120.9z"/>
		<path class="st1" d="M81.2,100.7c-0.9-0.4-2.8-0.3-4.3-0.6c0.7,0.1,1.6,0.3,2.4,0.5C80.1,100.8,80.8,100.9,81.2,100.7z"/>
		<path class="st1" d="M81.6,98.3l0,0.1c0.2,0,0.5,0.1,0.9,0.1C82.2,98.4,81.9,98.4,81.6,98.3z"/>
		<path class="st1" d="M81.6,98.4c-0.5,0-0.7,0-0.1,0.3L81.6,98.4z"/>
		<path class="st1" d="M84.2,99.3c0.1,0.1,0.3,0.2,0.4,0.3c0.5,0.4,1,0.7,1.4,1c0.8,0.6,1.4,1,1.9,0.8c0,0-0.2-0.1-0.4-0.3
			c-0.3-0.2-0.6-0.4-1-0.6c-0.7-0.5-1.5-0.8-1.5-0.8c0.2-0.3,0.4-0.6,2.2,0.6c-0.2-0.2-0.7-0.5-1.3-0.8c-0.3-0.1-0.6-0.2-0.9-0.4
			c-0.3-0.1-0.6-0.2-0.9-0.3c0,0,0.2,0.1,0.4,0.2c0.2,0.1,0.3,0.2,0.3,0.2c-0.1,0-0.3-0.1-0.4-0.1c-0.2-0.1-0.4-0.1-0.6-0.2
			c-0.4-0.1-0.9-0.2-1.3-0.3c0.4,0.1,0.8,0.3,1.1,0.5C83.8,99.1,84,99.2,84.2,99.3z"/>
		<path class="st1" d="M89.3,102.6c0.3,0.2,0.7,0.4,1,0.7c0.7,0.5,1.4,1.1,1.4,1.1c-0.4-0.5-1.3-1.4-1.9-1.9c-0.7-0.5-1.2-0.7-1-0.2
			C88.8,102.3,89,102.4,89.3,102.6z"/>
		<path class="st1" d="M92.7,107.5c-0.4-1-0.2-0.7,0.2-0.1c0.4,0.6,0.9,1.6,1.1,2c-0.6-2.1-1.1-2.3-1.3-2.5c-0.3-0.1-0.4-0.1-1.1-1
			C92,106.5,92.3,107.1,92.7,107.5z"/>
		<path class="st1" d="M91.6,106c-0.2-0.3-0.4-0.5-0.6-0.8C91.2,105.5,91.4,105.7,91.6,106z"/>
		<path class="st1" d="M76.7,95l-0.2,0.2C76.5,95.4,76.6,95.4,76.7,95z"/>
		<path class="st1" d="M92.7,117.4l-0.2,0.2c-0.2,0.3-0.3,0.6-0.5,0.9C92,118.5,92.7,117.4,92.7,117.4z"/>
		<path class="st1" d="M84.8,126.3L84.8,126.3C84.7,126.3,84.8,126.3,84.8,126.3z"/>
		<path class="st1" d="M93.4,111.7c0-0.3-0.1-0.7-0.2-0.9c-0.1-0.3-0.1-0.6-0.2-0.8c-0.2-0.2-0.1,0.1,0,0.6c0,0.1,0.1,0.3,0.1,0.5
			c0,0.2,0.1,0.4,0.1,0.6c0.1,0.4,0,0.9,0,1.5c-0.2,1.9-1.3,3.8-1.9,4.5c0.2-1.6,0.9-2.8,1.3-4.5c0.1-0.4,0.2-0.9,0.1-1.4
			c0-0.2-0.1-0.5-0.1-0.7c0-0.2-0.1-0.4-0.2-0.6c-0.2-0.8-0.7-1.5-1.2-2c-0.7-0.3,0.4,1.2,0.9,2.9c0.3,0.9,0.1,1.9,0,2.3
			c-0.2,0.5-0.3,0.5-0.4-0.2c0,0,0.1-0.2,0.1-0.6c0.1-0.4,0.1-0.9,0-1.4c-0.2-1-0.6-1.9-0.6-1.9c0.1,0.7,0.2,1.4,0.3,2.1
			c0.1,0.4,0.1,0.7,0,1.1c0,0.4,0,0.7-0.1,1.1c-0.2,1.3-0.7,2.4-1.3,2.6c0.7-1.3,1.3-2.7,1.3-4.1c0-0.2-0.1-0.6-0.2-1
			c0-0.1,0-0.1,0-0.1c0-0.1-0.1-0.1-0.1-0.1c-0.6-1.9-2.4-5.3-6.9-7.8c0.3-0.2,1.3,0.1,2.3,0.7c1.2,0.6,2.4,1.7,3,2.5
			c-0.4-0.7-1.1-1.6-2-2.3c-0.9-0.8-1.9-1.3-2.6-1.7c0,0,0.2,0.1,0.4,0.3c0.2,0.2,0.5,0.4,0.8,0.6c0.3,0.2,0.6,0.5,0.8,0.6
			c0.2,0.2,0.3,0.3,0.3,0.3c-0.9-0.7-1.5-1-2.1-1.2c-0.6-0.2-1-0.3-1.4-0.4c-0.5-0.1-1-0.2-1.7-0.4c-1.2-0.4-2.7-0.7-4.2-0.8
			c-0.3-0.1-0.3-0.2-0.3-0.3c0.1-0.2,0.5-0.4-0.1-0.6c-4.5,0.1-1.5-0.1-1.5,0.6c-1.7,0-2.7-0.1-3.9-0.1c0.3-0.1,0.6-0.3,0.8-0.5
			c0,0,0.1,0,0.1,0l0,0c0.2-0.1,0.4-0.3,0.5-0.4c0.6-0.6,1.2-1.2,1.7-1.9c0.2-0.3,0.4-0.6,0.6-0.9c0.4-0.5,0.6-1.1,0.6-1.8
			c0.1-0.1,0.2-0.2,0.2-0.2c-0.1-0.1-0.1-1.1-0.8-2.4c-0.4-0.7-0.9-1.5-1.6-2.4c-1.2-1.5-2.7-2.8-4.1-3.6c-0.6-0.3-1.7-0.9-4.9-1.1
			c0,0-0.1-0.1-0.1-0.1c-0.3-0.2-0.4-0.2-0.2,0.1c-0.4,0-0.9,0-1.4,0c0,0,0,0,0,0c-0.2-0.1-0.3-0.2-0.5-0.3l-0.1,0c0,0,0-0.1-0.1,0
			c-0.1,0.1-0.3,0.3-0.4,0.4c-0.7,0.1-1.7,0.3-1.7,1c0,0.4,1.4,1.4,1.7,1.6c0.9,0.9,2.2,3.2,2.2,4.1c0,0.1,0,0.7-0.8,1.1
			c-0.6,0.4-4.4,1.3-4.4,1.7c0,0.2,0.2,0.3,0.3,0.4c2.9,1.4,4.7,2.8,5.9,3.8c0.1,0.1,1.8,1,1.8,1.3v0l0.2,0.1l0.3,0.1
			c-0.8,0.5-5,1.5-6,1.8l-1.7,0.5c-0.2,0-0.5,0.1-0.9,0.2c-0.2,0.1-0.3,0.1-0.4,0.2l-2.9,0.9c-0.4,0.2-1.8,0.8-2.2,0.8
			c-0.7-1.9-0.4-2.5-0.4-7.6c0,0,0,0,0,0c0,0-0.3,0-0.3,0c0-0.1-0.2-0.1-0.2-0.2c-0.1-0.9-0.8-4.2-1.6-4.9c-3.7-3.2-4.1-3.6-6.5-4.8
			c-2-1-7.2-2-7.3-2c-0.8,0-1.4,0.6-1.4,1.4c0,0.7,0.4,1.4,0.8,1.8c0.5,0.5,3.8,2.9,4.1,3.3c0.6,0.7,2.8,12,3.3,15.2c0,0,0,0,0,0
			c0,0,0,0,0,0c0.1,0.5,0.1,0.8,0.1,0.9c0,0.2-0.4,0.4-1,0.7c0-0.1,0-0.2,0-0.3c0-0.3-0.1-0.5-0.4-0.6c-0.3-0.1-0.8,0-1.6,0.4
			c1-0.2,1.5-0.1,1.3,0.3c-0.2,0.4-1,0.9-2,1.2c0,0,0.1,0,0.1,0c-0.4,0.1-0.7,0.3-1.1,0.4c1.2-0.8-0.7-0.4-2.5,0.2
			c1.6-0.5,2.5-0.5,2.4-0.2c-0.8,0.3-1.7,0.5-2.3,0.8c0.2-0.1,0.4-0.2,0.5-0.4c0.1-0.3-1.3-0.2-2.9,0.4c-0.7,0.2-1.8,0.5-2.9,0.8
			c-0.5,0.1-1,0.2-1.6,0.3c-0.6,0-1.1,0.1-1.6,0.1c-0.4,0.1-0.6,0.2-0.7,0.3c-0.2,0.1-0.3,0.2-0.4,0.2c-0.2,0.1-0.4,0.2-0.4,0.3
			c-0.1,0.2,0,0.3,0,0.5c-0.5-0.1-1.3,0.1-1.9,0.1c-0.7,0-1.3-0.1-1.7-0.1l-0.1,0c0,0-0.1,0.1-0.1,0.1c-0.1,0.1-0.1,0.2-0.2,0.3
			c-0.1,0.2-0.2,0.4-0.3,0.6c-0.1,0.5,0,1,0.2,1.3c0.3,0.7,0.8,1.4,1.3,2c0.5,0.6,1.1,1.2,1.8,1.7c0.8,0.6,1.7,1.1,2.9,1.5
			c0.1,0.1,0.1,0.2,0.1,0.2c0.2,0.1,0.3,0.1,0.3,0.1l-0.2-0.2c0.9,0.3,2,0.6,3.2,0.8c0.4,0.1,0.8,0.1,1.3,0.2
			c-0.4-0.1-0.7-0.2-1-0.3c-1.6-0.5-2.7-1.2-3.5-1.8c-0.5-0.4-0.9-0.8-1.3-1.2c0.8,0.5,1.6,0.9,2.6,1.3c0.2,0.1,0.4,0.2,0.6,0.2
			c1.8,0.5,4,0.9,7.3,0.9c1.2,0,6.3-3.5,7.1-3.5c0.5,0,0.6,0.5,1.2,4.6L48,132l0.1,1l0.9,5.8c0,0.3,0.3,1.3,0.3,1.8l-0.1,0
			c-0.2,0-0.5,0-0.7,0.1c-0.1,0-0.1,0-0.2,0c-0.2,0-0.3-0.1-0.5-0.1c0,0,0,0,0,0l-0.1,0v0l0.1,0c0,0,0,0,0.1,0c0,0,0,0,0,0
			c0,0,0.1,0,0.2,0l0.1,0c0,0,0,0,0.1,0c0,0-0.1,0-0.1,0c0,0,0.1,0,0.1,0c0,0,0,0,0,0c0.1,0,0.2,0,0.2,0c0,0-0.1,0-0.1,0.1
			c0,0-0.1,0-0.1,0c0,0-0.1,0-0.1,0c0,0-0.1,0-0.2,0c0,0,0,0,0,0c0,0-0.1,0-0.1,0l0,0l0,0c0,0,0,0,0,0l0,0l0,0c0,0,0,0,0,0
			c0,0,0,0,0,0c0,0,0-0.1,0-0.1l0-0.1l0,0c0,0,0,0,0,0l0,0l0,0l0,0c0,0,0,0,0.1,0c0,0,0,0-0.1,0l0,0l0,0c0,0-0.1,0-0.1,0
			c0,0,0-0.1,0-0.1c-0.1-0.2-0.1-0.5-0.2-0.7c0-0.1-0.1-0.3-0.1-0.4c0-0.1-0.1-0.2-0.1-0.5c-0.1-0.5-0.1-0.9,0.1-1
			c-0.4-3.4-0.2,1.9-0.7-1.3c-0.1-0.5,0.1,1,0.4,2.4c0,0.1,0,0.2,0,0.2l0.1,0.3c0,0.2,0.1,0.3,0.1,0.5c0.1,0.2,0,0.3,0.1,0.5
			c0,0-0.2,0-0.2,0v0c0,0,0.1,0,0.1,0c0,0,0,0,0,0c-0.1,0-0.2-0.1-0.3-0.1l0.1,0c0,0,0.2,0,0.2,0v0l-0.2,0c0,0.1-0.1,0.2-0.2,0.3
			c0-0.2-0.1-0.4-0.1-0.6c0-0.2-0.1-0.3-0.1-0.5l-0.1-0.3c0-0.1,0-0.2,0-0.3c-0.1-1-0.4-1.9-0.7-3.2c0.2,1,0.4,2.2,0.6,3.3
			c0,0.1,0,0.2,0,0.3l0.1,0.3l0.1,0.4c0.1,0.2,0.1,0.5,0.2,0.7c0,0.1,0,0.1-0.1,0.2c-0.1,0.5,0.1,1.2,0.1,1.6l0.4,0.2v0v0v0
			c0,0-0.9,1.1-1.1,1.1h1.1v-1.1l-0.5,0l-0.3,0c0,0.1-0.2,0.1-0.2,0.2c0,0.1-0.1,0.3-0.1,0.4c0,0-0.1-0.3-0.1-0.3
			c0-0.1-0.1,1.1,0.7,2.3c0.2,0.3,0.4,0.6,0.7,0.9c0.1,0.1,0.2,0.3,0.4,0.5L48,147l0.2,0.2c0.2,0.2,0.5,0.5,0.7,0.7
			c0.2,0.6,0.5,1.3,0.8,1.9c-0.1-0.1-0.2-0.2-0.2-0.3c-0.3-0.4-0.7-0.8-1-1.1c-0.2-0.2-0.4-0.4-0.6-0.6c-0.3-0.3-0.5-0.3-0.5,0
			c0,0,0.1,0.1,0.3,0.3c0.2,0.2,0.4,0.4,0.8,0.8c0.3,0.4,0.7,0.8,0.9,1c0.3,0.3,0.4,0.4,0.4,0.4c-0.6-0.3-0.1,0.5,0.7,1.2
			c0.7,0.7,1.7,1.2,1.2,1.2c0,0,0.6,0.3,1.6,0.5c1,0.2,2.4,0.2,3.7-0.3c1.3-0.5,2.3-1.4,2.9-2.2c0.6-0.8,0.9-1.4,0.9-1.4l0.5,0.1
			c0,0-0.4,0.6-0.8,1.1c-0.4,0.5-0.9,0.9-0.9,0.9c-0.4,0.8-0.4,0.9-0.1,0.7c0.3-0.2,1-0.9,1.6-1.9c0.6-1,1-2.3,1.2-3.6
			c0.1-0.6,0.1-1.3,0.1-1.9c0-0.3,0-0.6,0-0.9c0-0.2,0-0.3,0.1-0.4l-0.4,0c0-1.9,0.1-2.9,0.1-3.5c0-0.3,0-0.5,0.1-0.7
			c0-0.1,0-0.2,0-0.3c0-0.1,0-0.3,0-0.5c0-0.2,0-0.5,0-1.1c0-0.5-0.1-1.1-0.1-2.1l-0.7-1.5c-0.1-0.1,0.2,1,0.5,2.2
			c0.2,1.2,0.4,2.3,0.1,2.5c-0.1-0.5-0.2-0.9-0.3-1.4c-0.1-0.4-0.2-0.9-0.3-1.4c-0.2-0.9-0.4-1.9-0.6-2.9c-0.4-2-0.8-3.9-1.4-5.6
			l1.5,2.6c-0.4-0.6-0.4-1.6-0.4-2.9c0.1,0.1,0.2,0.3,0.3,0.4l0.6,0.8c0.2,0.2,0.4,0.3,0.6,0.5c0,0,0.1,0.7,0.2,0.7l0.1,0.7h0
			c-0.1,0,0.1-0.8-0.1-0.5l0-0.3l0-0.2l0-0.1l0,0l0.3,0.2l0.6,0.4l0.5,0.3c0.3,0.2,0.7,0.4,1.1,0.6c0.9,0.5,2,0.8,2.8,0.9
			c1.7,0.3,2.9,0.3,4,0.3l0.2,0c0.1,0,0.3,0,0.4,0c0.3,0,0.5,0,0.8-0.1c0.4-0.1,0.7-0.1,1-0.2c0.6-0.1,1.1-0.2,1.6-0.3
			c1-0.2,2-0.5,3-0.8c0,0-0.3,0-0.6-0.1c-0.3,0-0.6-0.1-0.6-0.1l1.1-0.3c0.6-0.2,1.2-0.3,1.8-0.6c0.6-0.3,1.1-0.6,1.7-0.9
			c0.5-0.3,1-0.5,1.4-0.8c0.9-0.5,1.8-1,2.7-1.4c0.9-0.5,1.2-0.8,1.7-1.1c0.4-0.3,0.8-0.7,1.2-1c0.7-0.6,1.3-1.3,1.7-1.9
			c-1.8,1.4-1.3,0.7-0.3-0.4c1-1.1,2.4-3,2.6-3.7c-1.3,2.1-3.2,4.1-4.8,5.7c-0.8,0.8-1.6,1.4-2.5,1.9c-0.4,0.2-0.7,0.4-0.8,0.4
			l0.1,0l-4.7,3l-0.3,0.2l-0.1,0c-0.1-0.1-0.1,0-0.1,0l-0.2,0.1c-0.2,0.1-0.5,0.2-0.7,0.3l-1,0.3l-0.1-0.6c0,0.4-0.7,0.6-1.5,0.8
			c-0.9,0.2-2,0.4-3.3,0.5c-0.4,0-1,0.1-1.4,0c-0.3,0-0.5,0-0.8-0.1c-0.5,0-1-0.1-1.3-0.1c-0.8,0-1.2,0-0.8,0.4
			c-1.3,0-2.5-0.5-3.1-0.9c-0.6-0.4-0.6-0.7-0.4-0.8c-0.4-0.2-0.7-0.3-1-0.5l-0.4-0.2l-0.6-0.4l-0.3-0.2l0,0.5
			c0.2-0.2,0.1,0.4,0.1,0.4h0l0-0.5l0-0.3l0-0.1l0-0.1l-0.1-0.1c-0.1,0-0.1-0.1-0.2-0.1c-0.2-0.1-0.4-0.3-0.6-0.5l-0.7-0.7l-0.8-0.9
			c0-0.2,0-0.5,0-0.8c0.3,0.1,0.7,0.4,0.9,0.7c0.2,0.3,0.5,0.6,0.8,0.9c0.2,0.2,0.4,0.4,0.6,0.6c0.1,0.1,0.3,0.2,0.4,0.3l0.1,0.1
			l0,0l0,0l0,0c0,0,0.1-0.1-0.1,0.1l0,0l0,0l0,0l0.1,0l0.2,0.2L64,128l0.3,0.2c0.2,0.1,0.5,0.3,0.8,0.4c0.6,0.3,1.2,0.6,1.9,0.7
			c1.3,0.3,2.2,0.4,3,0.7c1-0.2,0.5-0.3,0.4-0.5c-0.1-0.1-0.1-0.1,0.2-0.2c0.1,0,0.3,0,0.6-0.1c0.1,0,0.3,0,0.5,0
			c0.3,0,0.6,0,0.9-0.1c1.2-0.1,2.2-0.2,3.3-0.4c0.5-0.1,1.1-0.2,1.6-0.3l0.4-0.1l0.5-0.1c0.4-0.1,0.8-0.2,1.2-0.4
			c1.1-0.6,2.2-1.2,3.3-1.8c0.5-0.3,1-0.6,1.5-0.8c0.3-0.1,0.5-0.3,0.7-0.4l0.5-0.3l0.4-0.3c2.1-1.5,3.6-3,4.9-4.3
			c-0.9,0.8-1.7,1.7-1,0.4c0,0,0.7-0.6,1.3-1.3c0.3-0.4,0.6-0.7,0.8-1c0.2-0.3,0.4-0.5,0.4-0.5c0.7-1.4,0.9-2.8,1-4
			C93.5,113,93.5,112.3,93.4,111.7z M71.3,107.6c1.4-0.3,2.8-0.5,4.1-0.4c0,0-0.6,0.6-0.6,0.6c0.9-0.2,2,0,2.8,0.3
			c0.8,0.3,1.3,0.7,1.1,0.9c-1.1-0.5-2.1-0.6-2.9-0.7c-0.4,0-0.8,0-1.1,0.1c-0.4,0.1-0.7,0.2-1,0.3c-0.7,0.2-1.3,0.4-1.9,0.6
			c-0.3,0.1-0.6,0.2-1,0.2c-0.3,0.1-0.8,0.2-1.3,0.2c0.4-0.4,0.2-0.2-0.3-0.2c-0.7,0.5-1.6,1-2.8,1.6c-0.9,0.4-1.9,0.9-2.9,1.2
			c-0.1,0-0.1-0.1-0.2-0.1c-0.1-0.1-0.1-0.1-0.1-0.1c0,0,0,0-0.1-0.1l0.2-0.2c-0.1,0-0.2,0.1-0.3,0.1c-0.2-0.2-0.4-0.4-0.6-0.5
			l-0.4-0.4c0,0,0,0-0.1-0.1c1.6-0.7,3.3-1.5,5.2-2.2C68.6,108.4,69.9,107.9,71.3,107.6z M74.7,112c-0.3,0.2-0.6,0.4-1.3,1.3
			c0.2-0.2,0.5-0.4,0.8-0.6c0.7-0.2-0.7,1-1.2,1.4c-0.6,0.2-1.1,0.3-1.6,0.4c-0.2,0-0.5,0.1-0.8,0.2c-0.1,0-0.2,0-0.4,0.1
			c-0.1,0-0.1,0-0.1,0c-0.1,0,0.3,0.2-0.8,0c-0.9-0.1-2-0.4-2-0.4c-0.1-0.1,0.1-0.2,0.1-0.2c-0.5-0.1-0.9-0.3-1.4-0.5l0.1,0l-0.2,0
			c0,0-0.1,0-0.1,0c1.2-0.5,2.3-0.9,3.4-1.3c0.6-0.2,1.1-0.4,1.7-0.6l0.4-0.1l0.3-0.1c0.2-0.1,0.4-0.1,0.6-0.1
			c0.4-0.1,0.9-0.1,1.4-0.2c0.2,0,0.5,0,0.7,0c0.2,0,0.1,0,0.2,0l0.1,0c0.1,0.1,0.2,0.2,0.2,0.3c0,0,0-0.1,0-0.1
			c0-0.1-0.1-0.2-0.1-0.2c0-0.1,0.3-0.1,0.4,0c0.3-0.3-0.5-0.4-0.4-0.7c0.6,0.1,0.8,0.4,0.9,0.6c0,0.1,0,0.2-0.1,0.4
			c-0.1,0.1-0.3,0.3-0.4,0.3c0.1,0,0.5,0,0.8-0.1c0.3-0.1,0.7-0.1,0.5,0.4c-0.3-0.1-0.6,0-0.9,0c-0.3,0-0.4-0.1-0.6-0.3
			C75,112,74.8,112,74.7,112z M70.4,101.1L70.4,101.1L70.4,101.1C70.4,101,70.4,101,70.4,101.1L70.4,101.1z M70.5,100.8
			C70.5,100.8,70.5,100.8,70.5,100.8l0-0.2c0,0,0,0,0,0L70.5,100.8L70.5,100.8z M62.1,110.7l-0.2,0.1c0,0-0.1-0.1-0.1-0.1l0,0
			C61.9,110.7,62,110.7,62.1,110.7z M57.6,122C57.6,122.1,57.6,122.1,57.6,122C57.6,122.1,57.6,122,57.6,122
			C57.6,122,57.6,122,57.6,122z M71.6,100.8c-0.1,0.1-0.2,0.1-0.3,0.2c-0.1,0-0.1,0-0.2,0l0-0.2l0,0c0.2-0.1,0.3-0.1,0.5-0.2
			c0.1,0,0.2-0.1,0.3-0.1c0.1,0,0.2,0,0.3,0C72,100.6,71.8,100.7,71.6,100.8z M73.1,99.8c-0.2,0.2-0.4,0.3-0.6,0.5l-0.1,0
			C72.7,100.1,72.9,100,73.1,99.8C73.2,99.8,73.2,99.8,73.1,99.8C73.2,99.8,73.2,99.8,73.1,99.8z M35.6,111.6c0.3,0,0.5-0.1,0.8-0.1
			c-0.3,0.1-0.6,0.2-0.7,0.3c-0.5,0.2-1,0.4-1.5,0.6C34.4,111.8,35,111.7,35.6,111.6z M48.4,140.8L48.4,140.8
			C48.3,140.8,48.3,140.8,48.4,140.8C48.3,140.8,48.3,140.8,48.4,140.8z M47.9,140.9C47.9,140.9,47.9,140.9,47.9,140.9
			C47.9,140.9,47.9,140.9,47.9,140.9C47.9,140.9,47.9,140.9,47.9,140.9z M47.7,140.9C47.7,140.9,47.7,140.9,47.7,140.9
			C47.6,140.9,47.6,140.9,47.7,140.9L47.7,140.9L47.7,140.9z M47.7,140.6L47.7,140.6L47.7,140.6L47.7,140.6L47.7,140.6z M47.5,140.6
			L47.5,140.6c0,0.1,0.1,0.2,0.1,0.2l0,0.1l-0.2,0c0,0,0-0.1,0-0.1C47.4,140.7,47.4,140.7,47.5,140.6
			C47.4,140.6,47.4,140.6,47.5,140.6L47.5,140.6C47.4,140.6,47.4,140.6,47.5,140.6z M47.3,140.9C47.3,140.9,47.3,140.9,47.3,140.9
			L47.3,140.9C47.3,141,47.3,141,47.3,140.9C47.3,140.9,47.3,140.9,47.3,140.9z M46.8,140.9l0,0.1c0,0,0,0,0,0
			C46.8,141,46.8,140.9,46.8,140.9C46.8,140.9,46.8,140.9,46.8,140.9z M47.6,146c-0.3-0.5-0.7-1.1-0.8-1.7c-0.1-0.3-0.1-0.6-0.1-0.9
			c0-0.2,0.1-0.3,0.1-0.4l0-0.1l0,0l0,0l0.1,0c0,0,0.2,0,0.2,0v0l-0.1,0l-0.1-0.2c0.1-0.5,0.2-1.1,0.3-1.5c0-0.1,0-0.2,0-0.3
			c0.1,0,0.1,0,0.2,0l0,0c0,0,0,0,0,0c0,0,0.1,0,0.1,0c0,0,0,0,0,0c0,0,0,0,0,0c0,0,0,0,0,0c0,0,0,0,0,0c0,0,0,0,0,0
			c0,0,0.1,0,0.1,0c0,0,0.1,0.6,0.1,0.6c0.1,0,0.2,0.6,0.3,0.6c0,0,0,0-0.1,0c0,0,0,0,0,0h0c0,0,0,0,0,0c0,0,0,0,0,0l0.1-0.6
			c-0.6,0.3-1.1,0.7-0.9,1.6c0.4,1.5,0.8,3.2,1.3,4.8C48.4,147.4,48.1,146.8,47.6,146z M59.4,130.5c-0.1-0.2-0.1,0.1,0,0.6
			c-0.2-1.2-0.5-2.5-0.7-3.7C59,128.6,59.3,129.8,59.4,130.5z M60.2,125.4l-0.3-0.4c-0.1-0.3,0.1-0.3,0.3-0.3
			C60.2,125,60.2,125.2,60.2,125.4z"/>
		<path class="st1" d="M44,107.5c-0.1-0.1-0.1-0.2-0.1-0.2C43.9,107.4,43.9,107.5,44,107.5z"/>
	</g>
	<g>
		<path class="st1" d="M16.8,267.3l-0.1,0.1c0,0,0,0,0,0L16.8,267.3z"/>
		<polygon class="st1" points="17.3,256.2 17.3,256.2 17.3,256.2 		"/>
		<path class="st1" d="M18.1,255.8L18.1,255.8l0.1,0.2C18,255.9,18,255.8,18.1,255.8z"/>
		<path class="st1" d="M17.3,256.2C17.3,256.2,17.3,256.2,17.3,256.2C17.3,256.2,17.3,256.2,17.3,256.2
			C17.3,256.2,17.3,256.2,17.3,256.2z"/>
		<ellipse transform="matrix(0.661 -0.7504 0.7504 0.661 -186.5405 99.6748)" class="st1" cx="17.1" cy="256.3" rx="0" ry="0"/>
		<path class="st1" d="M17.1,256.4C17.1,256.3,17.1,256.3,17.1,256.4C17,256.3,17,256.3,17.1,256.4
			C17.1,256.3,17.1,256.3,17.1,256.4C17.1,256.4,17.1,256.4,17.1,256.4z"/>
		<path class="st1" d="M17,256.2C17,256.2,17,256.2,17,256.2C17,256.2,17,256.3,17,256.2C17,256.3,17,256.3,17,256.2
			C17,256.3,17,256.2,17,256.2z"/>
		<path class="st1" d="M18.1,255.8L18.1,255.8C18.1,255.8,18.1,255.8,18.1,255.8z"/>
		<path class="st1" d="M17.9,255.8L17.9,255.8C17.8,255.8,17.8,255.8,17.9,255.8C17.8,255.8,17.8,255.8,17.9,255.8
			C17.8,255.8,17.9,255.8,17.9,255.8z"/>
		<path class="st1" d="M34,264.8C34,264.8,34,264.8,34,264.8c0,0.1,0,0.1,0,0.2C34,265,34,264.9,34,264.8z"/>
		<path class="st1" d="M33.9,261.8c0,0,0-0.2-0.1-0.5c0-0.1,0-0.2,0-0.3c0-0.1,0-0.1,0-0.1c0-0.1-0.1-0.2-0.1-0.3
			c-0.1-0.3-0.2-0.7-0.2-1.1c0-0.4,0.3-0.7,0.5-1c-0.2,0.2-0.4,0.3-0.6,0.6c-0.1,0.3-0.1,0.6-0.1,0.9c0,0.8,0,1.6-0.1,2.2
			c-0.1,1.7,0.2,2.9,0.8,2.5c-0.1-1.6-0.1-2.8-0.2-3.3L33.9,261.8z"/>
		<path class="st1" d="M34.2,270.3c-0.1-1.6-0.1-3.6-0.2-5.3C33.7,266.9,33.9,268.1,34.2,270.3z"/>
		<path class="st1" d="M28.5,285.7c0,0.1-0.1,0.2-0.1,0.2C28.9,285.6,28.8,285.6,28.5,285.7z"/>
		<path class="st1" d="M15.1,270.5c-0.3,0.3-0.6,0.5-0.6,0.5c-0.1,0.1-0.1,0.1-0.1,0.1c0,0,0,0,0,0c0,0.1,1.1-0.6,1.2-1c0,0,0,0,0,0
			C15.4,270.3,15.3,270.4,15.1,270.5z"/>
		<path class="st1" d="M17.9,276.7c0,0.3,0,0.5,0,0.8C17.9,277.3,17.9,277,17.9,276.7z"/>
		<path class="st1" d="M17.2,271.6c0.2,1,0.3,2,0.6,2.9c0,0,0,0,0,0c0-0.3-0.1-0.7-0.1-1C17.5,272.9,17.4,272.2,17.2,271.6z"/>
		<path class="st1" d="M18.7,279.9c-0.2-0.3-0.3-0.6-0.4-0.8c-0.1-0.2-0.1-0.3-0.1-0.3c-0.1,0-0.1,1.3-0.1,1.4
			c0.6,1.4,1.1,1.9,1.3,2.1c0.2,0.2,0.3,0.1,0.4,0c0.1-0.1,0.1-0.2,0.4,0c-0.1-0.2-0.3-0.3-0.4-0.5C19.4,281.2,19,280.5,18.7,279.9z
			"/>
		<path class="st1" d="M20.3,282.3C20.3,282.3,20.3,282.3,20.3,282.3c0.2,0.2,0.3,0.4,0.5,0.6c0.3,0.3,0.6,0.6,0.9,0.8
			c0.5,0.5,1,0.7,1,0.7c-0.7-0.5-1.2-1-1.6-1.4C20.7,282.7,20.4,282.5,20.3,282.3z"/>
		<path class="st1" d="M40,235.7c-0.5,0.5-1.3,1-2,1.6c-0.7,0.5-1.2,1.1-1.2,1.6c0.4-0.3,0.8-0.8,1.4-1.4
			C38.8,236.9,39.4,236.3,40,235.7z"/>
		<path class="st1" d="M38.8,240.9l-0.1-0.1c-0.1,0.2-0.3,0.4-0.4,0.6C38.4,241.2,38.6,241.1,38.8,240.9z"/>
		<path class="st1" d="M38.5,240.5l0.2,0.3C38.9,240.4,39,240.3,38.5,240.5z"/>
		<path class="st1" d="M36.9,242.4l-0.1,0.1l0,0l-0.1,0c-0.2,0-0.5,0.1-0.6,0.2c-0.1,0.2,0,0.3,0.4,0.4l0-0.2
			c0.1-0.1,0.2-0.2,0.3-0.3c0.3,0.3,0.5,0.5,0.4,0.6l0,0c0,0,0,0,0,0c0.1,0,0.1,0,0.1-0.1c0,0,0-0.1,0-0.1c0.1-0.2,0.3-0.4,0.4-0.5
			l-0.5,0.4c0.2-0.3,0.6-0.9,1-1.4c-0.3,0.3-0.6,0.5-0.9,0.7C37.2,242.2,37,242.3,36.9,242.4z"/>
		<path class="st1" d="M33.6,247.2c0,0,0.1-0.1,0.2-0.1C33.7,247.1,33.7,247.2,33.6,247.2z"/>
		<path class="st1" d="M33.6,247.2C33.6,247.2,33.6,247.2,33.6,247.2C33.6,247.2,33.6,247.2,33.6,247.2z"/>
		<path class="st1" d="M33.4,247.3L33.4,247.3c-0.1,0,0,0,0.1-0.1C33.5,247.2,33.5,247.3,33.4,247.3z"/>
		<path class="st1" d="M35.1,246.3c0,0,0,0-0.1,0.1L35.1,246.3L35.1,246.3L35.1,246.3L35.1,246.3C35.2,246.3,35.2,246.3,35.1,246.3z
			"/>
		<path class="st1" d="M34.1,246.9C34.1,246.9,34.2,246.9,34.1,246.9L34,247C34,247,34.1,246.9,34.1,246.9z"/>
		<path class="st1" d="M34,247c-0.1,0-0.1,0.1-0.2,0.1c0,0,0,0,0.1,0L34,247z"/>
		<path class="st1" d="M33.4,247.3C33.4,247.3,33.3,247.3,33.4,247.3C33.3,247.3,33.4,247.3,33.4,247.3z"/>
		<path class="st1" d="M33.7,247.3c-0.1,0-0.2,0-0.2,0C33.5,247.3,33.6,247.3,33.7,247.3z"/>
		<path class="st1" d="M36,221.9l-0.2,0.2C35.9,222.3,36,222.3,36,221.9z"/>
		<path class="st1" d="M40,242l0.2,0c0.3-0.1,0.6-0.2,0.9-0.3L40,242z"/>
		<path class="st1" d="M51.4,238.9L51.4,238.9C51.5,238.9,51.5,238.9,51.4,238.9z"/>
		<path class="st1" d="M75.7,262.4c-0.1-1.3,0.1-2.7,0.2-4.3c0.1-1.7,0.1-3.2-0.1-4.7c0,0,0.3,0.6,0.5,1.1c0.3,0.6,0.5,1.2,0.5,1.2
			c-0.3-2.1-0.7-4.1-1.6-6.4c-0.5-1.1-1.1-2.3-2.1-3.5c-0.2-0.3-0.5-0.6-0.8-0.9l-0.3-0.3l-0.3-0.3l-1.1-1c-1.5-1.3-3.3-2.7-5.4-3.7
			c-2.1-1-4.2-1.4-6-1.5c0,0,0.3,0.2,0.6,0.3c0.3,0.2,0.6,0.4,0.6,0.4c-1.7-0.3-3.3-0.4-4.8-0.5c-0.8-0.1-1.5-0.1-2.2-0.1
			c-0.7,0-1.5,0-2.2,0c-2.8,0.1-5.2,0.5-6.8,1c2.3-0.1,1.5,0.2,0.1,0.6c-1.4,0.4-3.5,0.9-4.1,1.2c2.1-0.4,4.8-1.2,7.1-1.6
			c2-0.4,3.6-0.6,4-0.6l-0.2-0.1c0,0,0.5-0.1,1.3-0.1c0.8-0.1,1.8-0.1,2.8-0.1c1,0,2.1,0,2.9,0.1c0.8,0.1,1.4,0.1,1.4,0.1l-0.2,0.7
			c0.2-0.4,1-0.4,2.2-0.1c1.2,0.3,2.7,0.9,3.9,1.7c2.6,1.6,4,3.4,3.9,2.3c1,0.7,1.5,1.4,1.7,1.8c0.1,0.1,0.1,0.2,0.1,0.3
			c0.1,0.1,0.1,0.2,0.1,0.3c0,0.2-0.1,0.2-0.2,0.2c0,0,0.1,0.1,0.3,0.3c0.2,0.2,0.4,0.4,0.7,0.8c0.5,0.6,1.2,1.5,1.6,2.4
			c0.9,1.7,1.4,3.5,1.4,3.5c-0.1,0.8-1.1-0.5-1.3-1.3c-0.4-1.3-1.3-3.1-2.8-4.7l-0.6-0.6l-0.5-0.4c-0.3-0.3-0.6-0.5-0.9-0.8
			c-0.5-0.5-1-1.1-1.5-1.6c-1-0.5-0.7,0-0.7,0.2c0,0.1,0,0.2-0.3,0c-0.3-0.1-0.8-0.5-1.9-1c-1.7-1.2-3.9-2-5.9-2.3
			c-2.1-0.4-4.1-0.4-6-0.4c-4,0-7.5,0.8-10.2,1.1c1.2-0.1,2.4-0.3,1,0.4c0,0-0.9,0.1-1.8,0.2c-0.9,0.1-1.8,0.2-1.8,0.2
			c-0.6,0.2-1.1,0.4-1.5,0.6c-0.2,0.1-0.4,0.2-0.6,0.3c-0.2,0.1-0.3,0.2-0.7,0.3c-0.1,0.1-0.2,0.1-0.3,0.2c-0.1,0.1-0.2,0.1-0.3,0.2
			c-0.1,0.1,0.3,0.2,0.2,0.2c-0.1,0,0.3,0,0.3,0.1v0c-2,0.4-1.8,0.7-2.6,0.9c-0.2,0.3,0.5,0,1.9-0.5l-0.1,0.6
			c-1.1,0.3-2.2,0.6-3.1,1.2c0.1-0.6,0.2-1.2,0.3-1.9c0-0.5,0.1-0.9,0.1-1.4c0-0.4,0-0.7,0.1-1c0.1-0.2,0.2-0.4,0.3-0.5
			c-0.2,0.1-0.3,0.3-0.4,0.5c-0.1,0.5-0.2,1-0.4,1.7c0.1-0.9,0-1.4,0-1.9c0.1-0.4,0.3-0.7,0.4-1.1c0.1-0.3,0.3-0.6,0.5-1
			c0.2-0.3,0.4-0.6,0.6-0.9c1.1-1.1,2.3-2.1,2.7-2.5c0.3-0.3,0.5-0.6,0.8-0.8c0.7-0.4,0.1,0.9,1,0.4c1.5-1.8,1.7-2.3,1.6-2.1
			c-0.2,0.1-0.8,0.7-1.1,0.5c0.6-0.7,1.2-1.3,1.3-2c0.1-0.7,0.1-1.3,0-2c-0.3-1.3-1.5-2.7-3.7-3.7c0.7,0.3,1.2,0.5,1.7,0.7
			c0.5,0.3,0.9,0.5,1.3,0.8c0.4,0.3,0.8,0.7,1,1.3c0.3,0.5,0.5,1.3,0.4,2.1c0,0,0.2-0.3,0.3-0.5c0.1-0.3,0.2-0.6,0.2-0.6
			c-0.3-1-0.9-1.8-1.5-2.3c-0.6-0.5-1.3-0.9-2-1.2c-1.3-0.5-2.6-0.9-3.9-1.4c0-0.3,0.1-0.6,0.1-0.9c0.2-0.7,0.4-1.6,0.4-2
			c0.1-0.1,0.3-0.2,0.3-0.2c-0.1-0.2-0.2-1.4-1-3c-0.3-0.6-0.8-1.4-1.3-2.1c-0.1-0.1-0.1-0.2-0.2-0.3c-0.1-0.1-0.1-0.2-0.2-0.3
			c0,0,0,0,0,0c-1-1.4-2-2.5-2.4-2.8l-6.1-4.5l-0.3-0.1l-0.2-0.2c-0.5-0.1-1-0.2-1.6-0.2c-0.9,0-1.9,0.4-1.9,1.5
			c0,0.7,2.2,3.6,2.5,4.3c0.6,1,0.4,3.6,0.3,4.9l-0.5,7.5c0,0.2-0.1,0.2-0.2,0.4c-0.7,0.5-4.7,2-5.5,2.4l-7,3.9l-1.7,1
			c-0.2,0.1-0.5,0.2-0.9,0.5c-0.2,0.1-0.3,0.2-0.4,0.3l-3.5,2.1c-1,0.5-2.1,1.5-2.1,3.7c0,1.9,1.3,3.6,2.6,4.8c0,0,0,0,0,0
			c0,0,0.1,0.1,0.1,0.1c1,0.9,2,1.4,2.2,1.4c0.3,0,0.4-0.2,0.4-0.4c1.2-2.3,1.3-2.4,3.1-3.9c0.7-0.5,4.4-2.3,5.2-2.7
			c5-2.8,5.5-3.1,6.7-3.3c-1,1.5-6.6,8.5-7.7,10.1c-0.2,0.4-5.5,7.5-8.9,12c0,0,0,0,0,0l0,0c-0.5,0.7-0.9,1.3-1.3,1.8
			c-0.2-0.8-0.1-2.3-2,0.3c1-1,1.4-0.9,1.3-0.3c0,0.3-0.2,0.7-0.4,1.1c-0.1,0.2-0.2,0.5-0.4,0.6c-0.2,0.2-0.4,0.3-0.7,0.4
			c0,0,0.1,0,0.1,0c-0.4,0.3-0.7,0.5-1,0.8c0.1-0.3,0.2-0.5,0.1-0.5c-0.1-0.1-0.3,0-0.5,0.2c-0.3,0.2-0.6,0.6-0.7,1.1
			c-0.2,0.5-0.2,1.1-0.2,1.7c0-1.1,0.3-1.8,0.6-2.2c0.3-0.3,0.5-0.3,0.6-0.2c-0.3,0.5-0.5,1.1-0.5,2c0,0.1,0,0.3,0,0.5
			c0-0.2-0.1-0.5-0.2-0.7c-0.2-0.1-0.3,0.2-0.4,0.8c-0.1,0.6-0.1,1.4-0.1,2.4c0,0.9,0.2,2.2,0.6,3.2c0.3,1.1,0.8,2,1.3,2.6
			c0.5,0.4,0.9,0.7,1.2,0.8c0.3,0.2,0.6,0.2,0.8,0.2c0.4,0,0.6-0.1,1-0.3c0.2,0.3,1,0.5,1.8,0.4c0.4,0,0.8,0,1.1-0.1
			c0.3-0.1,0.5-0.2,0.7-0.2c1-0.9,1.8-1.7,2.7-2.3c0.5-0.4,0.7-0.5,0.9-0.7c0.2-0.2,0.5-0.3,0.7-0.5c0.6-0.4,1.2-0.8,1.9-1.4
			c0,0,0,0,0,0c0.3-0.3,0.7-0.7,1.2-1.2c0.1,0,0.1,0.1,0.1,0.2c0.1-0.1,0.2-0.1,0.2-0.1l-0.1-0.1c0.2-0.1,0.4-0.4,0.5-0.1
			c0.4,0.4,0.7,1.1,1,1.8c-0.2-0.9-0.4-1.8-0.7-2.8c0-0.1-0.1-0.3-0.1-0.3l-0.2,0c-0.2,0-0.3,0-0.4,0.1c-0.3,0.1-0.5,0.2-0.8,0.3
			c-0.4,0.2-0.9,0.4-1.4,0.6l2.2-1.8l0.4-0.3c0.3-0.2-0.3,0.2,0.1,0c0.1-0.1,0.2-0.1,0.2-0.1c0.1,0,0.1-0.1,0.2-0.1c0,0,0,0,0.1,0
			c0,0,0,0,0,0c0,0-0.1,0-0.1,0.1c0,0,0.1,0,0.1,0c0,0,0,0,0,0.1l-0.5,0.2c0,0,0,0,0.5-0.2c0,0,0,0,0,0c0,0-0.1,0-0.1,0l-0.1,0
			c-0.5,0.2-0.7,0.3-0.6,0.3c-0.2,0.1,0.1,0,0.2-0.1l0.1,0c0.1-0.1,0.2-0.1,0.4-0.1c0,0,0.1-0.1,0.2-0.1c0.6,0.9,1.1,2.1,1.5,3.4
			c-0.1,0.2-0.1,0.4-0.1,0.6c0,1.6,0.5,3.9,1.3,6.2c0,0.2,0.1,0.4,0.1,0.6c0.2,1,0.6,2.2,1.1,3.5c-0.4-0.5-0.8-0.9-1.1-1.5
			c-0.2-0.3-0.4-0.8-0.5-1.2c-0.1-0.4-0.2-0.8-0.2-1.2c-0.2-1.3-0.4-2.5-1-2.6c0,0,0.9-1.3,0.9-1.4c0,0,0.3,0.8,0.3,0.9c0,0,0,0,0,0
			c0,0.4-0.7,0.7-0.7,1c0,0.4-0.3,0.8-0.3,1.1c0-1.1,0.1-1.6,0.5-0.1l-0.3,1.2c0,0.2-0.1,0.4-0.1,0.5c0,0,0,0.1,0.1,0.2
			c0.1,0.1,0.1,0.3,0.3,0.6c0.1,0.2,0.3,0.5,0.5,0.7c0.2,0.2,0.4,0.4,0.6,0.7c0.4,0.4,0.8,0.8,1.1,1.1c0,0,0.1,0.1,0.1,0.1
			c0.7,1.6,1.7,3.1,3,3.8c0.4,0.4,0.9,0.6,1.4,0.5c0.4,0.1,1.4,0.2,2.2,0.1c0.4-0.1,0.8-0.2,1-0.2c0.2-0.3,0.5-0.6,0.9-0.9
			c0.2-0.1,0.3-0.1,0.5-0.2c2.3-1.2,3-3.5,3.5-5.9c0.1-0.3-0.1-0.8-0.1-1.4c0,0,0,0,0,0c0-0.3,0.3-0.6,0.3-0.9
			c0.1-3.6-0.1-7.1-0.5-10.6c0-0.1,0-0.2,0-0.4c-0.2-2.2-0.4-4.4-0.4-6.6c0.9-0.1,1.8-0.2,2.7-0.4l-0.2,0.2
			c-0.2,0.2-0.3,0.3-0.5,0.4c-0.3,0.3-0.5,0.5-0.5,0.8c0,0.3,0.2,0.4,0.4,0.4c0,0,0-0.1,0-0.2c0-0.1,0.1-0.2,0.2-0.3
			c0.2-0.2,0.4-0.5,0.4-0.5c0,0.2,0,0.2,0.2,0.3c0.1,0,0.1,0,0.2,0c0.1,0,0.2-0.1,0.3-0.1c0.1-0.1,0.2-0.1,0.4-0.2l0,0l0,0
			c-0.2-0.3-0.3-0.6-0.4-0.8c0.3-0.1,0.6-0.1,0.9-0.2c0,0,0,0,0,0c0.1,0.1,0.2,0.1,0.2,0.1c0,0,0,0,0,0c0,0,0,0,0.1,0.1c0,0,0,0,0,0
			c0.3,0.2,0.9,0.6,1.2,0.1c0.6-0.3,1.3-0.7,2.2-1.2c0.2-0.1,0.3-0.2,0.5-0.2c0.5-0.1,0.9-0.3,1.4-0.5c-0.7,0.9,0.1,0.6,1.3,0
			c1.2-0.6,3-1.3,4.1-1.2l-0.1-0.5c3.1-0.5,3.7-0.5,4.2-0.5c0.3,0,0.5,0,0.9,0c0.2,0,0.5,0,0.9,0c0.2,0,0.4,0,0.7,0
			c0.1,0,0.1,0,0.2,0.1c0,0,0.1-0.1,0.2-0.3c0.1-0.1,0.3-0.2,0.3-0.2c0.1-0.1-0.3,0-0.6,0.1c0,0,0,0-0.1,0l-0.2,0
			c-0.1,0-0.3,0-0.4,0.1c-0.3,0-0.5,0.1-0.7,0.1c-0.4,0-0.7,0-0.7-0.2c0.4-0.1,0.8-0.2,1.2-0.3c0.2,0,0.4-0.1,0.7-0.1
			c0.3,0,0.2-0.1,0.3-0.1c0.3-0.1,0.7-0.1,1,0c0.3,0.2,0.6,0.4,0.8,0.8c0.1,0.2,0.2,0.3,0.3,0.5c0.1,0.1,0.1,0.3,0.2,0.5
			c0,0.1,0,0.1,0,0.2c0,0,0-0.1-0.1-0.1c-0.1-0.2-0.3-0.4-0.5-0.6c-0.3-0.2-0.7-0.2-0.7-0.2c0.4,0,0.3,0.2,0.1,1
			c-0.3,0.7-0.6,1.6-1,3c0,0,0.3-0.5,0.5-1.1c0.2-0.5,0.4-1,0.4-1c0.4,0.9,0,2.7-1,4.6c-1,1.9-2.4,3.8-3.4,5.5
			c0.7-0.8,1.3-1.7,1.7-1.6c-0.2,0.9-1.9,2.8-3.1,3.7c0,0,0,0-0.1,0c-0.2-0.6,1.2-2.4,2.3-4.2c1.1-1.8,1.9-3.4,1.2-3.2
			c-1,1.7-1.9,3.5-2.9,5.2c-0.5,0.8-0.9,1.6-1.4,2.2c-0.1,0.2-0.2,0.3-0.3,0.4c0,0.1-0.2,0.2-0.4,0.4c-0.3,0.3-0.6,0.5-0.9,0.8
			c0,0,0.3-0.5,0.6-1.1c0.1-0.1,0.2-0.3,0.2-0.4c0-0.1,0-0.2,0.1-0.3c0.1-0.2,0.1-0.3,0.1-0.3s-0.1,0.1-0.2,0.3
			c-0.1,0.1-0.1,0.2-0.2,0.2c0,0-0.2,0.2-0.2,0.3c-0.4,0.4-0.8,0.9-0.8,0.9l0.5-0.4c-0.3,1.1-2.2,2-3.5,3.4l0.4-1.4
			c0,0-0.6,0.6-1.3,1.2c-0.3,0.3-0.7,0.6-0.7,0.6c-0.1,0.1-0.2,0.2-0.2,0.2l0.3,0c-0.4,0.4-1,0.8-1.7,1.2c-0.7,0.4-1.4,0.8-2.2,1.2
			c-0.4,0.2-0.8,0.4-1.1,0.5c-0.4,0.2-0.8,0.4-1.2,0.5c-0.3,0.1-0.5,0.2-1,0.5c-0.2,0.2-0.6,0.2-1.4,1.1c-0.4,0.4-1,1.4-1.2,2.2
			c-0.2,0.9-0.1,1.2-0.1,1.2c0,0.2,0,0.7,0.1,1.1c0.1,0.4,0.1,0.7,0.2,0.9c0.1,0.5,0.3,0.8,0.4,1.1l0.9,2.4l2.9,0.4
			c0.3,0,0.8,0.1,1.4,0.1c0.6,0,1.3,0,1.9,0c0.6-0.1,1.1-0.1,1.5-0.2l1.2-0.2c0,0-0.8,0.1-1.6,0.2c-0.5,0.1-1,0.1-1.4,0.1
			c-0.4,0-0.8,0-0.8,0c0.2-0.1,1-0.2,1.8-0.3c0.4-0.1,0.8-0.2,1.2-0.2c0.3-0.1,0.7-0.1,1.1-0.2c-0.1-0.1-0.4-0.1-0.9,0
			c-0.5,0.1-1,0.1-1.6,0.2c-0.6,0.1-1.4,0.1-1.9,0.1c-0.5,0-0.8-0.1-0.7-0.2c0.9,0.1,1.8,0,2.5-0.1c0.3,0,0.6-0.1,0.9-0.1
			c0.2,0,0.4-0.1,0.6-0.1c0.8-0.1,1.5-0.2,2.2-0.3c0.7-0.1,1.4-0.1,2.2-0.2c0.9-0.1,1.7-0.1,3.3-0.6c0.2-0.2-0.7-0.2-1.3-0.3
			c-0.3-0.1-0.4-0.2-0.1-0.4c0.3-0.2,0.9-0.5,1.9-0.9c-0.1,0.7,3.5-0.4,1,1.2c3.2-1.7,2.7-0.5,5.1-2.3c-0.3,0.2-0.8,0.3-1.3,0.5
			c-1,0,1.2-0.9,2.1-1.4c0.5-0.1,1.3-0.3,1.2-0.1c0.1,0,0,0.1,0.2,0.1c0.2,0,0.4,0,0.7-0.1c0.1,0,0.2,0,0.4-0.1
			c0.2,0,0.4-0.1,0.7-0.2c0.5-0.1,0.9-0.3,1.4-0.6c0.3-0.2,0.7-0.4,1.1-0.6c0,0,1.2-0.9,2.3-1.8c1.2-0.9,2.3-2,2.3-2
			c0.3-0.1,0.1,0.2,0.1,0.2c1.1-1,2.3-2,3.5-3.5c1.1-1.4,2-2.8,2.7-4.3c1.4-2.9,2-5.7,2.1-7.9c-0.1-0.3-0.2-0.9-0.3-1
			C76,260.4,75.9,260.8,75.7,262.4z M33,241.5c0.1,0.6,0.2,1.4,0.2,2.2c-0.4,0.1-0.7,0.2-0.9,0.3c0.1-1.4,0.2-2.7,0.3-2.8
			c0.1-0.2,0.3-0.4,0.5-0.7C33.2,240.7,33.1,241,33,241.5z M34.1,246.4l0.8,0l-0.2,0.1l-0.7,0.3c0.1,0,0.2,0,0.3,0
			c0,0-0.1,0.1-0.1,0.1l0.1-0.1l0,0c0.7-0.1,1.4-0.3,2.1-0.6l0,0.3c-0.2,0.1-0.4,0.2-0.7,0.3c-0.1,0-0.1,0-0.2,0
			c-0.1,0-0.1,0.1-0.1,0.1c-0.4,0.2-0.8,0.3-1.2,0.5l-0.7-0.1l0.7,0.1c-0.9,0.4-1.7,0.7-2,0.8c-0.2-0.3-0.4-0.5-0.4-1
			c0-0.2,0-0.4,0.1-0.8l0.8,0c0,0-0.1,0.1-0.1,0.1C32.5,247,33.2,246.8,34.1,246.4z M35,246.4l0.1,0l-0.3,0.1c0,0,0.1,0,0.1,0
			C34.9,246.4,34.9,246.4,35,246.4z M37.4,245c0.1,0,0.2-0.1,0.3-0.1c0.1,0,0.2,0,0.3,0c0.1,0,0.1,0.1,0.1,0.2
			c0,0.1-0.1,0.1-0.2,0.2c0,0-0.1,0.1-0.1,0.1l-0.1,0l-0.9,0.4c0-0.2,0-0.4,0-0.5C37,245.1,37.2,245,37.4,245z M37.7,245.6l0.2-0.1
			c0.1,0,0.2-0.1,0.2-0.1c1.3-0.5,2.5-0.9,3.1-0.6c-1.2,0.3-2.2,0.7-3.2,0.9c-0.1,0-0.6,0.3-1.4,0.6c0-0.1,0-0.2,0-0.3
			C37,246,37.4,245.8,37.7,245.6z M19.3,267.4C19.3,267.4,19.3,267.4,19.3,267.4C19.3,267.4,19.3,267.4,19.3,267.4
			C19.3,267.4,19.2,267.4,19.3,267.4C19.3,267.4,19.3,267.4,19.3,267.4c-0.1-0.1-0.1-0.1-0.1-0.1c0,0,0,0,0.1,0
			c0.4-0.1,0.3,0.1,0.9-0.1c0.1-0.2-1.7,0-0.7-0.3c0.3,0,0.9,0,1.5,0.1c0,0.1,0,0.2,0,0.3l0,0C21,267.3,19.6,267.4,19.3,267.4
			C19.3,267.4,19.3,267.4,19.3,267.4z M18.3,266.3c0,0,0.1,0,0.1-0.1L18.3,266.3C18.3,266.3,18.3,266.3,18.3,266.3z M18.4,266.4
			c0.4-0.2,0.4-0.3,0.7-0.5c0.4-0.2,0.5-0.2,0.5-0.2c0,0,0,0,0,0c0,0-0.1,0.1-0.2,0.1c-0.1,0-0.2,0-0.1,0c-0.6,0.4,0,0.3-0.6,0.6
			c0.2-0.1,0.8-0.3,0.9-0.3c-0.5,0.2-0.5,0.2-0.8,0.4c0.2,0,0.7-0.2,1.2-0.4c0.2,0,0.1-0.2,0.6-0.2c0,0-0.4,0-0.4,0v-0.1
			c0,0,0.3,0,0.3-0.1c0.1,0.1-0.2,0.2,0,0.3c-0.3,0-0.6,0.1-0.4,0l-0.9,0.2c0.3,0,1.1-0.2,1.1-0.2c0,0,0,0,0,0.1l-0.3,0.1
			c0.1,0,0.3,0,0.3,0.1c0,0.1,0,0.3,0,0.4c0,0,0,0-0.5,0.1l0.9-0.2c-0.6,0.1-0.9,0.2-1.2,0.1c0.2-0.1,0.7-0.2,1-0.2
			c-0.7,0.1-0.5-0.1-1.5,0.1c-0.1,0-0.2,0.1-0.2,0.1C18.5,266.7,18.4,266.6,18.4,266.4C18.5,266.3,18.6,266.3,18.4,266.4z M19.8,266
			l0.2-0.1c0.1,0.1,0.7-0.2,1-0.3c0,0,0,0.1,0,0.1c-0.1,0.1-0.5,0.2-0.7,0.3C19.9,266.1,19.8,266,19.8,266z M18.9,265.1
			C18.9,265.1,18.9,265.1,18.9,265.1c0.1-0.2,0.3-0.3,0.3-0.4c0.2-0.1,0.4-0.3,0.5-0.3l-0.6,0.5C19.4,264.6,19.4,264.6,18.9,265.1z
			 M19.3,264.6L19.3,264.6C19.3,264.6,19.3,264.6,19.3,264.6C19.3,264.6,19.3,264.6,19.3,264.6C19.3,264.6,19.3,264.6,19.3,264.6z
			 M19,264.8c-0.1,0.1-0.3,0.3-0.4,0.4c-0.1,0.1-0.3,0.2-0.4,0.3c0,0,0-0.1,0.1-0.1c0,0,0.1-0.1,0.1-0.1c0,0,0.1-0.1,0.2-0.1
			l0.1-0.1c0.1-0.1,0.2-0.2,0.2-0.2C18.9,264.8,19,264.8,19,264.8z M18.2,265.5c0,0,0.1-0.1,0.1-0.1c0.1-0.1,0.2-0.1,0.2-0.2
			c0.1-0.1,0.2-0.1,0.3-0.2c-0.1,0.1-0.3,0.3-0.4,0.4c-0.1,0.1-0.2,0.1-0.2,0.2c0,0,0,0,0,0C18.2,265.6,18.2,265.5,18.2,265.5z
			 M20.4,265.4l-0.2,0.2c1.1-0.6-0.3,0,0.7-0.6c0,0.1,0,0.1,0,0.2c0,0,0,0,0,0c0,0,0,0,0,0c0,0.1,0,0.2,0,0.3
			c-0.7,0.3-1.1,0.4-1.1,0.3c-0.1,0-0.1,0.1-0.1,0.1c0,0,0,0-0.1,0C20.3,265.6,19.4,265.8,20.4,265.4z M17,256.4L17,256.4
			C17,256.4,17,256.4,17,256.4L17,256.4C17,256.4,17,256.4,17,256.4C17,256.4,17,256.4,17,256.4C17,256.4,17,256.4,17,256.4
			C17,256.4,17,256.4,17,256.4C17,256.4,17,256.4,17,256.4C17,256.3,17,256.3,17,256.4C17,256.3,17,256.3,17,256.4
			C17,256.3,17,256.3,17,256.4C17,256.4,17,256.4,17,256.4L17,256.4C17,256.4,17,256.4,17,256.4L17,256.4
			C17,256.4,17,256.4,17,256.4C17,256.4,17,256.4,17,256.4C17,256.3,17,256.3,17,256.4C17,256.3,17,256.3,17,256.4L17,256.4
			C17,256.3,17,256.3,17,256.4C17,256.3,17,256.3,17,256.4C17.1,256.3,17.1,256.3,17,256.4C17.1,256.3,17.1,256.3,17,256.4
			C17.1,256.3,17,256.3,17,256.4C17,256.3,17,256.3,17,256.4C17,256.3,17,256.3,17,256.4C17,256.3,17,256.3,17,256.4
			C17,256.3,17,256.3,17,256.4c0-0.1,0-0.1,0-0.2c0,0,0,0,0,0c0,0,0-0.1,0-0.1c0,0,0,0,0,0c0,0,0,0.1,0,0.1c0,0,0,0,0,0l0,0.1
			C17,256.3,17.1,256.3,17,256.4C17.1,256.3,17.1,256.3,17,256.4C17.1,256.3,17.1,256.3,17,256.4C17.1,256.3,17.1,256.3,17,256.4
			C17.1,256.3,17.1,256.3,17,256.4C17.1,256.3,17.1,256.3,17,256.4C17.1,256.3,17.1,256.3,17,256.4C17.1,256.3,17.1,256.3,17,256.4
			C17.1,256.3,17.1,256.3,17,256.4C17.1,256.3,17.1,256.3,17,256.4C17.1,256.3,17.1,256.3,17,256.4C17.1,256.3,17.1,256.3,17,256.4
			C17.1,256.3,17.1,256.3,17,256.4C17.1,256.3,17.1,256.3,17,256.4L17,256.4C17.1,256.3,17.1,256.3,17,256.4
			C17.1,256.3,17.1,256.3,17,256.4C17.1,256.4,17.1,256.4,17,256.4L17,256.4C17.1,256.4,17.1,256.4,17,256.4
			C17.1,256.4,17.1,256.4,17,256.4C17,256.4,17,256.4,17,256.4L17,256.4C17,256.4,17,256.4,17,256.4C17,256.4,17,256.4,17,256.4
			C17,256.4,17,256.4,17,256.4z M21.6,254.3L21.6,254.3C21.7,254.3,21.7,254.3,21.6,254.3C21.6,254.3,21.6,254.3,21.6,254.3z
			 M19.5,254.2c0,0-0.1,0.1-0.1,0.1l0,0C19.5,254.3,19.5,254.3,19.5,254.2L19.5,254.2z M19.4,254.4L19.4,254.4
			C19.4,254.4,19.4,254.4,19.4,254.4C19.4,254.4,19.4,254.4,19.4,254.4C19.4,254.4,19.4,254.4,19.4,254.4z M19.4,254.5
			C19.4,254.5,19.4,254.5,19.4,254.5L19.4,254.5L19.4,254.5L19.4,254.5z M19.5,254.5L19.5,254.5L19.5,254.5l0.1-0.1c0,0,0,0,0,0
			L19.5,254.5z M20.4,253.5C20.4,253.5,20.4,253.5,20.4,253.5L20.4,253.5C20.4,253.5,20.4,253.4,20.4,253.5z M20,253.8L20,253.8
			c0.1-0.1,0.1-0.1,0.2-0.2C20.1,253.7,20.1,253.7,20,253.8z M19.3,254.4C19.3,254.4,19.3,254.4,19.3,254.4L19.3,254.4
			C19.3,254.4,19.3,254.4,19.3,254.4C19.3,254.4,19.3,254.4,19.3,254.4z M18.1,255.5c0.1-0.1,0.2-0.2,0.3-0.2
			C18.2,255.5,17.8,255.8,18.1,255.5z M18.1,255.5c0.1-0.1,0.1-0.1,0.2-0.2C18.2,255.4,18.2,255.5,18.1,255.5z M20.8,252.8
			c0,0.1,0,0.1,0,0.1c0.4,0.2,0.3,0,0.3-0.1L20.8,252.8C20.8,252.7,20.8,252.7,20.8,252.8c0.1-0.1,0.2-0.2,0.4-0.2
			c0,0,0.1,0.1,0.3,0.3c0.1,0.1-0.1-0.3,0.1-0.2c-0.1,0-0.2-0.1-0.3-0.1c0.1-0.1,0.2-0.1,0.3-0.2l0.1,0.1c0,0,0-0.1-0.1-0.1
			c0,0,0,0,0.1,0l0,0.3c0,0,0,0,0,0c0,0,0,0,0,0l0.1,1.2c-0.2-0.1-0.4,0-0.6-0.1c-1.2-1,0.8,0.3-0.1-0.5c-0.6-0.5-0.1,0.2-0.6-0.2
			C20.5,252.9,20.7,252.8,20.8,252.8z M17.6,256.2L17.6,256.2c-0.1,0-0.1-0.1-0.1-0.1c0,0,0,0,0,0c0,0,0,0,0,0c0,0,0,0,0,0
			C17.5,256.1,17.5,256.1,17.6,256.2z M17.6,256.2L17.6,256.2C17.5,256.2,17.5,256.2,17.6,256.2L17.6,256.2
			C17.6,256.2,17.6,256.2,17.6,256.2z M17.1,256.3C17.1,256.3,17.1,256.2,17.1,256.3L17.1,256.3C17.1,256.2,17.1,256.2,17.1,256.3
			C17.1,256.3,17.1,256.3,17.1,256.3C17.1,256.3,17.1,256.3,17.1,256.3z M17,256.2C17,256.2,17,256.2,17,256.2
			c0.1,0.1,0.1,0.1,0.1,0.1C17,256.3,17,256.2,17,256.2C16.9,256.2,17,256.2,17,256.2z M17.1,256.3
			C17.1,256.3,17.1,256.3,17.1,256.3C17.1,256.3,17.1,256.3,17.1,256.3C17.1,256.3,17.1,256.3,17.1,256.3
			C17.1,256.3,17.1,256.3,17.1,256.3C17.1,256.3,17.1,256.3,17.1,256.3C17.2,256.3,17.2,256.3,17.1,256.3
			C17.1,256.3,17.1,256.3,17.1,256.3C17.1,256.3,17.1,256.3,17.1,256.3C17.2,256.3,17.2,256.3,17.1,256.3l0.2,0.1c0,0,0,0,0,0
			C17.2,256.4,17.2,256.3,17.1,256.3C17.1,256.3,17.1,256.3,17.1,256.3z M17.2,256.4C17.2,256.4,17.2,256.4,17.2,256.4
			C17.2,256.4,17.2,256.4,17.2,256.4L17.2,256.4z M17.4,256.2c0,0.1-0.1,0.1-0.1,0.1c0,0,0,0,0,0L17.4,256.2
			C17.3,256.2,17.3,256.2,17.4,256.2C17.3,256.2,17.3,256.2,17.4,256.2L17.4,256.2L17.4,256.2C17.3,256.2,17.3,256.2,17.4,256.2
			C17.3,256.2,17.3,256.2,17.4,256.2L17.4,256.2z M17.3,256.2C17.3,256.2,17.3,256.2,17.3,256.2L17.3,256.2
			C17.3,256.2,17.3,256.2,17.3,256.2z M17.3,256.2L17.3,256.2L17.3,256.2C17.3,256.2,17.3,256.2,17.3,256.2z M17.1,256.1
			C17.1,256.1,17,256.1,17.1,256.1c0-0.1,0-0.1,0-0.1L17.1,256.1z M17.1,256.4C17.1,256.4,17.1,256.4,17.1,256.4
			C17.1,256.3,17.1,256.3,17.1,256.4C17.1,256.3,17.1,256.3,17.1,256.4C17.1,256.3,17.1,256.3,17.1,256.4z M17.4,256.1
			C17.4,256.1,17.4,256,17.4,256.1C17.4,256,17.4,256.1,17.4,256.1C17.4,256.1,17.4,256.1,17.4,256.1z M16.9,256.2
			c0,0,0.1,0.1,0.1,0.1c0,0,0,0,0,0c0,0-0.1,0-0.1,0c0,0,0,0,0,0c0,0,0,0,0,0c0,0-0.1,0-0.1,0C16.9,256.3,16.9,256.3,16.9,256.2z
			 M16.9,256.4C16.9,256.4,16.9,256.4,16.9,256.4C16.9,256.4,16.9,256.4,16.9,256.4C16.9,256.4,16.9,256.4,16.9,256.4
			C16.9,256.4,16.9,256.4,16.9,256.4C16.9,256.4,16.9,256.4,16.9,256.4C16.9,256.4,16.9,256.4,16.9,256.4
			C16.9,256.4,16.9,256.4,16.9,256.4C16.9,256.4,16.9,256.4,16.9,256.4C16.9,256.4,16.9,256.4,16.9,256.4
			C16.9,256.4,16.9,256.4,16.9,256.4C16.9,256.4,16.9,256.4,16.9,256.4z M16.9,256.4L16.9,256.4C16.9,256.4,16.9,256.4,16.9,256.4
			L16.9,256.4z M17.1,256.4C17.1,256.4,17.1,256.5,17.1,256.4C17.1,256.5,17.1,256.5,17.1,256.4C17.1,256.5,17.1,256.4,17.1,256.4
			C17.1,256.4,17.1,256.4,17.1,256.4z M17.3,256.6C17.3,256.6,17.3,256.6,17.3,256.6C17.3,256.6,17.3,256.6,17.3,256.6L17.3,256.6
			C17.3,256.5,17.3,256.5,17.3,256.6z M17.6,256.2C17.6,256.2,17.6,256.2,17.6,256.2c0.1,0.1,0.1,0.1,0,0.1
			C17.6,256.3,17.6,256.2,17.6,256.2L17.6,256.2z M17.9,256c0,0.1-0.1,0.2-0.2,0.1l0.3-0.3l0,0l-0.3,0.3c0,0,0,0,0,0l0.3-0.3l0,0
			l-0.3,0.3c0,0-0.1,0-0.1-0.1c0,0,0,0,0,0c0,0,0,0,0,0c0.1,0,0.2-0.1,0.3-0.2c-0.1,0.1-0.2,0.2-0.3,0.2c0,0-0.1,0-0.1,0
			c0-0.2,0-0.4,0.1-0.5l0.3,0.3c0,0,0,0,0,0c0,0,0,0,0,0l0.1,0.1l0.6-0.6c0,0,0,0,0,0l-0.7,0.6l0,0l0.7-0.6c0.1,0,0.1-0.1,0.2-0.1
			l-0.8,0.7c0.1,0,0.2,0.1,0.4,0.2c0,0-0.1,0-0.1,0.1c0,0-0.1,0-0.1,0c-0.1,0-0.1,0.1-0.2,0.1c0,0,0,0,0,0c0,0,0,0,0,0
			c-0.1,0-0.1,0.1-0.2,0.1C18,256.2,17.9,256.1,17.9,256z M17.1,256.4C17.1,256.4,17.1,256.5,17.1,256.4
			C17.1,256.5,17.1,256.5,17.1,256.4C17.1,256.5,17.1,256.4,17.1,256.4C17.1,256.4,17.1,256.4,17.1,256.4z M17.3,256.6
			C17.4,256.6,17.4,256.6,17.3,256.6L17.3,256.6C17.4,256.5,17.4,256.5,17.3,256.6C17.4,256.5,17.4,256.5,17.3,256.6
			c0.1-0.1,0.1-0.1,0.1-0.1c0,0,0,0,0,0c0,0,0,0,0,0l0,0c0,0,0.1,0,0.1,0c0,0,0,0-0.1,0l0,0c0,0,0.1,0,0.1,0c0,0,0,0,0,0
			c0,0-0.1,0-0.1,0l0,0c0,0,0,0,0.1,0c0,0,0,0-0.1,0l0.1-0.1l0,0c0,0,0,0,0,0l0,0c0,0,0,0.1,0,0.1c0,0,0,0-0.1,0c0,0,0,0,0,0
			c0,0,0,0,0,0c0,0,0,0,0,0c0,0,0,0,0,0c0,0,0,0,0,0c0,0,0,0,0,0c0,0-0.1,0-0.1,0c0,0,0.1,0,0.1,0c0,0,0,0,0,0
			C17.5,256.6,17.4,256.6,17.3,256.6L17.3,256.6L17.3,256.6z M16.9,256.4C16.9,256.4,16.9,256.4,16.9,256.4
			C16.9,256.4,16.9,256.4,16.9,256.4C16.9,256.4,16.9,256.4,16.9,256.4C16.9,256.4,16.9,256.4,16.9,256.4c0.1-0.1,0.1-0.1,0.1-0.1
			c0,0,0.1,0,0.1,0c0,0,0,0,0,0.1c0,0-0.1,0.1-0.1,0.1C16.9,256.5,16.9,256.5,16.9,256.4z M18.7,266.9c0.1,0,0.2,0,0.4-0.1
			c0.4-0.1,0.8-0.1,0.4,0c-0.1,0-0.1,0-0.2,0c-0.1,0-0.1,0-0.2,0c-0.1,0-0.1,0-0.2,0C18.9,266.9,18.8,267,18.7,266.9
			C18.8,266.9,18.7,266.9,18.7,266.9z M20.9,267.9C20.8,267.9,20.9,267.9,20.9,267.9C20.9,267.9,20.9,267.9,20.9,267.9
			C20.9,267.9,20.9,267.9,20.9,267.9z M18.5,265.9c-0.1,0.1-0.2,0.2-0.3,0.2c0,0,0,0,0-0.1C18.3,266,18.4,265.9,18.5,265.9z
			 M19.4,267.5L19.4,267.5C19.4,267.5,19.4,267.5,19.4,267.5c0.2-0.1,0.3-0.1,0.5-0.1c0.3,0,0.4,0,0.3,0L19.4,267.5
			c0.1,0,0.1,0,0.2,0c0.1,0,0.2,0,0.3,0c0.2,0,0.2,0,0.1,0.1l-0.2,0c0.2,0.1,0.4,0.1,0.4,0.2c0.1,0.1,0.1,0.1,0.2,0.2
			c0.1,0.1,0.2,0.2,0.2,0.3C20.2,268.1,19.8,267.8,19.4,267.5L19.4,267.5C19.4,267.5,19.4,267.5,19.4,267.5z M20.7,268.2
			C20.7,268.2,20.7,268.2,20.7,268.2C20.7,268.2,20.7,268.2,20.7,268.2C20.7,268.2,20.7,268.2,20.7,268.2z M37.6,285L37,285
			l-0.3-0.5C36.9,284.7,37.2,284.8,37.6,285z M36.6,244.1c0.1,0,0.2-0.1,0.4-0.1l0.3-0.1c0.1,0,0.2-0.1,0.3-0.1
			c0.7-0.2,1.4-0.3,2-0.5c0.6-0.1,1.1-0.2,1.5-0.3c-0.9,0.9-2,1.2-3.3,1.4c-0.1,0-0.2,0-0.3,0.1l-0.3,0.1c-0.2,0.1-0.4,0.1-0.6,0.2
			C36.7,244.5,36.7,244.3,36.6,244.1z M36.5,245.9l-1.3,0.5l0,0l0,0l0,0c0,0,0,0,0,0l-0.8,0c0.7-0.3,1.5-0.7,2.2-1L36.5,245.9z
			 M32.9,246.4l-0.8,0c0-0.6,0.1-1.3,0.2-2.1c0.3-0.2,0.7-0.3,0.9-0.5c0,0.1,0,0.2,0,0.3c0,0.7,0,1.5,0,2.1
			C33.1,246.3,33,246.3,32.9,246.4z M0.5,268.4c0-0.3,0.1-0.6,0.1-0.8c0,0.7,0.1,1.5,0.3,2.5C0.4,269.7,0.4,269,0.5,268.4z
			 M16.3,267.4L16.3,267.4C16.4,267.3,16.4,267.3,16.3,267.4L16.3,267.4z M35.8,258.3C35.8,258.3,35.8,258.3,35.8,258.3
			C35.8,258.3,35.8,258.3,35.8,258.3z M42.5,256.5c0.5-0.2,0.9-0.3,1.4-0.5l0.1,0.2L42.5,256.5z"/>
		<path class="st1" d="M36.9,258.2c0,0,0.1,0.1,0.1,0.1c0,0,0,0,0,0C37,258.3,37,258.3,36.9,258.2z"/>
		<path class="st1" d="M5.5,259.4l0-0.2C5.5,259.4,5.5,259.4,5.5,259.4z"/>
	</g>
	<g>
		<path class="st1" d="M65.4,193.7C65.4,193.7,65.4,193.6,65.4,193.7C65.4,193.6,65.4,193.6,65.4,193.7
			C65.4,193.6,65.4,193.6,65.4,193.7z"/>
		<path class="st1" d="M61.6,193.2c0,0-0.1,0.1-0.1,0.1C61.6,193.3,61.7,193.3,61.6,193.2z"/>
		<path class="st1" d="M63.4,187.8c-0.2,0-0.4,0-0.7,0.1l0,0c0.1,0,0.3,0,0.4-0.1C63.2,187.9,63.3,187.9,63.4,187.8z"/>
		<path class="st1" d="M63.7,187.3l0.2-0.2C64.1,187.1,63.6,187.2,63.7,187.3z"/>
		<path class="st1" d="M60.7,189.2c0-0.1,0.1-0.2,0.2-0.3c0.3-0.4,0.5-0.5,0.6-0.6c0.1-0.1,0.2-0.2,0.2-0.2c0,0-0.5-0.3-0.5-0.2
			c-0.4,0.2-0.7,0.6-0.8,0.8c-0.1,0.2,0,0.2,0.1,0.2C60.6,189,60.7,189,60.7,189.2L60.7,189.2z"/>
		<path class="st1" d="M60.4,190.3c0,0.1,0,0.1,0,0.1c0-0.2,0-0.1,0-0.3c0-0.1,0-0.3,0.1-0.4c0.1-0.2,0.1-0.3,0.1-0.5
			c-0.2,0.3-0.2,0.7-0.2,0.9C60.4,190.3,60.4,190.3,60.4,190.3z"/>
		<path class="st1" d="M67.9,169.2c-0.1-0.2-0.6-0.2-0.8-0.5C67.3,168.9,67.5,169.6,67.9,169.2z"/>
		<path class="st1" d="M69.1,167.4L69.1,167.4c0,0.1,0.1,0.1,0.1,0.1C69.2,167.4,69.2,167.4,69.1,167.4z"/>
		<path class="st1" d="M68.9,167.7l0.2-0.2C68.9,167.5,68.9,167.5,68.9,167.7z"/>
		<path class="st1" d="M70.2,168.3l-0.6-0.5c0.2-0.3,0.3-0.4,0.7-0.1c0-0.2-0.5-0.3-0.7-0.4l0.1,0.1c-0.1,0-0.3,0-0.5,0
			C69.7,167.9,69.6,168.9,70.2,168.3z"/>
		<path class="st1" d="M70.8,168.8c0.2,0.1,0.5,0.1,0.5,0.1c-0.2-0.2-0.8-0.8-1-0.2C70.3,168.7,70.6,168.7,70.8,168.8z"/>
		<path class="st1" d="M70.8,169.8c0.1,0.1,0.2,0.2,0.3,0.2c-0.1-0.5,0.3,0.1,0.5,0.1C71.4,169.3,71.2,170,70.8,169.8z"/>
		<path class="st1" d="M63.9,167.4l-0.1,0.2C63.9,167.5,63.9,167.5,63.9,167.4z"/>
		<path class="st1" d="M72,171.2L72,171.2c0.1,0.1,0.1,0.1,0.2,0.2L72,171.2z"/>
		<path class="st1" d="M58.7,168.4L58.7,168.4L58.7,168.4C58.7,168.5,58.7,168.5,58.7,168.4C58.7,168.5,58.7,168.5,58.7,168.4
			C58.7,168.5,58.7,168.4,58.7,168.4z"/>
		<path class="st1" d="M58.6,169.3c0-0.1,0-0.1,0-0.2c0,0.1-0.1,0.2-0.1,0.3L58.6,169.3z"/>
		<path class="st1" d="M58.7,168.6C58.7,168.6,58.7,168.6,58.7,168.6C58.7,168.6,58.7,168.6,58.7,168.6
			C58.7,168.6,58.7,168.6,58.7,168.6c0,0.1,0,0.1,0,0.1c0,0,0,0.1,0,0.1C58.7,168.8,58.7,168.7,58.7,168.6
			C58.7,168.6,58.7,168.6,58.7,168.6C58.7,168.6,58.7,168.6,58.7,168.6C58.7,168.6,58.7,168.6,58.7,168.6
			C58.7,168.6,58.7,168.6,58.7,168.6z"/>
		<path class="st1" d="M81,187.5l-0.2,0.7c-0.1-0.1-0.1-0.4,0-0.7c-0.3,0.1-0.2,0.9-0.5,0.9c0.1-0.6,0.2-0.8,0.3-1.1
			c0.2-0.2,0.3-1,0.3-1.7c-0.1-0.1-0.3,0.2-0.5,0.3c-0.2,0.2-0.4,0.1-0.6-0.4c0.5,0,0.5-0.9,1.1-0.4c-0.5-0.8,0.2-0.7-0.5-1.2
			c0,0.1,0.1,0.2,0.1,0.3c-0.2,0.3-0.4-0.2-0.5-0.4c0.2-0.4,0.5-0.7,0.4-1.3l-0.7-1c0.1-0.1,0.2-0.1,0.2-0.1c-0.6-1-0.7-2.2-1.3-2.9
			c-0.2,0-0.6-0.2-0.4,0.4c-0.6-0.3-0.5-1-0.5-1.5l0.6,0.2c-0.7-1.2-0.9-3.1-2.1-4l-0.2,0.4c-0.2-0.3-0.4-0.5-0.6-0.8
			c-0.2-0.4-0.6-0.9-0.8-1.1c-0.4-0.5-0.7-0.8-1-0.9c0.2,1-0.7-0.1-1-0.2c0.4,0.7,1.8,1.3,1.7,1.5l0-0.1c-0.1,0,0.5,0.4,1,0.9
			c0.4,0.4,0.6,0.6,0.7,0.7l-0.5,0.3c1.1-0.5,0.7,2.2,1.5,1.4c0.3,0.4-0.1,0.8-0.3,0.9l0.9,1c-0.1,0.2-0.7,0.2-0.8,0.1
			c-0.2-0.5-1-1-0.7-1.6c-0.5-0.2-0.3,0.6-0.9-0.1c-0.1-0.4-0.2-0.8-0.4-1.2c-0.1-0.2-0.2-0.4-0.3-0.5c-0.1-0.2-0.3-0.5-0.5-0.7
			c-0.2-0.2-0.4-0.4-0.5-0.5c-0.1-0.1-0.3-0.3-0.4-0.4c-0.2-0.3-0.4-0.5-0.5-0.8c0,0.3,0.2,0.5-0.2,0.5l-0.2-0.8
			c-0.5-0.3-1.2-0.1-1.1-0.5c-0.1,0.1-0.1,0.2,0,0.5c0.2,0.3,0.4,0.6,0.4,0.8c-0.6,0.2-0.7-0.1-0.8-0.4c-0.1-0.4,0-0.6-0.6-0.6
			c-0.4,0.1,0,0.4,0.2,0.6c0.2,0.2,0.5,0.4,0,0.6c0,0-0.1-0.2-0.2-0.3c-0.1-0.2-0.2-0.3-0.2-0.3c-0.3,0.9,1,0.7,0.6,1.4
			c-0.3-0.3-0.6-0.6-0.8-0.8c0,0,0,0,0,0c0,0,0,0,0,0c-0.1-0.1-0.1-0.1-0.2-0.2c-0.5-0.6-0.9-0.9-1.5-1.4c0.4-0.4,1.3-0.1,1.5,0.3
			c0-0.5-0.6-0.9-0.9-1l0.4,0.6c-0.6-0.4-0.9,0-1.4-0.1c-0.2-0.2-0.5-0.3-0.8-0.6c-0.1-0.2,0.4-0.4,0.4-0.7c-1-0.2-0.3-0.2-0.6,0.4
			c-0.7-0.3-0.7-0.7-1.5-1.2c0.6,0.1,0.9,0,1.3,0.4l0.1-0.5c-0.7-0.2-1.3-0.1-2.1-0.1c-0.1-0.1-0.2-0.2-0.4-0.2l0.1-0.2
			c-0.1,0-0.5-0.2-1.1-0.5c-0.1,0-0.2-0.1-0.2-0.1c-0.5-0.2-1-0.3-1.4-0.5c-0.1-0.2-0.2-0.5-0.3-0.7c-0.1-0.2-0.1-0.4-0.2-0.3
			c-0.3,0.2-0.6,0.4-0.9,0.6c-0.4-0.1-1-0.2-1.2-0.2c-0.9,0-1.3,0.7-1.3,1c0,0,0,0,0,0c0,0,0,0,0,0c0,0.3,0.7,0.6,1.3,1.2
			c0,0,0.1-0.2,0.1-0.2c0,0,0.1,0,0.1,0c0,0,0,0.2,0,0.2c0,0,0.3,0.6,0.3,0.6c0,0,0.3,0.9,0.3,0.9v0.3l0,0v-0.2c0,0-0.3-0.6-0.3-0.6
			c0,0,0.1-0.3,0.1-0.3c0,0,0.1-0.2,0.1-0.2c0,0,0,0,0,0c0-0.1,0-0.1,0-0.2c0,0,0,0,0,0V168h-0.5c0,0,0,0.2,0,0.2c0,0,0,0.1,0,0.1
			c0.6,0.6,1.3,1.3,1.5,1.6l0.2,0.4c0,0.1,0,0.1,0.1,0.2c0,0,0.1,0,0.1,0.1l1.6,2.4c0,0,0,0,0,0c0,0,0.1,0.1,0.1,0.1l0.8,1.2
			c1.6,2.4,2.3,5.4,2.6,7.8c0,0-0.1,0-0.1,0l0.1,0c0,0.1,0,0.3,0,0.4c-0.5,0-1.2-0.2-1.1,0.4c0.2-0.6,1.2-0.2,1.1,0.2c0,0,0,0,0,0
			c0,0.1,0,0.2,0,0.3c-0.3-0.3-0.6,0.2-0.5,0.5c0-0.4,0.2-0.6,0.5-0.5c0,0.2,0,0.3,0,0.5c0,0-0.1-0.1-0.2-0.1
			c-0.3,0-0.4,0.3-0.5,0.6l-0.2,0.5c-0.1,0.2-0.1,0.3-0.2,0.4c0.1,0.3,0.3,0.3,0.6,0.5c-0.3,0-0.4,0.3-0.8,0.3
			c0.2,0.4,0,0.6-0.2,0.7c-0.2,0.1-0.5,0.2-0.5,0.5c-0.1,0-0.1-0.1-0.1-0.1l0,0l0.1,0c0,0.2-0.2,0.3-0.4,0.4c0.1,0,0.1,0,0.2,0
			c0.1,0,0.2,0,0.2,0c-0.3,0.1-0.6,0.2-0.9,0.3l-0.2-0.2c-0.3,0-0.6,0.1-0.8,0.1c0.3,0,0.6,0.1,0.6,0.3c-0.1,0-0.1,0.1-0.2,0.1
			c0,0-0.1,0-0.1-0.1c-0.1-0.1-0.3-0.1-0.3-0.1s-0.1,0.3-0.3,0.7c0,0,0,0,0,0c-0.7,0.6-1.1,1.4-0.7,2.6c0.1,0.4,0.3,0.7,0.6,1
			c-0.2-0.1-0.4-0.3-0.6-0.4c-0.3-0.3-0.4-0.4-0.5-0.5c0,0.1,0,0.3,0.1,0.6c0.2,0.3,0.4,0.6,0.7,0.8c0.2,0.2,0.4,0.3,0.5,0.3
			c0.2-0.2,0.4-0.2,0.6-0.2c0.8,0.4,1.7,0.5,2.7,0.6c0,0,0,0,0,0c0.1,0,0.1,0,0.2,0c0,0,0.1,0,0.1,0c0.1,0,0.1,0,0.2,0c0,0,0,0,0,0
			c0,0,0,0,0,0c0,0,0,0,0,0c0.1,0,0.2,0,0.3,0c0,0,0.1,0,0.1,0l-0.1,0c0,0,0.1,0,0.3,0c0.5,0.1,1,0.1,1.4,0.3
			c-0.3,0.3-1.3-0.2-1.4,0.5l0.6-0.1c-0.4,0.3,0.2,0.5-0.1,0.7c0,0,0,0,0.1,0c0.1,0.1,0.3,0.2,0.5,0.3c0.2,0.1,0.4,0.2,0.5,0.3
			c0.2,0.1,0.3,0.2,0.3,0.2l-0.2,0.4c0,0-0.3-0.6-0.3-0.5c-0.2,0.1-0.3,0.2-0.3,0.3c0,0.1,0.2,0.2,0.4,0.3c0.4,0.3,1.1,0.6,1.3,1
			l0.2-0.3c0.9,0.7,1.1,0.8,1.3,1c0.2,0.1,0.3,0.3,1.2,0.5c0,0,0.2-0.1,0.3-0.2c0.1-0.1,0.3-0.2,0.3-0.2c0-0.1-0.4,0.1-0.8,0.1
			c-0.4,0-0.9-0.1-0.8-0.4c1.2,0,2.8-0.1,3.8-1c0,0-0.1,0.3-0.3,0.6c-0.2,0.3-0.4,0.6-0.4,0.6c0.2-0.3,0.5-0.3,0.9-0.3
			c0.4,0,1,0,1.6-0.5c0,0-1.1,0.3-1.1,0.3c0.3-0.6,0.9-1,1.5-1.5c0.6-0.5,1.3-1.3,1.4-1.9c-0.2,0.2-0.4,0.5-0.6,0.4
			c0-0.2,0.1-0.4,0.3-0.6c0.1-0.2,0.4-0.3,0.5-0.5c0.2,0.2,0.2,0.4,0.2,0.6c0,0.1-0.1,0.2-0.1,0.4c-0.1,0.2-0.1,0.3-0.2,0.5
			c-0.4,0.7-0.9,1.3-0.5,1.5c0.7-0.6,1-1.6,1.1-2.1c0.1-0.5,0.1-1,0.4-1.2l0.2,0.7l0.1-0.5l-0.1,0.1c-0.3-0.4,0.4-0.5,0.5-1l0.3,0.5
			c0,0,0.1-0.2,0.2-0.4c0.1-0.2,0.3-0.5,0.3-0.5c0,0-0.2,0.1-0.2,0.1c0.3-0.9,0.6-2,0.7-2.8C80.7,188.6,80.8,188.1,81,187.5z
			 M65.9,184.1c0,0.2,0,0.3,0,0.5C65.5,184.5,65.8,184.3,65.9,184.1z M62.6,188.2l0.1,0.1c0,0-0.1,0-0.1,0.1
			C62.7,188.2,62.7,188.2,62.6,188.2z M69.5,195.4c-0.2,0.1-0.6,0.3-1,0.1l0.3-0.4l-0.6,0c-0.4-0.3-0.3-0.6-0.4-1c0,0,0,0,0-0.1
			c0.4,0.1,0.7,0.3,1,0.6c0.8,0.7,1.5,1.3,2.3,1.7c-0.1,0-0.2,0-0.4,0C70.2,196.2,69.7,196,69.5,195.4z M73,196.7c0.1,0,0.1,0,0.2,0
			C73.2,196.7,73.1,196.7,73,196.7C73.1,196.7,73,196.7,73,196.7z M75.5,195.6c0.2-0.1,0.4-0.3,0.6-0.5c-0.1,0.1-0.1,0.2-0.3,0.4
			C75.5,195.7,75.4,195.7,75.5,195.6z"/>
		<path class="st1" d="M58.7,168.7C58.7,168.7,58.7,168.7,58.7,168.7C58.7,168.7,58.7,168.7,58.7,168.7
			C58.7,168.7,58.7,168.7,58.7,168.7z"/>
		<path class="st1" d="M58.7,168.4C58.7,168.4,58.7,168.4,58.7,168.4L58.7,168.4C58.7,168.4,58.7,168.4,58.7,168.4
			C58.7,168.4,58.7,168.4,58.7,168.4z"/>
		<path class="st1" d="M58.6,169.1c0-0.1,0-0.1,0-0.2C58.7,168.9,58.6,169,58.6,169.1C58.6,169,58.6,169.1,58.6,169.1z"/>
		<path class="st1" d="M58.7,168.5C58.7,168.5,58.7,168.5,58.7,168.5C58.7,168.5,58.7,168.5,58.7,168.5
			C58.7,168.5,58.7,168.5,58.7,168.5z"/>
		<path class="st1" d="M37.7,193.7c0,0-0.8-0.3-0.8-0.3l0.3,0.7C37.2,194.1,37.7,193.7,37.7,193.7z"/>
		<path class="st1" d="M38.8,190.6c0,0.1,0,0.3,0,0.5l-0.1-0.1c0,0,0.1,0.6,0.2,1.4C38.9,191.5,39.5,191.7,38.8,190.6z"/>
		<path class="st1" d="M38.8,190.6C38.8,190.6,38.8,190.6,38.8,190.6C38.8,190.6,38.8,190.6,38.8,190.6
			C38.8,190.6,38.8,190.6,38.8,190.6z"/>
		<path class="st1" d="M38.9,190.2c0,0.1-0.1,0.3-0.1,0.4C39,190.7,38.9,190.5,38.9,190.2z"/>
		<path class="st1" d="M39.3,190.8c0-0.1-0.2,0.4,0,0.8c0.1,0-0.1-0.7,0.3-0.2C39.8,191.2,39.2,191.1,39.3,190.8z"/>
		<path class="st1" d="M39.3,189.4c0,0-0.1,0-0.1-0.1C39.2,189.3,39.2,189.4,39.3,189.4z"/>
		<path class="st1" d="M40.1,190.1C40.1,190.1,40.1,190.1,40.1,190.1c-0.1,0.1-0.1,0.1-0.1,0.2C40,190.3,40.1,190.3,40.1,190.1z"/>
		<path class="st1" d="M39.5,190.3c0,0,0.1,0.1,0.2,0.3c0.1,0.1,0.2,0.3,0.2,0.3c0-0.3,0-0.4,0.1-0.5
			C39.8,190.3,39.5,190,39.5,190.3z"/>
		<path class="st1" d="M40.1,190.1c0-0.1,0.1-0.2,0.1-0.4c0,0-0.2,0.3-0.2,0.3c-0.4-0.3,0.1-0.4-0.2-0.6c-0.2-0.1-0.3,0-0.5,0
			C39.9,189.8,39.1,189.7,40.1,190.1z"/>
		<path class="st1" d="M40.7,188L40.7,188c0.1-0.1,0.2-0.3,0.3-0.5C40.9,187.7,40.8,187.8,40.7,188z"/>
		<path class="st1" d="M40.9,186.9l0.1-0.3C41.1,186.5,40.7,186.8,40.9,186.9z"/>
		<path class="st1" d="M40.3,188.4c0.2-0.2,0.6-0.2,0.7,0.1l-0.6,0.1l0.5,0.8c-0.3-0.6,0.8-0.8-0.1-1.1l0.4-0.1l-0.5,0
			C40.6,188.2,40.4,188.3,40.3,188.4z"/>
		<path class="st1" d="M40.1,189l-0.1,0.3C40.2,189.1,40.2,189.1,40.1,189z"/>
		<path class="st1" d="M40.1,189l0.1-0.5l-0.5,0C39.4,188.9,40,188.8,40.1,189z"/>
		<path class="st1" d="M38.9,175.8c0.2-0.1,0-0.5,0.2-0.6C39,175.3,38.4,175.4,38.9,175.8z"/>
		<path class="st1" d="M40.7,176.7c0,0,0,0.1,0,0.1C40.8,176.8,40.8,176.8,40.7,176.7L40.7,176.7z"/>
		<path class="st1" d="M40.5,176.5l0.2,0.1C40.7,176.6,40.6,176.5,40.5,176.5z"/>
		<path class="st1" d="M40.3,177.4l0.2-0.4c0.3,0.2,0.5,0.3,0.3,0.5c0.2,0,0.1-0.3,0.1-0.5l-0.1,0.1c-0.1-0.1-0.1-0.2-0.1-0.4
			C40.6,177.1,39.6,177,40.3,177.4z"/>
		<path class="st1" d="M40.1,177.5l0.2,0.6C40.4,178,40.6,177.6,40.1,177.5z"/>
		<path class="st1" d="M39.5,178.5c0.5-0.3-0.1-0.3-0.1-0.6c0,0.1-0.1,0.1,0,0.3C39.7,177.9,39.5,178.3,39.5,178.5z"/>
		<path class="st1" d="M39.7,172.9l-0.2-0.1C39.6,172.8,39.6,172.9,39.7,172.9z"/>
		<path class="st1" d="M38.7,179L38.7,179c0,0.1-0.1,0.1-0.1,0.1L38.7,179z"/>
		<path class="st1" d="M30.3,194.3c-0.7,0.6-0.8,1.2-1.2,2.2C29.4,195.8,29.9,195,30.3,194.3z"/>
		<path class="st1" d="M30.3,194.2C30.3,194.2,30.3,194.2,30.3,194.2C30.3,194.3,30.3,194.3,30.3,194.2
			C30.3,194.3,30.3,194.3,30.3,194.2z"/>
		<path class="st1" d="M24.7,202.4c0,0.1,0,0.1,0,0.2C24.9,202.4,24.8,202.4,24.7,202.4z"/>
		<path class="st1" d="M23.6,202c0,0,0.4-0.2,0.8-0.5c0.4-0.3,0.7-0.6,0.7-0.6c0,0.4-0.4,0.8-0.9,1.1c-0.5,0.4-0.9,0.6-0.9,0.8
			c0.1,0.1,0.6-0.1,1-0.3c0.2-0.1,0.3-0.2,0.4-0.2c-0.1-0.4,0.4-0.8,0.7-1.2c0.3-0.4,0.5-0.7-0.2-0.7C24.7,201,24.3,201.4,23.6,202z
			"/>
		<path class="st1" d="M25.1,200.5C25.1,200.5,25.1,200.5,25.1,200.5c0.2-0.2,0.4-0.4,0.6-0.6c0.1-0.1,0.1-0.2,0.2-0.3
			C25.7,199.8,25.5,200,25.1,200.5z"/>
		<path class="st1" d="M15.4,196.8l-0.1-1C15.2,195.2,15.1,196.8,15.4,196.8z"/>
		<path class="st1" d="M22.1,203.1c-0.7,0.2-1.1,0.3-1.3,0.4c0.4-0.1,0.6-0.2,0.8-0.2C21.9,203.1,22.1,203.1,22.1,203.1z"/>
		<path class="st1" d="M44.6,154.8c0-0.2-0.2-0.6-0.4-0.9c-0.2-0.4-0.4-0.7-0.5-1.1c0.1,0.3,0.2,0.8,0.3,1.2
			C44.2,154.4,44.3,154.7,44.6,154.8z"/>
		<path class="st1" d="M46.7,154l-0.1,0c0.1,0.1,0.2,0.2,0.2,0.4C46.8,154.3,46.7,154.2,46.7,154z"/>
		<path class="st1" d="M46.3,154.1l0.3-0.1C46.4,153.8,46.3,153.8,46.3,154.1z"/>
		<path class="st1" d="M46.8,156.6c0,0.5-0.1,0.9,0.4,1.1c0,0,0-0.5,0-0.9c-0.1-0.5-0.1-0.9-0.1-0.9c0.4,0,0.6,0,0.7,1.1
			c0.1-0.3-0.2-1.3-0.5-1.8c0,0,0.1,0.4,0.1,0.4c-0.2-0.2-0.4-0.7-0.5-1C47,155.3,46.9,156,46.8,156.6z"/>
		<path class="st1" d="M47.1,158.4c0,0,0,0.1,0.1,0.4c0,0.1,0,0.2,0,0.4c0,0.1,0,0.2,0.1,0.3c0.1,0.4,0.2,0.8,0.2,0.8
			c0-0.3,0.1-0.7,0.1-1.2C47.5,158.4,47.3,158.1,47.1,158.4z"/>
		<path class="st1" d="M46.4,161.3c0.1-0.1,0.1-0.3,0.2-0.2c0,0,0,0.2,0,0.2c0,0.1,0,0.2,0.1,0.3c0.2-0.2,0.1-0.2,0-0.4
			c-0.1-0.1-0.3-0.2-0.3-0.7C46.3,160.8,46.3,161.2,46.4,161.3z"/>
		<path class="st1" d="M46.4,160.6c0-0.1,0-0.3,0-0.4C46.4,160.3,46.4,160.4,46.4,160.6z"/>
		<path class="st1" d="M37.1,147.7l0.1,0.2C37.3,147.9,37.3,147.8,37.1,147.7z"/>
		<path class="st1" d="M46,163C46,163,46,163,46,163C46,163,46,163,46,163z"/>
		<path class="st1" d="M45.9,162.8L45.9,162.8c0,0.1,0.1,0.1,0.1,0.1C45.9,162.9,45.9,162.9,45.9,162.8z"/>
		<path class="st1" d="M57.4,175.2c-0.1-0.6-0.1-1.1-0.2-1.6c-0.2-1-0.4-2-0.7-2.9c-0.2-0.5-0.3-1-0.6-1.5c-0.3-0.7-0.4-0.9-0.7-1.3
			c-0.5-0.8-1.1-1.7-1.9-2.3c0,0,0,0.2,0.1,0.4c0,0.2,0.1,0.4,0.1,0.4c-1.2-1.3-2.5-2.5-3.9-3.4c-0.2-0.1-0.4-0.2-0.5-0.3
			c-0.1-0.1-0.2-0.1-0.4-0.2l-0.2-0.1l-0.2-0.1l-0.4-0.1l-0.2-0.1l0,0c-0.1,0-0.1,0-0.2,0.1c0,0.3-0.1,0.4-0.3,0.4
			c-0.2,0-0.4,0-0.6,0c0.1,0.2,0.6,0.4,0.9,0.3c0,0,0,0.2,0.1,0.2h0h0l0.1-0.2c0.2,0.1,0.4,0.1,0.5,0.1l0.2,0
			c0.2,0.1,0.3,0.1,0.5,0.2c0.3,0.1,0.5,0.2,0.6,0.3l-0.1-0.1c0,0,0.3,0.1,0.7,0.3c0.4,0.2,0.9,0.5,1.4,0.9c1,0.7,1.8,1.6,1.8,1.6
			l-0.5,0.3c0.5-0.3,1.5,1.1,1.9,2.3c0.3,0.6,0.5,1.2,0.6,1.6c0.2,0.4,0.3,0.5,0.5,0.2c0.5,1.1,0.1,1.7-0.2,1.6c0,0,0.3,0.7,0.6,1.5
			c0.3,0.8,0.5,1.7,0.5,1.7c-0.2,0.4-0.8-0.3-0.8-0.7c-0.2-1.3-1.2-3-1.2-4.3c-0.7-0.8-0.1,1.1-1.2-0.9c-0.3-0.8-0.8-1.8-1.4-2.6
			c-0.7-0.8-1.5-1.6-2.3-2.2c-0.4-0.3-0.9-0.6-1.3-0.8c-0.2-0.1-0.4-0.2-0.6-0.3c-0.1-0.1-0.3-0.1-0.4-0.2l-0.1,0l-0.1,0
			c-0.3-0.1-0.6-0.1-0.7-0.3c0,0.2,0.3,0.2-0.2,0.4c0,0-0.1-0.1-0.2-0.2c-0.1-0.1-0.1-0.3-0.1-0.3c-0.1-0.1-0.1-0.2-0.2-0.3
			c-0.1-0.1-0.1-0.2-0.2-0.2c-0.1-0.2-0.1-0.4,0.1-0.7c-0.2-0.1-0.3,0.2-0.5,0.7c-0.1,0.2-0.2,0.5-0.3,0.7c0,0.1-0.1,0.2-0.1,0.4
			c0,0.1,0.1,0.2,0.1,0.2c-0.2,0.1-0.5,0.1-0.6,0c-0.1-0.1,0-0.2,0-0.3c0.1-0.2,0.2-0.6,0.4-0.8c0.3-0.6,0.6-1,0.2-1.5
			c-0.3-0.3-0.4,0.4-0.5,1.1c-0.1,0.6-0.2,1.2-0.6,0.9c0,0,0.1-0.4,0.2-0.8c0.1-0.4,0.2-0.8,0.2-0.8c-0.5,0.5-0.6,1.3-0.6,1.9
			c0,0.3-0.1,0.5-0.2,0.8c-0.1,0.2-0.1,0.5-0.2,0.7c-0.1-0.1-0.2-0.2-0.2-0.3c0.2-0.6,0.4-1.5,0.5-2.3c0,0,0-0.1,0-0.1c0,0,0,0,0,0
			c0.3-1.8,0.5-3.6,0.5-3.7c0-0.6-0.1-1.1-0.1-1.6c0.3,0,0.6,0.5,0.7,1.1c0,0.2,0.1,0.4,0.1,0.6c0,0.2,0,0.4,0,0.6
			c0,0.3,0,0.6-0.1,0.9c0.1-0.2,0.2-0.4,0.3-0.6c0-0.1,0.1-0.3,0.1-0.4c0-0.2,0.1-0.3,0-0.5c0-0.6-0.1-1.2-0.2-1.6c0,0,0,0.4,0,0.8
			c0,0.4-0.1,0.8-0.1,0.8c-0.1-1.1-0.4-1.5-0.7-1.9c-0.1-0.2-0.3-0.4-0.4-0.7c0,0,0,0,0,0c-0.2-0.8-0.5-1.5-0.8-2.1
			c0-0.4,0.6,0,0.6-0.5c-1.4-1.9-0.4-0.7-0.9-0.3c-0.5-0.7-0.8-1.2-1.1-1.7c-0.4-0.5-0.8-1.1-1.7-1.8c1.1,0.7,1.7,0.8,2.4,2l0.1-0.6
			c-0.7-0.7-1.4-1.1-2.2-1.5c-0.6-0.2-1.2-0.5-1.8-0.6c-0.4-0.2-0.7-0.3-0.9-0.3l-0.1-0.2c-0.1,0.1-0.5,0.1-1.2,0.3
			c-0.3,0.1-0.8,0.2-1.2,0.4c-0.1,0-0.1,0.1-0.2,0.1c0,0,0,0,0,0c-0.1,0.1-0.1,0.1-0.2,0.2c0,0.1-0.1,0.1-0.1,0.2c0,0,0,0,0,0
			c0,0.1,0,0.1,0,0.2c0,0,0,0,0,0.1c0,0.2,0.1,0.3,0.3,0.5c1.1,0.8,2,1.6,2,2.2c0,0.3-0.8,3.5-1,3.9c-0.5,1.5-1.6,3.8-2,5.3
			l-1.4,4.8c-0.3,1-0.9,2.3-2,2.7l-0.9,0.3c-0.1,0-0.3,0-0.5,0.1c-0.1,0-0.2,0.1-0.2,0.1l-3.7,1.2c-0.3,0.1-2,2-2.3,2.2
			c0,0-0.1,1.2-0.2,1.2c0,0,0,0,0,0c-0.2,0-0.4-0.9-0.6-0.9c-0.7,0.3-1.7,0.1-2.2,0.2c-2,0.4-2.4,0.5-2.4,1.3c0,2,7.1,2.9,9,3
			c0.3,0,0.4,0,0.5,0.1l-0.5,1.5l-2.3,4.2c0,0-0.1,0-0.1-0.1l0.1,0.1l-0.5,0.9c-0.3-0.5-0.6-1.3-1.3,0.1c0.9-1,1.1,0.4,0.6,1.2
			c0,0,0,0,0.1,0l-0.1,0.1l-0.2,0.4c0.1-0.8-0.6-0.1-1.1,0.7c0.5-0.7,0.9-0.9,1-0.7l-0.6,1c0-0.1,0.1-0.2,0-0.4
			c-0.4-0.4-2,1.9-2.8,2.7c-0.4,0.9-0.3,0.9-0.2,1.4c-0.2,0-0.4,0.2-0.7,0.3c-0.2,0.1-0.5,0.2-0.7,0.1c-0.3,0.4-0.6,0.7-1,1
			c-0.3,0.3-0.7,0.5-1.1,1.1c-0.2,0.3-0.4,0.8-0.4,1.1c0,0.3,0,0.6,0,0.8c0,0.5,0.1,0.9,0.3,1.4c0,0.1-0.1,0.1-0.1,0.1l0,0.1
			l0.1-0.1c0.2,0.4,0.3,0.8,0.4,1.2c0.2,2.3,0.8,4.6,2.5,5.3c0,0.1,0.1,0.2,0.1,0.2c0.2,0.1,0.4,0.2,0.6,0.3c0.1,0,0.2,0.1,0.3,0.1
			c0.1,0,0.3,0.5,0.4,0.5c0.1,0,0.1,0.5,0.2,0.5h0c0,0,0.1-0.5,0.1-0.5l0,0.2l0.2,0.2h0l0-0.5l0.1-0.2c0.1,0,0.1-0.1,0.1-0.1
			c0.3-0.1,0.2-0.2,0.1-0.3c-0.1-0.1-0.1-0.5,0.2-0.6c-0.1,0-0.3-0.2-0.5-0.2h-0.1h0l-0.1,0.3l-0.1,0.1c0,0-0.1,0.1-0.1,0.1
			c0.3,0,0.7-0.1,1-0.2c1.9-0.7,3.9-2.7,5.3-4.2c-0.1,0.2-0.3,0.4-0.4,0.6c0.1-0.1,0.2-0.1,0.3-0.1c0.2-0.1,0.5-0.1,1-1l-0.1-0.4
			c0.2-0.3,0.5-0.6,0.7-0.9c0,0.1,0.1,0.2,0.1,0.3c0.1,0.2,0.3,0.5,0.4,0.8c0.1,0.2,0.2,0.5,0.3,0.7c0,0.1,0,0.1-0.1,0.3l0.4-0.1
			c0.5,3.1,0,1.3,0.3,3.9l0.6,0.7c0.1,0.1-1-2.1-0.5-2.2c0.3,0.5,0.5,1.1,0.7,1.8c0.2,1,0.4,2,0.7,3.1c0,0.1,0.1,0.2,0.1,0.3
			c0,0,0,0,0,0c0,0,0,0,0,0c0.1,0.2,0.3,0.4,0.6,0.6c0.2,0.3,0.5,0.7,0.8,1.1c0.6,0.7,1.5,1.6,2.8,2c0,0-0.6-0.3-1.1-0.6
			c-0.2-0.1-0.4-0.3-0.5-0.4c0.3,0.1,0.7,0.2,1.1,0.1c0.8,0.3,1.7,0.5,2.8,0.7c1,0.1,2,0,2.9-0.3c0.2-0.1,0.5-0.2,0.7-0.3
			c0.2-0.1,0.3-0.2,0.5-0.3c0.3-0.2,0.6-0.4,0.8-0.6c-0.5,0.4-1.2,0.7-1.4,0.5c0,0,0.1-0.1,0.1-0.1c0.4-0.1,0.8-0.3,1.1-0.6
			c0.2-0.1,0.3-0.3,0.4-0.4c0.3-0.2,0.7-0.4,0.9-0.5c0.1,0.5-0.8,1.4-2.2,2.2c-0.7,0.4-1.7,0.8-2.3,0.9c-0.6,0.1-1,0.2-0.7,0.4
			c1.1,0,2.1-0.4,3-0.8c0.7-0.4,1.2-0.9,1.6-1.3c0.8-0.8,1.4-1.6,2.1-2c0,0-0.2,0.3-0.3,0.6c-0.2,0.3-0.3,0.6-0.3,0.6
			s0.2-0.2,0.4-0.5c0.2-0.2,0.4-0.5,0.4-0.5l-0.3,0.2c0.1-0.3,0.4-0.6,0.7-0.9c0.4-0.3,0.8-0.6,1.1-1l-0.1,0.9c0,0,0.3-0.3,0.7-0.7
			c0.3-0.3,0.6-0.7,0.6-0.7l-0.3,0.1c1.7-2.2,3.2-4.1,4.6-6.2c-0.1,0.1-0.1,0.2-0.2,0.2c-0.2,0.3-0.5,0.6-0.5,0.6
			c0-0.2,0.4-0.9,0.8-1.6c-0.4,0.1-1.3,1.8-1.4,1.6c0.7-1.1,1.1-1.7,1.6-2.3c0.4-0.6,0.9-1.2,1.4-2.4c-0.1-0.3-1.3,1.2-0.9-0.8
			c0.4,0.3,1.1-1.3,1.2,0.1c0.2-1.8,0.8-1.2,0.6-2.7c0,0.2-0.1,0.4-0.2,0.6c-0.4,0.4-0.1-0.8-0.1-1.2c0.5-0.7,0.8-1,1.3-2.1
			c0,0,0-0.2,0.1-0.4c0-0.2,0.1-0.6,0.1-0.9c0-0.6,0.1-1.3,0.1-1.3c0.1-0.1,0.2,0.1,0.2,0.1c0.1-0.7,0.2-1.4,0.3-2.1
			c0.1-0.7,0.3-1.5,0.4-2.2c0-0.4,0.1-0.9,0.1-1.3c0-0.2,0-0.5,0-0.7c0-0.4,0-0.9,0-1.2c-0.2-0.2-0.4-0.9-0.5,0.4
			c-0.2-0.5-0.1-1.1,0-1.7c0.1-0.3,0.1-0.6,0.2-0.9c0-0.2,0.1-0.3,0.1-0.5c0-0.2,0-0.4,0.1-0.6c0,0,0,0.1,0.1,0.2
			c0.1,0.1,0.1,0.3,0.2,0.5c0.1,0.2,0.2,0.5,0.2,0.5l0-0.3l0-0.2l0-0.2C57.4,175.8,57.4,175.5,57.4,175.2z M29,195.3
			C29,195.3,29,195.3,29,195.3C29,195.3,29,195.3,29,195.3z M43.2,184c0,0.1-0.1,0.2-0.1,0.4C42.7,184.1,43,184.1,43.2,184z
			 M32.9,189.1l0.6-0.2c-0.4-0.1-0.5-0.5-0.1-0.7c0.1,0.4,0.5,0.4,0.8,0.4c0.3,0,0.5,0,0.5,0.4c-0.2,0.1-0.1,0-0.2,0.2
			c0.5,0,1.1,0,1.1,0.5l-0.4,0.1c0.3,0.3,0.3,0.5,0.5,0.7c0.1,0.2,0.3,0.4,0.5,0.5c0.1-0.3,0.3-0.5,0.4-0.5c0.1,0.3-0.2,0.2-0.2,0.5
			c-0.1,0.4,0.1,0.5,0.3,0.4c0.2,0,0.3-0.2,0.4-0.2c-0.1,0.1,0.3,0.9,0,1c0.2,0.3,0.4,0.2,0.5,0.2c0.1,0,0.2,0,0.4,0.7
			c0-0.3,0-0.8,0.1-1l0.1,0.9c0,0,0-0.7,0-0.7c0.2-0.1,0.8,1.4,0.8,0.4c0,0.1-0.1,0.3-0.2-0.1c-0.2-0.8,0-1.4-0.4-2.1
			c0,0,0,0.2,0.1,0.3c0,0.2,0.1,0.4,0.1,0.4c-0.2-0.7-0.3-0.3-0.4-0.9c0,0-0.1,0.8-0.1,0.8l-0.1-0.7c0,0,0.1,0.3,0.1,0.3
			c-0.1-0.8-0.2-0.8-0.2-0.6c0,0.2-0.1,0.3-0.2-0.1l0.1,0.6c-0.2-0.7-0.1-0.6-0.2-1.2c0,0,0,0.1,0,0.3c0,0.1,0,0.3,0,0.3
			c0,0.2,0.1-0.6,0.1,0.3c-0.1,0.4-0.3,0.1-0.5,0.5c0,0,0.4-1,0.3-1.1c-0.2,0.6,0-0.7,0-0.6c0,0-0.1,0.4-0.1,0.4
			c-0.2,0.5-0.2,0.4-0.3,0.3c-0.1-0.1-0.1-0.3-0.3-0.1c0,0,0.1,0.1-0.1,0.3c-0.2,0.2-0.2-0.1-0.2-0.3c0.7-0.7,0.6-0.1,0.9-0.8
			c0-0.1-0.1,0.2-0.3,0.3c-0.2,0.1-0.4,0.2-0.4,0.1c0,0,0.4-0.3,0.4-0.3l-0.2,0.1l0,0c-0.2,0.1-0.2,0.1-0.2,0c0-0.1,0-0.3-0.2-0.3
			l0.5-0.2l-0.3-0.4l-0.1,0.1c-0.3-0.2-0.5-0.5-0.7-0.8c-0.1-0.1,0-0.1,0-0.1c0,0,0.1-0.1,0.2-0.1c0,0-0.2,0.1-0.2,0.1
			c-0.1,0-0.2,0-0.1,0c-0.3,0.1-0.2,0.2-0.4,0.3c0-0.2,0.4-0.4,0.6-0.5c-0.3,0-0.9,0.3-1.2,0.1c0.5-0.1,0.7-0.1,1.2-0.1
			c-0.4,0,0.4,0-0.2-0.1c0,0,0,0,0,0c-0.3,0-0.3,0-0.4-0.1c0.4,0,0.7,0,0.8,0.1c-0.1,0-0.2-0.1-0.2-0.1l0,0c0.1,0,0.2,0.1,0.2,0.1
			c0.1-0.7,0.8-1.3,0.7-1.9c-0.2-0.2-0.3-0.5-0.5-0.1c-0.2-0.5,0.3-0.7,0.6-0.9l0.3,0.5c0.3-0.9,1.4-1.6,1.3-2.6l-0.4,0
			c0.2-0.8,1-1.3,0.9-1.9c-0.8,0.3-0.2-0.5-0.2-0.8c-0.5,0.4-0.4,1.5-0.6,1.4l0.1,0l-0.2,1.1l-0.5-0.3c1.1,0.6-1.1,1.1-0.1,1.4
			c-0.1,0.3-0.6,0.2-0.8,0l-0.1,0.9c-0.2,0-0.6-0.4-0.6-0.5c0.2-0.3,0-1,0.6-1c-0.2-0.4-0.6,0-0.5-0.6c1-0.6,1-2,1.8-2.4
			c-0.2,0.1-0.3,0.2-0.5-0.1l0.6-0.3c0.1-0.4-0.4-0.9,0-1c-0.2-0.2-0.6,0.5-1,0.6c-0.9-0.9,1-0.5,0.3-1.3c-0.6-0.5-0.3,1.1-1,0.3
			l0.4-0.4c-0.9,0-0.2,0.9-1,0.7c0.1-0.3,0.2-0.5,0.4-0.7c0,0,0,0,0,0c0,0,0,0,0,0c0.3-0.5,0.5-1,0.8-1.5c0.5,0.3,0.5,1,0.3,1.2
			c0.4-0.1,0.5-0.5,0.6-0.7l-0.4,0.3c0.2-0.5-0.3-0.7-0.3-1.1c0.1-0.2,0.2-0.4,0.3-0.6c0.2,0,0.5,0.3,0.7,0.3c0-0.8,0.1-0.2-0.5-0.5
			c0.2-0.5,0.5-0.5,0.7-1.2c0,0.5,0.2,0.7-0.1,1l0.5,0.1c0-0.4-0.2-0.7-0.2-1.1c0-0.2,0-0.4,0-0.5c0.1-0.1,0.1-0.1,0.2-0.2l0.2,0.1
			c0-0.1,0.2-0.3,0.7-0.6c1.4-0.7,3.5-1.5,4-1.5c0.7,0,0.9,0.6,0.9,2.2c0,0.1,0,0.2,0,0.3c0,0-0.1,0.1,0,0.1c0,0,0,0,0,0.1
			c0,0.6-0.1,1.3-0.2,2.1c0,0,0,0,0,0c0,0,0,0.1,0,0.1c-0.3,2-0.8,4.4-1.4,7c0,0-0.1,0-0.1,0l0.1,0c0,0.1-0.1,0.2-0.1,0.3
			c-0.5-0.2-1.1-0.5-1.1,0c0.4-0.3,1.1,0.2,1,0.5c0,0,0,0,0,0c0,0.1,0,0.1,0,0.2c-0.3-0.3-0.6-0.1-0.6,0.2c0.1-0.2,0.4-0.3,0.6-0.2
			c0,0.1-0.1,0.2-0.1,0.4c0,0-0.1-0.1-0.1-0.1c-0.6-0.2-0.8,0.6-1.2,0.9c0,0.3,0.2,0.4,0.5,0.5c-0.3,0-0.5,0.3-0.8,0.2
			c0.3,0.7-0.6,0.8-0.3,1.5c-0.1,0-0.1,0-0.1,0l0,0l0.1,0c0.1,0.2,0.1,0.4,0,0.6c0.4-0.3,0.9-0.5,1.4-0.7c0,0.2-0.1,0.3-0.1,0.5
			c0,0-0.1,0.1,0,0.1c-0.7,2.2-1.3,4.3-2,5.7l-0.1-0.2c0,0,0.1,0.1,0.1,0.3c-0.1,0.2-0.2,0.3-0.2,0.5c-0.3-0.1-0.3,0.1-0.2,0.5
			c-0.1,0.2-0.2,0.4-0.3,0.5c0-0.1,0-0.2-0.1-0.2c0,0.1,0,0.2,0,0.2c-0.1,0.2-0.3,0.4-0.4,0.5c0-0.1-0.1-0.4,0-0.8
			c-0.2,0.4-0.4,0.6-0.7,0.4c-0.3-0.2-0.5-0.5-0.6-0.8c0.1,0.4,0.2,0.4,0.4,0.7c-0.2-0.1-0.5-0.1-0.7-0.2c-0.2-0.2-0.3-0.3-0.5-0.5
			c0-0.1,0.1-0.3,0.1-0.3c-0.2-0.8-0.7-1.2-1.2-1.8l0.2,0.5c-0.1,0.1-0.1,0.3-0.1,0.4c-0.2-0.2-0.4-0.4-0.5-0.6
			c0-0.4,0.1-0.8-0.2-0.8c0,0.4,0,0.5-0.1,0.5c-0.1-0.1-0.2-0.3-0.3-0.4c0.1-0.2,0.3-0.3,0.2-0.5c-0.3,0-0.1,0.4-0.3,0.4
			c0,0-0.1-0.1-0.1-0.1c0.1-0.4-0.1-0.4-0.2-0.3c0,0,0,0,0,0c-0.1-0.1-0.2-0.2-0.3-0.3c0,0,0,0,0-0.1l0.5,0
			C34,190.5,33.3,189.8,32.9,189.1z M29.4,191.4c0.2-0.2,0.4-0.3,0.5-0.5c0,0,0.1,0,0.1-0.1c0.1,0.2,0.1,0.3,0.2,0.4
			c0,0.2,0,0.5,0.1,0.7l-0.6,0C29.6,191.8,29.5,191.6,29.4,191.4z M21.8,187.4l-0.6,1C21,187.9,21.5,187.7,21.8,187.4z M28.1,197.7
			l-0.1-0.9c0-0.1,0.1-0.2,0.1-0.2c0.1,0.2,0.1,0.3,0.2,0.5l0.2,0.4L28.1,197.7z M29.3,197.7l0.5-0.2c0,0-0.2-0.2-0.3-0.3
			c-0.2-0.2-0.3-0.3-0.3-0.3c-0.1-0.2-0.1-0.3-0.2-0.8l0,0.1c0-0.3,0-0.5,0-0.8c0.3-0.6,1-1.8,0.8-2c-0.2,0.2-0.4,1-0.7,1.3
			c0,0,0-0.1,0-0.1c0.2-0.7,0.4-1.3,0.5-2c0-0.1,0-0.3,0-0.4l0.6,0c0,0.3,0,0.5,0.1,0.8c-0.4,0.7-0.5,1.2,0,1.3
			c0-0.1,0.1-0.1,0.1-0.2c0,0.5,0.1,1,0.2,1.4c-0.1,0.1-0.2-0.1-0.5-0.8c0.1,0.4,0.2,0.8,0.3,1.2l0,0c0.1,0.4,0.3,0.8,0.4,1.1
			c-0.5,0.2-0.9,0.7-0.9,1.4C29.6,198.2,29.4,198,29.3,197.7z M32.3,207.4C32.3,207.4,32.3,207.4,32.3,207.4c0.1,0,0.1,0,0.1,0
			c0,0,0,0,0,0C32.3,207.5,32.3,207.4,32.3,207.4z M37.2,209.3c-0.8-0.2-0.9-0.2-0.7-0.3c0.5,0.1,1,0.2,1.5,0.3
			C37.8,209.3,37.5,209.3,37.2,209.3z"/>
		<path class="st1" d="M49.5,163.4L49.5,163.4C49.5,163.4,49.5,163.4,49.5,163.4z"/>
		<path class="st1" d="M52.2,198.8c0.2-0.2,0.3-0.4,0.3-0.4C52.3,198.5,52.2,198.7,52.2,198.8z"/>
	</g>
</g>
</svg>
