<?xml version="1.0" encoding="utf-8"?>
<!-- Generator: Adobe Illustrator 19.2.0, SVG Export Plug-In . SVG Version: 6.00 Build 0)  -->
<svg version="1.1" id="レイヤー_1" xmlns="http://www.w3.org/2000/svg" xmlns:xlink="http://www.w3.org/1999/xlink" x="0px"
	 y="0px" viewBox="0 0 160 23.2" style="enable-background:new 0 0 160 23.2;" xml:space="preserve">
<style type="text/css">
	.st0{fill:#262626;}
	.st1{font-family:'Reisho101Std-Medium-83pv-RKSJ-H';}
	.st2{font-size:9.7343px;}
	.st3{fill:#F6F1E5;}
</style>
<g>
	<g>
		<text transform="matrix(1 0 0 1 0 21.4772)" class="st0 st1 st2">創作串揚げと野菜</text>
	</g>
	<g>
		<g>
			<path class="st0" d="M98.4,7.1c0.2,0,1.2,0,1.4,0c0.3,0,1.4-0.1,1.4-0.9c0-0.5-0.7-1-1.2-1.4c0,0-0.1,0-0.1,0v0
				c0-0.1-0.1-0.2-0.2-0.2c0,0,0.1,0,0.1,0c0.1,0,0.2-0.1,0.2-0.1c0-0.1,0-0.2-0.3-0.3c0.2,0.2,0.2,0.3,0.1,0.3
				c-0.1,0-0.3,0-0.5-0.1c0,0,0,0,0,0c-0.1,0-0.2-0.1-0.2-0.1c0.1,0,0.2-0.1,0.1-0.1C99.1,4,98.9,4,98.7,4c0.4,0,0.5,0.2,0.5,0.2
				c-0.1,0-0.3-0.1-0.5-0.1c0,0,0.1,0,0.1-0.1C98.8,4,98.7,4,98.5,4c0-0.3,0-0.6,0-0.9c0,0,0-0.1,0-0.1c-0.1-0.2-0.2-0.3-0.2-0.3
				c-0.1,0-0.1,0-0.2-0.1c0-0.2-0.2-0.5-0.2-0.7c-0.4-0.3-0.6-0.5-0.8-0.7c-0.2-0.2-0.5-0.4-1-0.5c0,0,0-0.1,0-0.1c0,0-0.1,0-0.1,0
				l0,0c-0.2,0-0.4-0.1-0.6-0.1c-0.1,0-0.2,0-0.2,0c0.1,0,0.1,0,0.2,0.1c0.1,0,0.2,0.1,0.3,0.1c-0.5-0.2-1-0.2-1.4-0.1c0,0,0,0,0,0
				c-0.1,0-0.2,0.1-0.3,0.1c-0.1,0.1-0.2,0.2-0.3,0.3c0.1-0.1,0.2-0.2,0.2-0.2c-0.1,0.1-0.2,0.2-0.3,0.4c-0.1,0.2-0.1,0.3-0.1,0.5
				c0,0,0,0.1,0,0.1c0,0.1,0,0.3,0,0.3c0.1,0.2,0.2,0.3,0.3,0.4c0.1,0.1,0.2,0.1,0.2,0.1c0.1,0,0.2,0.1,0.2,0.1c0,0,0,0,0,0
				c0,0,0,0,0,0c0,0,0-0.1,0-0.1c0.1,0,0.1,0.1,0.2,0.1c0.1,0.1,0.2,0.1,0.2,0.2c0,0,0,0.1,0,0.1c0,0,0,0.1,0,0.1
				c0.1,0,0.2,0.1,0.2,0.1c0,0.1,0,0.1,0.1,0.1c0,0.1,0.1,0.2,0.1,0.2c0,0,0,0,0,0c0,0,0,0,0,0c0.1,0.2,0.1,0.5,0,0.7
				c-0.1,0.1,0,0.2,0,0.2c0,0,0,0-0.1,0c0-0.2,0-0.4,0-0.6c0-0.1,0-0.2,0-0.2c0,0,0-0.1,0-0.1c0,0,0,0.1-0.1,0.1
				c-0.1,0.1-0.1,0.1-0.1,0.6l0.2,0.2c-0.1,0-0.2,0-0.4,0.1c-0.3,0.1-0.6,0.1-0.9,0.2c0,0,0-0.1,0-0.1c-0.3,0.1-0.5,0.2-0.6,0.3
				l0-0.1c0,0-0.1,0-0.2,0.1c-0.1,0-0.2,0.1-0.3,0.1c-0.1,0-0.2,0.1-0.4,0.1c0,0,0.1-0.1,0.1-0.1C92.5,5.1,92.5,5,92.4,5l-0.5,0.3
				c0,0,0-0.1,0-0.1c0,0,0,0-0.1,0l0,0c0,0,0,0,0,0c0,0-0.1,0-0.1,0.1l0.2-0.1c-0.2,0-0.4,0.1-0.3,0l-1.3,0.6c0,0,0,0,0,0l-0.1-0.1
				l0.3-0.1c0.1-0.2,0-0.2-0.3,0c-0.1,0.1-0.3,0.1-0.4,0.2C89.6,6,89.4,6,89.3,6l0,0.1c-0.7,0.3-0.8,0.4-0.9,0.4
				c-0.1,0-0.1,0-0.2,0.1c-0.1,0.1-0.3,0.1-0.6,0.4c0,0,0,0,0,0.1c0,0,0,0.1,0,0.1c0,0,0,0.1-0.1,0.1c0,0,0,0.1-0.1,0.1
				c0,0,0,0.1-0.1,0.1c0,0.1-0.1,0.1-0.1,0.1c0,0,0.1-0.1,0.2-0.3c0.1-0.2,0.2-0.3,0.3-0.4c0.2-0.2,0.5-0.4,0.5-0.3
				c-0.1,0.1-0.3,0.3-0.5,0.5c-0.1,0.1-0.2,0.2-0.3,0.4c0,0.1-0.1,0.1-0.1,0.2c0,0.1-0.1,0.2-0.1,0.3c0,0,0,0.1,0,0.1l0.3,0l0.3,0v0
				v0.1v0l-0.3,0.1l-0.2,0.1c0,0.1,0,0.3,0.1,0.5c0.1,0.1,0.2,0.3,0.3,0.4c0.1,0,0.1,0.1,0.1,0.1c0,0,0.1,0.1,0.1,0.1
				c0.1,0.1,0.2,0.1,0.3,0.1c0.3,0.1,0.6,0.1,0.8,0.1c0,0-0.2,0.1-0.4,0.1c-0.2,0-0.5,0-0.5,0c0.2,0,0.5,0.1,0.8,0.2
				c0.3,0.1,0.6,0.2,1,0.2c0,0-0.2,0-0.3-0.1c-0.2,0-0.3-0.1-0.3-0.1c0.2-0.1,0.3-0.1,0.6-0.1c0.1,0,0.2,0,0.3,0c0.1,0,0.3,0,0.5,0
				c0.1,0,0.1,0,0.2,0l0.2,0c0.1,0,0.2,0,0.4-0.1c0.2-0.1,0.5-0.1,0.6-0.2c-0.2,0-0.4,0.1-0.5,0c0.1-0.1,0.3-0.1,0.4-0.1
				c0.1,0,0.2,0,0.3,0l0.1,0c0,0,0.1,0,0.1,0c0.1,0,0.1,0,0.2,0c0,0-0.1,0.1-0.1,0.2c-0.1,0.1-0.2,0.1-0.3,0.1
				c-0.2,0.1-0.4,0.1-0.6,0.2c-0.4,0.1-0.8,0.2-0.7,0.3c0.5-0.1,0.9-0.3,1.2-0.4c0.1,0,0.2-0.1,0.3-0.1c0.1-0.1,0.3-0.1,0.3-0.2
				c0.1-0.1,0.3-0.1,0.4-0.2L93,9.6l0.4-0.2l-0.1,0c0-0.1,0.1-0.1,0.1-0.1c0,0,0.2-0.1,0.2-0.1c0,0,0.1,0,0.1,0c0,0,0,0.2,0,0.2
				c0,0,0.1,0,0.1,0l0-0.1c0,0,0.1,0,0.1-0.1c0,0,0,0,0.1,0c0,0,0,0,0,0c0,0,0,0,0,0c0,0.1,0,0.2-0.1,0.3c0,0,0.1-0.1,0.1-0.1
				c0,0,0,0,0,0.1c0.1,0,0.1-0.2,0.2-0.2c0,0.1,0,0.1,0,0.2c0,0,0,0.1-0.1,0.1c-0.1,0.3-0.1,0.5-0.2,1c0.1,0.1,0.3-0.6,0.4,0.2
				c-0.2-0.1-0.3,0.6-0.4,0.1c0.1,0.7-0.2,0.5,0.1,1c0-0.1,0-0.2,0-0.3c0.1-0.2,0.1,0.3,0.1,0.5c0,0.1-0.1,0.1-0.1,0.2l0,0.1
				c0,0,0,0.1,0,0.1c0,0-0.1,0-0.1,0c0,0,0,0,0.1,0.1c0,0,0.1,0.1,0.1,0.1c0,0-0.1-0.1-0.1-0.1c0,0.1,0,0,0,0c0,0-0.1,0-0.1,0
				c-0.1,0-0.2,0-0.3,0c-0.2,0-0.3,0-0.5,0c-0.1,0-0.3,0.1-0.3,0.1c0,0,0,0,0.1,0c0.1,0,0.2,0,0.4,0c-0.1,0-0.1,0-0.2,0
				c-0.1,0-0.2,0-0.3,0c-0.1,0-0.2,0-0.3,0c-0.1,0-0.1,0-0.2,0c-0.3,0-0.6,0-0.8,0c0,0,0.1-0.1,0.2-0.1c0.1-0.1,0.2-0.1,0.2-0.1
				c-0.3,0.1-0.6,0.1-0.9,0.2c-0.2,0-0.3,0.1-0.6,0.2c-0.3,0.1-0.5,0.2-0.7,0.4c-0.3,0.2-0.4,0.3-0.7,0.7c-0.2,0.3-0.4,0.6-0.5,1
				c0,0,0,0.1,0,0.1l0,0c0,0,0,0.1,0,0.1c0,0,0-0.1,0-0.1c0,0,0,0.1,0,0.1c0,0,0,0,0,0c-0.1,0.3-0.5,0.5-0.2,0.6l0.1-0.4
				c0,0,0.1,0,0.1,0c0,0.2,0,0.4,0.1,0.6l0,0.1l0,0.1l0,0.1c0,0.1,0,0.2,0.1,0.3l0.1-0.2c0,0.1,0.1,0.3,0.1,0.4c0,0.1,0,0.2,0.1,0.3
				c0,0.1,0.1,0.2,0.1,0.3c0,0.1,0.1,0.1,0.1,0.2c0,0.1,0,0.1,0.1,0.2c0,0.1,0.1,0.2,0.1,0.3c0.2,0.4,0.3,0.8,0.4,1.1
				c0-0.4,0-0.3,0.1-0.1c0,0.1,0.1,0.1,0.1,0.2c0,0.1,0.1,0.2,0.1,0.3c0.1,0.1,0.1,0.2,0.2,0.3c0.1,0.1,0.1,0.1,0.1,0.2
				c0-0.1-0.1-0.1-0.1-0.2c0-0.1-0.1-0.2-0.1-0.2c0-0.1-0.1-0.1-0.1-0.2l-0.1-0.2c-0.1-0.2-0.2-0.4-0.3-0.6
				c-0.2-0.3-0.3-0.5-0.3-0.6l0,0c0,0-0.2-0.3-0.3-0.6c0-0.1-0.1-0.1-0.1-0.2c0-0.1,0-0.2-0.1-0.2c0-0.1,0-0.2-0.1-0.3
				c0-0.1-0.1-0.2-0.1-0.2l0.2,0c-0.1,0-0.2-0.1-0.2-0.3c0,0,0-0.1,0-0.1c0,0,0-0.1,0-0.1c0-0.1,0-0.2,0-0.3c0-0.2,0-0.4,0.1-0.6
				c0.1-0.4,0.3-0.7,0.5-0.9c0.1-0.2,0.2-0.3,0-0.3c0.3-0.4,0.5-0.4,0.6-0.4c0.1,0,0.1,0,0.1,0.1c0,0,0.1-0.1,0.2-0.2
				c0.1-0.1,0.2-0.1,0.3-0.2c0.1-0.1,0.2-0.1,0.3-0.1c0.2-0.1,0.3-0.1,0.5-0.2c0.1,0,0.2-0.1,0.2-0.1c0.2,0-0.1,0.3-0.2,0.3
				c-0.1,0-0.3,0.1-0.5,0.2c-0.1,0-0.2,0.1-0.3,0.2c-0.1,0.1-0.2,0.1-0.3,0.2c-0.1,0.1-0.2,0.2-0.3,0.3c-0.1,0.1-0.3,0.2-0.4,0.3
				c-0.1,0.3,0,0.2,0.1,0.2c0,0,0,0,0,0.1c0,0.1-0.1,0.2-0.2,0.5C89,15.5,89,15.7,89.1,16l0,0.3l0,0.3l0,0.3l0,0.2
				c0,0.1,0,0.1,0,0.2c0.1,0.2,0.1,0.4,0.2,0.5c0.3,0.6,0.5,1.2,0.6,1.7c0-0.2-0.1-0.4,0.1-0.2c0,0,0,0,0,0.1c0,0,0,0.1,0,0.1
				c0,0.1,0,0.1,0,0.2c0.1,0.2,0.2,0.5,0.2,0.5c0.1,0.1,0.2,0.1,0.2,0.2c0.1,0,0.1,0.1,0.2,0.1c0.1,0.1,0.2,0.1,0.3,0.2
				c0.2,0.1,0.4,0.2,0.5,0.3c0.1,0-0.1-0.2-0.4-0.4c-0.1-0.1-0.3-0.2-0.4-0.4c-0.1-0.1-0.1-0.1-0.2-0.2c0-0.1-0.1-0.1-0.1-0.2
				c0.4,0.1,0.6,0.3,0.8,0.6c0.1,0.1,0.2,0.2,0.3,0.3c0.1,0,0.1,0.1,0.2,0.1c0.1,0,0.2,0,0.3,0c0.2-0.1-0.2-0.2-0.5-0.4
				c-0.3-0.2-0.5-0.4-0.2-0.4c0,0,0.1,0.1,0.3,0.2c0.2,0.1,0.3,0.2,0.3,0.2c-0.2-0.3-0.4-0.4-0.7-0.5c-0.2-0.1-0.4-0.3-0.4-0.5
				c0.2,0.2,0.5,0.5,0.8,0.7c0,0,0,0,0,0c0,0,0,0,0,0c0.3,0.2,0.6,0.3,0.8,0.3c0.4,0,0.8-0.1,1.3-0.3c0,0.2-0.7,0.6-1.2,0.6
				c0.2,0.1,0.5,0,0.7,0c0.2-0.1,0.4-0.2,0.6-0.2c0,0-0.1,0-0.3,0.1c-0.1,0-0.3,0.1-0.3,0.1c0.4-0.1,0.5-0.3,0.7-0.4
				c0.1-0.1,0.1-0.1,0.2-0.2c0.3-0.2,0.6-0.3,0.8-0.5c0.1,0,0.1,0,0.1,0c0,0.1,0,0.2,0.1,0.1c0.2-0.2,0.2-0.3,0.3-0.3
				c0-0.1,0-0.1,0-0.1c0,0-0.2,0.1-0.3,0c0.2-0.2,0.4-0.4,0.6-0.5c0.1-0.1,0.2-0.1,0.3-0.2c0.1,0,0.1-0.1,0.2-0.2
				c0,0,0.1-0.1,0.1-0.1c0,0,0.1,0,0.1,0.1c0,0-0.1,0-0.1,0c0,0,0,0-0.1,0c0,0-0.1,0.1-0.1,0.1c-0.1,0.1-0.1,0.1-0.2,0.2
				c-0.1,0.1-0.2,0.2-0.4,0.4c0,0,0.2,0.1,0.2,0.1c0.1-0.1,0.2-0.2,0.3-0.4l0.1-0.2c0,0,0-0.1,0.1-0.1c0,0,0.1,0,0.1,0
				c0.2,0,0.4,0.1,0.6,0.2c0.1,0.1,0.2,0.1,0.3,0.2l0,0.1c0,0,0.4,0.2,0.9,0.5c0,0,0.1,0.1,0.1,0.1c0.3,0.2,0.8,0.6,1.3,0.6
				c0.7,0,0.9-0.7,0.9-0.8c0-0.1-0.1-0.7-0.1-0.8c0,0-0.1-0.3-0.2-0.4c-0.4-0.7-0.4-0.8-0.6-1c-0.2-0.1-1.1-1-1.4-1.1
				c-0.4-0.2-0.4-0.2-0.6-0.4l0-1.2V14c0,0,0-0.1,0-0.2c0,0,0-0.1,0-0.1v-2.7c0,0,0,0,0,0c0-0.1,0-0.1,0-0.2V8.1
				C98,7.2,98,7.1,98.4,7.1z M93.3,17.6C93,17.4,93,17.2,93,17v0c0,0-0.5,0-0.5,0c0,0-0.3,0-0.3,0c0,0-0.1,0-0.1,0
				c0.1-0.1,0.1-0.2,0.1-0.2c0,0.1-0.3,0.2-0.3,0.2c0,0,0,0,0,0c0,0,0,0,0,0c0.1,0,0.1-0.1,0.1-0.1c0,0,0,0.1-0.1,0.1c0,0,0,0,0,0
				c0,0,0,0,0,0c0.1-0.1,0.1-0.2,0.2-0.2c0,0-0.1,0-0.2,0c0.1,0,0.1-0.1,0.2-0.1c-0.1,0,0.1-0.1-0.1-0.1c0,0,0,0,0,0l0,0l0,0
				c-0.1,0-0.1,0-0.1,0c0,0-0.1,0.1-0.2,0.1c0,0-0.1,0-0.1,0.1c0,0,0,0,0,0c0,0,0,0,0,0c-0.1-0.2-0.2-0.4-0.2-0.4c0,0,0-0.1,0.2-0.2
				l0.1,0c0,0,0,0,0,0c0,0,0,0,0.1,0c0.1,0,0.1,0,0.1,0c0,0,0,0,0,0c0,0,0,0,0.1,0c0,0,0,0,0,0c0,0,0,0,0,0c0,0,0,0,0.1,0
				c0,0,0,0,0,0c0,0,0.1,0,0.2,0c-0.1,0-0.1,0-0.1,0c0,0,0,0,0.1,0c0,0,0.1,0,0.1,0l0,0c0.1,0,0.2,0,0.3,0.1l-0.1,0c0,0,0,0,0,0
				c0,0,0.1,0,0.1,0c0,0,0,0,0,0c0,0,0.1,0,0.1,0c0,0,0,0-0.1,0c0,0,0,0,0.1,0c0,0,0,0,0,0c0,0,0,0,0,0c0,0,0,0,0,0c0,0,0,0,0,0
				c0,0,0,0,0,0c0,0,0,0,0,0c0,0,0,0,0,0c0,0,0.2,0,0.2,0c0,0,0.2,0,0.2,0c0,0,0,0,0,0c0,0-0.1,0-0.1,0c0,0-0.1,0-0.1,0l-0.1,0
				c0.1,0,0.1,0,0.2,0l0,0c0,0,0.1,0,0.1,0c-0.1,0-0.1,0-0.2,0c0,0,0,0,0,0c0,0,0,0-0.1,0l0,0c-0.1,0-0.1,0-0.2,0c0,0,0,0,0,0
				c0,0,0,0-0.1,0c-0.1-0.1,0,0-0.1,0c0,0-0.1,0-0.1-0.1c-0.1,0,0,0.1-0.1,0c0,0,0.1,0,0.1,0.1l-0.1,0l0.1,0c0,0-0.3-0.1-0.2,0
				c0,0,0,0,0.1,0c0.1,0,0.1,0.1,0.3,0.1l-0.1,0c0.1,0,0.1,0,0.2,0.1c0,0,0,0,0,0l0.1,0l-0.1,0c0.2,0.1,0,0,0.1,0l-0.1,0
				c0.1,0,0.1,0,0.1,0.1l-0.1,0c0,0,0.1,0,0,0c0,0,0,0,0,0c0,0,0.1,0.1,0.1,0.1c-0.1,0,0.1,0,0.1,0l0,0c-0.1-0.1,0,0,0,0
				c0,0,0,0,0,0c0,0,0,0,0,0c0,0.1,0,0,0.1,0.1c0,0,0-0.1,0,0c0,0,0,0,0,0l0,0l0,0c0,0,0,0,0,0l0,0l0,0l0,0c0,0,0,0,0,0l0,0
				c0,0,0,0,0,0c0,0,0,0,0,0c0,0,0,0,0,0c0,0,0,0,0.1,0c0,0,0.5,0,0.5,0c0,0-0.4,0,0.6,0c0,0,0,0,0,0c0,0-0.5,0-0.5,0
				c0,0-0.3,0-0.4,0c0,0-0.1,0-0.1,0c0,0-0.1,0-0.1,0c0,0,0,0,0,0c0,0,0.1,0,0.1,0c0.1,0,0,0,0,0l-0.1,0c0,0-0.1,0,0,0l0.1,0
				c0.1,0-0.1,0,0,0c0.2,0,0.1,0,0.2,0.1c0.1,0,0,0,0-0.1l0,0c0,0-0.1,0-0.1,0l0.2,0c-0.2,0-0.1,0-0.1,0c0,0,0.1,0-0.1,0
				c0,0,0.1,0,0.2,0l-0.1,0c0,0,0.2,0,0.2,0c0,0,0.2,0,0,0c0.1,0,0.1,0,0.2,0c-0.1,0,0,0,0,0c0,0,0,0.1-0.1,0c0.1,0,0.1,0,0.2,0
				c0,0,0,0-0.1,0c0,0-0.1,0-0.1,0c0,0,0.2,0.1,0.1,0.1c0.1,0,0.1,0,0.2,0c0.2,0.1,0.1,0.1,0,0.1c-0.1,0-0.1,0,0,0
				c0.2,0.1,0-0.1,0.2,0l-0.1,0c0.3,0.1,0-0.1,0.2,0c0,0,0,0-0.1,0.1c0,0,0,0,0,0c0,0,0,0,0,0c0,0-0.1,0.1-0.1,0.1
				c-0.1-0.1-0.2-0.2-0.1-0.2c-0.1,0-0.1,0-0.1,0l0.1,0c0,0,0.1,0.1,0.1,0.2c0,0,0,0-0.1,0.1c0,0-0.1-0.1-0.2-0.1c0,0.1,0,0,0.1,0.1
				c0,0.1-0.1,0-0.1,0.1c0-0.1-0.1-0.1,0-0.1l-0.1-0.1c0,0.1,0.1,0.2,0.1,0.3c0,0,0,0,0,0l0,0c0,0,0,0.1,0,0.1
				c-0.3,0.3-0.6,0.5-0.7,0.5c0,0,0,0,0,0c0,0,0,0,0,0c0,0,0.2,0,0.2,0c-0.1,0,0,0,0-0.1c0,0,0,0,0,0C93,17.6,93.3,17.6,93.3,17.6z
				 M91.9,16.8C91.9,16.8,91.9,16.8,91.9,16.8C92,16.7,91.9,16.8,91.9,16.8z M98.3,4.2c0,0,0-0.1,0-0.2C98.3,4,98.4,4.1,98.3,4.2
				c0.1,0,0.2,0,0.2,0C98.5,4.2,98.4,4.2,98.3,4.2z M93.8,2.4c0,0-0.1-0.1-0.1-0.1c0.1,0.1,0.3,0.1,0.4,0.2
				C94,2.5,93.9,2.5,93.8,2.4z M91.1,9.5c0,0-0.1,0.1-0.2,0.1c-0.1,0-0.2,0.1-0.3,0.1c-0.1,0-0.2,0-0.3,0c0,0-0.1,0-0.1,0
				c0,0,0,0,0.1,0c0.1,0,0.3-0.1,0.1-0.1c0,0-0.1,0-0.1,0c0.3,0,0.5-0.1,0.7-0.1C91.2,9.4,91.2,9.5,91.1,9.5z"/>
			<path class="st0" d="M87.6,10.8c-0.1,0-0.2,0-0.3,0.1l0,0l0,0c0,0,0,0.1,0,0.1l-0.9,1.7l-0.1,0.4l-1,1.9l-0.1,0.1
				c0,0,0-0.1,0-0.1c0,0,0-0.1,0-0.1c0,0,0-0.1,0-0.1c0-0.4,0-0.9,0.1-1l0.1-0.7c0,0,0,0,0,0c0,0,0-0.1,0-0.1l0.1-1.5
				c0-0.4,0.2-1.3,0.3-1.6l0.5-2.3c0-0.1,0-0.2,0-0.2c0,0,0-0.1,0-0.3c0,0,0,0,0,0l0,0c0-0.1,0-0.2,0-0.3c0.2,0.1,0.4,0.3,0.4-0.1
				c-0.2,0.3-0.4,0-0.4-0.2c0,0,0,0,0,0c0-0.1,0-0.1,0-0.1c0,0,0,0,0,0c0.1,0.2,0.2-0.1,0.2-0.3c0,0.2-0.1,0.4-0.2,0.3
				c0-0.1,0-0.2,0-0.3c0,0,0,0.1,0.1,0.1c0.2,0,0.2-0.8,0.2-1.1c-0.1-0.3-0.2-0.2-0.3-0.3c0.1-0.1,0-0.4,0.1-0.5
				c-0.1-0.1-0.2-0.2-0.2-0.3C86,3.8,86,3.6,85.9,3.5c-0.1-0.2-0.2-0.4-0.5-0.6c0,0,0-0.1,0-0.1l0,0l0,0c-0.1-0.1-0.3-0.2-0.4-0.3
				c0.1,0.2,0.2,0.3,0.2,0.5c-0.2-0.3-0.4-0.5-0.6-0.7l0-0.1c-0.1-0.1-0.2-0.2-0.2-0.3c0.1,0.1,0.1,0.2,0,0.2c0,0-0.1,0-0.1-0.1
				c0,0,0-0.1,0-0.1c0-0.1,0-0.1,0-0.1s-0.2,0-0.3,0c-0.1,0-0.1,0-0.2,0c0,0,0,0,0,0c-0.2-0.1-0.3-0.1-0.5-0.1
				c0.1-0.1,0.2-0.1,0.2-0.1c-0.1,0-0.2,0.1-0.3,0.1c-0.1,0-0.2,0-0.3,0c-0.2,0-0.4,0.2-0.4,0.3c-0.2,0.8,0,1.5,0.5,2.2
				c0,0.2,0,0.3-0.1,0.5c0-0.1,0-0.2,0-0.2c0,0.2-0.1,0.4-0.1,0.6c0-0.1,0.1-0.1,0.1-0.2c0,0.1,0,0.1,0,0.2c0,0,0,0-0.1,0
				c0,0.2-0.1,0.4,0,0.4l0,0c0,0,0,0.1,0,0.2c0,0.2-0.1,0.3-0.1,0.5c0-0.2-0.1-0.3-0.2-0.2l0.1,0.4c-0.1-0.1-0.2,0.3-0.3,0.2l0,1
				l-0.2,0l0.1-0.2c-0.3-0.3,0,0.5-0.3,0.7l0.1,0c-0.3,0.8-0.2,0.3-0.4,1l0.1,0.2c0,0-0.1-0.6,0.1-0.6c0,0.2,0,0.5,0,0.8
				c0,0,0,0.1,0,0.1c0,0.2-0.1,0.3-0.1,0.5c0,0,0,0,0,0c-0.1-0.1-0.1-0.2-0.1-0.2c0.2,0.2-0.2,0.5-0.3,0.9l0.2-0.4
				c0.1,0.1,0.1,0.2,0.1,0.4c-0.1,0.4-0.2,0.8-0.2,1.2c0-0.4,0-0.8-0.1-0.7c-0.1,0.4,0,0.7,0.1,1c0,0.1,0,0.3-0.1,0.4l-0.1-0.2
				l0,0.3l0-0.1c0,0,0,0,0,0c0,0.2,0,0.4-0.1,0.6l-0.1-0.1l0,0.4l0.1-0.1c0,0.7-0.1,1.3-0.2,2c0,0,0-0.1,0-0.2
				c0-0.1,0.1-0.2,0.1-0.2c0,0,0,0.2,0,0.4c0.1,0,0.1-0.2,0.1-0.4c0,0.1,0,0.2,0,0.3c0,0.1,0,0.1-0.1,0.2c-0.1,0.2-0.1,0.4-0.1,0.7
				c0.1,0.1,0.3-0.4,0.4,0.1c-0.2,0-0.2,0.4-0.4,0.1c0.1,0.4-0.1,0.3,0.1,0.7c0,0,0-0.1,0-0.2c0.1-0.1,0.1,0.2,0.2,0.3
				c-0.1,0.2-0.2,0.3-0.2,0.7c0,0,0.1,0.2,0.1,0.4c0.1,0.2,0.1,0.4,0.1,0.4c0,0-0.1,0-0.1,0l0.2,0.6c0.1,0.3,0.2,0.6,0.4,0.8
				c0.2,0.2,0.4,0.5,0.5,0.6c0.2,0.1,0.3,0.2,0.4,0.3c0.1,0,0.4,0,0-0.2c0.2,0,0.4,0.2,0.5,0.3c0.1,0.1,0.2,0.1,0.3,0.2
				c0.1,0.1,0.2,0.1,0.4,0.2c0,0-0.5,0-0.5,0c0.4,0.2,0.7,0.3,1.1,0.3c0.4,0.1,0.8,0,1.2,0c0.4-0.1,0.7-0.3,1-0.5
				c0.3-0.3,0.4-0.6,0.5-0.9c0-0.1,0-0.1,0-0.1L87,20.2l-0.1,0.1l0-0.1c0-0.2,0.1-0.3,0.1-0.5l0.1-0.2l0-0.1
				c0.1-0.2,0.1-0.3,0.2-0.4c0.1-0.3,0.2-0.5,0.2-0.7c-0.4,0.4,0-0.4-0.1-0.5c-0.2,0.4-0.3,1.2-0.3,1.3l0,0l-0.1,0.5l0,0.1
				c0,0,0,0.1,0,0.2L87,20.1l0,0l-0.1-0.1L86.8,20c0,0,0,0,0,0c0.1,0.1,0.1,0.3,0,0.4c-0.1,0.2-0.2,0.4-0.4,0.5
				c-0.4,0.3-0.8,0.3-0.6,0.4c-0.4,0.2-0.7,0-0.6-0.1c0,0-0.3,0.1-0.6,0.1c-0.3,0-0.6-0.1-0.6-0.1c-0.1-0.1,0.2-0.2,0.3-0.2
				c0.2,0.1,0.5,0,0.8,0c0.3,0,0.5-0.1,0.8-0.1c0.1-0.1,0-0.1,0-0.2c0,0,0,0,0-0.1c0,0,0.1-0.1,0.2-0.2c0.2-0.2,0.4-0.4,0.5-0.7
				l0.1-0.4c0-0.1,0.1-0.2,0.1-0.3c0-0.2,0.1-0.3,0.1-0.5c0.1-0.3,0.2-0.6,0.3-0.8C87.1,18,87,18.1,87,17.9l0.3-0.4
				c0.1-0.3-0.1-0.6,0.1-0.8c-0.1-0.1-0.3,0.6-0.4,0.8c-0.3-0.4,0.4-0.6,0.2-1.1c-0.2-0.2-0.2,0.9-0.4,0.5l0.2-0.4
				c-0.4,0.2-0.2,0.8-0.4,0.8c0.1-0.2,0.1-0.5,0.2-0.7c0,0,0,0,0,0c0,0,0,0,0,0c0.2-0.6,0.3-1.1,0.4-1.4c0.2,0.1,0.1,0.6,0.1,0.8
				c0.2-0.2,0.2-0.5,0.3-0.7l-0.2,0.3c0.1-0.4-0.1-0.5-0.1-0.7l0.2-0.6c0.1-0.1,0.2,0.1,0.3,0c0-0.6,0-0.2-0.2-0.2
				c0.1-0.4,0.2-0.5,0.3-0.9c0-0.1,0-0.2,0-0.3c0,0.1,0,0.2,0,0.3c0,0.2,0,0.3-0.1,0.5l0.2-0.1c0-0.2,0-0.3,0-0.5
				c0-0.2-0.1-0.3-0.1-0.5c0.1-0.1,0.1-0.2,0.2-0.3c0-0.1,0-0.3-0.1-0.1c0,0.1-0.1,0.2-0.1,0.2c0,0,0-0.1,0-0.1l0-0.2l0.1,0
				c0,0,0-0.3,0.1-0.8l0.1-0.4C88,11,87.9,10.8,87.6,10.8z M86.3,5.8c0,0,0,0.1,0,0.1c0-0.1,0-0.2,0-0.3C86.4,5.6,86.4,5.7,86.3,5.8
				z M84.5,2.2l0,0.1C84.6,2.3,84.5,2.3,84.5,2.2C84.5,2.3,84.5,2.3,84.5,2.2z"/>
			<polygon class="st0" points="92.3,15.9 92.2,15.9 92.2,15.9 			"/>
			<path class="st0" d="M92.2,16L92.2,16c0,0,0,0-0.1-0.1C92.2,16,92,16,92.2,16C92.3,16,92.3,16,92.2,16z"/>
			<path class="st0" d="M92.3,16C92.3,16,92.3,16,92.3,16C92.3,16,92.3,16,92.3,16C92.3,16,92.3,16,92.3,16z"/>
			<path class="st0" d="M92.3,16.1C92.3,16.1,92.3,16.1,92.3,16.1C92.2,16,92.2,16,92.3,16.1z"/>
			<path class="st0" d="M92.1,16C92.1,16,92.1,16,92.1,16c-0.1-0.1,0,0-0.1,0C91.9,16,92.1,16,92.1,16z"/>
			<path class="st0" d="M92.2,16.2C92.2,16.2,92.2,16.2,92.2,16.2C92.2,16.2,92.2,16.2,92.2,16.2z"/>
			<path class="st0" d="M91.9,16.2L91.9,16.2c0.2,0,0,0,0.2,0c0.1,0,0.1,0,0.1,0C92,16.1,92.2,16.1,91.9,16.2
				C91.9,16.1,91.9,16.1,91.9,16.2z"/>
			<path class="st0" d="M91.9,16.1C91.9,16.1,91.8,16.1,91.9,16.1C91.9,16.1,91.9,16.1,91.9,16.1C91.9,16.1,91.9,16.1,91.9,16.1z"/>
			<path class="st0" d="M92.1,16.1l-0.2,0c0,0,0,0,0,0.1C91.9,16.1,92.1,16.1,92.1,16.1z"/>
			<path class="st0" d="M91.9,16.3l0.1,0C92,16.3,91.9,16.3,91.9,16.3c0-0.1-0.1-0.1-0.1-0.1C91.9,16.3,91.6,16.3,91.9,16.3
				L91.9,16.3l0.1,0c0,0,0,0,0.1,0C92,16.3,91.9,16.3,91.9,16.3z"/>
			<path class="st0" d="M92,16.3L92,16.3C92,16.3,91.9,16.3,92,16.3C92,16.3,92,16.3,92,16.3z"/>
			<path class="st0" d="M92,16.4L92,16.4C92.1,16.4,92.1,16.4,92,16.4z"/>
			<path class="st0" d="M92,16.2L92,16.2C92,16.2,92,16.2,92,16.2z"/>
			<path class="st0" d="M92,16.2L92,16.2l0.2,0C92.2,16.2,92.1,16.2,92,16.2z"/>
			<path class="st0" d="M93.5,16.7C93.5,16.7,93.6,16.7,93.5,16.7C93.6,16.7,93.7,16.8,93.5,16.7z"/>
			<polygon class="st0" points="93.1,16.3 93,16.3 93,16.3 			"/>
			<path class="st0" d="M93,16.3C93,16.3,93,16.3,93,16.3c0.1,0.1,0.3,0.2,0.1,0.1L93,16.3C93,16.3,92.9,16.2,93,16.3
				C92.9,16.2,92.9,16.2,93,16.3L93,16.3z"/>
			<path class="st0" d="M93.1,16.3C93.1,16.3,93.1,16.3,93.1,16.3C93,16.3,93,16.3,93,16.3C93,16.3,93,16.3,93.1,16.3z"/>
			<path class="st0" d="M93.2,16.4C93.2,16.3,93.2,16.3,93.2,16.4C93.1,16.3,93.2,16.4,93.2,16.4C93.3,16.4,93.3,16.4,93.2,16.4z"/>
			<polygon class="st0" points="93.3,16.4 93.4,16.4 93.3,16.3 			"/>
			<path class="st0" d="M93.1,16.2L93.1,16.2C93.1,16.2,93.1,16.2,93.1,16.2z"/>
			<path class="st0" d="M94.2,4.5c0.1-0.1,0.3-0.1,0.4-0.2C94.5,4.3,94.4,4.4,94.2,4.5c0,0-0.1,0-0.2,0c-0.1,0-0.1,0-0.2,0.1
				c0,0-0.1,0-0.1,0c0,0,0,0,0,0c0.1,0,0.1,0,0.3-0.1C94,4.6,94.1,4.5,94.2,4.5z"/>
			<path class="st0" d="M93.6,4.6C93.6,4.6,93.6,4.6,93.6,4.6C93.6,4.6,93.7,4.6,93.6,4.6C93.6,4.6,93.6,4.6,93.6,4.6z"/>
			<path class="st0" d="M94.6,3.1C94.6,3.1,94.6,3.1,94.6,3.1C94.6,3.1,94.6,3.1,94.6,3.1z"/>
			<path class="st0" d="M98.4,4.2C98.4,4.2,98.4,4.1,98.4,4.2C98.3,4.1,98.3,4.1,98.4,4.2L98.4,4.2z"/>
			<path class="st0" d="M96.4,0.8c0.1,0.1,0,0-0.1-0.1C96.1,0.7,96,0.6,96,0.6c0,0,0.1,0,0.2,0.1C96.3,0.8,96.4,0.8,96.4,0.8z"/>
			<path class="st0" d="M93.6,1.1C93.5,1.1,93.5,1.2,93.6,1.1C93.5,1.2,93.5,1.1,93.6,1.1z"/>
			<path class="st0" d="M95.1,0.5c-0.3-0.1-0.6-0.1-1,0.1c0,0,0,0,0,0c0.1-0.1,0.3-0.1,0.5-0.1C94.8,0.5,95,0.5,95.1,0.5z"/>
			<path class="st0" d="M93.5,1.2c0,0.1-0.1,0.1-0.1,0.1C93.5,1.3,93.5,1.2,93.5,1.2z"/>
			<path class="st0" d="M94.8,20.2c0.1,0,0.2-0.1,0.3-0.2c0.1-0.1,0.3-0.2,0.4-0.3C95.3,19.8,94.8,19.9,94.8,20.2z"/>
			<path class="st0" d="M95.2,20.8L95.2,20.8c0,0-0.1,0-0.1,0.1C95.1,20.9,95.1,20.9,95.2,20.8z"/>
			<path class="st0" d="M95.1,20.7L95.1,20.7C95.2,20.7,95.2,20.7,95.1,20.7z"/>
			<path class="st0" d="M94,21.4c0,0,0.2-0.1,0.3-0.1c0.2-0.1,0.3-0.1,0.3-0.1c0,0.1,0.1,0.2-0.3,0.3c0.1,0,0.4-0.2,0.6-0.3
				l-0.1,0.1c0.1-0.1,0.2-0.2,0.3-0.3C94.5,21.2,94,21,94,21.4z"/>
			<path class="st0" d="M93.7,21.4c0,0,0,0-0.1,0.1c0,0-0.1,0-0.1,0.1c0,0-0.1,0-0.2,0.1c-0.3,0.1-0.5,0.1-0.5,0.1
				c0.1,0,0.2,0,0.4,0c0.1,0,0.1,0,0.2,0c0.1,0,0.1,0,0.2-0.1C93.7,21.5,93.8,21.4,93.7,21.4z"/>
			<path class="st0" d="M92,21.3c-0.1,0-0.2-0.1-0.3-0.1c-0.1,0-0.1-0.1-0.2-0.1C91.6,21.2,91.8,21.3,92,21.3c0,0.1,0.1,0.1,0.1,0.1
				c0.1,0,0.1-0.1,0.4,0C92.3,21.3,92.2,21.3,92,21.3C92.3,21.4,92.2,21.4,92,21.3z"/>
			<path class="st0" d="M92.5,21.4c0.1,0,0.2,0,0.3,0C92.7,21.4,92.6,21.4,92.5,21.4z"/>
			<path class="st0" d="M97.7,19L97.7,19C97.6,18.9,97.6,18.9,97.7,19z"/>
			<path class="st0" d="M90.3,19.9c0.1,0.1,0.1,0.1,0.1,0.1L90.3,19.9c0,0,0-0.1-0.1-0.1C90.2,19.8,90.3,19.9,90.3,19.9z"/>
			<path class="st0" d="M89.2,18.1L89.2,18.1C89.2,18,89.2,18.1,89.2,18.1z"/>
			<path class="st0" d="M100.2,4.8L100.2,4.8C100.2,4.8,100.2,4.8,100.2,4.8z"/>
			<path class="st0" d="M82.8,5C82.8,5,82.8,5,82.8,5C82.8,5,82.8,5,82.8,5C82.8,5,82.8,5,82.8,5z"/>
			<path class="st0" d="M85.5,2.9l0.2,0.2C85.7,3.3,85.5,2.9,85.5,2.9z"/>
			<path class="st0" d="M84.4,2C84.4,2,84.4,1.9,84.4,2C84.4,1.9,84.4,2,84.4,2z"/>
			<path class="st0" d="M85,2.6c-0.1-0.1-0.2-0.3-0.4-0.4l0,0c0.1,0.1,0.1,0.1,0.2,0.2C84.9,2.5,84.9,2.6,85,2.6z"/>
			<path class="st0" d="M83.6,1.8l0.1-0.1l0,0l0,0l0,0l0,0l0,0l0.1,0c0,0,0.1,0,0.1,0.1l0.1,0l0,0c0,0,0,0,0.1,0
				c0.1,0,0.1,0.1,0.1,0.1s0-0.1,0-0.1c0-0.1,0-0.1,0-0.1c0,0,0,0-0.1,0c0,0,0,0-0.1,0c-0.1,0-0.1-0.1-0.2-0.1c0,0,0,0-0.1,0
				c0,0,0,0,0,0c0,0,0,0,0,0l-0.2,0l0,0l0,0l0,0l0,0c-0.1,0-0.1,0.1-0.1,0.1c0,0,0,0.1-0.1,0.1c0,0,0,0.1,0,0.1
				C83.5,1.7,83.6,1.8,83.6,1.8L83.6,1.8z"/>
			<path class="st0" d="M87.6,15c0.1-0.1,0-0.4,0.1-0.5C87.6,14.6,87.4,14.8,87.6,15z"/>
			<path class="st0" d="M88.2,15.1L88.2,15.1C88.3,15.1,88.2,15.1,88.2,15.1z"/>
			<path class="st0" d="M88,16l0.1,0.4C88.1,16.2,88.2,15.9,88,16z"/>
			<path class="st0" d="M87.7,16.4c0,0.1-0.1,0.1,0,0.2c0.1-0.2,0,0.2,0,0.3C87.9,16.5,87.6,16.7,87.7,16.4z"/>
			<path class="st0" d="M87.9,12.3L87.9,12.3C87.9,12.4,87.9,12.4,87.9,12.3z"/>
			<path class="st0" d="M87.3,17.6L87.3,17.6c0,0.1,0,0.1,0,0.1L87.3,17.6z"/>
			<path class="st0" d="M87.2,18.9L87.2,18.9C87.1,18.9,87.1,18.9,87.2,18.9z"/>
		</g>
		<g>
			<path class="st0" d="M107.8,17.6C107.8,17.7,107.8,17.7,107.8,17.6C107.8,17.7,107.8,17.7,107.8,17.6L107.8,17.6z"/>
			<path class="st0" d="M108,17.6C108,17.7,108,17.7,108,17.6C108,17.7,108,17.7,108,17.6L108,17.6z"/>
			<path class="st0" d="M107.4,13.4c0,0,0,0.1,0,0.3c0,0.1,0,0.3,0,0.3c0,0,0-0.1-0.1-0.1c0,0,0-0.1,0-0.1c0-0.1,0-0.1,0-0.2
				c0-0.1,0-0.3-0.1-0.2c0,0.1,0,0.3-0.1,0.4c0,0,0.1,0,0.1,0c0,0,0,0.1,0,0.1l0,0c0,0,0,0.1,0,0.1c0,0.2,0.1,0.3,0.2,0.1
				c0-0.1,0-0.1,0-0.2C107.5,13.7,107.4,13.6,107.4,13.4z"/>
			<path class="st0" d="M107.6,15.5l0.2,0.3c-0.1-0.5-0.2-0.8-0.2-1.1C107.6,14.8,107.4,14.7,107.6,15.5z"/>
			<path class="st0" d="M107.5,14.1C107.5,14.1,107.5,14.1,107.5,14.1c0,0.1,0,0.3,0,0.4c0,0.1,0,0.1,0,0.2
				C107.6,14.5,107.6,14.4,107.5,14.1z"/>
			<path class="st0" d="M107.2,13.7C107.1,13.7,107.1,13.7,107.2,13.7C107.1,13.7,107.1,13.7,107.2,13.7z"/>
			<path class="st0" d="M106.2,13.3c0.1,0,0.1,0,0.1,0C106.3,13.3,106.3,13.3,106.2,13.3z"/>
			<path class="st0" d="M102.7,12.8c-0.2-0.1,0,0,0.2,0.1c0.1,0.1,0.3,0.1,0.3,0.1c-0.1,0-0.1-0.1-0.2-0.1
				C102.8,12.9,102.7,12.8,102.7,12.8z"/>
			<path class="st0" d="M105.5,13.5C105.5,13.5,105.5,13.5,105.5,13.5c0,0-0.1,0-0.1,0c-0.1,0-0.3,0-0.4,0c-0.1,0-0.3,0-0.5-0.1
				c0,0-0.1,0-0.1,0c0.1,0,0.3,0.1,0.4,0.1C105,13.5,105.2,13.5,105.5,13.5z"/>
			<path class="st0" d="M105.8,13.5c0.2,0,0.3-0.1,0.4-0.1c-0.1,0-0.2,0.1-0.3,0.1c-0.1,0,0-0.1,0.2-0.2c0,0,0.1,0,0.2,0
				c0.1,0,0.1,0,0.1,0s0.1-0.1,0.3-0.3c0.2-0.2,0.4-0.3,0.4-0.3c-0.3,0.2-0.6,0.4-0.8,0.5c-0.1,0.1-0.3,0.1-0.4,0.2
				c-0.1,0.1-0.2,0.1-0.2,0.2c0,0,0,0-0.1,0c0,0-0.1,0-0.2,0c-0.1,0-0.1,0-0.1,0c0,0-0.1,0-0.1,0s0.2,0.1,0.2,0.1
				C105.6,13.5,105.7,13.5,105.8,13.5z"/>
			<path class="st0" d="M107.2,12.9C107.2,12.9,107.2,12.9,107.2,12.9C107.2,12.9,107.2,12.8,107.2,12.9c-0.1-0.1-0.1,0-0.2,0
				c-0.1,0-0.1,0.1-0.1,0.1c0,0,0,0,0,0C107,12.9,107.1,12.9,107.2,12.9C107.2,12.9,107.2,12.9,107.2,12.9z"/>
			<path class="st0" d="M106.9,13c-0.2,0.1-0.4,0.2-0.4,0.2c0,0,0.1,0.1,0.1,0.1C106.9,13.2,106.9,13.1,106.9,13
				C106.9,13,106.9,13,106.9,13C106.9,13,106.9,13,106.9,13z"/>
			<path class="st0" d="M116.8,7.7c-0.2-0.1-0.7-0.1-1.1-0.1c0.2,0,0.4,0.1,0.6,0.1C116.5,7.8,116.7,7.8,116.8,7.7z"/>
			<path class="st0" d="M116.9,7.1L116.9,7.1c0,0,0.1,0,0.2,0.1C117,7.2,117,7.1,116.9,7.1z"/>
			<path class="st0" d="M116.9,7.1C116.8,7.1,116.7,7.2,116.9,7.1L116.9,7.1z"/>
			<path class="st0" d="M117.5,7.4c0,0,0.1,0,0.1,0.1c0.1,0.1,0.3,0.2,0.4,0.3c0.2,0.2,0.4,0.3,0.5,0.2c0,0,0,0-0.1-0.1
				c-0.1-0.1-0.2-0.1-0.3-0.2c-0.2-0.1-0.4-0.2-0.4-0.2c0.1-0.1,0.1-0.1,0.6,0.1c0-0.1-0.2-0.1-0.3-0.2c-0.1,0-0.2-0.1-0.2-0.1
				c-0.1,0-0.2-0.1-0.2-0.1C117.5,7.2,117.6,7.2,117.5,7.4c0.1-0.1,0.2,0,0.2,0C117.7,7.3,117.6,7.3,117.5,7.4c0-0.1,0-0.1-0.1-0.1
				c-0.1,0-0.2-0.1-0.3-0.1c0.1,0,0.2,0.1,0.3,0.1C117.5,7.3,117.5,7.3,117.5,7.4z"/>
			<path class="st0" d="M118.9,8.2c0.1,0,0.2,0.1,0.3,0.2c0.2,0.1,0.4,0.3,0.4,0.3c-0.1-0.1-0.3-0.4-0.5-0.5
				c-0.2-0.1-0.3-0.2-0.3-0.1C118.7,8.2,118.8,8.2,118.9,8.2z"/>
			<path class="st0" d="M119.8,9.5C119.7,9.3,119.7,9.3,119.8,9.5c0.1,0.1,0.3,0.4,0.3,0.5c-0.2-0.5-0.3-0.6-0.3-0.6
				c-0.1,0-0.1,0-0.3-0.3C119.6,9.2,119.7,9.4,119.8,9.5z"/>
			<path class="st0" d="M119.5,9.1c0-0.1-0.1-0.1-0.2-0.2C119.4,9,119.4,9,119.5,9.1z"/>
			<path class="st0" d="M115.6,6.3L115.6,6.3C115.6,6.3,115.6,6.4,115.6,6.3z"/>
			<path class="st0" d="M119.8,12.1L119.8,12.1c-0.1,0.1-0.1,0.2-0.2,0.3C119.6,12.4,119.8,12.1,119.8,12.1z"/>
			<path class="st0" d="M117.7,14.4L117.7,14.4C117.7,14.4,117.7,14.4,117.7,14.4z"/>
			<path class="st0" d="M119.9,10.6c0-0.1,0-0.2,0-0.2c0-0.1,0-0.1,0-0.2c0,0,0,0,0,0.2c0,0,0,0.1,0,0.1
				C119.9,10.5,119.9,10.5,119.9,10.6c0,0.1,0,0.2-0.1,0.4c-0.1,0.5-0.3,1-0.5,1.2c0-0.4,0.2-0.7,0.3-1.2c0-0.1,0-0.2,0-0.4
				c0-0.1,0-0.1,0-0.2c0-0.1,0-0.1,0-0.2c-0.1-0.2-0.2-0.4-0.3-0.5c-0.2-0.1,0.1,0.3,0.2,0.8c0.1,0.2,0,0.5,0,0.6
				c0,0.1-0.1,0.1-0.1,0c0,0,0-0.1,0-0.2c0-0.1,0-0.2,0-0.4c0-0.3-0.1-0.5-0.1-0.5c0,0.2,0.1,0.4,0.1,0.5c0,0.1,0,0.2,0,0.3
				c0,0.1,0,0.2,0,0.3c-0.1,0.3-0.2,0.6-0.4,0.7c0.2-0.3,0.3-0.7,0.3-1.1c0-0.1,0-0.1,0-0.3c0,0,0,0,0,0c0,0,0,0,0,0
				c-0.2-0.5-0.6-1.4-1.8-2c0.1,0,0.3,0,0.6,0.2c0.3,0.2,0.6,0.5,0.8,0.6c-0.1-0.2-0.3-0.4-0.5-0.6c-0.2-0.2-0.5-0.3-0.7-0.4
				c0,0,0,0,0.1,0.1c0.1,0,0.1,0.1,0.2,0.2c0.1,0.1,0.1,0.1,0.2,0.2c0.1,0,0.1,0.1,0.1,0.1c-0.2-0.2-0.4-0.3-0.5-0.3
				c-0.1-0.1-0.3-0.1-0.4-0.1c-0.1,0-0.3-0.1-0.4-0.1c-0.3-0.1-0.7-0.2-1.1-0.2c-0.1,0-0.1,0-0.1-0.1c0-0.1,0.1-0.1,0-0.2
				c-1.2,0-0.4,0-0.4,0.2c-0.4,0-0.7,0-1,0c0.1,0,0.1-0.1,0.2-0.1c0,0,0,0,0,0l0,0c0,0,0.1-0.1,0.1-0.1c0.2-0.2,0.3-0.3,0.5-0.5
				c0.1-0.1,0.1-0.2,0.2-0.2c0.1-0.1,0.1-0.3,0.2-0.5c0,0,0.1-0.1,0.1-0.1c0,0,0-0.3-0.2-0.6c-0.1-0.2-0.2-0.4-0.4-0.6
				c-0.3-0.4-0.7-0.7-1.1-0.9c-0.2-0.1-0.4-0.2-1.3-0.3c0,0,0,0,0,0c-0.1-0.1-0.1-0.1,0,0c-0.1,0-0.2,0-0.4,0c0,0,0,0,0,0
				c0,0-0.1-0.1-0.1-0.1l0,0c0,0,0,0,0,0c0,0-0.1,0.1-0.1,0.1c-0.2,0-0.4,0.1-0.4,0.2c0,0.1,0.4,0.4,0.4,0.4
				c0.2,0.2,0.6,0.8,0.6,1.1c0,0,0,0.2-0.2,0.3c-0.2,0.1-1.1,0.3-1.1,0.4c0,0,0,0.1,0.1,0.1c0.7,0.4,1.1,0.7,1.4,1
				c0,0,0.4,0.3,0.4,0.3v0l0.1,0l0.1,0c-0.2,0.1-1.3,0.4-1.5,0.5l-0.4,0.1c-0.1,0-0.1,0-0.2,0.1c0,0-0.1,0-0.1,0l-0.8,0.2
				c-0.1,0-0.5,0.2-0.6,0.2c-0.2-0.5-0.2-0.6-0.2-2c0,0,0,0,0,0c0,0,0,0,0,0c0,0,0,0,0-0.1c0-0.2-0.2-1.1-0.4-1.3
				c-1-0.8-1.1-0.9-1.7-1.2c-0.5-0.3-1.9-0.5-1.9-0.5c-0.2,0-0.4,0.2-0.4,0.4c0,0.2,0.1,0.4,0.2,0.5c0.1,0.1,1,0.7,1.1,0.9
				c0.2,0.2,0.7,3.1,0.9,4c0,0,0,0,0,0c0,0,0,0,0,0c0,0.1,0,0.2,0,0.2c0,0-0.1,0.1-0.3,0.2c0,0,0-0.1,0-0.1c0-0.1,0-0.1-0.1-0.2
				c-0.1,0-0.2,0-0.4,0.1c0.3-0.1,0.4,0,0.3,0.1c0,0.1-0.3,0.2-0.5,0.3c0,0,0,0,0,0c-0.1,0-0.2,0.1-0.3,0.1c0.3-0.2-0.2-0.1-0.6,0.1
				c0.4-0.1,0.7-0.1,0.6-0.1c-0.2,0.1-0.4,0.1-0.6,0.2c0.1,0,0.1-0.1,0.1-0.1c0-0.1-0.3,0-0.8,0.1c-0.2,0.1-0.5,0.1-0.7,0.2
				c-0.1,0-0.3,0.1-0.4,0.1c-0.2,0-0.3,0-0.4,0c-0.1,0-0.1,0-0.2,0.1c0,0-0.1,0-0.1,0.1c-0.1,0-0.1,0.1-0.1,0.1c0,0,0,0.1,0,0.1
				c-0.1,0-0.3,0-0.5,0c-0.2,0-0.3,0-0.4,0l0,0c0,0,0,0,0,0c0,0,0,0-0.1,0.1c0,0-0.1,0.1-0.1,0.2c0,0.1,0,0.3,0.1,0.3
				c0.1,0.2,0.2,0.4,0.3,0.5c0.1,0.2,0.3,0.3,0.5,0.4c0.2,0.1,0.4,0.3,0.8,0.4c0,0,0,0,0,0.1c0,0,0.1,0,0.1,0l0,0
				c0.2,0.1,0.5,0.1,0.8,0.2c0.1,0,0.2,0,0.3,0.1c-0.1,0-0.2,0-0.3-0.1c-0.4-0.1-0.7-0.3-0.9-0.5c-0.1-0.1-0.2-0.2-0.3-0.3
				c0.2,0.1,0.4,0.2,0.7,0.3c0.1,0,0.1,0.1,0.2,0.1c0.5,0.1,1,0.2,1.9,0.2c0.3,0,1.6-0.9,1.8-0.9c0.1,0,0.2,0.1,0.3,1.2l0.4,2.5
				l0,0.3l0.2,1.5c0,0.1,0.1,0.3,0.1,0.5l0,0c-0.1,0-0.1,0-0.2,0c0,0,0,0,0,0c0,0-0.1,0-0.1,0c0,0,0,0,0,0l0,0v0l0,0c0,0,0,0,0,0
				c0,0,0,0,0,0c0,0,0,0,0,0l0,0c0,0,0,0,0,0c0,0,0,0,0,0c0,0,0,0,0,0c0,0,0,0,0,0c0,0,0,0.4,0.1,0.4c0,0,0,0.4,0,0.4c0,0,0,0,0,0
				c0,0,0,0,0,0c0,0,0,0-0.1,0c0,0,0,0,0,0c0,0-0.1-0.4-0.1-0.4l-0.1-0.4v0c0,0,0,0,0,0c0,0,0,0.8,0,0.8h0.1c0,0,0-0.4,0-0.4
				c0,0,0-0.2,0-0.2c0,0,0-0.1,0-0.1l0-0.1l-0.1,0c0,0,0,0,0,0V19h0.2h0c0,0,0,0,0,0c0,0,0,0,0,0h0h0c0,0,0-0.4,0-0.4
				c0,0,0-0.2,0-0.2c0-0.1,0-0.2-0.1-0.3c0,0,0-0.1,0-0.2c0,0,0-0.1,0-0.1c0-0.1,0-0.2,0-0.3c-0.1-0.9-0.1,0.5-0.2-0.3
				c0-0.1,0,0.2,0.1,0.6c0,0,0,0,0,0.1l0,0.1c0,0,0,0.1,0,0.1c0,0,0,0.1,0,0.1c0,0,0,0,0,0v0c0,0,0,0,0,0c0,0,0,0,0,0
				c0,0-0.1,0.5-0.1,0.4l0,0.5c0,0,0.1,0,0.1,0v-0.9l-0.1,0c0,0,0,0.1-0.1,0.1c0-0.1,0-0.1,0-0.2c0,0,0-0.1,0-0.1l0-0.1
				c0,0,0,0,0-0.1c0-0.3-0.1-0.5-0.2-0.8c0,0.3,0.1,0.6,0.1,0.9c0,0,0,0.1,0,0.1l0,0.1l0,0.1c0,0.1,0,0.1,0,0.2c0,0,0,0,0,0.1
				c0,0.1,0.1,0.3,0,0.4l0.1,0v0v0v0c0,0-0.3,1.3-0.3,1.3h0.6l0,0h-0.5l-0.1-0.6c0,0,0-0.3,0-0.3c0,0,0-0.1,0-0.1c0,0,0-0.2,0-0.2
				c0,0,0,0.3,0.2,0.6c0,0.1,0.1,0.1,0.2,0.2c0,0,0.1,0.1,0.1,0.1l0.1,0.1l0,0c0.1,0.1,0.1,0.1,0.2,0.2c0.1,0.2,0.1,0.3,0.2,0.5
				c0,0,0,0-0.1-0.1c-0.1-0.1-0.2-0.2-0.3-0.3c-0.1-0.1-0.1-0.1-0.2-0.1c-0.1-0.1-0.1-0.1-0.1,0c0,0,0,0,0.1,0.1
				c0,0.1,0.1,0.1,0.2,0.2c0.1,0.1,0.2,0.2,0.2,0.3c0.1,0.1,0.1,0.1,0.1,0.1c-0.2-0.1,0,0.1,0.2,0.3c0.2,0.2,0.4,0.3,0.3,0.3
				c0,0,0.2,0.1,0.4,0.1c0.3,0,0.6,0.1,1-0.1c0.3-0.1,0.6-0.4,0.8-0.6c0.2-0.2,0.2-0.4,0.2-0.4l0.1,0c0,0-0.1,0.1-0.2,0.3
				c-0.1,0.1-0.2,0.2-0.2,0.2c-0.1,0.2-0.1,0.2,0,0.2c0.1-0.1,0.3-0.2,0.4-0.5c0.1-0.3,0.3-0.6,0.3-0.9c0-0.2,0-0.3,0-0.5
				c0-0.1,0-0.2,0-0.2c0,0,0-0.1,0-0.1l-0.1,0c0-0.5,0-0.8,0-0.9c0-0.1,0-0.1,0-0.2c0,0,0,0,0-0.1c0,0,0-0.1,0-0.1
				c0-0.1,0-0.1,0-0.3c0-0.1,0-0.3,0-0.5l-0.2-0.4c0,0,0.1,0.3,0.1,0.6c0.1,0.3,0.1,0.6,0,0.7c0-0.1-0.1-0.2-0.1-0.4
				c0-0.1-0.1-0.2-0.1-0.4c0-0.2-0.1-0.5-0.2-0.7c-0.1-0.5-0.2-1-0.4-1.5l0.4,0.7c-0.1-0.2-0.1-0.4-0.1-0.7c0,0,0.1,0.1,0.1,0.1
				l0.2,0.2c0,0.1,0.1,0.1,0.2,0.1c0,0,0,0.2,0,0.2l0,0.2h0c0,0,0-0.2,0-0.1l0-0.1l0,0l0,0l0,0l0.1,0.1l0.2,0.1l0.1,0.1
				c0.1,0.1,0.2,0.1,0.3,0.2c0.2,0.1,0.5,0.8,0.7,0.8c0.5,0.1,0.7,0.7,1,0.7h0.1c0,0,0.1-0.6,0.1-0.6c0.1,0,0.1-0.3,0.2-0.3
				c0.1,0,0.2-0.2,0.3-0.2c0.1,0,0.3-0.1,0.4-0.2c0.3-0.1,0.5-0.2,0.8-0.3c0,0-0.1,0-0.2,0c-0.1,0-0.1,0-0.1,0l0.3-0.1
				c0.1,0,0.3-0.1,0.5-0.2c0.1-0.1,0.3-0.2,0.4-0.2c0.1-0.1,0.3-0.1,0.4-0.2c0.2-0.1,0.5-0.3,0.7-0.4c0.2-0.1,0.3-0.2,0.4-0.3
				c0.1-0.1,0.2-0.2,0.3-0.3c0.2-0.2,0.3-0.3,0.5-0.5c-0.5,0.4-0.3,0.2-0.1-0.1c0.3-0.3,0.6-0.8,0.7-0.9c-0.3,0.5-0.8,1.1-1.3,1.5
				c-0.2,0.2-0.4,0.4-0.6,0.5c-0.1,0.1-0.2,0.1-0.2,0.1l0,0l-1.2,0.8l-0.1,0l0,0c0,0,0,0,0,0l0,0c-0.1,0-0.1,0-0.2,0.1l-0.3,0.1
				l0-0.2c0,0.1-0.2,0.2-0.4,0.2c-0.2,0.1-0.5,0.1-0.8,0.1c-0.1,0-0.3,0-0.4,0c-0.1,0-0.1,0-0.2,0c-0.1,0-0.3,0-0.4,0
				c-0.2,0-0.3,0-0.2,0.1c-0.3,0-0.7-0.1-0.8-0.2c-0.2-0.1-0.2-0.2-0.1-0.2c-0.1,0-0.2-0.1-0.3-0.1l-0.1-0.1l-0.1-0.1l-0.1-0.1
				l0,0.6c0-0.1,0.1,0.6,0.1,0.6H112v-1.1l0-0.1l0,0l0,0l0,0c0,0,0,0,0,0c-0.1,0-0.1-0.1-0.2-0.1l-0.2-0.2l-0.2-0.2
				c0-0.1,0-0.1,0-0.2c0.1,0,0.2,0.1,0.2,0.2c0.1,0.1,0.1,0.2,0.2,0.2c0,0.1,0.1,0.1,0.2,0.2c0,0,0.1,0.1,0.1,0.1l0,0.7l0,0.7H112
				v-1.3c0,0,0,1.3,0,1.3h0.1l0-0.6l0-0.3l0-0.2l0.1,0l0.1,0l0.1,0c0.1,0,0.1,0.1,0.2,0.1c0.1,0.1,0.3,0.1,0.5,0.2
				c0.3,0.1,0.6,0.1,0.8,0.2c0.3,0,0.1-0.1,0.1-0.1c0,0,0,0,0.1,0c0,0,0.1,0,0.2,0c0,0,0.1,0,0.1,0c0.1,0,0.2,0,0.2,0
				c0.3,0,0.6-0.1,0.9-0.1c0.1,0,0.3,0,0.4-0.1l0.1,0l0.1,0c0.1,0,0.2-0.1,0.3-0.1c0.3-0.2,0.6-0.3,0.9-0.5c0.1-0.1,0.3-0.1,0.4-0.2
				c0.1,0,0.1-0.1,0.2-0.1l0.1-0.1l0.1-0.1c0.5-0.4,0.9-0.8,1.3-1.1c-0.2,0.2-0.5,0.4-0.3,0.1c0,0,0.2-0.2,0.3-0.3
				c0.1-0.1,0.2-0.2,0.2-0.3c0.1-0.1,0.1-0.1,0.1-0.1c0.2-0.4,0.2-0.7,0.3-1C120,10.9,120,10.7,119.9,10.6z M114.2,9.5
				c0.4-0.1,0.7-0.1,1.1-0.1c0,0-0.2,0.2-0.1,0.2c0.2,0,0.5,0,0.7,0.1c0.2,0.1,0.3,0.2,0.3,0.2c-0.3-0.1-0.6-0.2-0.8-0.2
				c-0.1,0-0.2,0-0.3,0c-0.1,0-0.2,0-0.3,0.1c-0.2,0.1-0.3,0.1-0.5,0.2c-0.1,0-0.2,0-0.3,0.1c-0.1,0-0.2,0-0.3,0.1
				c0.1-0.1,0,0-0.1-0.1c-0.2,0.1-0.4,0.3-0.7,0.4c-0.2,0.1-0.5,0.2-0.8,0.3c0,0,0,0-0.1,0c0,0,0,0,0,0c0,0,0,0,0,0l0.1,0
				c0,0-0.1,0-0.1,0c0,0-0.1-0.1-0.1-0.1l-0.1-0.1c0,0,0,0,0,0c0.4-0.2,0.9-0.4,1.4-0.6C113.5,9.7,113.8,9.6,114.2,9.5z M115.1,10.7
				c-0.1,0-0.2,0.1-0.3,0.3c0,0,0.1-0.1,0.2-0.2c0.2,0-0.2,0.2-0.3,0.4c-0.2,0-0.3,0.1-0.4,0.1c-0.1,0-0.1,0-0.2,0c0,0-0.1,0-0.1,0
				c0,0,0,0,0,0c0,0,0.1,0-0.2,0c-0.2,0-0.5-0.1-0.5-0.1c0,0,0,0,0,0c-0.1,0-0.2,0.4-0.4,0.3l0,0.4h-0.1c0,0,0-0.5,0-0.5
				c0.3-0.1,0.6-0.5,0.9-0.6c0.1-0.1,0.3-0.2,0.4-0.3l0.1-0.1l0.1,0c0.1,0,0.1,0,0.2-0.1c0.1,0,0.2,0,0.4-0.1c0.1,0,0.1,0,0.2,0
				c0,0,0,0,0,0l0,0c0,0,0.1,0,0.1,0.1c0,0,0,0,0,0c0,0,0,0,0,0c0,0,0.1,0,0.1,0c0.1-0.1-0.1-0.1-0.1-0.2c0.2,0,0.2,0.1,0.2,0.1
				c0,0,0,0.1,0,0.1C115.3,10.6,115.2,10.6,115.1,10.7c0.1,0,0.2-0.1,0.3-0.1c0.1,0,0.2,0,0.1,0.1c-0.1,0-0.2,0-0.2,0
				C115.2,10.7,115.2,10.7,115.1,10.7C115.2,10.7,115.1,10.7,115.1,10.7z M114,7.8L114,7.8L114,7.8C114,7.8,114,7.8,114,7.8L114,7.8
				z M114,7.8C114,7.8,114,7.8,114,7.8L114,7.8C114,7.7,114,7.7,114,7.8L114,7.8L114,7.8z M111.8,10.3L111.8,10.3
				C111.7,10.4,111.7,10.4,111.8,10.3L111.8,10.3C111.8,10.3,111.8,10.3,111.8,10.3z M110.6,13.3C110.6,13.3,110.6,13.3,110.6,13.3
				C110.6,13.3,110.6,13.3,110.6,13.3C110.6,13.3,110.6,13.3,110.6,13.3z M114.3,7.8C114.2,7.8,114.2,7.8,114.3,7.8
				c-0.1,0-0.1,0-0.1,0l0,0l0,0C114.2,7.7,114.2,7.7,114.3,7.8C114.3,7.7,114.3,7.7,114.3,7.8c0.1-0.1,0.1-0.1,0.1-0.1
				C114.4,7.7,114.3,7.7,114.3,7.8z M114.7,7.5c-0.1,0.1-0.1,0.1-0.2,0.1l0,0C114.6,7.6,114.6,7.6,114.7,7.5
				C114.7,7.5,114.7,7.5,114.7,7.5C114.7,7.5,114.7,7.5,114.7,7.5z M104.9,10.6c0.1,0,0.1,0,0.2,0C105,10.5,105,10.6,104.9,10.6
				c-0.1,0.1-0.2,0.1-0.4,0.2C104.6,10.6,104.8,10.6,104.9,10.6z M108.2,18.2L108.2,18.2C108.2,18.2,108.2,18.2,108.2,18.2
				C108.2,18.2,108.2,18.2,108.2,18.2z M108.1,18.2C108.1,18.2,108.1,18.2,108.1,18.2C108.1,18.2,108.1,18.2,108.1,18.2
				C108.1,18.2,108.1,18.2,108.1,18.2z M108.1,18.2C108.1,18.2,108.1,18.2,108.1,18.2L108.1,18.2L108.1,18.2L108.1,18.2z
				 M108.1,18.1L108.1,18.1L108.1,18.1L108.1,18.1L108.1,18.1z M108,18.1L108,18.1C108,18.1,108,18.1,108,18.1L108,18.1L108,18.1
				C108,18.2,108,18.2,108,18.1C108,18.1,108,18.1,108,18.1C108,18.1,108,18.1,108,18.1L108,18.1C108,18.1,108,18.1,108,18.1z
				 M108,18.2C108,18.2,108,18.2,108,18.2L108,18.2C108,18.2,108,18.2,108,18.2C108,18.2,108,18.2,108,18.2z M107.8,18.2L107.8,18.2
				C107.8,18.2,107.8,18.2,107.8,18.2C107.8,18.2,107.8,18.2,107.8,18.2C107.8,18.2,107.8,18.2,107.8,18.2z M108,19.5
				c-0.1-0.1-0.2-0.3-0.2-0.4c0-0.1,0-0.2,0-0.2c0,0,0-0.1,0-0.1l0,0l0,0l0,0l0,0c0,0,0,0,0,0v0l0,0l0-0.1c0-0.1,0.1-0.3,0.1-0.4
				c0,0,0-0.1,0-0.1c0,0,0,0,0,0l0,0c0,0,0,0,0,0c0,0,0,0,0,0c0,0,0,0,0,0c0,0,0,0,0,0c0,0,0,0,0,0c0,0,0,0,0,0c0,0,0,0,0,0
				c0,0,0,0,0,0c0,0,0,0.3,0,0.3c0,0,0,0.3,0.1,0.3c0,0,0,0,0,0c0,0,0,0,0,0h0c0,0,0,0,0,0c0,0,0,0,0,0l0-0.3
				c-0.2,0.1-0.3,0.1-0.2,0.3c0.1,0.4,0.2,0.8,0.3,1.2C108.3,19.9,108.2,19.7,108,19.5z M111.1,15.5c0,0,0,0,0,0.2
				c-0.1-0.3-0.1-0.6-0.2-1C111,15,111.1,15.3,111.1,15.5z M111.3,14.2L111.3,14.2c-0.1-0.2-0.1-0.2,0-0.2
				C111.3,14.1,111.3,14.1,111.3,14.2z"/>
			<path class="st0" d="M107.1,9.5C107.1,9.5,107.1,9.5,107.1,9.5C107.1,9.5,107.1,9.5,107.1,9.5z"/>
		</g>
		<g>
			<polygon class="st0" points="144.4,15.2 144.4,15.2 144.4,15.2 			"/>
			<polygon class="st0" points="144.5,12.3 144.5,12.3 144.5,12.3 			"/>
			<path class="st0" d="M144.7,12.2L144.7,12.2L144.7,12.2C144.7,12.3,144.7,12.2,144.7,12.2z"/>
			<polygon class="st0" points="144.5,12.3 144.5,12.3 144.5,12.3 			"/>
			<ellipse transform="matrix(0.661 -0.7504 0.7504 0.661 39.6922 112.6039)" class="st0" cx="144.5" cy="12.4" rx="0" ry="0"/>
			<path class="st0" d="M144.5,12.4C144.5,12.4,144.5,12.4,144.5,12.4C144.5,12.4,144.5,12.4,144.5,12.4
				C144.5,12.4,144.5,12.4,144.5,12.4C144.5,12.4,144.5,12.4,144.5,12.4z"/>
			<path class="st0" d="M144.5,12.3C144.5,12.3,144.5,12.3,144.5,12.3C144.5,12.3,144.5,12.4,144.5,12.3
				C144.5,12.4,144.5,12.4,144.5,12.3C144.5,12.4,144.5,12.3,144.5,12.3z"/>
			<path class="st0" d="M144.7,12.2L144.7,12.2C144.7,12.2,144.7,12.2,144.7,12.2z"/>
			<path class="st0" d="M144.7,12.2L144.7,12.2C144.7,12.2,144.7,12.2,144.7,12.2C144.7,12.2,144.7,12.2,144.7,12.2
				C144.7,12.2,144.7,12.2,144.7,12.2z"/>
			<path class="st0" d="M148.9,14.6C148.9,14.6,148.9,14.6,148.9,14.6C148.9,14.6,148.9,14.6,148.9,14.6
				C148.9,14.6,148.9,14.6,148.9,14.6z"/>
			<path class="st0" d="M148.9,13.8c0,0,0,0,0-0.1c0,0,0,0,0-0.1c0,0,0,0,0,0c0,0,0,0,0-0.1c0-0.1-0.1-0.2-0.1-0.3
				c0-0.1,0.1-0.2,0.1-0.2c0,0.1-0.1,0.1-0.2,0.2c0,0.1,0,0.2,0,0.2c0,0.2,0,0.4,0,0.6c0,0.5,0,0.8,0.2,0.7
				C148.9,14.2,148.8,13.9,148.9,13.8L148.9,13.8z"/>
			<path class="st0" d="M148.9,16c0-0.4,0-0.9-0.1-1.4C148.8,15.1,148.9,15.4,148.9,16z"/>
			<path class="st0" d="M147.5,20C147.4,20,147.4,20,147.5,20C147.6,20,147.5,20,147.5,20z"/>
			<path class="st0" d="M144,16.1c-0.1,0.1-0.2,0.1-0.2,0.1c0,0,0,0,0,0c0,0,0,0,0,0c0,0,0.3-0.2,0.3-0.3c0,0,0,0,0,0
				C144.1,16,144,16,144,16.1z"/>
			<path class="st0" d="M144.7,17.7c0,0.1,0,0.1,0,0.2C144.7,17.8,144.7,17.7,144.7,17.7z"/>
			<path class="st0" d="M144.5,16.4c0,0.3,0.1,0.5,0.1,0.8c0,0,0,0,0,0c0-0.1,0-0.2,0-0.3C144.6,16.7,144.6,16.5,144.5,16.4z"/>
			<path class="st0" d="M144.9,18.5c0-0.1-0.1-0.2-0.1-0.2c0-0.1,0-0.1,0-0.1c0,0,0,0.4,0,0.4c0.2,0.4,0.3,0.5,0.3,0.5
				c0.1,0.1,0.1,0,0.1,0c0,0,0-0.1,0.1,0c0,0-0.1-0.1-0.1-0.1C145.1,18.8,145,18.7,144.9,18.5z"/>
			<path class="st0" d="M145.3,19.1C145.3,19.1,145.3,19.1,145.3,19.1c0,0,0.1,0.1,0.1,0.1c0.1,0.1,0.2,0.2,0.2,0.2
				c0.1,0.1,0.2,0.2,0.2,0.2c-0.2-0.1-0.3-0.3-0.4-0.4C145.4,19.2,145.4,19.2,145.3,19.1z"/>
			<path class="st0" d="M150.4,7c-0.1,0.1-0.3,0.3-0.5,0.4c-0.2,0.1-0.3,0.3-0.3,0.4c0.1-0.1,0.2-0.2,0.4-0.4
				C150.1,7.3,150.3,7.2,150.4,7z"/>
			<path class="st0" d="M150.1,8.4L150.1,8.4c0,0-0.1,0.1-0.1,0.1C150,8.5,150.1,8.4,150.1,8.4z"/>
			<path class="st0" d="M150.1,8.3L150.1,8.3C150.2,8.2,150.2,8.2,150.1,8.3z"/>
			<path class="st0" d="M149.6,8.8L149.6,8.8L149.6,8.8L149.6,8.8c-0.1,0-0.2,0.1-0.2,0.1c0,0,0,0.1,0.1,0.1l0-0.1
				C149.6,8.9,149.6,8.8,149.6,8.8c0.1,0.1,0.1,0.2,0.1,0.2l0,0c0,0,0,0,0,0c0,0,0,0,0,0c0,0,0,0,0,0c0-0.1,0.1-0.1,0.1-0.1
				l-0.1,0.1c0-0.1,0.2-0.2,0.3-0.4c-0.1,0.1-0.2,0.1-0.2,0.2C149.7,8.7,149.7,8.7,149.6,8.8z"/>
			<path class="st0" d="M148.8,10C148.8,10,148.8,10,148.8,10C148.8,10,148.8,10,148.8,10z"/>
			<path class="st0" d="M148.8,10C148.8,10,148.8,10,148.8,10C148.8,10,148.8,10,148.8,10z"/>
			<path class="st0" d="M148.7,10L148.7,10C148.7,10,148.7,10,148.7,10C148.8,10,148.7,10,148.7,10z"/>
			<path class="st0" d="M149.2,9.8C149.2,9.8,149.2,9.8,149.2,9.8L149.2,9.8L149.2,9.8L149.2,9.8L149.2,9.8
				C149.2,9.8,149.2,9.8,149.2,9.8z"/>
			<path class="st0" d="M148.9,9.9C148.9,9.9,148.9,9.9,148.9,9.9L148.9,9.9C148.9,9.9,148.9,9.9,148.9,9.9z"/>
			<path class="st0" d="M148.9,9.9C148.9,10,148.8,10,148.9,9.9C148.8,10,148.8,10,148.9,9.9L148.9,9.9z"/>
			<path class="st0" d="M148.7,10C148.7,10,148.7,10,148.7,10C148.7,10,148.7,10,148.7,10z"/>
			<path class="st0" d="M148.8,10C148.8,10,148.8,10,148.8,10C148.8,10,148.8,10,148.8,10z"/>
			<path class="st0" d="M149.4,3.4L149.4,3.4C149.4,3.5,149.4,3.5,149.4,3.4z"/>
			<path class="st0" d="M150.5,8.6L150.5,8.6c0.1,0,0.2-0.1,0.3-0.1L150.5,8.6z"/>
			<path class="st0" d="M153.4,7.8L153.4,7.8C153.4,7.8,153.4,7.8,153.4,7.8z"/>
			<path class="st0" d="M159.7,14c0-0.3,0-0.7,0-1.1c0-0.4,0-0.8,0-1.2c0,0,0.1,0.1,0.1,0.3c0.1,0.1,0.1,0.3,0.1,0.3
				c-0.1-0.5-0.2-1.1-0.4-1.7c-0.1-0.3-0.3-0.6-0.5-0.9c-0.1-0.1-0.1-0.2-0.2-0.2l-0.1-0.1l-0.1-0.1L158.4,9c-0.4-0.3-0.9-0.7-1.4-1
				c-0.6-0.3-1.1-0.4-1.6-0.4c0,0,0.1,0,0.2,0.1c0.1,0,0.2,0.1,0.2,0.1c-0.4-0.1-0.9-0.1-1.3-0.1c-0.2,0-0.4,0-0.6,0
				c-0.2,0-0.4,0-0.6,0c-0.7,0-1.3,0.1-1.8,0.3c0.6,0,0.4,0.1,0,0.1c-0.4,0.1-0.9,0.2-1.1,0.3c0.5-0.1,1.3-0.3,1.8-0.4
				c0.5-0.1,0.9-0.2,1-0.1l0,0c0,0,0.1,0,0.3,0c0.2,0,0.5,0,0.7,0c0.3,0,0.5,0,0.8,0c0.2,0,0.4,0,0.4,0L155.5,8c0-0.1,0.3-0.1,0.6,0
				c0.3,0.1,0.7,0.2,1,0.4c0.7,0.4,1,0.9,1,0.6c0.2,0.2,0.4,0.4,0.4,0.5c0,0,0,0.1,0,0.1c0,0,0,0.1,0,0.1c0,0,0,0.1-0.1,0.1
				c0,0,0,0,0.1,0.1c0.1,0,0.1,0.1,0.2,0.2c0.1,0.2,0.3,0.4,0.4,0.6c0.2,0.5,0.4,0.9,0.4,0.9c0,0.2-0.3-0.1-0.3-0.3
				c-0.1-0.3-0.3-0.8-0.7-1.2l-0.2-0.2l-0.1-0.1c-0.1-0.1-0.2-0.1-0.2-0.2c-0.1-0.1-0.3-0.3-0.4-0.4c-0.3-0.1-0.2,0-0.2,0.1
				c0,0,0,0-0.1,0c-0.1,0-0.2-0.1-0.5-0.3c-0.4-0.3-1-0.5-1.5-0.6c-0.5-0.1-1.1-0.1-1.6-0.1c-1,0-2,0.2-2.6,0.3
				c0.3,0,0.6-0.1,0.3,0.1c0,0-0.2,0-0.5,0c-0.2,0-0.5,0.1-0.5,0.1c-0.1,0.1-0.3,0.1-0.4,0.2c-0.1,0-0.1,0.1-0.2,0.1
				c-0.1,0-0.1,0-0.2,0.1c0,0-0.1,0-0.1,0c0,0-0.1,0-0.1,0c0,0,0.2,0,0.2,0.1c0,0,0.2,0,0.2,0v0c-1,0.1-0.6,0.2-0.8,0.2
				c-0.1,0.1,0.1,0,0.4-0.1l0,0.2c-0.3,0.1-0.6,0.2-0.8,0.3c0-0.1,0-0.3,0.1-0.5c0-0.1,0-0.2,0-0.4c0-0.1,0-0.2,0-0.3
				c0-0.1,0.1-0.1,0.1-0.1c0,0-0.1,0.1-0.1,0.1c0,0.1-0.1,0.3-0.1,0.5c0-0.2,0-0.4,0-0.5c0-0.1,0.1-0.2,0.1-0.3
				c0-0.1,0.1-0.2,0.1-0.3c0-0.1,0.1-0.1,0.2-0.2c0.3-0.3,0.6-0.6,0.7-0.7c0.1-0.1,0.1-0.1,0.2-0.2c0.2-0.1,0,0.2,0.3,0.1
				c0.4-0.5,0.5-0.6,0.4-0.6c0,0-0.2,0.2-0.3,0.1c0.2-0.2,0.3-0.3,0.4-0.5c0-0.2,0-0.3,0-0.5c-0.1-0.3-0.4-0.7-1-1
				c0.2,0.1,0.3,0.1,0.4,0.2c0.1,0.1,0.2,0.1,0.3,0.2c0.1,0.1,0.2,0.2,0.3,0.3c0.1,0.1,0.1,0.3,0.1,0.5c0,0,0-0.1,0.1-0.1
				c0-0.1,0.1-0.2,0.1-0.2c-0.1-0.3-0.2-0.5-0.4-0.6c-0.2-0.1-0.3-0.2-0.5-0.3c-0.3-0.1-0.7-0.2-1-0.4c0-0.1,0-0.2,0-0.2
				c0.1-0.2,0.1-0.4,0.1-0.5c0,0,0.1-0.1,0.1-0.1c0,0,0-0.4-0.3-0.8c-0.1-0.2-0.2-0.4-0.3-0.5c0,0,0-0.1-0.1-0.1c0,0,0,0,0-0.1
				c0,0,0,0,0,0c-0.3-0.4-0.5-0.6-0.6-0.7l-1.6-1.2l-0.1,0l0,0c-0.1,0-0.3,0-0.4,0c-0.2,0-0.5,0.1-0.5,0.4c0,0.2,0.6,0.9,0.7,1.1
				c0.2,0.3,0.1,0.9,0.1,1.3l-0.1,2c0,0,0,0,0,0.1c-0.2,0.1-1.2,0.5-1.4,0.6l-1.8,1l-0.4,0.3c-0.1,0-0.1,0.1-0.2,0.1
				c0,0-0.1,0.1-0.1,0.1L141,7.5c-0.2,0.1-0.5,0.4-0.5,1c0,0.5,0.3,0.9,0.7,1.3c0,0,0,0,0,0c0,0,0,0,0,0c0.3,0.2,0.5,0.4,0.6,0.4
				c0.1,0,0.1,0,0.1-0.1c0.3-0.6,0.3-0.6,0.8-1c0.2-0.1,1.1-0.6,1.3-0.7c1.3-0.7,1.4-0.8,1.7-0.9c-0.3,0.4-1.7,2.2-2,2.6
				c0,0.1-1.7,1.9-2.5,3.1c0,0-0.2,0-0.2,0v0c0,0.2,0,0.3-0.1,0.5c-0.1-0.2,0.1-0.6-0.4,0.1c0.3-0.3,0.4-0.2,0.4-0.1
				c0,0.1,0,0.2-0.1,0.3c0,0.1,0,0.1-0.1,0.2c-0.1,0-0.1,0.1-0.2,0.1c0,0,0,0,0,0c-0.1,0.1-0.2,0.1-0.3,0.2c0-0.1,0.1-0.1,0-0.1
				c0,0-0.1,0-0.1,0.1c-0.1,0.1-0.1,0.1-0.2,0.3c0,0.1-0.1,0.3,0,0.4c0-0.3,0.1-0.5,0.2-0.6c0.1-0.1,0.1-0.1,0.1,0
				c-0.1,0.1-0.1,0.3-0.1,0.5c0,0,0,0.1,0,0.1c0-0.1,0-0.1-0.1-0.2c0,0-0.1,0.1-0.1,0.2c0,0.2,0,0.4,0,0.6c0,0.2,0.1,0.6,0.1,0.8
				c0.1,0.3,0.2,0.5,0.3,0.7c0.1,0.1,0.2,0.2,0.3,0.2c0.1,0,0.1,0.1,0.2,0.1c0.1,0,0.2,0,0.3-0.1c0.1,0.1,0.3,0.1,0.5,0.1
				c0.1,0,0.2,0,0.3,0c0.1,0,0.1-0.1,0.2-0.1c0.3-0.2,0.5-0.4,0.7-0.6c0.1-0.1,0.2-0.1,0.2-0.2c0.1,0,0.1-0.1,0.2-0.1
				c0.2-0.1,0.3-0.2,0.5-0.4c0,0,0,0,0,0c0.1-0.1,0.2-0.2,0.3-0.3c0,0,0,0,0,0.1c0,0,0.1,0,0.1,0l0,0c0,0,0.1-0.1,0.1,0
				c0.1,0.1,0.2,0.3,0.3,0.5c0-0.2-0.1-0.5-0.2-0.7c0,0,0-0.1,0-0.1l-0.1,0c0,0-0.1,0-0.1,0c-0.1,0-0.1,0-0.2,0.1
				c-0.1,0-0.2,0.1-0.4,0.2l0.6-0.5l0.1-0.1c0.1,0-0.1,0.1,0,0c0,0,0,0,0.1,0c0,0,0,0,0,0c0,0,0,0,0,0c0,0,0,0,0,0c0,0,0,0,0,0
				c0,0,0,0,0,0c0,0,0,0,0,0l-0.1,0.1c0,0,0,0,0.1-0.1c0,0,0,0,0,0c0,0,0,0,0,0l0,0c-0.1,0.1-0.2,0.1-0.2,0.1c0,0,0,0,0,0l0,0
				c0,0,0.1,0,0.1,0c0,0,0,0,0.1,0c0.2,0.2,0.3,0.5,0.4,0.9c0,0,0,0.1,0,0.2c0,0.4,0.1,1,0.4,1.6c0,0,0,0.1,0,0.1
				c0,0.2,0.1,0.6,0.3,0.9c-0.1-0.1-0.2-0.2-0.3-0.4c0-0.1-0.1-0.2-0.1-0.3c0-0.1,0-0.2-0.1-0.3c-0.1-0.3-0.1-0.6-0.3-0.7
				c0,0,0.2-0.3,0.2-0.4c0,0,0.1,0.2,0.1,0.2c0,0,0,0,0,0c0,0.1-0.2,0.2-0.1,0.3c0,0.1-0.1,0.2-0.1,0.3c0-0.3,0-0.4,0.1,0l-0.1,0.3
				c0,0,0,0.1,0,0.1c0,0,0,0,0,0.1c0,0,0,0.1,0.1,0.1c0,0.1,0.1,0.1,0.1,0.2c0,0.1,0.1,0.1,0.1,0.2c0.1,0.1,0.2,0.2,0.3,0.3
				c0,0,0,0,0,0c0.2,0.4,0.4,0.8,0.8,1c0.1,0.1,0.2,0.1,0.4,0.1c0.1,0,0.4,0,0.6,0c0.1,0,0.2,0,0.3-0.1c0-0.1,0.1-0.1,0.2-0.2
				c0,0,0.1,0,0.1-0.1c0.6-0.3,0.9-0.9,1.1-1.5c0-0.1,0.1-0.2,0.1-0.4c0,0,0,0,0,0c0-0.1-0.1-0.2-0.1-0.2c0-0.9-0.1-1.8-0.2-2.8
				c0,0,0-0.1,0-0.1c-0.1-0.6-0.1-1.1-0.1-1.7c0.2,0,0.5-0.1,0.7-0.1l-0.1,0c-0.1,0-0.1,0.1-0.1,0.1c-0.1,0.1-0.1,0.1-0.1,0.2
				c0,0.1,0,0.1,0.1,0.1c0,0,0,0,0,0c0,0,0-0.1,0-0.1c0-0.1,0.1-0.1,0.1-0.1c0,0,0,0.1,0,0.1c0,0,0,0,0,0c0,0,0,0,0.1,0
				c0,0,0.1,0,0.1,0l0,0l0,0c0-0.1-0.1-0.2-0.1-0.2c0.1,0,0.2,0,0.2,0c0,0,0,0,0,0c0,0,0,0,0.1,0c0,0,0,0,0,0c0,0,0,0,0,0
				c0,0,0,0,0,0c0.1,0.1,0.2,0.2,0.3,0c0.2-0.1,0.3-0.2,0.6-0.3c0,0,0.1,0,0.1-0.1c0.1,0,0.2-0.1,0.4-0.1c-0.2,0.2,0,0.1,0.3,0
				c0.3-0.1,0.8-0.3,1.1-0.3l0-0.1c0.8-0.1,1-0.1,1.1-0.1c0.1,0,0.1,0,0.2,0c0.1,0,0.1,0,0.2,0c0.1,0,0.1,0,0.2,0c0,0,0,0,0,0
				c0,0,0,0,0-0.1c0,0,0.1-0.1,0.1-0.1c0,0-0.1,0-0.1,0c0,0,0,0,0,0l-0.1,0c0,0-0.1,0-0.1,0c-0.1,0-0.1,0-0.2,0c-0.1,0-0.2,0-0.2,0
				c0.1,0,0.2-0.1,0.3-0.1c0.1,0,0.1,0,0.2,0c0.1,0,0.1,0,0.1,0c0.1,0,0.2,0,0.3,0c0.1,0,0.2,0.1,0.2,0.2c0,0,0.1,0.1,0.1,0.1
				c0,0,0,0.1,0,0.1c0,0,0,0,0,0c0,0,0,0,0,0c0,0-0.1-0.1-0.1-0.1c-0.1-0.1-0.2-0.1-0.2-0.1c0.1,0,0.1,0,0,0.3
				c-0.1,0.2-0.2,0.4-0.3,0.8c0,0,0.1-0.1,0.1-0.3c0.1-0.1,0.1-0.3,0.1-0.3c0.1,0.2,0,0.7-0.3,1.2c-0.3,0.5-0.6,1-0.9,1.4
				c0.2-0.2,0.3-0.4,0.4-0.4c-0.1,0.2-0.5,0.7-0.8,1c0,0,0,0,0,0c-0.1-0.2,0.3-0.6,0.6-1.1c0.3-0.5,0.5-0.9,0.3-0.8
				c-0.3,0.5-0.5,0.9-0.7,1.3c-0.1,0.2-0.2,0.4-0.4,0.6c0,0-0.1,0.1-0.1,0.1c0,0-0.1,0.1-0.1,0.1c-0.1,0.1-0.2,0.1-0.2,0.2
				c0,0,0.1-0.1,0.2-0.3c0,0,0-0.1,0.1-0.1c0,0,0,0,0-0.1c0,0,0-0.1,0-0.1s0,0,0,0.1c0,0,0,0,0,0.1c0,0,0,0.1-0.1,0.1
				c-0.1,0.1-0.2,0.2-0.2,0.2l0.1-0.1c-0.1,0.3-0.6,0.5-0.9,0.9l0.1-0.4c0,0-0.2,0.2-0.3,0.3c-0.1,0.1-0.2,0.2-0.2,0.2
				c0,0-0.1,0-0.1,0l0.1,0c-0.1,0.1-0.3,0.2-0.4,0.3c-0.2,0.1-0.4,0.2-0.6,0.3c-0.1,0-0.2,0.1-0.3,0.1c-0.1,0-0.2,0.1-0.3,0.1
				c-0.1,0-0.1,0.1-0.2,0.1c-0.1,0-0.1,0.1-0.4,0.3c-0.1,0.1-0.3,0.4-0.3,0.6c0,0.2,0,0.3,0,0.3c0,0.1,0,0.2,0,0.3
				c0,0.1,0,0.2,0.1,0.2c0,0.1,0.1,0.2,0.1,0.3l0.2,0.6l0.8,0.1c0.1,0,0.2,0,0.4,0c0.2,0,0.3,0,0.5,0c0.1,0,0.3,0,0.4-0.1l0.3,0
				c0,0-0.2,0-0.4,0.1c-0.1,0-0.3,0-0.4,0c-0.1,0-0.2,0-0.2,0c0.1,0,0.3,0,0.5-0.1c0.1,0,0.2,0,0.3-0.1c0.1,0,0.2,0,0.3-0.1
				c0,0-0.1,0-0.2,0c-0.1,0-0.3,0-0.4,0.1c-0.2,0-0.4,0-0.5,0c-0.1,0-0.2,0-0.2-0.1c0.2,0,0.5,0,0.6,0c0.1,0,0.2,0,0.2,0
				c0.1,0,0.1,0,0.2,0c0.2,0,0.4,0,0.6-0.1c0.2,0,0.4,0,0.6-0.1c0.2,0,0.4,0,0.9-0.1c0.1-0.1-0.2-0.1-0.3-0.1c-0.1,0-0.1,0,0-0.1
				c0.1-0.1,0.2-0.1,0.5-0.2c0,0.2,0.9-0.1,0.3,0.3c0.8-0.4,0.7-0.1,1.3-0.6c-0.1,0-0.2,0.1-0.3,0.1c-0.3,0,0.3-0.2,0.5-0.4
				c0.1,0,0.3-0.1,0.3,0c0,0,0,0,0.1,0c0.1,0,0.1,0,0.2,0c0,0,0.1,0,0.1,0c0.1,0,0.1,0,0.2,0c0.1,0,0.2-0.1,0.4-0.1
				c0.1,0,0.2-0.1,0.3-0.2c0,0,0.3-0.2,0.6-0.5c0.3-0.2,0.6-0.5,0.6-0.5c0.1,0,0,0.1,0,0.1c0.3-0.3,0.6-0.5,0.9-0.9
				c0.3-0.4,0.5-0.7,0.7-1.1c0.4-0.8,0.5-1.5,0.5-2.1c0-0.1-0.1-0.2-0.1-0.3C159.8,13.4,159.8,13.5,159.7,14z M148.6,8.5
				c0,0.2,0,0.4,0.1,0.6c-0.1,0-0.2,0.1-0.2,0.1c0-0.4,0.1-0.7,0.1-0.7c0,0,0.1-0.1,0.1-0.2C148.7,8.3,148.6,8.4,148.6,8.5z
				 M148.9,9.8l0.2,0l-0.1,0l-0.2,0.1C148.9,9.9,148.9,9.9,148.9,9.8c0,0.1,0,0.1,0,0.1L148.9,9.8L148.9,9.8c0.3,0.1,0.4,0,0.6-0.1
				l0,0.1c-0.1,0-0.1,0.1-0.2,0.1c0,0,0,0,0,0c0,0,0,0,0,0c-0.1,0-0.2,0.1-0.3,0.1l-0.2,0l0.2,0c-0.2,0.1-0.4,0.2-0.5,0.2
				c0-0.1-0.1-0.1-0.1-0.3c0,0,0-0.1,0-0.2l0.2,0c0,0,0,0,0,0C148.5,10,148.7,9.9,148.9,9.8z M149.1,9.8L149.1,9.8L149.1,9.8
				C149.1,9.8,149.1,9.8,149.1,9.8C149.1,9.8,149.1,9.8,149.1,9.8z M149.8,9.4C149.8,9.4,149.8,9.4,149.8,9.4c0.1,0,0.1,0,0.1,0
				c0,0,0,0,0,0c0,0,0,0,0,0.1c0,0,0,0,0,0l0,0l-0.2,0.1c0,0,0-0.1,0-0.1C149.7,9.5,149.7,9.4,149.8,9.4z M149.8,9.6L149.8,9.6
				c0.1,0,0.1,0,0.1-0.1c0.3-0.1,0.6-0.2,0.8-0.2C150.5,9.5,150.2,9.6,149.8,9.6c0.1,0-0.1,0.1-0.3,0.2c0,0,0-0.1,0-0.1
				C149.7,9.7,149.8,9.6,149.8,9.6z M145.1,15.3C145.1,15.3,145.1,15.3,145.1,15.3C145.1,15.3,145.1,15.3,145.1,15.3
				C145.1,15.3,145,15.3,145.1,15.3C145.1,15.2,145.1,15.2,145.1,15.3C145,15.2,145,15.2,145.1,15.3C145,15.2,145,15.2,145.1,15.3
				c0.1,0,0.1,0,0.2,0c0,0-0.4,0-0.2-0.1c0.1,0,0.2,0,0.4,0c0,0,0,0.1,0,0.1l0,0C145.5,15.2,145.1,15.3,145.1,15.3
				C145.1,15.3,145.1,15.3,145.1,15.3z M144.8,15C144.8,15,144.8,15,144.8,15L144.8,15C144.8,15,144.8,15,144.8,15z M144.8,15
				c0.1,0,0.1-0.1,0.2-0.1c0.1-0.1,0.1-0.1,0.1-0.1c0,0,0,0,0,0c0,0,0,0-0.1,0c0,0,0,0,0,0C144.9,14.9,145.1,14.9,144.8,15
				c0.2,0,0.3-0.1,0.3-0.1c-0.1,0-0.1,0.1-0.2,0.1c0.1,0,0.2,0,0.3,0c0.1,0,0,0,0.1,0c0,0-0.1,0-0.1,0v-0.2c0,0,0,0,0.1,0
				c0,0-0.1,0.1,0,0.1c-0.1,0-0.2,0-0.1,0l-0.2,0.1c0.1,0,0.3,0,0.3-0.1c0,0,0,0,0,0l-0.1,0c0,0,0.1,0,0.1,0c0,0,0,0.1,0,0.1
				c0,0,0,0-0.1,0l0.2,0c-0.2,0-0.2,0-0.3,0c0.1,0,0.2,0,0.2-0.1c-0.2,0-0.1,0-0.4,0c0,0,0,0-0.1,0C144.9,15.1,144.8,15,144.8,15
				C144.9,15,144.9,15,144.8,15z M145.2,14.9L145.2,14.9c0.1,0,0.2-0.1,0.3-0.1c0,0,0,0,0,0c0,0-0.1,0-0.2,0.1
				C145.2,14.9,145.2,14.9,145.2,14.9z M145,14.7C145,14.6,145,14.7,145,14.7c0,0,0.1-0.1,0.1-0.1c0.1,0,0.1-0.1,0.1-0.1L145,14.7
				C145.1,14.5,145.1,14.5,145,14.7z M145.1,14.5L145.1,14.5C145.1,14.5,145.1,14.5,145.1,14.5C145.1,14.5,145.1,14.5,145.1,14.5
				C145.1,14.5,145.1,14.5,145.1,14.5z M145,14.6c0,0-0.1,0.1-0.1,0.1c0,0-0.1,0.1-0.1,0.1c0,0,0,0,0,0c0,0,0,0,0,0c0,0,0,0,0,0l0,0
				C144.9,14.6,144.9,14.6,145,14.6C145,14.6,145,14.6,145,14.6z M144.8,14.8C144.8,14.7,144.8,14.7,144.8,14.8
				C144.8,14.7,144.9,14.7,144.8,14.8c0.1-0.1,0.1-0.1,0.2-0.1C144.9,14.7,144.9,14.7,144.8,14.8C144.8,14.7,144.8,14.8,144.8,14.8
				C144.8,14.8,144.8,14.8,144.8,14.8C144.8,14.8,144.8,14.8,144.8,14.8z M145.4,14.7L145.4,14.7c0.2-0.1-0.1,0,0.1-0.1c0,0,0,0,0,0
				c0,0,0,0,0,0c0,0,0,0,0,0c0,0,0,0.1,0,0.1c-0.2,0.1-0.3,0.1-0.3,0.1c0,0,0,0,0,0c0,0,0,0,0,0C145.3,14.8,145.1,14.8,145.4,14.7z
				 M144.5,12.4L144.5,12.4C144.5,12.4,144.5,12.4,144.5,12.4L144.5,12.4C144.5,12.4,144.5,12.4,144.5,12.4
				C144.5,12.4,144.5,12.4,144.5,12.4C144.5,12.4,144.5,12.4,144.5,12.4L144.5,12.4C144.5,12.4,144.5,12.4,144.5,12.4
				C144.5,12.4,144.5,12.4,144.5,12.4L144.5,12.4C144.5,12.4,144.5,12.4,144.5,12.4L144.5,12.4L144.5,12.4L144.5,12.4L144.5,12.4
				C144.5,12.4,144.5,12.4,144.5,12.4C144.5,12.4,144.5,12.4,144.5,12.4C144.5,12.4,144.5,12.4,144.5,12.4
				C144.5,12.4,144.5,12.4,144.5,12.4L144.5,12.4C144.5,12.4,144.5,12.4,144.5,12.4C144.5,12.4,144.5,12.4,144.5,12.4
				C144.5,12.4,144.5,12.4,144.5,12.4C144.5,12.4,144.5,12.4,144.5,12.4L144.5,12.4C144.5,12.4,144.5,12.4,144.5,12.4
				C144.5,12.4,144.5,12.4,144.5,12.4C144.5,12.4,144.5,12.4,144.5,12.4C144.5,12.4,144.5,12.4,144.5,12.4
				C144.5,12.4,144.5,12.3,144.5,12.4C144.5,12.3,144.5,12.3,144.5,12.4C144.5,12.3,144.5,12.3,144.5,12.4
				C144.5,12.3,144.5,12.3,144.5,12.4C144.5,12.3,144.5,12.3,144.5,12.4C144.5,12.3,144.5,12.3,144.5,12.4L144.5,12.4
				C144.5,12.4,144.5,12.4,144.5,12.4C144.5,12.4,144.5,12.4,144.5,12.4C144.5,12.4,144.5,12.4,144.5,12.4
				C144.5,12.4,144.5,12.4,144.5,12.4L144.5,12.4C144.5,12.4,144.5,12.4,144.5,12.4C144.5,12.4,144.5,12.4,144.5,12.4L144.5,12.4
				L144.5,12.4C144.5,12.4,144.5,12.4,144.5,12.4L144.5,12.4C144.5,12.4,144.5,12.4,144.5,12.4C144.5,12.4,144.5,12.4,144.5,12.4
				C144.5,12.4,144.5,12.4,144.5,12.4L144.5,12.4C144.5,12.4,144.5,12.4,144.5,12.4C144.5,12.4,144.5,12.4,144.5,12.4
				C144.5,12.4,144.5,12.4,144.5,12.4C144.5,12.4,144.5,12.4,144.5,12.4C144.5,12.4,144.5,12.4,144.5,12.4
				C144.5,12.4,144.5,12.4,144.5,12.4C144.5,12.4,144.5,12.4,144.5,12.4L144.5,12.4C144.5,12.4,144.5,12.4,144.5,12.4
				C144.5,12.4,144.5,12.4,144.5,12.4C144.5,12.4,144.5,12.4,144.5,12.4z M145.7,11.8L145.7,11.8C145.7,11.9,145.7,11.9,145.7,11.8
				C145.7,11.9,145.7,11.8,145.7,11.8z M145.1,11.8C145.1,11.8,145.1,11.9,145.1,11.8L145.1,11.8C145.1,11.9,145.1,11.8,145.1,11.8
				L145.1,11.8z M145.1,11.9L145.1,11.9C145.1,11.9,145.1,11.9,145.1,11.9L145.1,11.9C145.1,11.9,145.1,11.9,145.1,11.9z
				 M145.1,11.9C145.1,11.9,145.1,11.9,145.1,11.9L145.1,11.9L145.1,11.9L145.1,11.9z M145.1,11.9L145.1,11.9L145.1,11.9L145.1,11.9
				C145.1,11.9,145.1,11.9,145.1,11.9L145.1,11.9z M145.3,11.6C145.3,11.6,145.3,11.6,145.3,11.6L145.3,11.6
				C145.3,11.6,145.3,11.6,145.3,11.6z M145.2,11.7L145.2,11.7C145.3,11.7,145.3,11.7,145.2,11.7C145.3,11.7,145.3,11.7,145.2,11.7z
				 M145.1,11.9C145.1,11.9,145.1,11.9,145.1,11.9L145.1,11.9C145.1,11.9,145.1,11.9,145.1,11.9L145.1,11.9z M144.8,12.2
				C144.8,12.1,144.8,12.1,144.8,12.2C144.8,12.2,144.7,12.2,144.8,12.2z M144.8,12.2C144.8,12.2,144.8,12.1,144.8,12.2
				C144.8,12.1,144.8,12.2,144.8,12.2z M145.5,11.5C145.5,11.5,145.5,11.5,145.5,11.5C145.6,11.5,145.5,11.5,145.5,11.5L145.5,11.5
				C145.5,11.4,145.5,11.4,145.5,11.5C145.5,11.4,145.5,11.4,145.5,11.5c0.1,0,0.1,0,0.2,0c0,0,0-0.1,0-0.1
				C145.6,11.4,145.6,11.4,145.5,11.5c0.1-0.1,0.2-0.1,0.2-0.1l0,0c0,0,0,0,0,0c0,0,0,0,0,0l0,0.1c0,0,0,0,0,0c0,0,0,0,0,0l0,0.3
				c-0.1,0-0.1,0-0.2,0c-0.3-0.3,0.2,0.1,0-0.1c-0.2-0.1,0,0.1-0.2-0.1C145.4,11.5,145.4,11.5,145.5,11.5z M144.6,12.3L144.6,12.3
				C144.6,12.3,144.6,12.3,144.6,12.3C144.6,12.3,144.6,12.3,144.6,12.3C144.6,12.3,144.6,12.3,144.6,12.3
				C144.6,12.3,144.6,12.3,144.6,12.3C144.6,12.3,144.6,12.3,144.6,12.3z M144.6,12.3L144.6,12.3C144.6,12.3,144.6,12.3,144.6,12.3
				L144.6,12.3C144.6,12.3,144.6,12.3,144.6,12.3z M144.5,12.4C144.5,12.4,144.5,12.4,144.5,12.4L144.5,12.4
				C144.5,12.3,144.5,12.4,144.5,12.4C144.5,12.4,144.5,12.4,144.5,12.4C144.5,12.4,144.5,12.4,144.5,12.4z M144.5,12.3
				C144.5,12.3,144.5,12.3,144.5,12.3C144.5,12.3,144.5,12.4,144.5,12.3C144.5,12.4,144.5,12.4,144.5,12.3
				C144.5,12.3,144.5,12.3,144.5,12.3z M144.5,12.4C144.5,12.4,144.5,12.4,144.5,12.4C144.5,12.4,144.5,12.4,144.5,12.4
				C144.5,12.4,144.5,12.4,144.5,12.4L144.5,12.4C144.5,12.4,144.5,12.4,144.5,12.4C144.5,12.4,144.5,12.4,144.5,12.4
				C144.5,12.4,144.5,12.4,144.5,12.4C144.5,12.4,144.5,12.4,144.5,12.4C144.5,12.4,144.5,12.4,144.5,12.4L144.5,12.4
				C144.5,12.4,144.5,12.4,144.5,12.4C144.5,12.4,144.5,12.4,144.5,12.4C144.5,12.4,144.5,12.4,144.5,12.4z M144.5,12.4
				C144.5,12.4,144.5,12.4,144.5,12.4C144.5,12.4,144.5,12.4,144.5,12.4L144.5,12.4z M144.6,12.3C144.5,12.4,144.5,12.4,144.6,12.3
				L144.6,12.3L144.6,12.3C144.5,12.3,144.5,12.3,144.6,12.3C144.5,12.3,144.5,12.3,144.6,12.3L144.6,12.3L144.6,12.3
				C144.5,12.3,144.5,12.3,144.6,12.3C144.5,12.3,144.5,12.3,144.6,12.3L144.6,12.3z M144.5,12.3C144.5,12.3,144.5,12.3,144.5,12.3
				L144.5,12.3C144.5,12.3,144.5,12.3,144.5,12.3z M144.5,12.3L144.5,12.3L144.5,12.3C144.5,12.3,144.5,12.3,144.5,12.3z
				 M144.5,12.3C144.5,12.3,144.5,12.3,144.5,12.3C144.5,12.3,144.5,12.3,144.5,12.3L144.5,12.3z M144.5,12.4
				C144.5,12.4,144.5,12.4,144.5,12.4C144.5,12.4,144.5,12.4,144.5,12.4C144.5,12.4,144.5,12.4,144.5,12.4
				C144.5,12.4,144.5,12.4,144.5,12.4z M144.6,12.3C144.6,12.3,144.6,12.3,144.6,12.3C144.6,12.3,144.6,12.3,144.6,12.3
				C144.6,12.3,144.6,12.3,144.6,12.3z M144.4,12.3C144.5,12.4,144.5,12.4,144.4,12.3C144.5,12.4,144.5,12.4,144.4,12.3
				C144.5,12.4,144.5,12.4,144.4,12.3C144.5,12.4,144.5,12.4,144.4,12.3C144.5,12.4,144.4,12.4,144.4,12.3
				C144.4,12.4,144.4,12.4,144.4,12.3C144.4,12.4,144.4,12.4,144.4,12.3z M144.4,12.4C144.4,12.4,144.4,12.4,144.4,12.4
				C144.4,12.4,144.4,12.4,144.4,12.4C144.4,12.4,144.4,12.4,144.4,12.4C144.4,12.4,144.4,12.4,144.4,12.4L144.4,12.4
				C144.4,12.4,144.4,12.4,144.4,12.4C144.4,12.4,144.5,12.4,144.4,12.4L144.4,12.4C144.5,12.4,144.5,12.4,144.4,12.4
				C144.5,12.4,144.5,12.4,144.4,12.4C144.4,12.4,144.5,12.4,144.4,12.4z M144.4,12.4L144.4,12.4C144.4,12.4,144.4,12.4,144.4,12.4
				L144.4,12.4z M144.5,12.4C144.5,12.4,144.5,12.4,144.5,12.4L144.5,12.4C144.5,12.4,144.5,12.4,144.5,12.4
				C144.5,12.4,144.5,12.4,144.5,12.4z M144.5,12.4C144.5,12.4,144.5,12.4,144.5,12.4C144.5,12.4,144.5,12.4,144.5,12.4L144.5,12.4
				C144.5,12.4,144.5,12.4,144.5,12.4z M144.6,12.3C144.6,12.3,144.6,12.3,144.6,12.3C144.6,12.4,144.6,12.4,144.6,12.3
				C144.6,12.4,144.6,12.4,144.6,12.3L144.6,12.3z M144.7,12.3C144.7,12.3,144.7,12.3,144.7,12.3L144.7,12.3L144.7,12.3L144.7,12.3
				C144.6,12.3,144.6,12.3,144.7,12.3L144.7,12.3L144.7,12.3L144.7,12.3c-0.1,0-0.1,0-0.1,0c0,0,0,0,0,0c0,0,0,0,0,0
				C144.6,12.3,144.6,12.3,144.7,12.3c-0.1,0-0.1,0-0.1,0c0,0,0,0,0,0c0-0.1,0-0.1,0-0.1L144.7,12.3
				C144.7,12.2,144.7,12.2,144.7,12.3C144.7,12.2,144.7,12.2,144.7,12.3L144.7,12.3l0.2-0.2c0,0,0,0,0,0L144.7,12.3L144.7,12.3
				l0.2-0.2c0,0,0,0,0.1,0L144.7,12.3c0.1-0.1,0.1,0,0.2,0c0,0,0,0,0,0c0,0,0,0,0,0C144.8,12.3,144.8,12.3,144.7,12.3
				C144.8,12.3,144.8,12.3,144.7,12.3C144.8,12.3,144.8,12.3,144.7,12.3C144.8,12.3,144.7,12.4,144.7,12.3
				C144.7,12.3,144.7,12.3,144.7,12.3z M144.5,12.4C144.5,12.4,144.5,12.4,144.5,12.4L144.5,12.4C144.5,12.4,144.5,12.4,144.5,12.4
				C144.5,12.4,144.5,12.4,144.5,12.4z M144.6,12.4C144.6,12.5,144.6,12.4,144.6,12.4L144.6,12.4C144.6,12.4,144.6,12.4,144.6,12.4
				C144.6,12.4,144.6,12.4,144.6,12.4C144.6,12.4,144.6,12.4,144.6,12.4C144.6,12.4,144.6,12.4,144.6,12.4
				C144.6,12.4,144.6,12.4,144.6,12.4L144.6,12.4C144.6,12.4,144.6,12.4,144.6,12.4C144.6,12.4,144.6,12.4,144.6,12.4L144.6,12.4
				C144.6,12.4,144.6,12.4,144.6,12.4C144.6,12.4,144.6,12.4,144.6,12.4C144.6,12.4,144.6,12.4,144.6,12.4L144.6,12.4
				C144.6,12.4,144.6,12.4,144.6,12.4C144.6,12.4,144.6,12.4,144.6,12.4L144.6,12.4L144.6,12.4C144.6,12.4,144.6,12.4,144.6,12.4
				L144.6,12.4C144.6,12.4,144.6,12.4,144.6,12.4C144.6,12.4,144.6,12.4,144.6,12.4C144.6,12.4,144.6,12.4,144.6,12.4
				C144.6,12.4,144.6,12.4,144.6,12.4C144.6,12.4,144.6,12.4,144.6,12.4C144.6,12.4,144.6,12.4,144.6,12.4
				C144.6,12.4,144.6,12.4,144.6,12.4C144.6,12.4,144.6,12.4,144.6,12.4C144.6,12.4,144.6,12.4,144.6,12.4
				C144.6,12.4,144.6,12.4,144.6,12.4C144.6,12.4,144.6,12.4,144.6,12.4C144.6,12.4,144.6,12.5,144.6,12.4L144.6,12.4L144.6,12.4z
				 M144.4,12.4C144.4,12.4,144.4,12.4,144.4,12.4C144.4,12.4,144.4,12.4,144.4,12.4L144.4,12.4C144.4,12.4,144.4,12.4,144.4,12.4
				C144.5,12.4,144.5,12.4,144.4,12.4C144.5,12.4,144.5,12.4,144.4,12.4C144.5,12.4,144.5,12.4,144.4,12.4
				C144.5,12.4,144.5,12.4,144.4,12.4C144.4,12.4,144.4,12.4,144.4,12.4z M144.9,15.1c0,0,0.1,0,0.1,0c0.1,0,0.2,0,0.1,0
				c0,0,0,0-0.1,0c0,0,0,0,0,0C145,15.1,145,15.1,144.9,15.1C144.9,15.1,144.9,15.1,144.9,15.1C144.9,15.1,144.9,15.1,144.9,15.1z
				 M145.5,15.4C145.5,15.4,145.5,15.4,145.5,15.4C145.5,15.4,145.5,15.4,145.5,15.4C145.5,15.4,145.5,15.4,145.5,15.4z M144.9,14.9
				C144.8,14.9,144.8,14.9,144.9,14.9C144.8,14.9,144.8,14.9,144.9,14.9C144.8,14.9,144.8,14.9,144.9,14.9z M145.1,15.3L145.1,15.3
				C145.1,15.3,145.1,15.3,145.1,15.3c0,0,0.1,0,0.1,0c0.1,0,0.1,0,0.1,0L145.1,15.3C145.1,15.3,145.1,15.3,145.1,15.3
				c0.1,0,0.1,0,0.1,0c0,0,0.1,0,0,0L145.1,15.3c0.1,0,0.2,0,0.2,0.1c0,0,0,0,0,0c0,0,0,0.1,0.1,0.1
				C145.3,15.4,145.2,15.4,145.1,15.3L145.1,15.3C145.1,15.3,145.1,15.3,145.1,15.3z M145.4,15.5C145.4,15.5,145.4,15.5,145.4,15.5
				C145.4,15.5,145.4,15.5,145.4,15.5C145.4,15.5,145.4,15.5,145.4,15.5z M149.8,19.8l-0.2,0l-0.1-0.1
				C149.6,19.8,149.7,19.8,149.8,19.8z M149.6,9.2C149.6,9.2,149.6,9.2,149.6,9.2l0.2-0.1c0,0,0.1,0,0.1,0c0.2,0,0.4-0.1,0.5-0.1
				c0.2,0,0.3-0.1,0.4-0.1c-0.2,0.2-0.5,0.3-0.9,0.4c0,0,0,0-0.1,0l-0.1,0c0,0-0.1,0-0.1,0C149.6,9.3,149.6,9.2,149.6,9.2z
				 M149.5,9.7l-0.4,0.1l0,0l0,0l0,0c0,0,0,0,0,0l-0.2,0c0.2-0.1,0.4-0.2,0.6-0.3L149.5,9.7z M148.6,9.8l-0.2,0c0-0.1,0-0.3,0-0.5
				c0.1,0,0.2-0.1,0.2-0.1c0,0,0,0,0,0.1C148.7,9.4,148.7,9.6,148.6,9.8C148.7,9.8,148.6,9.8,148.6,9.8z M140.2,15.5
				c0-0.1,0-0.1,0-0.2c0,0.2,0,0.4,0.1,0.6C140.2,15.9,140.2,15.7,140.2,15.5z M144.3,15.2L144.3,15.2
				C144.3,15.2,144.3,15.2,144.3,15.2L144.3,15.2z M149.3,12.9L149.3,12.9C149.3,12.9,149.4,12.9,149.3,12.9z M151.1,12.4
				c0.1,0,0.2-0.1,0.4-0.1l0,0.1L151.1,12.4z"/>
			<path class="st0" d="M149.7,12.9C149.7,12.9,149.7,12.9,149.7,12.9C149.7,12.9,149.7,12.9,149.7,12.9
				C149.7,12.9,149.7,12.9,149.7,12.9z"/>
			<path class="st0" d="M141.5,13.2L141.5,13.2C141.5,13.2,141.5,13.2,141.5,13.2z"/>
		</g>
		<g>
			<path class="st0" d="M134.2,16.6C134.2,16.6,134.2,16.6,134.2,16.6C134.2,16.6,134.2,16.6,134.2,16.6
				C134.2,16.6,134.2,16.6,134.2,16.6z"/>
			<path class="st0" d="M133.2,16.5C133.2,16.5,133.2,16.5,133.2,16.5C133.2,16.5,133.2,16.5,133.2,16.5z"/>
			<path class="st0" d="M133.7,15.1c-0.1,0-0.1,0-0.2,0l0,0C133.5,15.1,133.6,15.1,133.7,15.1C133.6,15.1,133.7,15.1,133.7,15.1z"/>
			<path class="st0" d="M133.8,14.9L133.8,14.9C133.9,14.9,133.7,14.9,133.8,14.9z"/>
			<path class="st0" d="M133,15.4C133,15.4,133,15.4,133,15.4c0.1-0.2,0.2-0.2,0.2-0.2c0,0,0.1,0,0.1,0c0,0-0.1-0.1-0.1-0.1
				c-0.1,0.1-0.2,0.2-0.2,0.2C132.9,15.4,132.9,15.4,133,15.4C133,15.4,133,15.4,133,15.4L133,15.4z"/>
			<path class="st0" d="M132.9,15.7C132.9,15.7,132.9,15.7,132.9,15.7C132.9,15.7,132.9,15.7,132.9,15.7c0-0.1,0-0.1,0-0.1
				c0-0.1,0-0.1,0-0.1C132.9,15.5,132.9,15.6,132.9,15.7C132.9,15.7,132.9,15.7,132.9,15.7z"/>
			<path class="st0" d="M134.9,10.2c0-0.1-0.2,0-0.2-0.1C134.7,10.2,134.7,10.3,134.9,10.2z"/>
			<path class="st0" d="M135.2,9.8L135.2,9.8C135.2,9.8,135.2,9.8,135.2,9.8C135.2,9.8,135.2,9.8,135.2,9.8z"/>
			<path class="st0" d="M135.1,9.8L135.1,9.8C135.1,9.8,135.1,9.8,135.1,9.8z"/>
			<path class="st0" d="M135.5,10l-0.2-0.1c0.1-0.1,0.1-0.1,0.2,0c0-0.1-0.1-0.1-0.2-0.1l0,0c0,0-0.1,0-0.1,0
				C135.3,9.9,135.3,10.2,135.5,10z"/>
			<path class="st0" d="M135.6,10.1c0.1,0,0.1,0,0.1,0c-0.1-0.1-0.2-0.2-0.3-0.1C135.5,10.1,135.6,10.1,135.6,10.1z"/>
			<path class="st0" d="M135.6,10.4C135.6,10.4,135.7,10.4,135.6,10.4c0.1-0.1,0.2,0.1,0.2,0.1C135.8,10.3,135.7,10.4,135.6,10.4z"
				/>
			<path class="st0" d="M133.8,9.8L133.8,9.8C133.8,9.8,133.8,9.8,133.8,9.8z"/>
			<path class="st0" d="M135.9,10.7L135.9,10.7C135.9,10.8,136,10.8,135.9,10.7L135.9,10.7z"/>
			<polygon class="st0" points="132.5,10 132.5,10 132.5,10 132.5,10 132.5,10 			"/>
			<path class="st0" d="M132.4,10.2C132.4,10.2,132.4,10.2,132.4,10.2C132.4,10.2,132.4,10.3,132.4,10.2L132.4,10.2z"/>
			<path class="st0" d="M132.5,10.1C132.5,10.1,132.5,10.1,132.5,10.1C132.5,10.1,132.5,10.1,132.5,10.1
				C132.5,10.1,132.5,10.1,132.5,10.1C132.5,10.1,132.5,10.1,132.5,10.1C132.5,10.1,132.5,10.1,132.5,10.1
				C132.5,10.1,132.5,10.1,132.5,10.1C132.5,10.1,132.5,10.1,132.5,10.1C132.5,10.1,132.5,10.1,132.5,10.1
				C132.5,10.1,132.5,10.1,132.5,10.1C132.5,10.1,132.5,10.1,132.5,10.1z"/>
			<path class="st0" d="M138.3,15l-0.1,0.2C138.2,15.2,138.2,15.1,138.3,15c-0.2,0-0.1,0.2-0.2,0.2c0-0.1,0-0.2,0.1-0.3
				c0-0.1,0.1-0.3,0.1-0.5c0,0-0.1,0.1-0.1,0.1c-0.1,0-0.1,0-0.2-0.1c0.1,0,0.1-0.2,0.3-0.1c-0.1-0.2,0.1-0.2-0.1-0.3c0,0,0,0,0,0.1
				c-0.1,0.1-0.1-0.1-0.1-0.1c0.1-0.1,0.1-0.2,0.1-0.3l-0.2-0.3c0,0,0,0,0,0c-0.1-0.3-0.2-0.6-0.3-0.8c-0.1,0-0.2,0-0.1,0.1
				c-0.2-0.1-0.1-0.3-0.1-0.4l0.2,0c-0.2-0.3-0.2-0.8-0.6-1l0,0.1c-0.1-0.1-0.1-0.1-0.2-0.2c-0.1-0.1-0.2-0.2-0.2-0.3
				c-0.1-0.1-0.2-0.2-0.3-0.2c0,0.3-0.2,0-0.3,0c0.1,0.2,0.5,0.3,0.4,0.4l0,0c0,0,0.1,0.1,0.3,0.2c0.1,0.1,0.2,0.2,0.2,0.2l-0.1,0.1
				c0.3-0.1,0.2,0.6,0.4,0.4c0.1,0.1,0,0.2-0.1,0.2l0.2,0.3c0,0.1-0.2,0.1-0.2,0c-0.1-0.1-0.3-0.2-0.2-0.4c-0.1-0.1-0.1,0.2-0.2,0
				c0-0.1,0-0.2-0.1-0.3c0,0-0.1-0.1-0.1-0.1c0-0.1-0.1-0.1-0.1-0.2c-0.1-0.1-0.1-0.1-0.1-0.1c0,0-0.1-0.1-0.1-0.1
				c-0.1-0.1-0.1-0.1-0.1-0.2c0,0.1,0.1,0.1-0.1,0.1l-0.1-0.2c-0.1-0.1-0.3,0-0.3-0.1c0,0,0,0.1,0,0.1c0,0.1,0.1,0.1,0.1,0.2
				c-0.2,0.1-0.2,0-0.2-0.1c0-0.1,0-0.2-0.2-0.1c-0.1,0,0,0.1,0,0.2c0.1,0.1,0.1,0.1,0,0.2c0,0,0,0-0.1-0.1c0,0-0.1-0.1-0.1-0.1
				c-0.1,0.2,0.1,0.2,0,0.4c-0.1-0.1-0.4-0.2-0.4-0.2c0,0,0,0,0,0c0,0,0.1,0,0.1,0c0,0,0,0,0,0c-0.1-0.2-0.2-0.2-0.3-0.4
				c0.1-0.1,0.4,0,0.4,0.1c0-0.1-0.2-0.2-0.2-0.3l0.1,0.2c-0.2-0.1-0.2,0-0.4,0c-0.1,0-0.1-0.1-0.2-0.1c0-0.1,0.1-0.1,0.1-0.2
				c-0.3-0.1-0.1,0-0.2,0.1c-0.2-0.1-0.2-0.2-0.4-0.3c0.2,0,0.2,0,0.3,0.1l0-0.1c-0.2,0-0.3,0-0.6,0c0,0-0.1,0-0.1-0.1l0,0
				c0,0-0.1,0-0.3-0.1c0,0,0,0-0.1,0c-0.1,0-0.3-0.1-0.4-0.1c0-0.1-0.1-0.1-0.1-0.2c0,0,0-0.1,0-0.1c-0.1,0.1-0.2,0.1-0.2,0.2
				c-0.1,0-0.3,0-0.4,0c-0.2,0-0.4,0.2-0.4,0.3c0,0,0,0,0,0c0,0,0,0,0,0c0,0.1,0.2,0.7,0.4,0.8c0,0,0.1,0.5,0.1,0.5c0,0,0,0,0,0
				c0,0,0-1,0-1h0.2c0,0,0.4,0.4,0.4,0.4v0.1l0,0v-0.1c0,0-0.3-0.2-0.3-0.2l0.1-0.1c0,0,0.1,0,0.1,0v0c0,0,0,0,0,0v0v1h-1
				c0,0,0-1.1,0-1.1c0,0,0.2,0.1,0.2,0.1c0.2,0.2,0.5,0.4,0.5,0.4l0.1,0.1c0,0,0,0,0.1,0.1c0,0-0.2,0-0.1,0l0.2,0.6c0,0,0,0,0,0
				c0,0,0.2,0,0.2,0l0.3,0.3c0.4,0.6,0.6,1.4,0.7,2c0,0,0,0,0,0l0,0c0,0,0,0.1,0,0.1c-0.1,0-0.3-0.1-0.3,0.1
				c0.1-0.2,0.3-0.1,0.3,0.1c0,0,0,0,0,0c0,0,0,0,0,0.1c-0.1-0.1-0.1,0-0.1,0.1c0-0.1,0.1-0.1,0.1-0.1c0,0,0,0.1,0,0.1c0,0,0,0,0,0
				c-0.1,0-0.1,0.1-0.1,0.2l0,0.1c0,0,0,0.1-0.1,0.1c0,0.1,0.1,0.1,0.2,0.1c-0.1,0-0.1,0.1-0.2,0.1c0.1,0.1,0,0.2-0.1,0.2
				c-0.1,0-0.1,0-0.1,0.1c0,0,0,0,0,0l0,0l0,0c0,0.1,0,0.1-0.1,0.1c0,0,0,0,0,0c0,0,0,0,0.1,0c-0.1,0-0.2,0-0.2,0.1l-0.1-0.1
				c-0.1,0-0.2,0-0.2,0c0.1,0,0.2,0,0.1,0.1c0,0,0,0-0.1,0c0,0,0,0,0,0c0,0-0.1,0-0.1,0s0,0.1-0.1,0.2c0,0,0,0,0,0
				c-0.2,0.2-0.3,0.4-0.2,0.7c0,0.1,0.1,0.2,0.1,0.2c-0.1,0-0.1-0.1-0.2-0.1c-0.1-0.1-0.1-0.1-0.1-0.1c0,0,0,0.1,0,0.2
				c0,0.1,0.1,0.2,0.2,0.2c0.1,0,0.1,0.1,0.1,0.1c0.1,0,0.1-0.1,0.2-0.1c0.2,0.1,0.5,0.1,0.7,0.1c0,0,0,0,0,0c0,0,0,0,0,0
				c0,0,0,0.2,0,0.2c0,0,0,0.2,0.1,0.2c0,0,0,0,0,0c0,0,0,0,0,0c0,0,0,0,0,0c0,0,0.1-0.2,0.1-0.2c0,0,0-0.1,0-0.1l0,0c0,0,0,0,0.1,0
				c0.1,0,0.3,0,0.4,0.1c-0.1,0.1-0.3-0.1-0.4,0.1l0.2,0c-0.1,0.1,0,0.1,0,0.2c0,0,0,0,0,0c0,0,0.1,0,0.1,0.1c0,0,0.1,0.1,0.1,0.1
				c0,0,0.1,0.1,0.1,0.1l-0.1,0.1c0,0-0.1-0.1-0.1-0.1c-0.1,0-0.1,0.1-0.1,0.1c0,0,0,0,0.1,0.1c0.1,0.1,0.3,0.2,0.3,0.3l0-0.1
				c0.2,0.2,0.3,0.2,0.3,0.3c0,0,0.1,0.1,0.3,0.1c0,0,0,0,0.1,0c0,0,0.1-0.1,0.1-0.1c0,0-0.1,0-0.2,0c-0.1,0-0.2,0-0.2-0.1
				c0.3,0,0.7,0,1-0.3c0,0,0,0.1-0.1,0.2c0,0.1-0.1,0.2-0.1,0.2c0-0.1,0.1-0.1,0.2-0.1c0.1,0,0.3,0,0.4-0.1c0,0-0.3,0.1-0.3,0.1
				c0.1-0.2,0.2-0.3,0.4-0.4c0.2-0.1,0.3-0.3,0.4-0.5c0,0.1-0.1,0.1-0.2,0.1c0-0.1,0-0.1,0.1-0.2c0,0,0.1-0.1,0.1-0.1
				c0,0,0.1,0.1,0,0.2c0,0,0,0.1,0,0.1c0,0,0,0.1-0.1,0.1c-0.1,0.2-0.2,0.3-0.1,0.4c0.2-0.2,0.3-0.4,0.3-0.5c0-0.1,0-0.3,0.1-0.3
				l0,0.2l0-0.1l0,0c-0.1-0.1,0.1-0.1,0.1-0.3l0.1,0.1c0,0,0-0.1,0.1-0.1c0-0.1,0.1-0.1,0.1-0.1c0,0-0.1,0-0.1,0
				c0.1-0.2,0.2-0.5,0.2-0.7C138.2,15.3,138.2,15.1,138.3,15z M134.3,14.1c0,0,0,0.1,0,0.1C134.2,14.2,134.3,14.2,134.3,14.1z
				 M133.5,15.2L133.5,15.2C133.5,15.2,133.5,15.2,133.5,15.2C133.5,15.2,133.5,15.2,133.5,15.2z M135.3,17c-0.1,0-0.2,0.1-0.3,0
				l0.1-0.1l-0.2,0c-0.1-0.1-0.1-0.2-0.1-0.3c0,0,0,0,0,0c0.1,0,0.2,0.1,0.3,0.1c0.2,0.2,0.4,0.3,0.6,0.4c0,0-0.1,0-0.1,0
				C135.4,17.3,135.3,17.2,135.3,17z M136.2,17.4C136.2,17.4,136.2,17.4,136.2,17.4C136.2,17.4,136.2,17.4,136.2,17.4
				C136.2,17.4,136.2,17.4,136.2,17.4z M136.8,17.1c0.1,0,0.1-0.1,0.2-0.1C137,17,136.9,17,136.8,17.1
				C136.8,17.1,136.8,17.1,136.8,17.1z"/>
			<path class="st0" d="M132.5,10.1C132.5,10.1,132.5,10.1,132.5,10.1C132.5,10.1,132.5,10.1,132.5,10.1
				C132.5,10.1,132.5,10.1,132.5,10.1z"/>
			<ellipse transform="matrix(0.9347 -0.3555 0.3555 0.9347 5.0894 47.752)" class="st0" cx="132.5" cy="10" rx="0" ry="0"/>
			<path class="st0" d="M132.4,10.2C132.5,10.2,132.5,10.2,132.4,10.2C132.5,10.2,132.5,10.2,132.4,10.2
				C132.4,10.2,132.4,10.2,132.4,10.2z"/>
			<path class="st0" d="M132.5,10.1C132.5,10.1,132.5,10.1,132.5,10.1C132.5,10.1,132.5,10,132.5,10.1C132.5,10,132.5,10,132.5,10.1
				z"/>
			<path class="st0" d="M127,16.6c0,0-0.2-0.1-0.2-0.1l0.1,0.2C126.9,16.7,127,16.6,127,16.6z"/>
			<path class="st0" d="M127.3,15.8c0,0,0,0.1,0,0.1L127.3,15.8c0,0.1,0,0.2,0.1,0.4C127.3,16,127.5,16.1,127.3,15.8z"/>
			<polygon class="st0" points="127.3,15.8 127.3,15.8 127.3,15.8 			"/>
			<path class="st0" d="M127.3,15.7c0,0,0,0.1,0,0.1C127.3,15.8,127.3,15.8,127.3,15.7z"/>
			<path class="st0" d="M127.4,15.9c0,0,0,0.1,0,0.2c0,0,0-0.2,0.1,0C127.5,15.9,127.4,15.9,127.4,15.9z"/>
			<path class="st0" d="M127.4,15.5C127.4,15.5,127.4,15.5,127.4,15.5C127.4,15.5,127.4,15.5,127.4,15.5z"/>
			<path class="st0" d="M127.6,15.7C127.6,15.7,127.6,15.7,127.6,15.7C127.6,15.7,127.6,15.7,127.6,15.7
				C127.6,15.7,127.6,15.7,127.6,15.7z"/>
			<path class="st0" d="M127.5,15.7C127.5,15.7,127.5,15.7,127.5,15.7c0.1,0.1,0.1,0.1,0.1,0.1c0-0.1,0-0.1,0-0.1
				C127.6,15.7,127.5,15.6,127.5,15.7z"/>
			<path class="st0" d="M127.6,15.7c0,0,0-0.1,0-0.1C127.6,15.6,127.6,15.6,127.6,15.7c-0.1-0.1,0-0.1-0.1-0.2c0,0-0.1,0-0.1,0
				C127.6,15.6,127.4,15.6,127.6,15.7z"/>
			<path class="st0" d="M127.8,15.1L127.8,15.1c0,0,0.1-0.1,0.1-0.1C127.8,15,127.8,15.1,127.8,15.1z"/>
			<path class="st0" d="M127.8,14.8L127.8,14.8C127.9,14.7,127.8,14.8,127.8,14.8z"/>
			<path class="st0" d="M127.7,15.2c0.1,0,0.2-0.1,0.2,0L127.7,15.2l0.2,0.2c-0.1-0.2,0.2-0.2,0-0.3l0.1,0l-0.1,0
				C127.8,15.2,127.7,15.2,127.7,15.2z"/>
			<path class="st0" d="M127.6,15.4L127.6,15.4C127.6,15.4,127.6,15.4,127.6,15.4z"/>
			<path class="st0" d="M127.6,15.4l0-0.1l-0.1,0C127.4,15.4,127.6,15.3,127.6,15.4z"/>
			<path class="st0" d="M127.3,11.9c0,0,0-0.1,0.1-0.2C127.3,11.8,127.2,11.8,127.3,11.9z"/>
			<path class="st0" d="M127.8,12.2C127.8,12.2,127.8,12.2,127.8,12.2C127.8,12.2,127.8,12.2,127.8,12.2L127.8,12.2z"/>
			<path class="st0" d="M127.7,12.1L127.7,12.1C127.8,12.1,127.8,12.1,127.7,12.1z"/>
			<path class="st0" d="M127.7,12.4L127.7,12.4c0.1-0.1,0.2,0,0.1,0c0,0,0-0.1,0-0.1l0,0c0,0,0-0.1,0-0.1
				C127.8,12.3,127.5,12.3,127.7,12.4z"/>
			<path class="st0" d="M127.6,12.4l0.1,0.2C127.7,12.5,127.8,12.4,127.6,12.4z"/>
			<path class="st0" d="M127.5,12.6c0.1-0.1,0-0.1,0-0.2c0,0,0,0,0,0.1C127.5,12.5,127.5,12.6,127.5,12.6z"/>
			<path class="st0" d="M127.5,11.2L127.5,11.2C127.5,11.2,127.5,11.2,127.5,11.2z"/>
			<path class="st0" d="M127.3,12.8L127.3,12.8C127.2,12.8,127.2,12.8,127.3,12.8L127.3,12.8z"/>
			<path class="st0" d="M125.1,16.8c-0.2,0.2-0.2,0.3-0.3,0.6C124.9,17.1,125,16.9,125.1,16.8z"/>
			<path class="st0" d="M125.1,16.7C125.1,16.7,125.1,16.7,125.1,16.7C125.1,16.7,125.1,16.8,125.1,16.7
				C125.1,16.8,125.1,16.7,125.1,16.7z"/>
			<path class="st0" d="M123.6,18.9C123.6,18.9,123.6,18.9,123.6,18.9C123.7,18.9,123.7,18.8,123.6,18.9z"/>
			<path class="st0" d="M123.3,18.8c0,0,0.1-0.1,0.2-0.1c0.1-0.1,0.2-0.2,0.2-0.2c0,0.1-0.1,0.2-0.2,0.3c-0.1,0.1-0.2,0.1-0.2,0.2
				c0,0,0.2,0,0.3-0.1c0,0,0.1,0,0.1,0c0-0.1,0.1-0.2,0.2-0.3c0.1-0.1,0.1-0.2-0.1-0.2C123.6,18.5,123.5,18.6,123.3,18.8z"/>
			<path class="st0" d="M123.7,18.4C123.7,18.4,123.7,18.4,123.7,18.4c0.1-0.1,0.1-0.1,0.1-0.2c0,0,0,0,0.1-0.1
				C123.9,18.2,123.8,18.2,123.7,18.4z"/>
			<path class="st0" d="M121.2,17.4l0-0.3C121.2,17,121.1,17.4,121.2,17.4z"/>
			<path class="st0" d="M122.9,19c-0.2,0-0.3,0.1-0.3,0.1c0.1,0,0.2,0,0.2-0.1C122.9,19,122.9,19,122.9,19z"/>
			<path class="st0" d="M128.8,6.5c0-0.1-0.1-0.1-0.1-0.2c-0.1-0.1-0.1-0.2-0.1-0.3c0,0.1,0.1,0.2,0.1,0.3
				C128.7,6.4,128.7,6.5,128.8,6.5z"/>
			<path class="st0" d="M129.3,6.3L129.3,6.3c0,0,0,0.1,0,0.1C129.4,6.4,129.4,6.3,129.3,6.3z"/>
			<path class="st0" d="M129.2,6.3L129.2,6.3C129.3,6.2,129.2,6.2,129.2,6.3z"/>
			<path class="st0" d="M129.4,6.9c0,0.1,0,0.2,0.1,0.3C129.5,7.2,129.5,7.1,129.4,6.9c0.1-0.1,0.1-0.2,0.1-0.2c0.1,0,0.1,0,0.2,0.3
				c0-0.1-0.1-0.3-0.1-0.5c0,0,0,0.1,0,0.1c0-0.1-0.1-0.2-0.1-0.3C129.4,6.6,129.4,6.8,129.4,6.9z"/>
			<path class="st0" d="M129.4,7.4C129.4,7.4,129.5,7.4,129.4,7.4c0,0.1,0,0.2,0,0.2c0,0,0,0.1,0,0.1c0,0.1,0,0.2,0,0.2
				c0-0.1,0-0.2,0-0.3C129.5,7.4,129.5,7.3,129.4,7.4z"/>
			<path class="st0" d="M129.3,8.2C129.3,8.2,129.3,8.1,129.3,8.2C129.3,8.1,129.3,8.2,129.3,8.2C129.3,8.2,129.3,8.2,129.3,8.2
				C129.4,8.2,129.4,8.2,129.3,8.2c0.1-0.1,0-0.1,0-0.2C129.3,8.1,129.2,8.1,129.3,8.2z"/>
			<path class="st0" d="M129.3,8c0,0,0-0.1,0-0.1C129.3,7.9,129.3,8,129.3,8z"/>
			<path class="st0" d="M126.9,4.6L126.9,4.6C126.9,4.7,126.9,4.7,126.9,4.6z"/>
			<path class="st0" d="M129.2,8.6C129.2,8.6,129.2,8.6,129.2,8.6C129.2,8.6,129.2,8.6,129.2,8.6z"/>
			<path class="st0" d="M129.1,8.6L129.1,8.6C129.1,8.6,129.2,8.6,129.1,8.6C129.2,8.6,129.1,8.6,129.1,8.6z"/>
			<path class="st0" d="M132.1,11.8c0-0.1,0-0.3-0.1-0.4c0-0.3-0.1-0.5-0.2-0.8c0-0.1-0.1-0.2-0.1-0.4c-0.1-0.2-0.1-0.2-0.2-0.3
				c-0.1-0.2-0.3-0.4-0.5-0.6c0,0,0,0.1,0,0.1c0,0.1,0,0.1,0,0.1c-0.3-0.4-0.7-0.7-1-0.9c0,0-0.1-0.1-0.1-0.1c0,0-0.1,0-0.1-0.1l0,0
				l-0.1,0l-0.1,0l0,0l0,0c0,0,0,0-0.1,0c0,0.1,0,0.1-0.1,0.1c0,0-0.1,0-0.2,0c0,0.1,0.2,0.3,0.2,0.3c0,0,0,0.2,0,0.2h0h0l0-0.2
				c0,0,0.1-0.1,0.1-0.1l0,0c0.1,0,0.1,0,0.1,0c0.1,0,0.1,0.1,0.1,0.1l0,0c0,0,0.1,0,0.2,0.1c0.1,0.1,0.2,0.1,0.4,0.2
				c0.3,0.2,0.5,0.4,0.5,0.4l-0.1,0.1c0.1-0.1,0.4,0.3,0.5,0.6c0.1,0.2,0.1,0.3,0.2,0.4c0,0.1,0.1,0.1,0.1,0.1c0.1,0.3,0,0.4,0,0.4
				c0,0,0.1,0.2,0.2,0.4c0.1,0.2,0.1,0.4,0.1,0.4c0,0.1-0.2-0.1-0.2-0.2c-0.1-0.3-0.3-0.8-0.3-1.1c-0.2-0.2,0,0.3-0.3-0.2
				c-0.1-0.2-0.2-0.5-0.4-0.7c-0.2-0.2-0.4-0.4-0.6-0.6c-0.1-0.1-0.2-0.1-0.3-0.2c-0.1,0-0.1-0.1-0.2-0.1c0,0-0.1,0-0.1,0l0,0l0,0
				c-0.1,0-0.2,0-0.2-0.1c0,0.1,0.1,0.1-0.1,0.1c0,0,0,0-0.1-0.1c0,0,0-0.1,0-0.1c0,0,0,0,0-0.1c0,0,0,0,0-0.1c0,0,0-0.1,0-0.2
				c0,0-0.1,0.1-0.1,0.2c0,0.1,0,0.1-0.1,0.2c0,0,0,0.1,0,0.1c0,0,0,0,0,0.1c-0.1,0-0.1,0-0.1,0c0,0,0,0,0-0.1
				c0-0.1,0.1-0.1,0.1-0.2c0.1-0.2,0.2-0.3,0.1-0.4c-0.1-0.1-0.1,0.1-0.1,0.3c0,0.2-0.1,0.3-0.2,0.2c0,0,0-0.1,0.1-0.2
				c0-0.1,0.1-0.2,0.1-0.2c-0.1,0.1-0.2,0.3-0.2,0.5c0,0.1,0,0.1,0,0.2c0,0.1,0,0.1-0.1,0.2c0,0,0,0,0-0.1c0-0.2,0.1-0.4,0.1-0.6
				c0,0,0,0,0,0c0,0,0,0,0,0c0.1-0.5,0.1-0.9,0.1-1c0-0.1,0-0.3,0-0.4c0.1,0,0.1,0.1,0.2,0.3c0,0,0,0.1,0,0.1c0,0.1,0,0.1,0,0.1
				c0,0.1,0,0.2,0,0.2c0,0,0-0.1,0.1-0.2c0,0,0-0.1,0-0.1c0,0,0-0.1,0-0.1c0-0.2,0-0.3,0-0.4c0,0,0,0.1,0,0.2c0,0.1,0,0.2,0,0.2
				c0-0.3-0.4-0.4-0.5-0.5c0-0.1-0.4-0.1-0.4-0.2c0,0,0,0,0,0c0-0.2,0.2-0.4,0.1-0.6c0-0.1,0.3,0,0.3-0.1c-0.4-0.5,0-0.2-0.2-0.1
				c-0.1-0.2-0.2-0.3-0.3-0.4c-0.1-0.1-0.2-0.3-0.4-0.5c0.3,0.2,0.4,0.2,0.6,0.5l0-0.2c-0.2-0.2-0.4-0.3-0.6-0.4
				c-0.1-0.1-0.3-0.1-0.5-0.2c-0.1,0-0.2-0.1-0.2-0.1l0-0.1c0,0-0.1,0-0.3,0.1c-0.1,0-0.2,0.1-0.3,0.1c0,0,0,0,0,0c0,0,0,0,0,0
				c0,0,0,0,0,0c0,0,0,0,0,0c0,0,0,0,0,0c0,0,0,0,0,0c0,0,0,0,0,0c0,0.1,0,0.1,0.1,0.1c0.3,0.2,0.5,0.4,0.5,0.6c0,0.1-0.2,0.9-0.2,1
				c-0.1,0.4-0.4,1-0.5,1.4l-0.4,1.3c-0.1,0.3-0.2,0.6-0.5,0.7l-0.2,0.1c0,0-0.1,0-0.1,0c0,0,0,0-0.1,0l-1,0.3
				c-0.1,0-0.5,0.8-0.6,0.8c0,0,0,0.6,0,0.6c0,0,0,0,0,0c-0.1,0-0.1-0.5-0.2-0.5c-0.2,0.1-0.5-0.1-0.6-0.1c-0.5,0.1-0.6,0.1-0.6,0.3
				c0,0.5,1.8,0.7,2.3,0.7c0.1,0,0.1,0,0.1,0l-0.1,0.4l-0.6,1.1c0,0,0,0,0,0l0,0l-0.1,0.2c-0.1-0.1-0.2-0.3-0.3,0
				c0.2-0.3,0.3,0.1,0.1,0.3c0,0,0,0,0,0l0,0l-0.1,0.1c0-0.2-0.2,0-0.3,0.2c0.1-0.2,0.2-0.2,0.3-0.2l-0.2,0.3c0,0,0-0.1,0-0.1
				c-0.1-0.1-0.5,0.5-0.7,0.7c-0.1,0.2-0.1,0.2,0,0.4c-0.1,0-0.1,0.1-0.2,0.1c-0.1,0-0.1,0-0.2,0c-0.1,0.1-0.2,0.2-0.3,0.3
				c-0.1,0.1-0.2,0.1-0.3,0.3c-0.1,0.1-0.1,0.2-0.1,0.3c0,0.1,0,0.1,0,0.2c0,0.1,0,0.2,0.1,0.4c0,0,0,0,0,0l0,0l0,0
				c0,0.1,0.1,0.2,0.1,0.3c0,0.6,0.2,1.2,0.7,1.4c0,0,0,0.1,0,0.1c0.1,0,0.1,0.1,0.2,0.1c0,0,0.1,0,0.1,0c0,0,0.1,0.4,0.1,0.4
				c0,0,0,0.4,0,0.4h0c0,0,0-0.4,0-0.4l0,0.2l0,0.2h0l0-0.4l0-0.2c0,0,0-0.1,0-0.1c0.1,0,0-0.1,0-0.1c0,0,0,0.4,0,0.3
				c0,0-0.1,0.4-0.1,0.4h0h0l0-0.4l0-0.2c0,0,0-0.1,0-0.1c0.1,0,0.2-0.1,0.3-0.1c0.5-0.2,1-0.7,1.4-1.1c0,0.1-0.1,0.1-0.1,0.1
				c0,0,0.1,0,0.1,0c0.1,0,0.1,0,0.3-0.3l0-0.1c0.1-0.1,0.1-0.2,0.2-0.2c0,0,0,0,0,0.1c0,0.1,0.1,0.1,0.1,0.2c0,0.1,0.1,0.1,0.1,0.2
				c0,0,0,0,0,0.1l0.1,0c0.1,0.8,0,0.3,0.1,1l0.2,0.2c0,0-0.3-0.6-0.1-0.6c0.1,0.1,0.1,0.3,0.2,0.5c0,0.3,0.1,0.5,0.2,0.8
				c0,0,0,0,0,0.1c0,0,0,0,0,0c0,0,0,0,0,0c0,0.1,0.1,0.1,0.2,0.1c0.1,0.1,0.1,0.2,0.2,0.3c0.1,0.2,0.4,0.4,0.7,0.5
				c0,0-0.1-0.1-0.3-0.2c-0.1,0-0.1-0.1-0.1-0.1c0.1,0,0.2,0,0.3,0c0.2,0.1,0.4,0.1,0.7,0.2c0.3,0,0.5,0,0.8-0.1
				c0.1,0,0.1-0.1,0.2-0.1c0,0,0.1,0,0.1-0.1c0.1-0.1,0.1-0.1,0.2-0.2c-0.1,0.1-0.3,0.2-0.4,0.1c0,0,0,0,0,0c0.1,0,0.2-0.1,0.3-0.1
				c0,0,0.1-0.1,0.1-0.1c0.1,0,0.2-0.1,0.2-0.1c0,0.1-0.2,0.4-0.6,0.6c-0.2,0.1-0.4,0.2-0.6,0.2c-0.2,0-0.3,0.1-0.2,0.1
				c0.3,0,0.5-0.1,0.8-0.2c0.2-0.1,0.3-0.2,0.4-0.3c0.2-0.2,0.4-0.4,0.5-0.5c0,0,0,0.1-0.1,0.2c0,0.1-0.1,0.2-0.1,0.2
				s0.1-0.1,0.1-0.1c0.1-0.1,0.1-0.1,0.1-0.1l-0.1,0.1c0-0.1,0.1-0.2,0.2-0.2c0.1-0.1,0.2-0.2,0.3-0.3l0,0.2c0,0,0.1-0.1,0.2-0.2
				c0.1-0.1,0.2-0.2,0.2-0.2l-0.1,0c0.4-0.6,0.8-1.1,1.2-1.6c0,0,0,0,0,0.1c-0.1,0.1-0.1,0.2-0.1,0.2c0,0,0.1-0.2,0.2-0.4
				c-0.1,0-0.3,0.5-0.4,0.4c0.2-0.3,0.3-0.4,0.4-0.6c0.1-0.2,0.2-0.3,0.4-0.6c0-0.1-0.3,0.3-0.2-0.2c0.1,0.1,0.3-0.4,0.3,0
				c0.1-0.5,0.2-0.3,0.2-0.7c0,0,0,0.1-0.1,0.2c-0.1,0.1,0-0.2,0-0.3c0.1-0.2,0.2-0.2,0.3-0.6c0,0,0,0,0-0.1c0-0.1,0-0.1,0-0.2
				c0-0.2,0-0.3,0-0.3c0,0,0,0,0,0c0-0.2,0-0.4,0.1-0.5c0-0.2,0.1-0.4,0.1-0.6c0-0.1,0-0.2,0-0.3c0-0.1,0-0.1,0-0.2
				c0-0.1,0-0.2,0-0.3c-0.1-0.1-0.1-0.2-0.1,0.1c0-0.1,0-0.3,0-0.4c0-0.1,0-0.2,0.1-0.2c0,0,0-0.1,0-0.1c0-0.1,0-0.1,0-0.2
				c0,0,0,0,0,0.1c0,0,0,0.1,0,0.1c0,0.1,0.1,0.1,0.1,0.1l0-0.1l0,0l0-0.1C132.1,11.9,132.1,11.9,132.1,11.8z M125,17
				C125,17,125,17,125,17C125,17,125,17,125,17z M128.4,14.1C128.4,14.1,128.4,14.1,128.4,14.1C128.3,14.1,128.4,14.1,128.4,14.1z
				 M125.8,15.4l0.1-0.1c-0.1,0-0.1-0.1,0-0.2c0,0.1,0.1,0.1,0.2,0.1c0.1,0,0.1,0,0.1,0.1c-0.1,0,0,0,0,0c0.1,0,0.3,0,0.3,0.1
				l-0.1,0c0.1,0.1,0.1,0.1,0.1,0.2c0,0.1,0.1,0.1,0.1,0.1c0-0.1,0.1-0.1,0.1-0.1c0,0.1,0,0.1-0.1,0.1c0,0.1,0,0.1,0.1,0.1
				c0,0,0.1-0.1,0.1,0c0,0,0.1,0.2,0,0.3c0,0.1,0.1,0.1,0.1,0c0,0,0.1,0,0.1,0.2c0-0.1,0-0.2,0-0.3l0,0.2c0,0,0-0.2,0-0.2
				c0.1,0,0.2,0.4,0.2,0.1c0,0,0,0.1-0.1,0c0-0.2,0-0.4-0.1-0.5c0,0,0,0,0,0.1c0,0,0,0.1,0,0.1c0-0.2-0.1-0.1-0.1-0.2
				c0,0,0,0.2,0,0.2l0-0.2c0,0,0,0.1,0,0.1c0-0.2,0-0.2,0-0.2c0,0,0,0.1,0,0l0,0.2c-0.1-0.2,0-0.2-0.1-0.3c0,0,0,0,0,0.1
				c0,0,0,0.1,0,0.1c0,0,0-0.1,0,0.1c0,0.1-0.1,0-0.1,0.1c0,0,0.1-0.3,0.1-0.3c0,0.2,0-0.2,0-0.1c0,0,0,0.1,0,0.1
				c0,0.1-0.1,0.1-0.1,0.1c0,0,0-0.1-0.1,0c0,0,0,0,0,0.1c0,0-0.1,0,0-0.1c0.2-0.2,0.1,0,0.2-0.2c0,0,0,0-0.1,0.1c0,0-0.1,0.1-0.1,0
				c0,0,0.1-0.1,0.1-0.1l0,0l0,0c0,0,0,0,0,0c0,0,0-0.1,0-0.1l0.1-0.1l-0.1-0.1l0,0c-0.1-0.1-0.1-0.1-0.2-0.2c0,0,0,0,0,0
				c0,0,0,0,0,0c0,0-0.1,0,0,0c0,0,0,0,0,0c-0.1,0,0,0-0.1,0.1c0-0.1,0.1-0.1,0.2-0.1c-0.1,0-0.2,0.1-0.3,0c0.1,0,0.2,0,0.3,0
				c-0.1,0,0.1,0-0.1,0c0,0,0,0,0,0c-0.1,0-0.1,0-0.1,0c0.1,0,0.2,0,0.2,0c0,0,0,0-0.1,0l0,0c0,0,0,0,0,0c0-0.2,0.2-0.3,0.2-0.5
				c0,0-0.1-0.1-0.1,0c-0.1-0.1,0.1-0.2,0.2-0.2l0.1,0.1c0.1-0.2,0.4-0.4,0.3-0.7l-0.1,0c0-0.2,0.2-0.3,0.2-0.5
				c-0.2,0.1,0,0.2-0.1,0.2c-0.1,0.1-0.1,0.7-0.1,0.7h0l0-0.1l-0.1-0.3c0.3,0.2-0.3,0.2,0,0.3c0,0.1-0.1,0-0.2,0l0,0.2
				c-0.1,0-0.2-0.1-0.1-0.1c0-0.1,0-0.3,0.2-0.3c0-0.1-0.2,0-0.1-0.2c0.3-0.2,0.3-0.5,0.5-0.6c-0.1,0-0.1,0.1-0.1,0l0.2-0.1
				c0-0.1-0.1-0.2,0-0.3c-0.1-0.1-0.2,0.1-0.3,0.2c-0.2-0.2,0.3-0.1,0.1-0.3c-0.1-0.1-0.1,0.3-0.3,0.1l0.1-0.1
				c-0.2,0-0.1,0.2-0.3,0.2c0-0.1,0.1-0.1,0.1-0.2c0,0,0,0,0,0c0,0,0,0,0,0c0.1-0.1,0.1-0.3,0.2-0.4c0.1,0.1,0.1,0.3,0.1,0.3
				c0.1,0,0.1-0.1,0.1-0.2l-0.1,0.1c0-0.1-0.1-0.2-0.1-0.3c0-0.1,0.1-0.1,0.1-0.2c0.1,0,0.1,0.1,0.2,0.1c0-0.2,0-0.1-0.1-0.1
				c0-0.1,0.1-0.1,0.2-0.3c0,0.1,0.1,0.2,0,0.3l0.1,0c0-0.1,0-0.2-0.1-0.3c0,0,0-0.1,0-0.1c0,0,0,0,0.1,0l0,0c0,0,0.1-0.1,0.2-0.2
				c0.4-0.2,0.9-0.4,1-0.4c0.2,0,0.2,0.2,0.2,0.6c0,0,0,0.1,0,0.1c0,0,0,0,0,0c0,0,0,0.6,0,0.6c0,0.2,0,1.1-0.1,1.1c0,0,0,0,0,0
				c0,0,0-0.6,0-0.5c-0.1,0.5-0.2,0.9-0.4,1.5c0,0,0-0.1,0-0.2l0-0.1c0,0,0,0,0,0c-0.1-0.1-0.3,0.4-0.3,0.5c0.1-0.1,0.3,0.7,0.3,0.7
				c0,0,0,0,0,0c0,0,0-0.5,0-0.5c-0.1-0.1-0.2-0.3-0.2-0.2c0-0.1,0.1-0.2,0.1-0.2c0,0,0,0,0,0c0,0,0-0.1,0-0.1
				c-0.1-0.1-0.2,0.2-0.3,0.2c0,0.1,0,0.1,0.1,0.1c-0.1,0-0.1,0.1-0.2,0.1c0.1,0.2-0.2,0.2-0.1,0.4c0,0,0,0,0,0l0,0l0,0
				c0,0.1,0,0.1,0,0.2c0.1-0.1,0.2-0.1,0.4-0.2c0,0,0,0.1,0,0.1c0,0,0,0,0,0c-0.2,0.6-0.3,1.1-0.5,1.5l0-0.1c0,0,0,0,0,0.1
				c0,0,0,0.1-0.1,0.1c-0.1,0-0.1,0-0.1,0.1c0,0.1-0.1,0.1-0.1,0.1c0,0,0,0,0-0.1c0,0,0,0,0,0.1c0,0.1-0.1,0.1-0.1,0.1
				c0,0,0-0.1,0-0.2c0,0.1-0.1,0.2-0.2,0.1c-0.1,0-0.1-0.1-0.2-0.2c0,0.1,0,0.1,0.1,0.2c-0.1,0-0.1,0-0.2-0.1c0,0-0.1-0.1-0.1-0.1
				c0,0,0-0.1,0-0.1c0-0.2-0.2-0.3-0.3-0.5l0.1,0.1c0,0,0,0.1,0,0.1c0-0.1-0.1-0.1-0.1-0.2c0-0.1,0-0.2,0-0.2c0,0.1,0,0.1,0,0.1
				c0,0-0.1-0.1-0.1-0.1c0,0,0.1-0.1,0.1-0.1c-0.1,0,0,0.1-0.1,0.1c0,0,0,0.5,0,0.5c0-0.1,0,0.4-0.1,0.4c0,0,0,0,0,0
				c0,0,0-0.6-0.1-0.6c0,0,0-0.3,0-0.3l0.1-0.1C126,15.9,125.9,15.6,125.8,15.4z M124.9,16c0.1,0,0.1-0.1,0.1-0.1c0,0,0,0,0,0
				c0,0,0,0.1,0.1,0.1c0,0.1,0,0.1,0,0.2l-0.2,0C124.9,16.1,124.9,16,124.9,16z M122.9,15l-0.2,0.3C122.7,15.1,122.8,15,122.9,15z
				 M124.5,17.6l0-0.2c0,0,0,0,0-0.1c0,0.1,0,0.1,0,0.1L124.5,17.6L124.5,17.6z M124.8,17.6l0.1,0c0,0,0,0-0.1-0.1
				c0,0-0.1-0.1-0.1-0.1c0-0.1,0-0.1-0.1-0.2l0,0c0-0.1,0-0.1,0-0.2c0.1-0.2,0.2-0.5,0.2-0.5c-0.1,0.1-0.1,0.3-0.2,0.3c0,0,0,0,0,0
				c0.1-0.2,0.1-0.3,0.1-0.5c0,0,0-0.1,0-0.1l0.2,0c0,0.1,0,0.1,0,0.2c-0.1,0.2-0.1,0.3,0,0.3c0,0,0,0,0,0c0,0.1,0,0.3,0,0.4
				c0,0-0.1,0-0.1-0.2c0,0.1,0,0.2,0.1,0.3l0,0c0,0.1,0.1,0.2,0.1,0.3c-0.1,0.1-0.2,0.2-0.2,0.4C124.9,17.8,124.9,17.7,124.8,17.6z
				 M125.6,20.2C125.6,20.2,125.6,20.2,125.6,20.2C125.6,20.2,125.6,20.2,125.6,20.2C125.6,20.2,125.6,20.2,125.6,20.2
				C125.6,20.2,125.6,20.2,125.6,20.2z M126.9,20.6c-0.2,0-0.2-0.1-0.2-0.1c0.1,0,0.3,0.1,0.4,0.1C127,20.7,127,20.7,126.9,20.6z"/>
			<path class="st0" d="M130.1,8.7L130.1,8.7C130.1,8.7,130.1,8.7,130.1,8.7z"/>
			<path class="st0" d="M130.8,17.9c0-0.1,0.1-0.1,0.1-0.1C130.8,17.9,130.8,17.9,130.8,17.9z"/>
		</g>
	</g>
</g>
</svg>
