<?xml version="1.0" encoding="utf-8"?>
<!-- Generator: Adobe Illustrator 19.2.0, SVG Export Plug-In . SVG Version: 6.00 Build 0)  -->
<svg version="1.1" id="レイヤー_1" xmlns="http://www.w3.org/2000/svg" xmlns:xlink="http://www.w3.org/1999/xlink" x="0px"
	 y="0px" viewBox="0 0 200 83.8" style="enable-background:new 0 0 200 83.8;" xml:space="preserve">
<style type="text/css">
	.st0{fill:#262626;}
	.st1{font-family:'Reisho101Std-Medium-83pv-RKSJ-H';}
	.st2{font-size:24.6044px;}
	.st3{fill:#F6F1E5;}
</style>
<g>
	<g>
		<text transform="matrix(1 0 0 1 1.0607 21.6519)" class="st0 st1 st2">創作串揚げと野菜</text>
	</g>
	<g>
		<g>
			<path class="st0" d="M44.2,46.8c0.5-0.1,3.1,0,3.7,0c0.9,0,3.7-0.4,3.7-2.2c0-1.3-1.5-2.6-2.7-3.5c0,0,0,0,0,0l0,0
				c-0.3-0.2-0.6-0.5-0.9-0.6c0.1,0,0.2-0.1,0.2-0.1c0.2-0.1,0.4-0.2,0.4-0.4c0-0.2-0.1-0.4-0.8-0.8c0.6,0.5,0.4,0.8,0.1,0.8
				c-0.3,0-0.9-0.1-1.3-0.3c0,0,0,0,0,0.1c-0.2-0.1-0.4-0.2-0.6-0.2c0.4,0,0.4-0.1,0.2-0.3c-0.2-0.2-0.8-0.4-1.4-0.3
				c1,0,1.4,0.5,1.2,0.6c-0.4-0.1-0.7-0.2-1.2-0.2c0.1,0,0.2-0.1,0.3-0.2c0.1-0.2-0.2-0.3-0.6-0.4c0-0.7,0-1.6-0.1-2.3
				c0-0.1-0.1-0.1-0.1-0.2c-0.3-0.5-0.5-0.7-0.6-0.7c-0.2-0.1-0.3-0.1-0.5-0.1c0.1-0.4-0.5-1.3-0.5-1.7c-0.9-0.7-1.5-1.2-2.1-1.8
				c-0.6-0.6-1.3-1.1-2.4-1.4c-0.1-0.1-0.1-0.1-0.1-0.2c-0.1,0-0.2-0.1-0.2-0.1l0.1,0.1c-0.4-0.1-0.9-0.2-1.5-0.3
				c-0.2,0-0.4,0-0.6-0.1c0.2,0,0.3,0.1,0.5,0.1c0.3,0.1,0.5,0.2,0.7,0.4c-1.1-0.5-2.5-0.6-3.6-0.2c0,0-0.1,0-0.1,0
				c-0.2,0.1-0.5,0.2-0.7,0.4c-0.3,0.2-0.6,0.5-0.8,0.8c0.2-0.3,0.4-0.4,0.5-0.5c-0.3,0.3-0.5,0.6-0.7,1.1c-0.2,0.5-0.3,0.9-0.3,1.2
				c0,0.1-0.1,0.1-0.1,0.2c-0.1,0.2,0,0.7,0,0.6c0.2,0.5,0.6,0.9,0.8,1.1c0.3,0.2,0.4,0.3,0.6,0.3c0.3,0.1,0.4,0.1,0.5,0.1
				c0.1,0,0.1,0,0.1-0.1c0,0,0-0.1,0-0.1c0-0.1,0-0.1,0.1-0.2c0.2,0.1,0.3,0.2,0.5,0.3c0.2,0.1,0.4,0.3,0.6,0.6c0,0.1,0,0.2,0,0.2
				c0,0.1,0,0.2,0,0.2c0.3-0.1,0.4,0.1,0.4,0.3c0,0.1,0,0.3,0.3,0.2c0.1,0.2,0.2,0.4,0.2,0.6c0,0,0,0,0,0.1c0,0,0,0,0,0
				c0.2,0.6,0.2,1.2,0,1.7c-0.2,0.4,0,0.5,0.1,0.5c0,0-0.1,0-0.1,0c0-0.6,0-1,0-1.4c0-0.2,0-0.4,0-0.6c0-0.1,0-0.1,0-0.2
				c-0.1,0.1-0.1,0.2-0.2,0.2c-0.2,0.2-0.3,0.3-0.4,1.4l0.4,0.6c-0.2,0-0.5,0.1-1,0.2c-0.7,0.2-1.5,0.4-2.2,0.6c0-0.1,0-0.2-0.1-0.3
				c-0.7,0.3-1.2,0.6-1.4,0.7l0.1-0.1c0,0-0.2,0.1-0.5,0.3c-0.3,0.1-0.5,0.2-0.8,0.3c-0.3,0.1-0.6,0.2-0.9,0.3
				c0.1-0.1,0.2-0.1,0.3-0.2c0.3-0.2,0.4-0.4,0.1-0.5l-1.2,0.8c0.1-0.1,0.1-0.2,0-0.2c0,0-0.1,0-0.1,0l0,0c0,0,0,0-0.1,0
				c-0.1,0-0.2,0.1-0.4,0.2l0.4-0.2c-0.4,0.1-0.9,0.2-0.8,0l-3.3,1.6c0,0,0,0,0,0l-0.2-0.3l0.9-0.1c0.3-0.6-0.1-0.4-0.7-0.1
				c-0.3,0.2-0.7,0.4-1.1,0.5C22,43.9,21.6,44,21.3,44l0.1,0.3c-1.7,0.7-2,0.9-2.3,1c-0.1,0-0.3,0.1-0.6,0.2c-0.3,0.2-0.7,0.3-1.5,1
				c0,0,0,0.1-0.1,0.2c0,0.1-0.1,0.1-0.1,0.2c0,0.1-0.1,0.2-0.1,0.3c0,0.1-0.1,0.2-0.1,0.3c0,0.1-0.1,0.2-0.1,0.3
				c-0.1,0.2-0.1,0.3-0.1,0.3c0,0.1,0.2-0.3,0.4-0.7c0.3-0.4,0.6-0.8,0.9-1.1c0.6-0.6,1.2-1,1.3-0.8c-0.4,0.4-0.8,0.7-1.3,1.2
				c-0.2,0.3-0.5,0.6-0.8,1c-0.1,0.1-0.2,0.3-0.2,0.4c-0.1,0.2-0.2,0.6-0.3,0.8c0,0.1,0,0.2,0,0.2l0,0l0,0.1l0,0l0,0.4l0,0l0,0.1
				l0,0.3c0,0.4,0.2,0.8,0.4,1.2c0.2,0.3,0.5,0.7,0.7,0.9c0.1,0.1,0.3,0.2,0.4,0.3c0.1,0.1,0.2,0.1,0.4,0.2c0.3,0.1,0.4,0.2,0.7,0.3
				c0.8,0.2,1.4,0.2,2,0.2c0,0-0.4,0.2-0.9,0.3c-0.5,0.1-1.2,0.1-1.2,0.1c0.6,0,1.2,0.2,1.9,0.4c0.7,0.2,1.6,0.5,2.5,0.5
				c0,0-0.4-0.1-0.8-0.2c-0.4-0.1-0.9-0.2-0.9-0.2c0.4-0.2,0.9-0.2,1.4-0.3c0.3,0,0.5,0,0.8,0c0.2,0,0.8,0,1.3-0.1
				c0.2,0,0.4-0.1,0.6-0.1l0.5-0.1c0.3-0.1,0.6-0.1,0.9-0.2c0.6-0.1,1.1-0.3,1.6-0.5c-0.5,0.1-1.1,0.2-1.2,0
				c0.2-0.2,0.6-0.3,1.1-0.4c0.2,0,0.5-0.1,0.7-0.1l0.2,0c0.1,0,0.2,0,0.3,0c0.2,0,0.3-0.1,0.5-0.1c0,0.1-0.1,0.3-0.4,0.4
				c-0.3,0.1-0.4,0.2-0.7,0.3c-0.4,0.2-1,0.4-1.5,0.5c-1.1,0.3-2.1,0.6-1.8,0.9c1.2-0.2,2.2-0.7,3.1-1.1c0.2-0.1,0.4-0.2,0.7-0.3
				c0.4-0.1,0.8-0.3,0.9-0.4c0.4-0.2,0.7-0.4,1.1-0.5l-0.9,0.9l1-0.6l-0.3,0.1c0.1-0.1,0.2-0.2,0.3-0.3c0.1-0.1,0.4-0.2,0.4-0.1
				c0.1,0,0.2,0.1,0.3-0.1c0,0-0.1,0.6-0.1,0.5c0,0,0.1,0,0.1,0l0-0.2c0.1-0.1,0.2-0.1,0.3-0.2c0,0,0.1,0,0.1-0.1c0,0,0,0,0.1,0
				c0,0,0,0,0,0.1c0,0.2-0.1,0.5-0.3,0.7c0,0,0.2-0.2,0.2-0.2c0.1,0,0.1,0.1,0.1,0.2c0.3-0.1,0.2-0.4,0.5-0.6c0,0.2-0.1,0.3-0.1,0.4
				c-0.1,0.1-0.1,0.1-0.2,0.3c-0.1,0.7-0.3,1.3-0.5,2.5c0.2,0.2,0.8-1.5,0.9,0.4c-0.4-0.2-0.6,1.5-1,0.2c0.3,1.7-0.4,1.2,0.1,2.6
				c0-0.2,0-0.4,0-0.7c0.3-0.4,0.3,0.7,0.4,1.2c-0.1,0.2-0.1,0.4-0.2,0.5l-0.1,0.3c0,0.1-0.1,0.2-0.1,0.2c-0.1,0-0.2,0-0.2,0
				c0,0,0.1,0,0.1,0.1c0.1,0.1,0.1,0.2,0.1,0.2c-0.1-0.1-0.2-0.2-0.2-0.2c0.1,0.1,0,0.1-0.1,0.1c-0.1,0-0.1-0.1-0.2-0.1
				c-0.2,0-0.5-0.1-0.7-0.1c-0.4,0-0.7-0.1-1.2-0.1c-0.2,0.1-0.7,0.2-0.7,0.3c0,0,0,0.1,0.2,0.1c0.2,0,0.5,0.1,0.9,0.1
				c-0.2,0-0.3,0-0.5,0.1c-0.2,0-0.5,0-0.7,0c-0.2,0-0.4,0-0.7,0c-0.2,0-0.4,0-0.5,0c-0.7,0-1.4,0-2.1,0.1c0,0,0.2-0.2,0.5-0.3
				c0.2-0.2,0.5-0.3,0.5-0.3c-0.7,0.1-1.5,0.3-2.3,0.5c-0.4,0.1-0.9,0.3-1.4,0.5c-0.6,0.3-1.2,0.6-1.7,1c-0.6,0.6-1,0.8-1.7,1.7
				c-0.6,0.8-1.1,1.6-1.3,2.5c0,0.1,0,0.2-0.1,0.3l-0.1,0c0,0.1,0,0.2,0,0.3c0-0.1,0-0.1,0.1-0.2c0,0.1,0,0.2-0.1,0.3c0,0,0,0,0,0
				c-0.3,0.8-1.3,1.2-0.5,1.6l0.3-0.9c0.1,0,0.1,0,0.2,0.1c0,0.5,0,1,0.1,1.5l0,0.2l0,0.2l0.1,0.3c0.1,0.2,0.1,0.4,0.2,0.6l0.2-0.6
				c0.1,0.3,0.1,0.7,0.2,1c0,0.2,0.1,0.5,0.1,0.7c0.1,0.3,0.1,0.6,0.3,0.9c0.1,0.2,0.1,0.3,0.2,0.5c0.1,0.1,0.1,0.3,0.2,0.4
				c0.1,0.3,0.2,0.6,0.3,0.8c0.4,1.1,0.7,2.1,1.1,2.7c-0.1-1,0.1-0.7,0.4-0.1c0.1,0.1,0.1,0.3,0.2,0.5c0.1,0.2,0.2,0.4,0.3,0.6
				c0.1,0.3,0.3,0.5,0.4,0.7c0.1,0.2,0.3,0.3,0.4,0.4c-0.1-0.2-0.2-0.4-0.3-0.6c-0.1-0.2-0.2-0.4-0.3-0.6c-0.1-0.2-0.1-0.3-0.2-0.5
				l-0.2-0.4c-0.2-0.5-0.5-1-0.7-1.5c-0.4-0.8-0.7-1.4-0.7-1.5l0,0.1c0,0-0.4-0.8-0.8-1.6c-0.1-0.2-0.2-0.4-0.2-0.6
				c-0.1-0.2-0.1-0.4-0.1-0.6c-0.1-0.2-0.1-0.5-0.2-0.6c-0.1-0.3-0.1-0.6-0.1-0.6l0.5,0c-0.3,0-0.4-0.3-0.5-0.8c0-0.1,0-0.1,0-0.2
				c0-0.1,0-0.2,0-0.3c0-0.2-0.1-0.5-0.1-0.7c0-0.5,0.1-1,0.2-1.5c0.3-0.9,0.8-1.7,1.2-2.2c0.3-0.5,0.5-0.7,0.1-0.7
				c0.8-0.9,1.1-0.9,1.5-1c0.1,0,0.2,0.1,0.2,0.2c0,0,0.2-0.2,0.6-0.5c0.2-0.1,0.4-0.3,0.7-0.4c0.3-0.1,0.5-0.2,0.7-0.4
				c0.4-0.2,0.8-0.4,1.1-0.5c0.3-0.1,0.5-0.2,0.5-0.2c0.4,0.1-0.2,0.7-0.5,0.8c-0.3,0.1-0.8,0.3-1.2,0.5c-0.2,0.1-0.5,0.3-0.8,0.4
				c-0.3,0.2-0.5,0.4-0.7,0.6c-0.3,0.3-0.6,0.6-0.9,0.8c-0.3,0.3-0.7,0.6-1,0.9c-0.3,0.7,0,0.5,0.2,0.4c0.1,0,0.1,0,0.1,0.2
				c0,0.2-0.2,0.5-0.4,1.2c-0.2,0.6-0.3,1.2-0.2,1.9l0.1,0.8l0.1,0.7l0.1,0.7l0.1,0.4c0,0.2,0.1,0.3,0.1,0.5
				c0.2,0.5,0.4,0.9,0.5,1.4c0.6,1.6,1.3,3.1,1.5,4.3c0-0.6-0.2-1.1,0.3-0.5c0,0,0,0.1,0,0.3c0,0.1,0,0.1,0,0.3
				c0,0.1,0.1,0.3,0.1,0.4c0.2,0.6,0.5,1.1,0.5,1.1c0.2,0.2,0.4,0.4,0.5,0.5c0.2,0.1,0.3,0.2,0.5,0.3c0.3,0.2,0.6,0.3,0.8,0.4
				c0.5,0.2,0.9,0.4,1.3,0.8c0.2,0-0.3-0.4-1-1c-0.3-0.3-0.7-0.6-1-0.9c-0.1-0.1-0.3-0.3-0.4-0.5c-0.1-0.2-0.2-0.3-0.3-0.5
				c1,0.4,1.4,0.9,2,1.5c0.3,0.3,0.5,0.6,0.9,0.8c0.2,0.1,0.3,0.2,0.5,0.3c0.2,0.1,0.5,0.1,0.7,0.1c0.4-0.2-0.6-0.5-1.3-1
				c-0.7-0.4-1.4-0.9-0.6-0.9c0,0,0.4,0.3,0.8,0.6c0.4,0.3,0.8,0.5,0.8,0.5c-0.4-0.7-1.1-1-1.7-1.4c-0.6-0.3-1-0.8-0.9-1.2
				c0.5,0.6,1.3,1.2,2.1,1.7c0,0,0,0.1,0.1,0.1c0,0,0.1,0,0.1,0c0.8,0.5,1.5,0.8,1.9,0.8c1,0,2.1-0.4,3.2-0.8
				c0.1,0.5-1.8,1.6-2.9,1.6c0.4,0.1,1.2,0.1,1.7-0.1c0.6-0.2,1.1-0.4,1.5-0.6c0,0-0.4,0.1-0.7,0.2c-0.4,0.1-0.7,0.1-0.7,0.1
				c1.1-0.4,1.3-0.8,1.7-1.1c0.2-0.2,0.3-0.4,0.6-0.6c0.8-0.4,1.5-0.9,1.9-1.2c0.1,0,0.2,0,0.2,0.1c0.1,0.2,0,0.5,0.4,0.3
				c0.4-0.5,0.6-0.7,0.7-0.8c0.1-0.1,0.1-0.2,0.1-0.1c-0.1,0-0.4,0.2-0.6,0.1c0.6-0.6,1.1-1,1.5-1.3c0.2-0.2,0.5-0.4,0.7-0.6
				c0.1-0.1,0.3-0.2,0.5-0.4c0.1-0.1,0.2-0.2,0.3-0.2c0.1,0,0.2,0.1,0.3,0.2c-0.1,0-0.1-0.1-0.2-0.1c-0.1,0-0.1-0.1-0.2,0
				c-0.1,0.1-0.2,0.2-0.3,0.3c-0.1,0.2-0.3,0.4-0.4,0.5c-0.2,0.3-0.5,0.6-0.9,0.9c0,0,0.5,0.1,0.5,0.1c0.2-0.3,0.4-0.6,0.6-0.9
				l0.4-0.5c0.1-0.1,0.1-0.2,0.2-0.2c0.1,0,0.2,0,0.2,0c0.4,0.1,0.9,0.3,1.6,0.5c0.3,0.2,0.5,0.4,0.8,0.5l0,0.2c0.1,0,1,0.5,2.2,1.3
				c0.1,0.1,0.2,0.2,0.3,0.3c0.6,0.5,2,1.5,3.4,1.5c1.8,0,2.3-1.7,2.3-2.1c0-0.3-0.2-1.8-0.2-2.1c0-0.1-0.4-0.7-0.5-1.1
				c-0.9-1.8-1-2.1-1.6-2.5c-0.5-0.4-2.9-2.6-3.6-2.9c-1-0.4-1.2-0.5-1.5-1L43,65.2v-0.9c0-0.1,0.1-0.3,0-0.5c0-0.1,0-0.2,0-0.2
				v-6.7c0,0,0,0,0,0c0-0.1,0-0.3,0-0.4v-6.9C43,47.1,43.1,46.8,44.2,46.8z M29.6,73.2c-0.5-0.3-0.6-0.9-1.6-1.5v-0.1c0,0,0,0,0,0.1
				c0,0,0-0.1,0-0.1c0,0,0.1-0.1,0.2-0.1c0.3-0.2,0.5-0.4,0.4-0.4c-0.1,0.2-0.6,0.6-0.6,0.4c0,0,0,0,0,0c0,0,0,0,0,0
				c0.2-0.1,0.3-0.3,0.2-0.3c0,0.1-0.1,0.2-0.2,0.3c0,0,0-0.1-0.1-0.1c0,0,0.1,0,0.1-0.1c0.3-0.2,0.3-0.4,0.4-0.6
				c-0.1,0-0.2,0-0.4,0.1c0.2-0.1,0.2-0.2,0.4-0.3c-0.4,0,0.2-0.3-0.2-0.3c0,0,0.1,0,0.1,0l0,0l0,0c-0.1,0-0.2,0-0.2-0.1
				c-0.1,0.1-0.3,0.2-0.4,0.3c-0.1,0-0.2,0.1-0.2,0.2c0,0,0-0.1-0.1-0.1c0,0,0,0,0,0c-0.3-0.5-0.5-0.9-0.5-0.9c0,0,0-0.3,0.4-0.5
				l0.1,0c0,0-0.1,0-0.1,0c0,0,0.1,0,0.2-0.1c0.2,0,0.2,0,0.2,0c0,0,0,0,0,0c0.1,0,0.1,0,0.2,0c0,0,0,0,0.1,0c0,0,0,0-0.1,0
				c0.1,0,0.1,0,0.2,0c0.1,0,0.1,0,0.1,0.1c0.1,0,0.3,0,0.6,0c-0.1,0-0.1,0-0.3-0.1c0.1,0,0.1,0,0.1,0c0.1,0,0.2,0,0.2,0l0.1,0
				c0.3,0.1,0.4,0.1,0.6,0.1L29.2,69c0,0,0,0-0.1-0.1c0.1,0,0.2,0,0.2,0c0,0,0,0,0,0c0.1,0.1,0.2,0.1,0.2,0.1
				c-0.1,0-0.1-0.1-0.1-0.1c0,0,0.1,0,0.1,0c0,0,0,0,0,0c0,0,0,0,0.1,0c0,0,0,0,0,0c0,0,0,0,0,0c0,0,0,0,0.1,0c0,0,0,0,0,0
				c0,0,0,0,0,0c0,0,0,0,0,0c0,0,0,0,0,0c0,0,0,0,0,0c0,0,0.1,0,0.1,0c0,0,0,0,0,0l0,0c0.1,0,0.4,0,0.7,0.1l-0.1,0.1
				c0.1,0,0.2,0,0.2,0.1c-0.2-0.1-0.3,0.1-0.4,0c0,0,0,0,0,0c-0.1,0-0.1,0.1-0.2,0l0,0c-0.1,0-0.3-0.1-0.4-0.1
				c0.1,0.1,0.1,0.1,0.1,0.1c-0.1,0,0,0-0.1-0.1c-0.2-0.1-0.1,0-0.2,0c0,0-0.3-0.1-0.3-0.1c-0.2-0.1,0.1,0.1-0.4,0
				c0.1,0,0.2,0.1,0.3,0.1l-0.3-0.1l0.2,0.1c-0.1,0-0.8-0.2-0.6-0.1c0,0,0,0,0.2,0c0.3,0.1,0.2,0.1,0.7,0.3L29,69.3
				c0.3,0.1,0.3,0.1,0.4,0.1c0,0-0.1-0.1-0.1-0.1l0.2,0.1l-0.1,0c0.5,0.2,0,0,0.3,0.1l-0.2-0.1c0.2,0.1,0.2,0.1,0.4,0.1l-0.1-0.1
				c0,0,0.1,0.1-0.1,0c-0.1-0.1,0,0-0.1-0.1c0,0,0.3,0.2,0.3,0.2c-0.2-0.1,0.2,0.1,0.2,0.1L30,69.5c-0.2-0.1,0.1,0,0-0.1
				c0,0,0,0-0.1-0.1c0,0,0.1,0,0.1,0c0.1,0.1,0,0.1,0.1,0.2c0,0-0.1-0.2,0-0.1c0,0,0,0.1,0,0.1l0,0l0,0c0-0.1,0,0,0,0l0,0.1l0,0l0,0
				c0,0,0.1,0,0.1,0l0,0c0,0,0,0,0,0c0,0,0,0,0-0.1c0,0,0,0.1,0,0.1c0,0,0.1-0.1,0.2-0.1c-0.1,0-0.1,0.1-0.2,0.1c0.1,0-0.1,0,0.1,0
				c0,0,0,0,0,0c0.1,0,0.1,0,0.1,0c-0.1,0-0.2,0-0.2,0c0,0,0.1,0,0.1,0c0,0-0.1,0-0.1,0c0.1,0,0,0,0.1,0c0.1,0,0.3,0,0.2,0
				c0.2,0,0.1,0,0,0l-0.3,0c0.1,0-0.4-0.1,0,0l0.3,0c0.2,0.1-0.1,0,0.1,0.1c0.5,0.1,0.3,0.1,0.4,0.2c0.2,0-0.1-0.1-0.1-0.1l0,0
				c0,0-0.3-0.1-0.3-0.1l0.4,0.1c-0.4-0.1-0.4-0.1-0.3-0.1c0.1,0,0.2,0-0.2,0c0,0,0.2,0,0.4,0.1l-0.3-0.1c0.1,0,0.4,0,0.4,0.1
				c0,0,0.4,0.1,0.1,0c0.2,0,0.3,0,0.5,0.1c-0.1,0-0.1,0,0,0.1c0.1,0,0,0.1-0.2,0.1c0.2,0,0.2,0,0.4,0.1c0,0-0.1,0-0.2,0
				c-0.1,0-0.2,0-0.2,0c0.1,0.1,0.5,0.3,0.2,0.2c0.2,0.1,0.3,0,0.5,0c0.4,0.2,0.3,0.2,0.1,0.2c-0.2,0-0.4-0.1-0.1,0.1
				c0.5,0.3,0-0.2,0.6,0.1l-0.2,0.1c0.7,0.2,0-0.2,0.6-0.1c0,0.1-0.1,0.1-0.2,0.2c0,0,0,0,0,0c0,0,0,0,0,0c-0.1,0.1-0.2,0.2-0.3,0.4
				c-0.3-0.2-0.4-0.5-0.4-0.5c-0.3-0.1-0.2,0-0.3,0.1l0.2,0c0,0.1,0.3,0.3,0.3,0.5c0,0-0.1,0.1-0.1,0.1c-0.1,0-0.3-0.3-0.5-0.3
				c0.1,0.3,0,0.1,0.3,0.3c-0.1,0.2-0.2,0-0.3,0.2c0-0.2-0.2-0.4,0-0.4l-0.3-0.2c0.1,0.2,0.2,0.5,0.3,0.8c0,0,0,0-0.1,0.1L32,72
				c0,0.1,0,0.2-0.1,0.3c-0.7,0.6-1.5,1.2-1.7,1.2c0,0-0.1,0-0.1,0c0,0,0-0.1,0,0c0,0,0.2,0,0.2,0c-0.2,0-0.3-0.1-0.3-0.2
				c0,0,0,0,0,0C30,73.2,29.6,73.2,29.6,73.2z M27.8,71.4C27.8,71.3,27.8,71.3,27.8,71.4C28,71.1,27.8,71.3,27.8,71.4z M44,39.4
				c0-0.1,0-0.3-0.1-0.6c0.2,0.1,0.3,0.2,0.2,0.4c0.1,0,0.3,0.1,0.4,0.1C44.4,39.4,44.2,39.4,44,39.4z M32.7,35
				c-0.1-0.1-0.2-0.1-0.3-0.2c0.3,0.2,0.6,0.3,1,0.5C33.2,35.3,33,35.2,32.7,35z M25.9,52.9c-0.1,0.1-0.2,0.2-0.4,0.2
				c-0.2,0.1-0.4,0.2-0.8,0.2c-0.3,0-0.5,0-0.6,0c-0.1,0-0.1,0-0.2,0c0,0,0-0.1,0.2-0.1c0.3-0.1,0.8-0.2,0.3-0.3
				c-0.1,0-0.1,0-0.2-0.1c0.7-0.1,1.3-0.1,1.8-0.2C26.1,52.7,26,52.8,25.9,52.9z"/>
			<path class="st0" d="M17.1,56.2c-0.2,0-0.6,0.1-0.7,0.4l0,0l-0.1,0c0,0.1,0,0.1,0,0.2l-2.2,4.3l-0.4,1.1l-2.6,4.8l-0.2,0.2
				c0-0.1,0-0.2,0-0.3c0-0.1,0.1-0.2,0.1-0.3c0-0.1,0-0.2,0-0.2c0-0.9,0.1-2.3,0.2-2.6l0.1-1.8c0,0,0,0,0,0c0-0.1,0-0.2,0-0.3
				l0.3-3.9c0.1-1.1,0.6-3.3,0.7-4.1l1.2-5.7c0.1-0.2,0.1-0.4,0.1-0.6c0-0.1,0-0.4,0.1-0.7c0,0,0.1,0,0.1,0l-0.1-0.1
				c0-0.2,0-0.4,0.1-0.7c0.4,0.2,1,0.7,1-0.4c-0.4,0.9-1.1,0-0.9-0.6c0,0,0,0,0,0c0-0.1,0-0.3,0-0.3c0,0,0,0,0-0.1
				c0.3,0.5,0.5-0.2,0.4-0.8c0,0.6-0.2,0.9-0.4,0.8c0-0.3,0-0.5,0-0.8c0,0.1,0.1,0.1,0.2,0.2c0.6,0.1,0.4-1.9,0.4-2.8
				c-0.3-0.7-0.5-0.6-0.8-0.7c0.2-0.3,0-1,0.2-1.2c-0.3-0.3-0.4-0.6-0.6-0.8c-0.2-0.3-0.3-0.5-0.4-0.8c-0.3-0.5-0.5-1-1.2-1.4
				c0-0.1,0-0.1,0-0.1l-0.1-0.1l0,0.1c-0.3-0.2-0.7-0.5-1.1-0.8c0.3,0.4,0.5,0.8,0.6,1.2c-0.4-0.7-1-1.3-1.5-1.8l0-0.3
				c-0.2-0.2-0.4-0.5-0.6-0.7c0.2,0.3,0.2,0.6-0.1,0.5c-0.1,0-0.1-0.1-0.2-0.1c0-0.1,0-0.2-0.1-0.3c-0.1-0.2-0.1-0.3-0.1-0.3
				s-0.4,0-0.8-0.1c-0.2,0-0.3-0.1-0.5-0.1c-0.1,0-0.1,0-0.1,0c-0.4-0.1-0.8-0.2-1.3-0.3C6.1,33.1,6.4,33,6.5,33
				C6.2,33,6,33.1,5.8,33.2c-0.2,0-0.4-0.1-0.6-0.1c-0.5,0-1,0.4-1.1,0.8c-0.5,2.1-0.1,3.8,1.2,5.5c0,0.4-0.1,0.8-0.2,1.1
				c0-0.2,0-0.4,0-0.6c0,0.4-0.2,1-0.3,1.5C5,41.3,5.1,41.1,5.1,41c0,0.2-0.1,0.3-0.1,0.5c0,0-0.1,0-0.1,0c-0.1,0.5-0.1,0.9-0.1,1.1
				l-0.1-0.1c0,0,0,0.2,0,0.5c-0.1,0.4-0.2,0.8-0.2,1.3c-0.1-0.4-0.2-0.7-0.4-0.6l0.2,0.9c-0.3-0.4-0.4,0.8-0.7,0.5l-0.1,2.4l-0.4,0
				L3.3,47c-0.8-0.8-0.1,1.2-0.7,1.8L3,48.8c-0.6,2-0.4,0.8-1,2.5l0.3,0.6c0.1,0.1-0.1-1.6,0.3-1.5c0.1,0.6,0,1.2,0,1.9
				c0,0.1,0,0.2,0,0.4c-0.1,0.4-0.2,0.8-0.3,1.1c0,0,0,0,0,0c-0.2-0.3-0.3-0.5-0.3-0.5c0.4,0.5-0.6,1.2-0.6,2.4l0.4-1
				c0.2,0.3,0.2,0.6,0.2,1c-0.2,1-0.4,2-0.5,3c0-0.9,0.1-2-0.4-1.8c-0.1,0.9,0.1,1.7,0.3,2.5c0,0.3-0.1,0.6-0.1,1l-0.2-0.4l0.1,0.8
				L1,60.3c0,0,0,0,0,0.1c-0.1,0.5-0.1,0.9-0.2,1.4l-0.4-0.4l-0.1,1.1l0.1-0.1c0.1,1.8-0.1,3.3-0.5,5c0,0,0.1-0.2,0.1-0.5
				c0.1-0.2,0.1-0.5,0.1-0.5c0.1,0.1,0.1,0.6,0,1.1c0.2-0.1,0.2-0.6,0.3-0.9c0,0.3,0,0.5,0,0.8c0,0.2-0.1,0.4-0.2,0.6
				c-0.1,0.5-0.3,1-0.4,1.8C0.3,70,0.8,68.7,1,70c-0.4-0.1-0.5,1.1-1,0.2c0.4,1.1-0.3,0.9,0.3,1.7c0-0.1,0-0.3,0-0.4
				c0.2-0.3,0.3,0.5,0.4,0.8c-0.3,0.5-0.5,0.9-0.5,1.7c0,0,0.1,0.4,0.3,0.9c0.1,0.5,0.3,0.9,0.3,0.9c-0.1,0.1-0.2,0-0.2,0L1,77.4
				c0.2,0.8,0.5,1.5,0.9,2.1c0.4,0.6,1,1.2,1.4,1.5c0.4,0.3,0.8,0.6,1.1,0.8c0.3,0,0.9,0.1,0-0.6c0.5,0.1,0.9,0.4,1.3,0.7
				c0.2,0.2,0.4,0.3,0.7,0.5c0.3,0.2,0.6,0.4,0.9,0.5c0,0-1.2,0-1.2,0c0.9,0.4,1.8,0.7,2.8,0.8c1,0.1,2,0.1,3-0.1
				c1-0.2,1.9-0.7,2.5-1.4c0.7-0.7,1.1-1.5,1.3-2.4c0-0.1,0-0.3,0.1-0.4l-0.3,0.3L15.3,80l0.1-0.3c0.1-0.4,0.2-0.8,0.3-1.2l0.1-0.5
				l0.1-0.3c0.1-0.4,0.3-0.8,0.4-1.1c0.3-0.7,0.5-1.3,0.5-1.8c-0.9,1.1-0.1-1-0.1-1.4c-0.5,1.1-0.6,3-0.8,3.2l0.1,0l-0.2,1.2l0,0.3
				c0,0.1-0.1,0.3-0.1,0.5l-0.2,1.1l0,0l-0.2-0.1l-0.2-0.2c0,0,0,0,0,0c0.2,0.2,0.2,0.7-0.1,1.1c-0.2,0.5-0.6,0.9-1.1,1.3
				c-1,0.7-2.1,0.8-1.5,1.1c-1.1,0.4-1.7,0-1.6-0.3c0,0-0.7,0.2-1.5,0.2c-0.8,0-1.6-0.1-1.6-0.1c-0.3-0.3,0.4-0.6,0.8-0.5
				c0.6,0.1,1.3,0.1,2,0c0.7-0.1,1.4-0.3,2-0.3c0.3-0.3,0.1-0.3,0-0.4c-0.1,0-0.1-0.1,0-0.2c0.1-0.1,0.3-0.2,0.6-0.6
				c0.6-0.4,1-1,1.3-1.8l0.3-1c0.1-0.2,0.1-0.5,0.2-0.7c0.1-0.4,0.2-0.8,0.4-1.2c0.2-0.8,0.5-1.5,0.8-2.1c-0.3,0.3-0.4,0.6-0.5,0.1
				l0.7-0.9c0.2-0.9-0.3-1.5,0.2-2c-0.2-0.3-0.8,1.4-1.1,1.9c-0.8-1.1,1.1-1.6,0.5-2.7c-0.5-0.6-0.5,2.3-1.1,1.3l0.5-1.1
				c-1,0.6-0.4,1.9-1.1,2.1c0.2-0.6,0.4-1.2,0.5-1.7c0,0,0,0,0,0c0,0,0,0,0,0c0.4-1.4,0.8-2.7,1-3.4c0.4,0.3,0.3,1.6,0.1,2.1
				c0.4-0.4,0.6-1.3,0.7-1.8L16,68.6c0.3-1-0.2-1.2-0.2-1.9l0.4-1.5c0.2-0.2,0.5,0.3,0.7,0.1c0.1-1.5,0.1-0.5-0.4-0.6
				c0.2-1,0.5-1.2,0.7-2.2c0-0.2,0.1-0.4,0.1-0.6c0,0.3,0,0.5,0.1,0.7c0,0.5,0.1,0.8-0.2,1.4l0.5-0.1c0-0.4,0-0.7,0-1.2
				c-0.1-0.4-0.1-0.8-0.2-1.2c0.1-0.3,0.3-0.5,0.4-0.8c0.1-0.4,0.1-0.7-0.3-0.3c0,0.3-0.1,0.5-0.2,0.6c0-0.1,0-0.2,0-0.2l0.1-0.6
				l0.2,0c-0.1-0.1,0-0.9,0.1-2l0.2-1.1C18,56.7,17.7,56.2,17.1,56.2z M13.8,43.4c0,0.1-0.1,0.2-0.1,0.3c0-0.3-0.1-0.5-0.1-0.8
				C13.9,43,13.9,43.2,13.8,43.4z M9.3,34.5l0.1,0.3c-0.1-0.1-0.2-0.1-0.2-0.2C9.2,34.6,9.2,34.5,9.3,34.5z"/>
			<path class="st0" d="M28.9,69l-0.2-0.1c0,0,0,0.1,0,0.1C28.7,69,28.9,69,28.9,69z"/>
			<path class="st0" d="M28.7,69.3L28.7,69.3c0.1,0-0.1-0.1-0.3-0.2C28.6,69.3,28,69.2,28.7,69.3C28.8,69.4,28.8,69.3,28.7,69.3z"/>
			<path class="st0" d="M28.8,69.4C28.8,69.4,28.8,69.4,28.8,69.4C28.8,69.4,28.8,69.4,28.8,69.4C28.8,69.4,28.8,69.4,28.8,69.4z"/>
			<path class="st0" d="M28.8,69.5C28.8,69.4,28.8,69.4,28.8,69.5C28.6,69.4,28.7,69.4,28.8,69.5z"/>
			<path class="st0" d="M28.3,69.4c0,0,0.1-0.1-0.1-0.1c-0.1,0,0.2,0.1-0.2,0C27.9,69.3,28.4,69.3,28.3,69.4z"/>
			<path class="st0" d="M28.7,69.7c0,0,0.1,0,0.1,0C28.7,69.7,28.7,69.7,28.7,69.7z"/>
			<path class="st0" d="M27.9,69.7L27.9,69.7c0.4,0,0.1,0,0.5,0c0.2,0,0.2,0,0.3,0c-0.6,0,0-0.1-0.9-0.1
				C27.8,69.6,27.8,69.7,27.9,69.7z"/>
			<path class="st0" d="M27.8,69.5C27.8,69.5,27.7,69.6,27.8,69.5C27.8,69.6,27.8,69.6,27.8,69.5C27.8,69.6,27.8,69.6,27.8,69.5z"/>
			<path class="st0" d="M28.3,69.5l-0.4-0.1c0.1,0.1,0,0.1,0,0.1C28,69.5,28.3,69.6,28.3,69.5z"/>
			<path class="st0" d="M27.8,70l0.4-0.1c0,0-0.2,0-0.3,0c-0.2,0-0.3,0-0.3,0c0.4,0.1-0.3,0.3,0.5,0.2l-0.2,0.1L28,70
				c0,0,0.1-0.1,0.2-0.1C28.1,70,27.9,70.1,27.8,70z"/>
			<path class="st0" d="M28.1,70L28.1,70c0,0-0.1,0.1-0.1,0.1C28,70.1,28.1,70.1,28.1,70z"/>
			<path class="st0" d="M28.2,70.2L28.2,70.2C28.3,70.3,28.4,70.2,28.2,70.2z"/>
			<path class="st0" d="M28.2,69.8L28.2,69.8C28.1,69.8,28.1,69.8,28.2,69.8z"/>
			<path class="st0" d="M28.2,69.8L28.2,69.8l0.4,0C28.7,69.8,28.3,69.8,28.2,69.8z"/>
			<path class="st0" d="M32,71c-0.1,0,0.1,0.2-0.1,0.1C32,71.1,32.4,71.3,32,71z"/>
			<path class="st0" d="M30.8,70.1L30.8,70.1C30.7,70.1,30.7,70.1,30.8,70.1L30.8,70.1z"/>
			<path class="st0" d="M30.6,69.9c0.1,0,0.1,0.1,0.2,0.1c0,0,0.7,0.3,0.1,0l-0.1,0c-0.2-0.1-0.3-0.2-0.3-0.2
				C30.4,69.8,30.5,69.9,30.6,69.9L30.6,69.9z"/>
			<path class="st0" d="M31,70.1c0,0-0.1-0.1-0.2-0.1c-0.1,0-0.2-0.1-0.2-0.1C30.6,69.9,30.6,70,31,70.1z"/>
			<path class="st0" d="M31.3,70.2c-0.2-0.1-0.1-0.1-0.2-0.1C30.8,70,31.2,70.2,31.3,70.2C31.3,70.3,31.3,70.3,31.3,70.2z"/>
			<path class="st0" d="M31.5,70.2L31.5,70.2C31.5,70.2,31.5,70.2,31.5,70.2L31.5,70.2z"/>
			<path class="st0" d="M31,69.9L31,69.9C31,69.9,31,69.9,31,69.9z"/>
			<path class="st0" d="M33.6,40.3c0.4-0.1,0.7-0.3,1.1-0.5c-0.3,0.1-0.6,0.2-1,0.4c-0.2,0.1-0.4,0.1-0.6,0.2
				c-0.1,0-0.3,0.1-0.4,0.2c-0.1,0-0.2,0.1-0.3,0.1c0,0,0,0,0,0c0.2,0,0.4,0,0.7-0.1C33.3,40.4,33.4,40.3,33.6,40.3z"/>
			<path class="st0" d="M32.2,40.6C32.2,40.6,32.2,40.6,32.2,40.6C32.3,40.6,32.3,40.6,32.2,40.6C32.3,40.6,32.3,40.6,32.2,40.6z"/>
			<path class="st0" d="M34.7,36.7c0,0-0.1,0-0.1,0.1C34.6,36.8,34.6,36.8,34.7,36.7z"/>
			<path class="st0" d="M44.2,39.4c0,0,0-0.1,0-0.1c-0.1,0-0.1,0-0.2,0L44.2,39.4z"/>
			<path class="st0" d="M39.2,30.9c0.3,0.2,0-0.1-0.4-0.3c-0.3-0.2-0.5-0.3-0.6-0.2c0.1,0,0.3,0.1,0.4,0.2
				C38.9,30.8,39.2,30.9,39.2,30.9z"/>
			<path class="st0" d="M32.1,31.6c0,0.1-0.1,0.1-0.1,0.2C32,31.8,32,31.7,32.1,31.6z"/>
			<path class="st0" d="M36,30.2c-0.7-0.2-1.6-0.2-2.5,0.3c0,0,0,0,0,0c0.4-0.1,0.8-0.2,1.2-0.3C35.2,30.1,35.6,30.1,36,30.2z"/>
			<path class="st0" d="M31.9,31.8c-0.1,0.1-0.1,0.3-0.2,0.4C31.8,32.1,31.9,32,31.9,31.8z"/>
			<path class="st0" d="M35.2,79.8c0.2-0.1,0.5-0.3,0.8-0.5c0.3-0.3,0.6-0.5,1.1-0.8C36.4,79,35.2,79.2,35.2,79.8z"/>
			<path class="st0" d="M36.2,81.5L36.2,81.5c-0.1,0-0.2,0.1-0.4,0.2C35.9,81.6,36.1,81.6,36.2,81.5z"/>
			<path class="st0" d="M36,81.2l0.1,0.2C36.3,81.2,36.3,81.1,36,81.2z"/>
			<path class="st0" d="M33.1,82.8c0,0,0.4-0.1,0.8-0.3c0.4-0.2,0.8-0.3,0.8-0.3c0.1,0.3,0.2,0.5-0.8,0.9c0.3,0,1.1-0.5,1.5-0.8
				L35,82.4c0.2-0.2,0.5-0.5,0.8-0.7C34.5,82.4,33.1,82,33.1,82.8z"/>
			<path class="st0" d="M32.4,82.9c0,0-0.1,0.1-0.3,0.1c-0.1,0-0.2,0.1-0.3,0.2c-0.1,0.1-0.2,0.1-0.4,0.2c-0.6,0.2-1.3,0.4-1.3,0.4
				c0.3,0,0.6,0,0.9-0.1c0.2,0,0.4-0.1,0.5-0.1c0.2,0,0.3-0.1,0.4-0.1C32.5,83.2,32.7,83,32.4,82.9z"/>
			<path class="st0" d="M28.1,82.7c-0.2-0.1-0.5-0.2-0.8-0.3c-0.2-0.1-0.4-0.2-0.5-0.2c0.4,0.3,0.8,0.5,1.1,0.6
				c0.3,0.1,0.4,0.1,0.5,0.1c0.2-0.1,0.2-0.2,1-0.1c-0.5-0.1-0.9-0.2-1.3-0.3C28.8,82.9,28.6,82.9,28.1,82.7z"/>
			<path class="st0" d="M29.4,82.8c0.2,0,0.4,0,0.7,0C29.8,82.9,29.6,82.9,29.4,82.8z"/>
			<path class="st0" d="M42.4,76.9l0-0.2C42.3,76.7,42.3,76.7,42.4,76.9z"/>
			<path class="st0" d="M23.9,79.2c0.1,0.2,0.3,0.3,0.3,0.3l-0.1-0.1c-0.2-0.2-0.3-0.3-0.4-0.5C23.6,78.9,23.8,79.1,23.9,79.2z"/>
			<path class="st0" d="M21.1,74.5L21.1,74.5C21.1,74.4,21.1,74.5,21.1,74.5z"/>
			<path class="st0" d="M48.9,41.1l0.1,0C48.9,41,48.9,41,48.9,41.1z"/>
			<path class="st0" d="M4.8,41.5C4.8,41.5,4.9,41.5,4.8,41.5C4.9,41.5,4.9,41.5,4.8,41.5C4.9,41.5,4.8,41.5,4.8,41.5z"/>
			<path class="st0" d="M11.6,36.3l0.5,0.5C12.3,37.1,11.7,36.1,11.6,36.3z"/>
			<path class="st0" d="M8.9,33.9c0-0.1-0.1-0.1-0.2-0.2C8.8,33.8,8.9,33.8,8.9,33.9z"/>
			<path class="st0" d="M10.5,35.5c-0.2-0.3-0.5-0.7-0.9-0.9l0,0c0.1,0.2,0.3,0.3,0.4,0.5C10.1,35.2,10.3,35.3,10.5,35.5z"/>
			<path class="st0" d="M6.9,33.3l0.3-0.2l0-0.1l0,0l0,0l0,0l0,0l0.1,0c0.1,0,0.2,0.1,0.4,0.1L8,33.2l0.1,0c0,0,0.1,0,0.1,0.1
				c0.2,0.1,0.3,0.2,0.3,0.2s0-0.1,0-0.3c0-0.1,0-0.3,0-0.3c0,0-0.1-0.1-0.1-0.1c-0.1,0,0,0-0.2-0.1c-0.2-0.1-0.3-0.2-0.5-0.2
				c-0.1,0-0.1,0-0.2-0.1c0,0,0,0-0.1,0c0,0,0,0,0,0l-0.4,0l0,0l0,0l0,0l-0.1,0c-0.3,0.1-0.2,0.2-0.1,0.2c0.1,0.1,0.1,0.2-0.2,0.3
				c0,0,0,0.2,0,0.2C6.6,33.1,6.8,33.3,6.9,33.3L6.9,33.3z"/>
			<path class="st0" d="M16.9,66.6c0.2-0.2,0.1-0.9,0.3-1.3C17.1,65.7,16.5,66.3,16.9,66.6z"/>
			<path class="st0" d="M18.5,67l0.2,0.1C18.7,66.9,18.6,66.9,18.5,67z"/>
			<path class="st0" d="M18,69.2l0.2,1C18.2,69.9,18.4,69.1,18,69.2z"/>
			<path class="st0" d="M17.2,70.3c-0.1,0.2-0.1,0.4-0.1,0.5c0.4-0.5,0,0.4,0.1,0.6C17.8,70.5,17.1,70.9,17.2,70.3z"/>
			<path class="st0" d="M17.8,60l-0.2,0C17.7,60.1,17.7,60.1,17.8,60z"/>
			<path class="st0" d="M16.2,73.2L16.2,73.2c-0.1,0.2-0.1,0.2-0.1,0.3L16.2,73.2z"/>
			<path class="st0" d="M15.9,76.7L15.9,76.7C15.9,76.7,15.9,76.7,15.9,76.7z"/>
		</g>
		<g>
			<path class="st0" d="M68,73.4c0,0.1,0,0.1,0,0.2c0,0,0,0,0,0.1L68,73.4z"/>
			<path class="st0" d="M68.5,73.4c0,0.1,0,0.1,0,0.1c0,0,0,0,0,0L68.5,73.4z"/>
			<path class="st0" d="M67,62.7c0,0,0,0.3,0.1,0.7c0,0.4,0.1,0.8,0.1,0.8c-0.1-0.1-0.1-0.2-0.1-0.3c0-0.1-0.1-0.1-0.1-0.2
				c0-0.2-0.1-0.3-0.1-0.5c-0.1-0.3-0.1-0.7-0.2-0.6c-0.1,0.2-0.1,0.8-0.2,0.9c0.1,0,0.2,0,0.3,0.1c0,0.1,0.1,0.1,0.1,0.2l0,0.1
				c0,0.1,0,0.1,0,0.2c0.1,0.5,0.2,0.9,0.5,0.3c0-0.1,0-0.3-0.1-0.4C67.2,63.5,67.1,63.2,67,62.7z"/>
			<path class="st0" d="M67.5,67.9l0.5,0.7c-0.3-1.3-0.4-2.1-0.5-2.8C67.4,66.3,67.2,66.1,67.5,67.9z"/>
			<path class="st0" d="M67.3,64.4C67.3,64.4,67.3,64.4,67.3,64.4c0,0.4,0.1,0.7,0.1,1c0,0.1,0,0.3,0,0.4
				C67.5,65.6,67.5,65.2,67.3,64.4z"/>
			<path class="st0" d="M66.4,63.5c0,0-0.1,0-0.1,0C66.4,63.6,66.4,63.6,66.4,63.5z"/>
			<path class="st0" d="M64.1,62.5c0.1,0,0.3-0.1,0.3-0.1C64.4,62.4,64.2,62.4,64.1,62.5z"/>
			<path class="st0" d="M55.1,61.3c-0.4-0.3,0,0.1,0.5,0.3c0.4,0.2,0.7,0.4,0.8,0.3c-0.2-0.1-0.4-0.2-0.6-0.3
				C55.5,61.5,55.1,61.3,55.1,61.3z"/>
			<path class="st0" d="M62.2,62.9C62.2,62.9,62.2,62.9,62.2,62.9c-0.1,0-0.2,0-0.3,0c-0.3,0-0.6-0.1-1-0.1c-0.4,0-0.8-0.1-1.1-0.1
				c-0.1,0-0.2,0-0.4-0.1c0.3,0.1,0.7,0.1,1.1,0.2C61,62.8,61.5,62.9,62.2,62.9z"/>
			<path class="st0" d="M63,62.8c0.4-0.1,0.8-0.2,1-0.3c-0.3,0.1-0.6,0.2-0.7,0.1c-0.2,0,0-0.2,0.5-0.5c0,0,0.3,0,0.5,0
				c0.2,0,0.3,0,0.3,0s0.3-0.3,0.7-0.7c0.4-0.4,0.9-0.8,0.9-0.8c-0.8,0.6-1.4,0.9-2,1.2c-0.3,0.1-0.6,0.3-0.9,0.5
				c-0.3,0.2-0.5,0.3-0.6,0.5c0,0-0.1,0-0.2,0c-0.1,0-0.3,0-0.4-0.1c-0.2,0-0.3-0.1-0.4-0.1c-0.1,0-0.2,0-0.2,0s0.5,0.3,0.5,0.4
				C62.4,62.9,62.8,62.9,63,62.8z"/>
			<path class="st0" d="M66.6,61.5C66.6,61.5,66.6,61.5,66.6,61.5c0-0.1-0.1-0.2-0.2-0.2c-0.1,0-0.2,0-0.2,0.1
				c-0.1,0.1-0.2,0.1-0.3,0.2c0,0,0,0,0,0c0.2-0.1,0.4-0.2,0.5-0.2C66.5,61.3,66.6,61.4,66.6,61.5z"/>
			<path class="st0" d="M65.7,61.7c-0.5,0.3-0.9,0.6-0.9,0.6c0,0,0.3,0.2,0.3,0.2c0.6-0.2,0.6-0.4,0.7-0.6c0-0.1,0-0.2,0.1-0.3
				C65.8,61.6,65.8,61.6,65.7,61.7z"/>
			<path class="st0" d="M90.7,48.4c-0.6-0.2-1.8-0.2-2.8-0.4c0.4,0.1,1,0.2,1.6,0.3C90,48.4,90.5,48.5,90.7,48.4z"/>
			<path class="st0" d="M91,46.8L91,46.8c0.1,0.1,0.3,0.1,0.6,0.1C91.4,46.9,91.2,46.9,91,46.8z"/>
			<path class="st0" d="M91,46.9c-0.3,0-0.4,0-0.1,0.2L91,46.9z"/>
			<path class="st0" d="M92.7,47.4c0.1,0.1,0.2,0.1,0.3,0.2c0.3,0.2,0.7,0.5,0.9,0.7c0.5,0.4,0.9,0.7,1.3,0.5c0,0-0.1-0.1-0.3-0.2
				c-0.2-0.1-0.4-0.3-0.6-0.4c-0.5-0.3-1-0.5-1-0.5c0.1-0.2,0.2-0.4,1.4,0.4c-0.1-0.1-0.5-0.3-0.9-0.5c-0.2-0.1-0.4-0.2-0.6-0.2
				c-0.2-0.1-0.4-0.1-0.6-0.2c0,0,0.1,0.1,0.3,0.1c0.1,0.1,0.2,0.1,0.2,0.1c-0.1,0-0.2,0-0.3-0.1c-0.1,0-0.3-0.1-0.4-0.1
				c-0.3-0.1-0.6-0.1-0.8-0.2c0.3,0.1,0.5,0.2,0.7,0.3C92.5,47.3,92.6,47.4,92.7,47.4z"/>
			<path class="st0" d="M96,49.6c0.2,0.1,0.4,0.3,0.7,0.5c0.5,0.3,0.9,0.8,0.9,0.8c-0.3-0.4-0.8-0.9-1.3-1.2
				c-0.5-0.3-0.8-0.5-0.7-0.1C95.7,49.4,95.9,49.5,96,49.6z"/>
			<path class="st0" d="M98.3,52.9c-0.3-0.6-0.1-0.5,0.1-0.1c0.3,0.4,0.6,1.1,0.7,1.3c-0.4-1.3-0.7-1.5-0.8-1.6
				c-0.2-0.1-0.3-0.1-0.7-0.6C97.8,52.2,98.1,52.6,98.3,52.9z"/>
			<path class="st0" d="M97.6,51.8c-0.1-0.2-0.3-0.3-0.4-0.5C97.3,51.6,97.5,51.7,97.6,51.8z"/>
			<path class="st0" d="M87.8,44.6l-0.1,0.1C87.7,44.9,87.7,44.9,87.8,44.6z"/>
			<path class="st0" d="M98.3,59.4l-0.1,0.1c-0.1,0.2-0.2,0.4-0.3,0.6C97.8,60.1,98.3,59.4,98.3,59.4z"/>
			<path class="st0" d="M93.1,65.2L93.1,65.2C93.1,65.2,93.1,65.2,93.1,65.2z"/>
			<path class="st0" d="M98.7,55.6c0-0.2-0.1-0.4-0.1-0.6c0-0.2-0.1-0.4-0.1-0.6c-0.1-0.1-0.1,0.1,0,0.4c0,0.1,0,0.2,0.1,0.3
				c0,0.1,0.1,0.3,0.1,0.4c0,0.3,0,0.6,0,1c-0.1,1.3-0.8,2.5-1.2,2.9c0.1-1,0.6-1.8,0.9-2.9c0.1-0.3,0.1-0.6,0.1-0.9
				c0-0.1,0-0.3-0.1-0.5c0-0.1-0.1-0.3-0.1-0.4c-0.2-0.5-0.4-1-0.8-1.3c-0.4-0.2,0.3,0.8,0.6,1.9c0.2,0.6,0.1,1.2,0,1.5
				c-0.1,0.3-0.2,0.3-0.3-0.1c0,0,0-0.2,0.1-0.4c0-0.3,0.1-0.6,0-0.9c-0.1-0.6-0.4-1.2-0.4-1.2c0,0.5,0.1,0.9,0.2,1.4
				c0,0.2,0.1,0.5,0,0.7c0,0.2,0,0.5-0.1,0.7c-0.1,0.9-0.5,1.5-0.9,1.7c0.5-0.8,0.8-1.8,0.8-2.7c0-0.1,0-0.4-0.1-0.7
				c0,0,0-0.1,0-0.1c0,0,0-0.1-0.1-0.1c-0.4-1.3-1.6-3.5-4.6-5.1c0.2-0.1,0.8,0.1,1.5,0.4c0.8,0.4,1.6,1.1,2,1.6
				c-0.2-0.5-0.7-1.1-1.3-1.5c-0.6-0.5-1.3-0.9-1.7-1.1c0,0,0.1,0.1,0.2,0.2c0.1,0.1,0.3,0.2,0.5,0.4c0.2,0.2,0.4,0.3,0.5,0.4
				c0.1,0.1,0.2,0.2,0.2,0.2c-0.6-0.4-1-0.7-1.4-0.8c-0.4-0.1-0.7-0.2-1-0.3c-0.3-0.1-0.7-0.1-1.1-0.3c-0.8-0.3-1.8-0.4-2.8-0.5
				c-0.2-0.1-0.2-0.1-0.2-0.2c0.1-0.1,0.4-0.3-0.1-0.4c-2.9,0.1-1,0-1,0.4c-1.1,0-1.8-0.1-2.6-0.1c0.2-0.1,0.4-0.2,0.6-0.3
				c0,0,0,0,0.1,0l0,0c0.1-0.1,0.2-0.2,0.3-0.3c0.4-0.4,0.8-0.8,1.1-1.3c0.1-0.2,0.3-0.4,0.4-0.6c0.2-0.3,0.4-0.7,0.4-1.2
				c0.1-0.1,0.2-0.1,0.2-0.1c0-0.1-0.1-0.7-0.5-1.6c-0.2-0.5-0.6-1-1.1-1.6c-0.8-1-1.8-1.8-2.7-2.3c-0.4-0.2-1.1-0.6-3.2-0.7
				c0,0-0.1-0.1-0.1-0.1c-0.2-0.1-0.3-0.1-0.1,0.1c-0.3,0-0.6,0-0.9,0c0,0,0,0,0,0c-0.1-0.1-0.2-0.1-0.3-0.2l0,0c0,0,0,0-0.1,0
				c-0.1,0.1-0.2,0.2-0.3,0.2c-0.5,0-1.1,0.2-1.1,0.6c0,0.2,0.9,0.9,1.1,1c0.6,0.6,1.4,2.1,1.4,2.7c0,0,0,0.4-0.5,0.7
				c-0.4,0.2-2.9,0.8-2.9,1.1c0,0.1,0.1,0.2,0.2,0.2c1.9,0.9,2.8,1.8,3.6,2.5c0.1,0,0.9,0.6,0.9,0.8v0l0.4,0.1l0.3,0.1
				c-0.5,0.3-3.2,1-3.8,1.2L76.8,50c-0.2,0-0.3,0.1-0.6,0.2c-0.1,0-0.2,0.1-0.3,0.1l-1.9,0.6c-0.2,0.1-1.4,0.5-1.6,0.5
				c-0.4-1.2-0.4-1.6-0.4-5c0,0,0,0,0,0c0,0,0,0,0,0c0,0,0-0.1,0-0.1c-0.1-0.6-0.5-2.8-1-3.2c-2.4-2.1-2.7-2.4-4.3-3.1
				c-1.3-0.6-4.7-1.3-4.8-1.3c-0.5,0-0.9,0.4-0.9,0.9c0,0.4,0.2,0.9,0.5,1.2c0.3,0.3,2.5,1.9,2.7,2.2c0.4,0.5,1.8,7.9,2.2,10
				c0,0,0,0,0,0c0,0,0,0,0,0c0.1,0.3,0.1,0.5,0.1,0.6c0,0.1-0.3,0.3-0.6,0.4c0-0.1,0-0.1,0-0.2c0-0.2-0.1-0.4-0.3-0.4
				c-0.2,0-0.5,0-1.1,0.3c0.7-0.1,1,0,0.8,0.2c-0.1,0.2-0.7,0.6-1.3,0.8c0,0,0,0,0.1,0c-0.2,0.1-0.5,0.2-0.7,0.3
				c0.8-0.5-0.5-0.3-1.6,0.2c1-0.3,1.7-0.3,1.6-0.1c-0.6,0.2-1.1,0.4-1.5,0.5c0.1-0.1,0.2-0.1,0.3-0.3c0-0.2-0.8-0.1-1.9,0.2
				c-0.5,0.1-1.2,0.4-1.9,0.5c-0.4,0.1-0.7,0.2-1.1,0.2c-0.4,0-0.7,0-1,0.1c-0.2,0-0.4,0.1-0.5,0.2c-0.1,0.1-0.2,0.1-0.3,0.1
				c-0.2,0.1-0.2,0.2-0.3,0.2c-0.1,0.1,0,0.2,0,0.3c-0.3,0-0.8,0.1-1.3,0c-0.4,0-0.8-0.1-1.1-0.1l-0.1,0c0,0,0,0.1-0.1,0.1
				c0,0.1-0.1,0.1-0.1,0.2c-0.1,0.1-0.2,0.3-0.2,0.4c-0.1,0.3,0,0.6,0.1,0.9c0.2,0.5,0.5,0.9,0.8,1.3c0.3,0.4,0.7,0.8,1.2,1.1
				c0.5,0.4,1.1,0.7,1.9,1c0.1,0.1,0.1,0.1,0.1,0.1c0.1,0.1,0.2,0.1,0.2,0.1l-0.1-0.1c0.6,0.2,1.3,0.4,2.1,0.5
				c0.3,0.1,0.5,0.1,0.8,0.1c-0.2-0.1-0.5-0.1-0.7-0.2c-1-0.3-1.7-0.8-2.3-1.2c-0.3-0.3-0.6-0.5-0.9-0.8c0.5,0.3,1.1,0.6,1.7,0.8
				c0.2,0.1,0.3,0.1,0.4,0.1c1.2,0.4,2.6,0.6,4.8,0.6c0.8,0,4.1-2.3,4.7-2.3c0.3,0,0.4,0.3,0.8,3l0.9,6.3l0,0.6l0.6,3.8
				c0,0.2,0.2,0.9,0.2,1.2l0,0c-0.2,0-0.3,0-0.5,0.1c0,0-0.1,0-0.1,0c-0.1,0-0.2,0-0.3-0.1c0,0,0,0,0,0l-0.1,0v0l0,0c0,0,0,0,0,0
				c0,0,0,0,0,0c0,0,0.1,0,0.1,0l0.1,0c0,0,0,0,0,0c0,0,0,0-0.1,0c0,0,0.1,0,0.1,0c0,0,0,0,0,0c0.1,0,0.1,0,0.2,0c0,0-0.1,0-0.1,0
				c0,0-0.1,0-0.1,0c0,0,0,0-0.1,0c0,0-0.1,0-0.1,0c0,0,0,0,0,0c0,0,0,0-0.1,0l0,0l0,0c0,0,0,0,0,0c0,0,0,0,0,0l0,0c0,0,0,0,0,0
				c0,0,0,0,0,0c0,0,0,0,0-0.1l0,0l0,0c0,0,0,0,0,0l0,0l0,0l0,0c0,0,0,0,0,0c0,0,0,0,0,0l0,0l0,0c0,0,0,0-0.1,0c0,0,0,0,0-0.1
				c0-0.1-0.1-0.3-0.1-0.5c0-0.1,0-0.2-0.1-0.3c0-0.1,0-0.1,0-0.3c0-0.3,0-0.6,0.1-0.7c-0.3-2.3-0.2,1.3-0.5-0.8
				c-0.1-0.3,0.1,0.6,0.3,1.6c0,0.1,0,0.1,0,0.2l0,0.2c0,0.1,0.1,0.2,0.1,0.3c0,0.1-0.2,0.2-0.2,0.3c0,0-0.3,0-0.3,0v0
				c0,0,0.3,0,0.3,0c0,0,0.1,0,0.1,0c-0.1,0-0.1,0-0.2-0.1l-0.1,0c0,0-0.1,0-0.1,0v0l0.1,0c0,0.1,0,0.1,0,0.2c0-0.1,0-0.3,0-0.4
				c0-0.1,0-0.2,0-0.3l0-0.2c0,0,0-0.1,0-0.2c-0.1-0.6-0.3-1.2-0.5-2.1c0.1,0.7,0.2,1.4,0.4,2.2c0,0.1,0,0.1,0,0.2l0,0.2l0.1,0.3
				c0,0.2,0.1,0.3,0.1,0.4c0,0,0,0.1,0,0.1c-0.1,0.3-0.2,0.8-0.2,1.1l0.1,0.1v0v0v0c0,0-0.1,0.9-0.3,0.9H68v-0.9l-0.1,0l-0.1,0
				c0,0-0.1,0.1-0.1,0.1c0,0.1,0,0.2,0,0.3c0,0-0.1-0.2-0.1-0.2c0,0-0.1,0.7,0.5,1.5c0.1,0.2,0.3,0.4,0.4,0.6
				c0.1,0.1,0.2,0.2,0.2,0.3l0.1,0.1l0.1,0.1c0.2,0.2,0.3,0.3,0.5,0.5c0.2,0.4,0.3,0.8,0.5,1.2c-0.1-0.1-0.1-0.1-0.2-0.2
				c-0.2-0.3-0.4-0.5-0.6-0.7c-0.1-0.2-0.3-0.3-0.4-0.4c-0.2-0.2-0.4-0.2-0.3,0c0,0,0.1,0.1,0.2,0.2c0.1,0.1,0.2,0.2,0.5,0.5
				c0.2,0.3,0.5,0.5,0.6,0.7c0.2,0.2,0.3,0.3,0.3,0.3c-0.4-0.2,0,0.3,0.4,0.8c0.5,0.5,1.1,0.8,0.8,0.8c0,0,0.4,0.2,1.1,0.3
				c0.7,0.1,1.6,0.2,2.4-0.2c0.8-0.3,1.5-0.9,1.9-1.5c0.4-0.5,0.6-0.9,0.6-0.9l0.3,0.1c0,0-0.2,0.4-0.5,0.7
				c-0.3,0.3-0.6,0.6-0.6,0.6c-0.3,0.5-0.3,0.6-0.1,0.5c0.2-0.2,0.7-0.6,1-1.2c0.4-0.6,0.7-1.5,0.8-2.4c0.1-0.4,0-0.9,0-1.3
				c0-0.2,0-0.4,0-0.6c0-0.1,0-0.2,0-0.3l-0.3,0c0-1.3,0-1.9,0.1-2.3c0-0.2,0-0.3,0-0.4c0-0.1,0-0.1,0-0.2c0-0.1,0-0.2,0-0.3
				c0-0.1,0-0.4,0-0.7c0-0.3,0-0.7-0.1-1.4l-0.4-1c-0.1-0.1,0.2,0.7,0.3,1.4c0.2,0.8,0.3,1.5,0.1,1.7c-0.1-0.3-0.1-0.6-0.2-0.9
				c-0.1-0.3-0.1-0.6-0.2-0.9c-0.1-0.6-0.3-1.3-0.4-1.9c-0.3-1.3-0.5-2.6-0.9-3.7l1,1.7c-0.3-0.4-0.3-1-0.3-1.9
				c0.1,0.1,0.1,0.2,0.2,0.2l0.4,0.5c0.1,0.1,0.3,0.2,0.4,0.3c0,0,0.1,0.1,0.1,0.2l0.1,0.1h0c0,0,0.1-0.2-0.1,0l0,0l0,0l0,0l0,0
				l0.2,0.2l0.4,0.3l0.3,0.2c0.2,0.1,0.5,0.3,0.7,0.4c0.6,0.3,1.3,0.5,1.9,0.6c1.1,0.2,1.9,0.2,2.6,0.2l0.2,0c0.1,0,0.2,0,0.3,0
				c0.2,0,0.4,0,0.5,0c0.3,0,0.4-0.1,0.6-0.1c0.4-0.1,0.7-0.1,1.1-0.2c0.7-0.2,1.3-0.3,2-0.6c0,0-0.2,0-0.4,0
				c-0.2,0-0.4-0.1-0.4-0.1l0.7-0.2c0.4-0.1,0.8-0.2,1.2-0.4c0.4-0.2,0.7-0.4,1.1-0.6c0.3-0.2,0.6-0.3,0.9-0.5
				c0.6-0.3,1.2-0.6,1.8-0.9c0.6-0.3,0.8-0.5,1.1-0.7c0.3-0.2,0.5-0.4,0.8-0.6c0.5-0.4,0.9-0.8,1.1-1.2c-1.2,0.9-0.9,0.5-0.2-0.2
				c0.7-0.7,1.5-1.9,1.7-2.4c-0.9,1.3-2.1,2.7-3.2,3.7c-0.5,0.5-1.1,0.9-1.6,1.3c-0.3,0.2-0.4,0.3-0.5,0.3l0.1,0l-3.1,2l-0.2,0.1
				l-0.1,0c0,0,0,0-0.1,0l-0.1,0.1c-0.1,0.1-0.3,0.1-0.5,0.2l-0.6,0.2l0-0.4c0,0.2-0.4,0.4-1,0.5c-0.6,0.1-1.3,0.2-2.1,0.3
				c-0.3,0-0.7,0-0.9,0c-0.2,0-0.3,0-0.5,0c-0.3,0-0.6,0-0.9-0.1c-0.5,0-0.8,0-0.5,0.2c-0.8,0-1.7-0.3-2-0.6
				c-0.4-0.3-0.4-0.5-0.3-0.5c-0.3-0.1-0.5-0.2-0.7-0.3l-0.3-0.2l-0.4-0.2l-0.2-0.2l0,0.3c0.1-0.1,0,0.2,0.1,0.2h0l0-0.3l0-0.1
				l0-0.1l0,0l-0.1,0c0,0-0.1-0.1-0.1-0.1c-0.2-0.1-0.3-0.2-0.4-0.4l-0.5-0.5l-0.5-0.6c0-0.2,0-0.3,0-0.5c0.2,0.1,0.5,0.3,0.6,0.4
				c0.2,0.2,0.3,0.4,0.5,0.6c0.1,0.1,0.3,0.3,0.4,0.4c0.1,0.1,0.2,0.1,0.3,0.2l0.1,0l0,0l0,0v0c0,0,0,0-0.1,0h0l0,0l0,0l0,0l0.2,0.1
				l0.3,0.2l0.2,0.1c0.2,0.1,0.3,0.2,0.5,0.3c0.4,0.2,0.8,0.4,1.2,0.5c0.8,0.2,1.5,0.3,1.9,0.4c0.6-0.1,0.3-0.2,0.2-0.3
				c0,0-0.1-0.1,0.1-0.1c0.1,0,0.2,0,0.4,0c0.1,0,0.2,0,0.3,0c0.2,0,0.4,0,0.6-0.1c0.8,0,1.4-0.1,2.2-0.2c0.4-0.1,0.7-0.1,1.1-0.2
				l0.3-0.1l0.3-0.1c0.3-0.1,0.5-0.1,0.8-0.3c0.7-0.4,1.4-0.8,2.2-1.2c0.3-0.2,0.7-0.4,1-0.6c0.2-0.1,0.3-0.2,0.5-0.3l0.3-0.2
				l0.3-0.2c1.4-1,2.4-2,3.2-2.8c-0.6,0.5-1.1,1.1-0.6,0.2c0,0,0.4-0.4,0.9-0.8c0.2-0.2,0.4-0.5,0.6-0.6c0.1-0.2,0.2-0.3,0.2-0.3
				c0.5-0.9,0.6-1.8,0.6-2.6C98.8,56.5,98.8,56,98.7,55.6z M84.2,52.9c0.9-0.2,1.8-0.3,2.7-0.3c0,0-0.4,0.4-0.4,0.4
				c0.6-0.1,1.3,0,1.8,0.2c0.5,0.2,0.8,0.4,0.7,0.6c-0.7-0.3-1.4-0.4-1.9-0.4c-0.3,0-0.5,0-0.7,0.1c-0.2,0.1-0.5,0.1-0.7,0.2
				c-0.4,0.1-0.8,0.3-1.3,0.4c-0.2,0.1-0.4,0.1-0.6,0.2c-0.2,0.1-0.5,0.1-0.8,0.2c0.2-0.2,0.1-0.1-0.2-0.1c-0.4,0.3-1.1,0.7-1.8,1
				c-0.6,0.3-1.2,0.6-1.9,0.8c0,0-0.1-0.1-0.1-0.1c-0.1,0-0.1,0-0.1-0.1c0,0,0,0,0,0l0.1-0.1c-0.1,0-0.1,0.1-0.2,0.1
				c-0.1-0.1-0.2-0.2-0.4-0.4l-0.3-0.3c0,0,0,0,0,0c1-0.5,2.2-1,3.4-1.4C82.5,53.5,83.3,53.1,84.2,52.9z M86.5,55.8
				c-0.2,0.1-0.4,0.3-0.8,0.8c0.1-0.1,0.3-0.3,0.5-0.4c0.5-0.1-0.4,0.6-0.8,0.9c-0.4,0.1-0.7,0.2-1.1,0.3c-0.2,0-0.3,0.1-0.5,0.1
				c-0.1,0-0.2,0-0.2,0c-0.1,0-0.1,0-0.1,0c0,0,0.2,0.1-0.5,0c-0.6-0.1-1.3-0.3-1.3-0.3c-0.1-0.1,0.1-0.1,0.1-0.1
				c-0.3-0.1-0.6-0.2-0.9-0.3l0.1,0l-0.2,0c0,0,0,0-0.1,0c0.8-0.3,1.5-0.6,2.2-0.8c0.4-0.1,0.7-0.3,1.1-0.4l0.3-0.1l0.2-0.1
				c0.1,0,0.3-0.1,0.4-0.1c0.3-0.1,0.6-0.1,0.9-0.1c0.2,0,0.3,0,0.5,0c0.1,0,0.1,0,0.1,0l0,0c0.1,0,0.2,0.1,0.2,0.2c0,0,0,0,0-0.1
				c0,0-0.1-0.1-0.1-0.1c0-0.1,0.2-0.1,0.3,0c0.2-0.2-0.3-0.3-0.3-0.5c0.4,0.1,0.5,0.2,0.6,0.4c0,0.1,0,0.2-0.1,0.3
				c-0.1,0.1-0.2,0.2-0.3,0.2c0.1,0,0.3,0,0.5-0.1c0.2-0.1,0.5-0.1,0.3,0.3c-0.2-0.1-0.4,0-0.6,0c-0.2,0-0.3-0.1-0.4-0.2
				C86.7,55.8,86.6,55.8,86.5,55.8z M83.6,48.6L83.6,48.6L83.6,48.6C83.7,48.6,83.7,48.6,83.6,48.6L83.6,48.6z M83.7,48.5
				C83.7,48.5,83.7,48.5,83.7,48.5L83.7,48.5c0-0.1,0-0.1,0-0.1L83.7,48.5L83.7,48.5z M78.2,55L78,55c0,0,0,0-0.1-0.1l0,0
				C78.1,55,78.1,55,78.2,55z M75.3,62.4C75.3,62.4,75.2,62.4,75.3,62.4C75.2,62.4,75.2,62.4,75.3,62.4
				C75.2,62.4,75.2,62.4,75.3,62.4z M84.4,48.4c-0.1,0-0.2,0.1-0.2,0.1c0,0-0.1,0-0.1,0l0-0.1l0,0c0.1,0,0.2-0.1,0.3-0.1
				c0.1,0,0.1-0.1,0.2-0.1c0.1,0,0.1,0,0.2,0C84.7,48.3,84.5,48.4,84.4,48.4z M85.5,47.8c-0.1,0.1-0.3,0.2-0.4,0.3l0,0
				C85.1,48,85.3,47.9,85.5,47.8C85.5,47.8,85.5,47.8,85.5,47.8C85.5,47.8,85.5,47.8,85.5,47.8z M60.8,55.5c0.2,0,0.3-0.1,0.5-0.1
				C61.1,55.5,60.9,55.6,60.8,55.5c-0.3,0.2-0.6,0.3-0.9,0.5C60,55.7,60.4,55.6,60.8,55.5z M69.2,74.8L69.2,74.8
				C69.2,74.8,69.1,74.8,69.2,74.8C69.1,74.8,69.2,74.8,69.2,74.8z M68.9,74.8C68.9,74.8,68.9,74.8,68.9,74.8
				C68.9,74.8,68.9,74.8,68.9,74.8C68.9,74.8,68.9,74.8,68.9,74.8z M68.7,74.8C68.7,74.8,68.7,74.8,68.7,74.8L68.7,74.8L68.7,74.8
				L68.7,74.8z M68.7,74.6L68.7,74.6L68.7,74.6L68.7,74.6L68.7,74.6z M68.6,74.6L68.6,74.6c0,0,0,0.1,0.1,0.1l0,0l-0.1,0
				c0,0,0-0.1,0-0.1C68.6,74.7,68.6,74.7,68.6,74.6C68.6,74.6,68.6,74.6,68.6,74.6L68.6,74.6C68.6,74.6,68.6,74.6,68.6,74.6z
				 M68.5,74.8C68.5,74.8,68.5,74.8,68.5,74.8L68.5,74.8C68.5,74.8,68.4,74.8,68.5,74.8C68.4,74.8,68.5,74.8,68.5,74.8z M68.1,74.8
				L68.1,74.8C68.2,74.9,68.2,74.9,68.1,74.8C68.1,74.9,68.1,74.8,68.1,74.8C68.1,74.8,68.1,74.8,68.1,74.8z M68.6,78.1
				c-0.2-0.4-0.4-0.7-0.5-1.1c0-0.2-0.1-0.4-0.1-0.6c0-0.1,0-0.2,0.1-0.2l0,0l0,0l0,0l-0.1,0c0,0-0.1,0-0.1,0v0l0.1,0l0.1-0.1
				c0.1-0.4,0.2-0.7,0.3-1c0-0.1,0-0.1,0.1-0.2c0,0,0.1,0,0.1,0l0,0c0,0,0,0,0,0c0,0,0,0,0.1,0c0,0,0,0,0,0c0,0,0,0,0,0c0,0,0,0,0,0
				c0,0,0,0,0,0c0,0,0,0,0,0c0,0,0,0,0.1,0c0,0,0,0.6,0.1,0.6c0.1,0,0.1,0.6,0.2,0.6c0,0,0,0,0,0c0,0,0,0,0,0h0c0,0,0,0,0,0
				c0,0,0,0,0,0l0.1-0.6c-0.4,0.2-0.7,0.3-0.6,0.9c0.3,1,0.5,2,0.9,3.1C69.2,79.1,69,78.7,68.6,78.1z M76.4,68c0-0.1,0,0.1,0,0.4
				c-0.2-0.8-0.3-1.6-0.5-2.5C76.2,66.7,76.4,67.5,76.4,68z M77,64.6l-0.2-0.2c-0.1-0.2,0-0.2,0.2-0.2C77,64.4,77,64.5,77,64.6z"/>
			<path class="st0" d="M66.3,52.8c-0.1-0.1-0.1-0.1-0.1-0.1C66.2,52.8,66.3,52.8,66.3,52.8z"/>
		</g>
		<g>
			<path class="st0" d="M160.6,67.3L160.6,67.3C160.5,67.4,160.5,67.4,160.6,67.3L160.6,67.3z"/>
			<polygon class="st0" points="160.9,60 160.9,60 160.9,60 			"/>
			<path class="st0" d="M161.4,59.8L161.4,59.8l0,0.1C161.4,59.8,161.4,59.8,161.4,59.8z"/>
			<path class="st0" d="M160.9,60C160.9,60,160.9,60,160.9,60C160.9,60,160.9,60,160.9,60C160.9,60,160.9,60,160.9,60z"/>
			<ellipse transform="matrix(0.661 -0.7504 0.7504 0.661 9.3983 141.0065)" class="st0" cx="160.8" cy="60.1" rx="0" ry="0"/>
			<path class="st0" d="M160.8,60.1C160.8,60.1,160.8,60.1,160.8,60.1C160.8,60.1,160.8,60.1,160.8,60.1
				C160.8,60.1,160.8,60.1,160.8,60.1C160.8,60.1,160.8,60.1,160.8,60.1z"/>
			<path class="st0" d="M160.8,60C160.8,60,160.7,60,160.8,60C160.8,60,160.8,60.1,160.8,60C160.8,60.1,160.8,60.1,160.8,60
				C160.8,60.1,160.8,60,160.8,60z"/>
			<path class="st0" d="M161.4,59.8L161.4,59.8C161.4,59.7,161.4,59.7,161.4,59.8z"/>
			<path class="st0" d="M161.3,59.7L161.3,59.7C161.3,59.8,161.3,59.8,161.3,59.7C161.3,59.8,161.3,59.8,161.3,59.7
				C161.3,59.7,161.3,59.7,161.3,59.7z"/>
			<path class="st0" d="M171.9,65.7C171.9,65.7,171.9,65.7,171.9,65.7c0,0.1,0,0.1,0,0.1C171.9,65.8,171.9,65.7,171.9,65.7z"/>
			<path class="st0" d="M171.8,63.7c0,0,0-0.1,0-0.3c0-0.1,0-0.1,0-0.2c0,0,0-0.1,0-0.1c0-0.1,0-0.1-0.1-0.2c0-0.2-0.1-0.4-0.1-0.7
				c0-0.3,0.2-0.4,0.3-0.6c-0.1,0.1-0.3,0.2-0.4,0.4c-0.1,0.2-0.1,0.4-0.1,0.6c0,0.5,0,1,0,1.5c0,1.1,0.1,1.9,0.5,1.7
				c0-1-0.1-1.9-0.1-2.2L171.8,63.7z"/>
			<path class="st0" d="M172,69.3c-0.1-1.1-0.1-2.4-0.1-3.5C171.7,67.1,171.8,67.9,172,69.3z"/>
			<path class="st0" d="M168.3,79.4c0,0,0,0.1-0.1,0.1C168.5,79.4,168.5,79.3,168.3,79.4z"/>
			<path class="st0" d="M159.5,69.5c-0.2,0.2-0.4,0.3-0.4,0.3c-0.1,0-0.1,0.1-0.1,0.1c0,0,0,0,0,0c0,0,0.7-0.4,0.8-0.7c0,0,0,0,0,0
				C159.7,69.3,159.6,69.4,159.5,69.5z"/>
			<path class="st0" d="M161.3,73.5c0,0.2,0,0.3,0,0.5C161.4,73.9,161.3,73.7,161.3,73.5z"/>
			<path class="st0" d="M160.8,70.2c0.1,0.7,0.2,1.3,0.4,1.9c0,0,0,0,0,0c0-0.2,0-0.4-0.1-0.7C161.1,71,161,70.6,160.8,70.2z"/>
			<path class="st0" d="M161.9,75.6c-0.1-0.2-0.2-0.4-0.2-0.5c0-0.1-0.1-0.2-0.1-0.2c0,0-0.1,0.9-0.1,0.9c0.4,0.9,0.7,1.2,0.9,1.4
				c0.2,0.1,0.2,0.1,0.2,0c0-0.1,0.1-0.1,0.3,0c-0.1-0.1-0.2-0.2-0.2-0.3C162.3,76.4,162,76,161.9,75.6z"/>
			<path class="st0" d="M162.9,77.2C162.9,77.2,162.9,77.2,162.9,77.2c0.1,0.1,0.2,0.3,0.3,0.4c0.2,0.2,0.4,0.4,0.6,0.6
				c0.4,0.3,0.6,0.5,0.6,0.5c-0.5-0.3-0.8-0.7-1-0.9C163.1,77.4,163,77.3,162.9,77.2z"/>
			<path class="st0" d="M175.8,46.6c-0.4,0.3-0.8,0.7-1.3,1.1c-0.5,0.4-0.8,0.7-0.8,1c0.3-0.2,0.6-0.5,0.9-0.9
				C175.1,47.4,175.4,46.9,175.8,46.6z"/>
			<path class="st0" d="M175,50L175,50c-0.1,0-0.2,0.2-0.3,0.3C174.8,50.2,174.9,50.1,175,50z"/>
			<path class="st0" d="M174.9,49.7l0.1,0.2C175.1,49.7,175.2,49.6,174.9,49.7z"/>
			<path class="st0" d="M173.8,51L173.8,51L173.8,51l-0.2,0.1c-0.1,0-0.3,0.1-0.4,0.2c0,0.1,0,0.2,0.3,0.3l0-0.2
				c0-0.1,0.1-0.1,0.2-0.2c0.2,0.2,0.3,0.3,0.2,0.4l0,0c0,0,0,0,0,0c0.1,0,0.1,0,0-0.1c0,0,0,0,0-0.1c0.1-0.1,0.2-0.3,0.3-0.4
				l-0.3,0.3c0.1-0.2,0.4-0.6,0.7-0.9c-0.2,0.2-0.4,0.3-0.6,0.5C174,50.8,173.9,50.9,173.8,51z"/>
			<path class="st0" d="M171.6,54.1c0,0,0.1,0,0.1-0.1C171.7,54.1,171.7,54.1,171.6,54.1z"/>
			<path class="st0" d="M171.6,54.1C171.6,54.1,171.6,54.1,171.6,54.1C171.6,54.1,171.6,54.1,171.6,54.1z"/>
			<path class="st0" d="M171.5,54.2L171.5,54.2C171.5,54.2,171.5,54.2,171.5,54.2C171.6,54.1,171.5,54.2,171.5,54.2z"/>
			<path class="st0" d="M172.7,53.5C172.6,53.5,172.7,53.5,172.7,53.5L172.7,53.5L172.7,53.5L172.7,53.5L172.7,53.5
				C172.7,53.5,172.7,53.5,172.7,53.5z"/>
			<path class="st0" d="M172,53.9C172,53.9,172,53.9,172,53.9L172,53.9C171.9,54,171.9,54,172,53.9z"/>
			<path class="st0" d="M171.9,54c0,0-0.1,0.1-0.1,0.1C171.8,54,171.8,54,171.9,54L171.9,54z"/>
			<path class="st0" d="M171.5,54.2C171.5,54.2,171.5,54.2,171.5,54.2C171.5,54.2,171.5,54.2,171.5,54.2z"/>
			<path class="st0" d="M171.7,54.2c-0.1,0-0.1,0-0.2,0C171.6,54.2,171.6,54.2,171.7,54.2z"/>
			<path class="st0" d="M173.2,37.5l-0.2,0.1C173.1,37.7,173.2,37.8,173.2,37.5z"/>
			<path class="st0" d="M175.9,50.7l0.2,0c0.2-0.1,0.4-0.1,0.6-0.2L175.9,50.7z"/>
			<path class="st0" d="M183.4,48.6L183.4,48.6C183.4,48.7,183.4,48.7,183.4,48.6z"/>
			<path class="st0" d="M199.3,64.1c0-0.9,0-1.8,0.1-2.8c0.1-1.1,0.1-2.1-0.1-3.1c0,0,0.2,0.4,0.4,0.7c0.2,0.4,0.3,0.8,0.3,0.8
				c-0.2-1.3-0.4-2.7-1.1-4.2c-0.3-0.8-0.7-1.5-1.4-2.3c-0.1-0.2-0.4-0.4-0.5-0.6l-0.2-0.2l-0.2-0.2l-0.7-0.7
				c-1-0.9-2.2-1.8-3.6-2.4c-1.4-0.6-2.8-0.9-4-1c0,0,0.2,0.1,0.4,0.2c0.2,0.1,0.4,0.2,0.4,0.2c-1.1-0.2-2.2-0.3-3.2-0.3
				c-0.5,0-1,0-1.4-0.1c-0.5,0-1,0-1.4,0c-1.9,0.1-3.4,0.3-4.4,0.7c1.5,0,1,0.1,0,0.4c-0.9,0.2-2.3,0.6-2.7,0.8
				c1.4-0.3,3.2-0.8,4.7-1.1c1.3-0.3,2.3-0.4,2.6-0.4l-0.1,0c0,0,0.3,0,0.9-0.1c0.5,0,1.2-0.1,1.9-0.1c0.7,0,1.4,0,1.9,0
				c0.5,0,0.9,0.1,0.9,0.1l-0.1,0.4c0.1-0.2,0.7-0.2,1.5-0.1c0.8,0.2,1.8,0.6,2.6,1.1c1.7,1.1,2.7,2.2,2.5,1.5
				c0.6,0.5,1,0.9,1.1,1.2c0,0.1,0.1,0.1,0.1,0.2c0,0.1,0.1,0.2,0.1,0.2c0,0.1,0,0.2-0.1,0.1c0,0,0.1,0.1,0.2,0.2
				c0.1,0.1,0.3,0.3,0.5,0.5c0.4,0.4,0.8,1,1.1,1.6c0.6,1.1,0.9,2.3,0.9,2.3c-0.1,0.6-0.7-0.3-0.9-0.8c-0.3-0.9-0.9-2-1.8-3.1
				l-0.4-0.4l-0.3-0.3c-0.2-0.2-0.4-0.3-0.6-0.5c-0.4-0.3-0.7-0.7-1-1c-0.7-0.3-0.5,0-0.4,0.1c0,0.1,0,0.1-0.2,0
				c-0.2-0.1-0.5-0.3-1.3-0.7c-1.1-0.8-2.6-1.3-3.9-1.5c-1.4-0.2-2.7-0.3-3.9-0.3c-2.6,0-4.9,0.5-6.7,0.7c0.8,0,1.6-0.2,0.7,0.3
				c0,0-0.6,0.1-1.2,0.1c-0.6,0.1-1.2,0.1-1.2,0.1c-0.4,0.1-0.7,0.3-1,0.4c-0.1,0.1-0.3,0.1-0.4,0.2c-0.1,0.1-0.2,0.1-0.4,0.2
				c-0.1,0-0.1,0.1-0.2,0.1c-0.1,0-0.1,0.1-0.2,0.1c-0.1,0.1,0.2,0.1,0.1,0.2c0,0,0.2,0,0.2,0.1v0c-1,0.3-1.2,0.5-1.7,0.6
				c-0.1,0.2,0.3,0,1.2-0.3l0,0.4c-0.7,0.2-1.4,0.4-2,0.8c0.1-0.4,0.1-0.8,0.2-1.2c0-0.3,0-0.6,0.1-0.9c0-0.2,0-0.5,0-0.7
				c0-0.1,0.1-0.3,0.2-0.4c-0.1,0.1-0.2,0.2-0.3,0.3c-0.1,0.4-0.2,0.7-0.2,1.1c0-0.6,0-0.9,0-1.2c0.1-0.3,0.2-0.5,0.3-0.7
				c0.1-0.2,0.2-0.4,0.3-0.6c0.1-0.2,0.2-0.4,0.4-0.6c0.7-0.7,1.5-1.4,1.8-1.7c0.2-0.2,0.4-0.4,0.5-0.5c0.5-0.3,0.1,0.6,0.7,0.3
				c1-1.2,1.1-1.5,1-1.4c-0.1,0.1-0.5,0.5-0.7,0.3c0.4-0.5,0.8-0.8,0.9-1.3c0.1-0.5,0.1-0.9,0-1.3c-0.2-0.9-1-1.8-2.5-2.4
				c0.4,0.2,0.8,0.3,1.1,0.5c0.3,0.2,0.6,0.3,0.9,0.5c0.3,0.2,0.5,0.5,0.7,0.8c0.2,0.4,0.3,0.8,0.3,1.4c0,0,0.1-0.2,0.2-0.4
				c0.1-0.2,0.1-0.4,0.1-0.4c-0.2-0.6-0.6-1.2-1-1.5c-0.4-0.4-0.8-0.6-1.3-0.8c-0.8-0.3-1.7-0.6-2.6-0.9c0-0.2,0-0.4,0.1-0.6
				c0.1-0.5,0.3-1.1,0.3-1.3c0.1-0.1,0.2-0.1,0.2-0.1c-0.1-0.1-0.1-0.9-0.7-2c-0.2-0.4-0.5-0.9-0.8-1.4c0-0.1-0.1-0.1-0.1-0.2
				c0-0.1-0.1-0.1-0.1-0.2c0,0,0,0,0,0c-0.7-0.9-1.3-1.6-1.6-1.8l-4-2.9l-0.2-0.1l-0.1-0.1c-0.3-0.1-0.7-0.1-1-0.1
				c-0.6,0-1.3,0.2-1.3,1c0,0.5,1.4,2.4,1.7,2.8c0.4,0.7,0.3,2.4,0.2,3.2l-0.3,4.9c0,0.1-0.1,0.1-0.1,0.2c-0.5,0.3-3.1,1.3-3.6,1.6
				l-4.6,2.6l-1.1,0.7c-0.2,0-0.4,0.1-0.6,0.3c-0.1,0.1-0.2,0.1-0.3,0.2l-2.3,1.4c-0.6,0.3-1.4,1-1.4,2.4c0,1.3,0.9,2.4,1.7,3.2
				c0,0,0,0,0,0c0,0,0.1,0,0.1,0.1c0.7,0.6,1.3,0.9,1.4,0.9c0.2,0,0.3-0.1,0.3-0.2c0.8-1.5,0.9-1.6,2.1-2.6c0.5-0.3,2.9-1.5,3.4-1.8
				c3.3-1.8,3.6-2.1,4.4-2.2c-0.7,1-4.3,5.6-5.1,6.7c-0.1,0.2-3.6,4.9-5.8,7.9c0,0,0,0,0,0l0,0c-0.3,0.4-0.6,0.8-0.9,1.2
				c-0.1-0.5-0.1-1.5-1.3,0.2c0.7-0.7,0.9-0.6,0.9-0.2c0,0.2-0.1,0.5-0.3,0.7c-0.1,0.1-0.2,0.3-0.3,0.4c-0.1,0.1-0.3,0.2-0.4,0.3
				c0,0,0.1,0,0.1,0c-0.3,0.2-0.5,0.3-0.6,0.5c0.1-0.2,0.1-0.3,0.1-0.3c0,0-0.2,0-0.3,0.1c-0.2,0.1-0.4,0.4-0.5,0.7
				c-0.1,0.3-0.1,0.7-0.1,1.1c0-0.7,0.2-1.2,0.4-1.4c0.2-0.2,0.4-0.2,0.4-0.1c-0.2,0.3-0.4,0.7-0.4,1.3c0,0.1,0,0.2,0,0.3
				c0-0.2-0.1-0.3-0.2-0.4c-0.1-0.1-0.2,0.1-0.3,0.5c-0.1,0.4-0.1,0.9-0.1,1.5c0,0.6,0.1,1.4,0.4,2.1c0.2,0.7,0.5,1.3,0.8,1.7
				c0.3,0.3,0.6,0.5,0.8,0.5c0.2,0.1,0.4,0.1,0.5,0.1c0.3,0,0.4-0.1,0.7-0.2c0.2,0.2,0.6,0.3,1.2,0.3c0.2,0,0.5,0,0.7-0.1
				c0.2-0.1,0.3-0.1,0.4-0.1c0.7-0.6,1.2-1.1,1.8-1.5c0.3-0.2,0.4-0.3,0.6-0.4c0.2-0.1,0.3-0.2,0.5-0.3c0.4-0.3,0.8-0.5,1.2-0.9
				c0,0,0,0,0,0c0.2-0.2,0.5-0.5,0.8-0.8c0.1,0,0.1,0.1,0,0.1c0.1,0,0.1-0.1,0.1-0.1l-0.1-0.1c0.1-0.1,0.3-0.2,0.3-0.1
				c0.3,0.2,0.5,0.7,0.7,1.2c-0.1-0.6-0.2-1.2-0.4-1.9c0-0.1,0-0.2-0.1-0.2l-0.1,0c-0.1,0-0.2,0-0.3,0c-0.2,0.1-0.3,0.1-0.5,0.2
				c-0.3,0.1-0.6,0.2-0.9,0.4l1.5-1.2l0.3-0.2c0.2-0.1-0.2,0.2,0,0c0.1,0,0.1-0.1,0.2-0.1c0.1,0,0.1,0,0.1-0.1c0,0,0,0,0,0
				c0,0,0,0,0,0c0,0,0,0-0.1,0c0,0,0,0,0.1,0c0,0,0,0,0,0l-0.3,0.1c0,0,0,0,0.3-0.1c0,0,0,0,0,0c0,0,0,0-0.1,0l0,0
				c-0.3,0.1-0.5,0.2-0.4,0.2c-0.1,0.1,0.1,0,0.1,0l0,0c0.1,0,0.2-0.1,0.2-0.1c0,0,0.1,0,0.2-0.1c0.4,0.6,0.7,1.4,1,2.2
				c0,0.1-0.1,0.2-0.1,0.4c0,1.1,0.3,2.6,0.9,4.1c0,0.1,0,0.2,0.1,0.4c0.1,0.6,0.4,1.5,0.7,2.3c-0.3-0.3-0.5-0.6-0.7-1
				c-0.1-0.2-0.3-0.5-0.3-0.8c-0.1-0.3-0.1-0.5-0.1-0.8c-0.1-0.9-0.2-1.6-0.7-1.7c0,0,0.5-0.9,0.5-0.9c0,0,0.1,0.5,0.1,0.6
				c0,0,0,0,0,0c0,0.2-0.3,0.5-0.3,0.7c0,0.3-0.2,0.5-0.1,0.7c0-0.7,0.1-1.1,0.4-0.1l-0.2,0.8c0,0.1-0.1,0.2-0.1,0.3
				c0,0,0,0.1,0,0.1c0,0.1,0.1,0.2,0.2,0.4c0.1,0.1,0.2,0.3,0.3,0.5c0.1,0.2,0.2,0.3,0.4,0.4c0.3,0.3,0.5,0.5,0.7,0.7
				c0,0,0,0,0.1,0.1c0.5,1,1.1,2,2,2.5c0.2,0.2,0.6,0.4,0.9,0.3c0.3,0.1,0.9,0.1,1.4,0c0.3,0,0.5-0.1,0.7-0.1
				c0.1-0.2,0.3-0.4,0.6-0.6c0.1,0,0.2-0.1,0.3-0.2c1.5-0.8,1.8-2.3,2.1-3.9c0.1-0.2-0.3-0.5-0.3-0.9c0,0,0,0,0,0
				c0-0.2,0.4-0.4,0.4-0.6c0.1-2.4,0-4.7-0.2-7c0-0.1,0.1-0.2,0.1-0.2c-0.1-1.4-0.2-2.9-0.2-4.4c0.6-0.1,1.2-0.1,1.8-0.2l-0.2,0.1
				c-0.1,0.1-0.2,0.2-0.3,0.3c-0.2,0.2-0.3,0.3-0.3,0.5c0,0.2,0.1,0.3,0.3,0.3c0,0,0-0.1,0-0.1c0-0.1,0.1-0.1,0.1-0.2
				c0.1-0.2,0.3-0.3,0.3-0.3c0,0.1,0,0.2,0.1,0.2c0,0,0.1,0,0.1,0c0.1,0,0.1,0,0.2-0.1c0.1,0,0.2-0.1,0.2-0.1l0,0l0,0
				c-0.1-0.2-0.2-0.4-0.3-0.5c0.2,0,0.4-0.1,0.6-0.1c0,0,0,0,0,0c0.1,0,0.1,0.1,0.2,0.1c0,0,0,0,0,0c0,0,0,0,0.1,0.1c0,0,0,0,0,0
				c0.2,0.1,0.6,0.4,0.8,0.1c0.4-0.2,0.9-0.5,1.4-0.8c0.1-0.1,0.2-0.1,0.3-0.2c0.3-0.1,0.6-0.2,0.9-0.3c-0.4,0.6,0.1,0.4,0.9,0
				c0.8-0.4,2-0.8,2.7-0.8l0-0.3c2-0.4,2.5-0.3,2.8-0.3c0.2,0,0.3,0,0.6,0c0.2,0,0.4,0,0.6,0c0.1,0,0.3,0,0.4,0c0.1,0,0.1,0,0.1,0
				c0,0,0-0.1,0.1-0.2c0.1-0.1,0.2-0.1,0.2-0.1c0-0.1-0.2,0-0.4,0.1c0,0,0,0-0.1,0l-0.1,0c-0.1,0-0.2,0-0.3,0c-0.2,0-0.3,0-0.5,0.1
				c-0.3,0-0.5,0-0.5-0.1c0.3-0.1,0.5-0.2,0.8-0.2c0.1,0,0.3-0.1,0.4-0.1c0.2,0,0.1,0,0.2-0.1c0.2-0.1,0.5-0.1,0.7,0
				c0.2,0.1,0.4,0.3,0.5,0.5c0.1,0.1,0.1,0.2,0.2,0.4c0,0.1,0.1,0.2,0.1,0.4c0,0,0,0.1,0,0.1c0,0,0,0,0-0.1
				c-0.1-0.1-0.2-0.3-0.3-0.4c-0.2-0.1-0.4-0.1-0.4-0.1c0.2,0,0.2,0.1,0.1,0.6c-0.2,0.5-0.4,1.1-0.7,2c0,0,0.2-0.3,0.3-0.7
				c0.1-0.3,0.3-0.7,0.3-0.7c0.3,0.6,0,1.8-0.7,3c-0.7,1.2-1.6,2.5-2.2,3.6c0.4-0.5,0.9-1.1,1.1-1.1c-0.1,0.6-1.3,1.8-2,2.5
				c0,0,0,0,0,0c-0.2-0.4,0.8-1.6,1.5-2.8c0.7-1.2,1.2-2.2,0.8-2.1c-0.7,1.1-1.3,2.3-1.9,3.4c-0.3,0.5-0.6,1-0.9,1.4
				c-0.1,0.1-0.2,0.2-0.2,0.3c0,0-0.1,0.2-0.2,0.3c-0.2,0.2-0.4,0.4-0.6,0.5c0,0,0.2-0.3,0.4-0.7c0-0.1,0.1-0.2,0.1-0.2
				c0,0,0-0.1,0.1-0.2c0.1-0.1,0.1-0.2,0.1-0.2s-0.1,0.1-0.1,0.2c0,0.1-0.1,0.1-0.1,0.1c0,0-0.1,0.1-0.2,0.2
				c-0.3,0.3-0.5,0.6-0.5,0.6l0.4-0.3c-0.2,0.7-1.5,1.3-2.3,2.2l0.3-0.9c0,0-0.4,0.4-0.8,0.8c-0.2,0.2-0.5,0.4-0.4,0.4
				c-0.1,0.1-0.1,0.1-0.1,0.1l0.2,0c-0.2,0.2-0.7,0.5-1.1,0.8c-0.5,0.3-0.9,0.5-1.4,0.8c-0.3,0.1-0.5,0.2-0.8,0.3
				c-0.3,0.1-0.5,0.2-0.8,0.3c-0.2,0.1-0.3,0.1-0.6,0.3c-0.2,0.1-0.4,0.1-0.9,0.7c-0.3,0.3-0.7,0.9-0.8,1.5
				c-0.1,0.6-0.1,0.8-0.1,0.8c0,0.2,0,0.5,0.1,0.7c0,0.2,0.1,0.4,0.1,0.6c0.1,0.3,0.2,0.5,0.3,0.7l0.6,1.6l1.9,0.2
				c0.2,0,0.5,0.1,0.9,0.1c0.4,0,0.9,0,1.2,0c0.4,0,0.7-0.1,1-0.1l0.8-0.1c0,0-0.5,0.1-1.1,0.1c-0.3,0-0.7,0.1-1,0.1
				c-0.3,0-0.5,0-0.5,0c0.1,0,0.7-0.1,1.2-0.2c0.2,0,0.5-0.1,0.8-0.2c0.2,0,0.5-0.1,0.7-0.1c-0.1-0.1-0.3-0.1-0.6,0
				c-0.3,0-0.7,0.1-1.1,0.1c-0.4,0-0.9,0.1-1.2,0c-0.3,0-0.5-0.1-0.4-0.1c0.6,0,1.2,0,1.6-0.1c0.2,0,0.4-0.1,0.6-0.1
				c0.1,0,0.3,0,0.4-0.1c0.5-0.1,1-0.1,1.5-0.2c0.5,0,0.9-0.1,1.5-0.1c0.6-0.1,1.1-0.1,2.2-0.4c0.1-0.1-0.4-0.1-0.8-0.2
				c-0.2,0-0.3-0.1-0.1-0.2c0.2-0.1,0.6-0.3,1.2-0.6c-0.1,0.5,2.3-0.2,0.7,0.8c2.1-1.1,1.8-0.4,3.3-1.5c-0.2,0.1-0.5,0.2-0.8,0.3
				c-0.7,0,0.8-0.6,1.4-0.9c0.3,0,0.8-0.2,0.8-0.1c0,0,0,0.1,0.1,0.1c0.1,0,0.3,0,0.5,0c0.1,0,0.2,0,0.3,0c0.1,0,0.3-0.1,0.4-0.1
				c0.3-0.1,0.6-0.2,0.9-0.4c0.2-0.1,0.5-0.3,0.7-0.4c0,0,0.8-0.6,1.5-1.2c0.8-0.6,1.5-1.3,1.5-1.3c0.2-0.1,0.1,0.1,0.1,0.1
				c0.7-0.7,1.5-1.3,2.3-2.3c0.7-0.9,1.3-1.9,1.8-2.8c0.9-1.9,1.3-3.7,1.4-5.2c-0.1-0.2-0.1-0.6-0.2-0.7
				C199.5,62.8,199.4,63,199.3,64.1z M171.3,50.4c0.1,0.4,0.1,0.9,0.1,1.5c-0.3,0.1-0.5,0.2-0.6,0.2c0.1-0.9,0.1-1.8,0.2-1.9
				c0.1-0.1,0.2-0.3,0.4-0.5C171.4,49.8,171.3,50.1,171.3,50.4z M172,53.6l0.5,0l-0.1,0.1l-0.5,0.2c0.1,0,0.1,0,0.2,0
				c0,0-0.1,0-0.1,0.1l0.1,0l0,0c0.5,0,1-0.2,1.4-0.4l0,0.2c-0.1,0.1-0.3,0.1-0.4,0.2c0,0-0.1,0-0.1,0c0,0-0.1,0-0.1,0.1
				c-0.3,0.1-0.5,0.2-0.8,0.3l-0.5-0.1l0.5,0.1c-0.6,0.3-1.1,0.5-1.3,0.5c-0.1-0.2-0.2-0.3-0.2-0.6c0-0.1,0-0.3,0-0.5l0.5,0
				c0,0-0.1,0.1-0.1,0.1C170.9,54,171.4,53.9,172,53.6z M172.5,53.6L172.5,53.6l-0.1,0.1C172.4,53.7,172.4,53.7,172.5,53.6
				C172.5,53.6,172.5,53.6,172.5,53.6z M174.1,52.6c0.1,0,0.1,0,0.2-0.1c0.1,0,0.1,0,0.2,0c0.1,0,0.1,0,0,0.1c0,0-0.1,0.1-0.1,0.2
				c0,0-0.1,0.1-0.1,0.1l-0.1,0l-0.6,0.2c0-0.1,0-0.2,0-0.4C173.9,52.8,174,52.7,174.1,52.6z M174.3,53.1l0.1-0.1c0,0,0.1,0,0.1-0.1
				c0.9-0.3,1.6-0.6,2.1-0.4c-0.8,0.2-1.5,0.4-2.1,0.6c0,0-0.4,0.2-0.9,0.4c0-0.1,0-0.1,0-0.2C173.9,53.3,174.1,53.2,174.3,53.1z
				 M162.2,67.4C162.2,67.4,162.3,67.4,162.2,67.4C162.3,67.4,162.2,67.4,162.2,67.4C162.2,67.4,162.2,67.4,162.2,67.4
				C162.2,67.4,162.2,67.4,162.2,67.4C162.2,67.4,162.2,67.3,162.2,67.4C162.2,67.3,162.2,67.3,162.2,67.4c0.3-0.1,0.1,0,0.6-0.1
				c0-0.1-1.1,0-0.5-0.2c0.2,0,0.6,0,1,0c0,0.1,0,0.1,0,0.2l0,0C163.3,67.3,162.4,67.4,162.2,67.4C162.2,67.4,162.2,67.4,162.2,67.4
				z M161.6,66.7C161.6,66.7,161.6,66.7,161.6,66.7L161.6,66.7C161.6,66.7,161.6,66.7,161.6,66.7z M161.7,66.8
				c0.3-0.1,0.3-0.2,0.5-0.3c0.3-0.1,0.4-0.2,0.3-0.1c0,0,0,0,0,0c0,0-0.1,0.1-0.1,0.1c-0.1,0-0.1,0,0,0c-0.4,0.2,0,0.2-0.4,0.4
				c0.1,0,0.5-0.2,0.6-0.2c-0.3,0.1-0.3,0.1-0.6,0.3c0.1,0,0.5,0.1,0.8-0.1c0.1,0,0,0.1,0.4,0.1c0,0-0.1,0-0.1,0v-0.4
				c0,0,0.1,0,0.2,0c0.1,0-0.1,0.1-0.1,0.2c-0.2,0-0.4,0.1-0.3,0l-0.6,0.2c0.2,0,0.8-0.1,0.8-0.1c0,0,0,0,0,0l-0.2,0.1
				c0.1,0,0.2,0,0.2,0.1c0,0.1,0,0.2,0,0.3c0,0,0,0-0.4,0.1l0.5-0.1c-0.4,0-0.6,0.1-0.8,0.1c0.2-0.1,0.4-0.1,0.6-0.2
				c-0.5,0.1-0.3-0.1-1,0.1c-0.1,0-0.1,0-0.1,0C161.8,66.9,161.7,66.8,161.7,66.8C161.7,66.7,161.8,66.7,161.7,66.8z M162.6,66.5
				l0.1-0.1c0,0,0.5-0.2,0.6-0.2c0,0,0,0.1,0,0.1c-0.1,0-0.3,0.1-0.5,0.2C162.6,66.5,162.6,66.5,162.6,66.5z M162,65.9
				C162,65.9,162,65.9,162,65.9c0.1-0.1,0.2-0.2,0.2-0.3c0.1-0.1,0.2-0.2,0.3-0.2l-0.4,0.3C162.3,65.6,162.3,65.6,162,65.9z
				 M162.3,65.5L162.3,65.5C162.2,65.5,162.2,65.5,162.3,65.5C162.3,65.5,162.3,65.5,162.3,65.5C162.3,65.5,162.3,65.5,162.3,65.5z
				 M162.1,65.7c-0.1,0.1-0.2,0.2-0.3,0.3c-0.1,0.1-0.2,0.2-0.2,0.2c0,0,0-0.1,0-0.1c0,0,0,0,0.1-0.1c0,0,0.1-0.1,0.1-0.1l0.1-0.1
				C161.9,65.8,161.9,65.8,162.1,65.7C162,65.7,162,65.7,162.1,65.7z M161.5,66.1C161.6,66.1,161.6,66.1,161.5,66.1
				c0.2-0.1,0.2-0.2,0.2-0.2c0.1-0.1,0.1-0.1,0.2-0.1c-0.1,0.1-0.2,0.2-0.3,0.3C161.6,66.1,161.6,66.2,161.5,66.1
				C161.5,66.2,161.5,66.2,161.5,66.1C161.5,66.2,161.5,66.2,161.5,66.1z M163,66l-0.1,0.1c0.7-0.4-0.2,0,0.5-0.4c0,0,0,0.1,0,0.1
				c0,0,0,0,0,0c0,0,0,0,0,0c0,0.1,0,0.1,0,0.2c-0.5,0.2-0.7,0.2-0.7,0.2c0,0-0.1,0-0.1,0.1c0,0,0,0,0,0
				C162.9,66.2,162.3,66.4,163,66z M160.7,60.1L160.7,60.1C160.7,60.1,160.7,60.1,160.7,60.1L160.7,60.1
				C160.7,60.1,160.7,60.1,160.7,60.1C160.7,60.1,160.7,60.1,160.7,60.1C160.7,60.1,160.7,60.1,160.7,60.1L160.7,60.1
				C160.7,60.1,160.7,60.1,160.7,60.1C160.7,60.1,160.7,60.1,160.7,60.1L160.7,60.1C160.7,60.1,160.7,60.1,160.7,60.1L160.7,60.1
				L160.7,60.1L160.7,60.1L160.7,60.1C160.7,60.1,160.7,60.1,160.7,60.1C160.7,60.1,160.7,60.1,160.7,60.1
				C160.7,60.1,160.7,60.1,160.7,60.1C160.8,60.1,160.8,60.1,160.7,60.1L160.7,60.1C160.8,60.1,160.8,60.1,160.7,60.1
				C160.8,60.1,160.8,60.1,160.7,60.1C160.8,60.1,160.8,60.1,160.7,60.1C160.8,60.1,160.8,60.1,160.7,60.1L160.7,60.1
				C160.8,60.1,160.8,60.1,160.7,60.1C160.8,60.1,160.8,60.1,160.7,60.1C160.8,60.1,160.8,60.1,160.7,60.1
				C160.8,60.1,160.8,60.1,160.7,60.1c0-0.1,0-0.1,0-0.1c0,0,0,0,0,0c0,0,0,0,0-0.1c0,0,0,0,0,0c0,0,0,0,0,0.1c0,0,0,0,0,0
				L160.7,60.1C160.8,60.1,160.8,60.1,160.7,60.1C160.8,60.1,160.8,60.1,160.7,60.1C160.8,60.1,160.8,60.1,160.7,60.1
				C160.8,60.1,160.8,60.1,160.7,60.1L160.7,60.1C160.8,60.1,160.8,60.1,160.7,60.1C160.8,60.1,160.8,60.1,160.7,60.1L160.7,60.1
				L160.7,60.1C160.8,60.1,160.8,60.1,160.7,60.1L160.7,60.1C160.8,60.1,160.8,60.1,160.7,60.1C160.8,60.1,160.8,60.1,160.7,60.1
				C160.8,60.1,160.8,60.1,160.7,60.1L160.7,60.1C160.8,60.1,160.8,60.1,160.7,60.1C160.8,60.1,160.8,60.1,160.7,60.1
				C160.8,60.1,160.8,60.1,160.7,60.1C160.8,60.1,160.8,60.1,160.7,60.1C160.8,60.1,160.8,60.1,160.7,60.1
				C160.8,60.1,160.8,60.1,160.7,60.1C160.8,60.1,160.8,60.1,160.7,60.1L160.7,60.1C160.7,60.1,160.7,60.1,160.7,60.1
				C160.7,60.1,160.7,60.1,160.7,60.1C160.7,60.1,160.7,60.1,160.7,60.1z M163.8,58.8L163.8,58.8C163.8,58.8,163.8,58.8,163.8,58.8
				C163.8,58.8,163.8,58.8,163.8,58.8z M162.4,58.7C162.4,58.8,162.4,58.8,162.4,58.7L162.4,58.7C162.4,58.8,162.4,58.8,162.4,58.7
				L162.4,58.7z M162.3,58.8L162.3,58.8C162.3,58.8,162.3,58.8,162.3,58.8L162.3,58.8C162.3,58.8,162.3,58.8,162.3,58.8z
				 M162.3,58.9C162.3,58.9,162.3,58.9,162.3,58.9L162.3,58.9L162.3,58.9L162.3,58.9z M162.4,58.9L162.4,58.9L162.4,58.9L162.4,58.9
				C162.5,58.8,162.5,58.8,162.4,58.9L162.4,58.9z M162.9,58.2C162.9,58.2,162.9,58.2,162.9,58.2L162.9,58.2
				C162.9,58.2,163,58.2,162.9,58.2z M162.7,58.5L162.7,58.5c0,0,0.1-0.1,0.1-0.1C162.8,58.4,162.7,58.4,162.7,58.5z M162.3,58.9
				C162.3,58.9,162.3,58.9,162.3,58.9L162.3,58.9C162.3,58.9,162.3,58.9,162.3,58.9L162.3,58.9z M161.5,59.6
				c0.1-0.1,0.1-0.1,0.2-0.2C161.5,59.6,161.3,59.8,161.5,59.6z M161.5,59.6c0.1,0,0.1-0.1,0.1-0.1
				C161.5,59.5,161.5,59.6,161.5,59.6z M163.2,57.8C163.2,57.8,163.3,57.9,163.2,57.8c0.3,0.2,0.2,0.1,0.2,0L163.2,57.8
				C163.3,57.8,163.3,57.8,163.2,57.8c0.1-0.1,0.2-0.1,0.2-0.1c0,0,0,0.1,0.2,0.2c0.1,0-0.1-0.2,0-0.1c0,0-0.1,0-0.2-0.1
				c0.1,0,0.1-0.1,0.2-0.1l0.1,0c0,0,0,0,0-0.1c0,0,0,0,0,0l0,0.2c0,0,0,0,0,0c0,0,0,0,0,0l0.1,0.8c-0.1-0.1-0.2,0-0.4-0.1
				c-0.8-0.7,0.5,0.2,0-0.3c-0.4-0.4-0.1,0.1-0.4-0.1C163.1,57.9,163.1,57.8,163.2,57.8z M161.1,60L161.1,60
				C161.1,60,161,60,161.1,60C161,59.9,161,60,161.1,60C161,60,161,60,161.1,60C161,60,161,59.9,161.1,60
				C161.1,60,161.1,60,161.1,60z M161.1,60L161.1,60C161.1,60,161.1,60,161.1,60L161.1,60C161.1,60,161.1,60,161.1,60z M160.8,60.1
				C160.8,60.1,160.8,60.1,160.8,60.1L160.8,60.1C160.8,60,160.8,60.1,160.8,60.1C160.8,60.1,160.8,60.1,160.8,60.1
				C160.8,60.1,160.8,60.1,160.8,60.1z M160.7,60C160.7,60,160.7,60,160.7,60C160.7,60,160.8,60.1,160.7,60
				C160.7,60.1,160.7,60.1,160.7,60C160.7,60,160.7,60,160.7,60z M160.8,60.1C160.8,60.1,160.8,60.1,160.8,60.1
				C160.8,60.1,160.8,60.1,160.8,60.1C160.8,60.1,160.8,60.1,160.8,60.1L160.8,60.1C160.8,60.1,160.8,60.1,160.8,60.1
				C160.8,60.1,160.8,60.1,160.8,60.1C160.8,60.1,160.8,60.1,160.8,60.1C160.8,60.1,160.8,60.1,160.8,60.1
				C160.8,60.1,160.8,60.1,160.8,60.1l0.1,0C160.9,60.1,160.9,60.1,160.8,60.1C160.9,60.1,160.8,60.1,160.8,60.1
				C160.8,60.1,160.8,60.1,160.8,60.1z M160.9,60.2C160.9,60.2,160.9,60.2,160.9,60.2C160.9,60.2,160.9,60.2,160.9,60.2L160.9,60.2z
				 M161,60C160.9,60.1,160.9,60.1,161,60L161,60L161,60C160.9,60,160.9,60,161,60C160.9,60,160.9,60,161,60L161,60L161,60
				C160.9,60,160.9,60,161,60C160.9,60,160.9,60,161,60L161,60z M160.9,60C160.9,60,160.9,60,160.9,60L160.9,60
				C160.9,60,160.9,60,160.9,60z M160.9,60L160.9,60L160.9,60C160.9,60,160.9,60,160.9,60z M160.8,60C160.8,60,160.8,60,160.8,60
				C160.8,59.9,160.8,59.9,160.8,60L160.8,60z M160.8,60.1C160.8,60.1,160.8,60.1,160.8,60.1C160.8,60.1,160.8,60.1,160.8,60.1
				C160.8,60.1,160.8,60.1,160.8,60.1C160.8,60.1,160.8,60.1,160.8,60.1z M161,59.9C161,59.9,161,59.9,161,59.9
				C161,59.9,161,59.9,161,59.9C161,59.9,161,59.9,161,59.9z M160.7,60C160.7,60.1,160.7,60.1,160.7,60
				C160.8,60.1,160.8,60.1,160.7,60C160.8,60.1,160.7,60.1,160.7,60C160.7,60.1,160.7,60.1,160.7,60C160.7,60.1,160.7,60.1,160.7,60
				C160.7,60.1,160.6,60.1,160.7,60C160.6,60.1,160.7,60.1,160.7,60z M160.7,60.1C160.7,60.1,160.7,60.1,160.7,60.1
				C160.7,60.1,160.7,60.1,160.7,60.1C160.7,60.1,160.7,60.1,160.7,60.1C160.7,60.1,160.7,60.1,160.7,60.1L160.7,60.1
				C160.7,60.1,160.7,60.1,160.7,60.1C160.7,60.1,160.7,60.1,160.7,60.1L160.7,60.1C160.7,60.1,160.7,60.1,160.7,60.1
				C160.7,60.1,160.7,60.1,160.7,60.1C160.7,60.1,160.7,60.1,160.7,60.1z M160.7,60.1L160.7,60.1C160.7,60.1,160.7,60.1,160.7,60.1
				L160.7,60.1z M160.8,60.2C160.8,60.2,160.8,60.2,160.8,60.2L160.8,60.2C160.8,60.2,160.8,60.2,160.8,60.2
				C160.8,60.2,160.8,60.2,160.8,60.2z M160.9,60.3C160.9,60.3,160.9,60.3,160.9,60.3C160.9,60.3,160.9,60.3,160.9,60.3L160.9,60.3
				C160.9,60.3,160.9,60.3,160.9,60.3z M161.1,60C161.1,60,161.1,60,161.1,60C161.1,60.1,161.1,60.1,161.1,60
				C161.1,60.1,161.1,60.1,161.1,60L161.1,60z M161.3,59.9c0,0.1-0.1,0.1-0.2,0.1L161.3,59.9L161.3,59.9l-0.2,0.1c0,0,0,0,0,0
				L161.3,59.9l0-0.1l-0.2,0.2c0,0-0.1,0-0.1,0c0,0,0,0,0,0c0,0,0,0,0,0c0,0,0.1-0.1,0.2-0.1c-0.1,0.1-0.1,0.1-0.2,0.1
				c0,0,0,0-0.1,0c0-0.1,0-0.3,0.1-0.3l0.2,0.2c0,0,0,0,0,0c0,0,0,0,0,0l0.1,0l0.4-0.4c0,0,0,0,0,0L161.3,59.9L161.3,59.9l0.5-0.5
				c0,0,0.1,0,0.1-0.1l-0.5,0.4c0,0,0.1,0.1,0.3,0.2c0,0-0.1,0-0.1,0c0,0,0,0,0,0c0,0-0.1,0-0.1,0.1c0,0,0,0,0,0c0,0,0,0,0,0
				c0,0-0.1,0-0.1,0.1C161.4,60,161.3,60,161.3,59.9z M160.8,60.2C160.8,60.2,160.8,60.2,160.8,60.2L160.8,60.2
				C160.8,60.2,160.8,60.2,160.8,60.2C160.8,60.2,160.8,60.2,160.8,60.2z M160.9,60.3C161,60.3,161,60.3,160.9,60.3L160.9,60.3
				C161,60.3,161,60.3,160.9,60.3C161,60.3,161,60.2,160.9,60.3C161,60.2,161,60.3,160.9,60.3C161,60.2,161,60.2,160.9,60.3
				C161,60.2,161,60.2,160.9,60.3l0-0.1C161,60.2,161,60.2,160.9,60.3c0.1-0.1,0.1-0.1,0-0.1l0,0c0,0,0.1,0,0.1,0c0,0,0,0,0,0
				c0,0,0,0-0.1,0l0,0c0,0,0,0,0,0c0,0,0,0,0,0l0.1,0l0,0c0,0,0,0,0,0l0,0c0,0,0,0.1,0,0.1c0,0,0,0,0,0c0,0,0,0,0,0c0,0,0,0,0,0
				c0,0,0,0,0,0c0,0,0,0,0,0c0,0,0,0,0,0c0,0,0,0,0,0C161.1,60.2,161.1,60.2,160.9,60.3c0.1-0.1,0.1-0.1,0.1-0.1c0,0,0,0,0,0
				C161,60.3,161,60.3,160.9,60.3L160.9,60.3L160.9,60.3z M160.6,60.2C160.7,60.2,160.7,60.2,160.6,60.2
				C160.7,60.1,160.7,60.1,160.6,60.2L160.6,60.2C160.7,60.1,160.7,60.1,160.6,60.2C160.7,60.1,160.7,60.1,160.6,60.2
				c0.1,0,0.1,0,0.1,0c0,0,0,0,0,0c0,0,0,0.1-0.1,0.1C160.7,60.3,160.7,60.2,160.6,60.2z M161.9,67.1c0.1,0,0.2,0,0.3-0.1
				c0.3-0.1,0.6-0.1,0.2,0c-0.1,0-0.1,0-0.1,0c0,0-0.1,0-0.1,0c0,0-0.1,0-0.2,0C162,67.1,161.9,67.1,161.9,67.1
				C161.9,67.1,161.9,67.1,161.9,67.1z M163.3,67.7C163.3,67.7,163.3,67.7,163.3,67.7C163.3,67.7,163.3,67.7,163.3,67.7
				C163.3,67.7,163.3,67.7,163.3,67.7z M161.7,66.4c-0.1,0.1-0.2,0.1-0.2,0.2c0,0,0,0,0,0C161.6,66.5,161.7,66.4,161.7,66.4z
				 M162.3,67.5L162.3,67.5C162.3,67.5,162.3,67.5,162.3,67.5c0.1,0,0.2,0,0.3-0.1c0.2,0,0.3,0,0.2,0L162.3,67.5c0,0,0.1,0,0.1,0
				c0.1,0,0.2,0,0.2,0c0.1,0,0.2,0,0.1,0l-0.1,0c0.1,0,0.2,0.1,0.3,0.1c0,0,0.1,0.1,0.1,0.1c0.1,0.1,0.1,0.1,0.2,0.2
				C162.9,67.8,162.6,67.7,162.3,67.5L162.3,67.5C162.3,67.5,162.3,67.5,162.3,67.5z M163.1,67.9C163.1,67.9,163.1,67.9,163.1,67.9
				C163.1,67.9,163.1,67.9,163.1,67.9C163.1,67.9,163.1,67.9,163.1,67.9z M174.2,78.9l-0.4,0l-0.2-0.3
				C173.8,78.8,174,78.9,174.2,78.9z M173.6,52.1c0.1,0,0.2-0.1,0.2-0.1l0.2-0.1c0.1,0,0.1,0,0.2-0.1c0.4-0.1,0.9-0.2,1.3-0.3
				c0.4-0.1,0.8-0.2,1-0.2c-0.6,0.6-1.3,0.8-2.2,0.9c-0.1,0-0.1,0-0.2,0l-0.2,0.1c-0.1,0-0.2,0.1-0.4,0.1
				C173.7,52.3,173.7,52.2,173.6,52.1z M173.5,53.3l-0.9,0.3l0,0l0,0l0,0c0,0,0,0,0,0l-0.5,0c0.4-0.2,1-0.4,1.4-0.7L173.5,53.3z
				 M171.2,53.6l-0.5,0c0-0.4,0.1-0.9,0.1-1.4c0.2-0.1,0.4-0.2,0.6-0.3c0,0.1,0,0.1,0,0.2c0,0.5,0,1,0,1.4
				C171.3,53.5,171.3,53.6,171.2,53.6z M149.9,68c0-0.2,0-0.4,0.1-0.5c0,0.4,0.1,1,0.2,1.6C149.8,68.9,149.8,68.5,149.9,68z
				 M160.3,67.4L160.3,67.4C160.3,67.3,160.3,67.3,160.3,67.4L160.3,67.4z M173.1,61.4L173.1,61.4C173.1,61.4,173.1,61.4,173.1,61.4
				z M177.5,60.2c0.3-0.1,0.6-0.2,0.9-0.3l0.1,0.1L177.5,60.2z"/>
			<path class="st0" d="M173.8,61.4C173.9,61.4,173.9,61.4,173.8,61.4C173.9,61.4,173.9,61.4,173.8,61.4
				C173.9,61.4,173.9,61.4,173.8,61.4z"/>
			<path class="st0" d="M153.2,62.2l0-0.1C153.2,62.1,153.2,62.1,153.2,62.2z"/>
		</g>
		<g>
			<path class="st0" d="M134.8,70.8C134.8,70.8,134.8,70.8,134.8,70.8C134.8,70.7,134.8,70.7,134.8,70.8
				C134.8,70.8,134.8,70.8,134.8,70.8z"/>
			<path class="st0" d="M132.3,70.5C132.3,70.5,132.2,70.5,132.3,70.5C132.3,70.5,132.3,70.5,132.3,70.5z"/>
			<path class="st0" d="M133.5,66.9c-0.1,0-0.3,0-0.4,0.1l0,0c0.1,0,0.2,0,0.2,0C133.4,67,133.4,67,133.5,66.9z"/>
			<path class="st0" d="M133.7,66.6l0.1-0.1C134,66.5,133.6,66.5,133.7,66.6z"/>
			<path class="st0" d="M131.7,67.9c0-0.1,0.1-0.1,0.1-0.2c0.2-0.2,0.3-0.3,0.4-0.4c0.1-0.1,0.1-0.1,0.1-0.1c0,0-0.3-0.2-0.3-0.2
				c-0.3,0.1-0.5,0.4-0.5,0.5c0,0.1,0,0.1,0.1,0.2C131.7,67.7,131.7,67.7,131.7,67.9L131.7,67.9z"/>
			<path class="st0" d="M131.5,68.6C131.5,68.6,131.5,68.6,131.5,68.6c0-0.1,0,0,0-0.1c0-0.1,0-0.2,0-0.2c0-0.1,0.1-0.2,0.1-0.3
				c-0.1,0.2-0.2,0.4-0.2,0.6C131.5,68.5,131.5,68.5,131.5,68.6z"/>
			<path class="st0" d="M136.5,54.7c-0.1-0.1-0.4-0.1-0.5-0.3C136.1,54.5,136.2,54.9,136.5,54.7z"/>
			<path class="st0" d="M137.3,53.5L137.3,53.5C137.2,53.5,137.3,53.6,137.3,53.5C137.3,53.5,137.3,53.5,137.3,53.5z"/>
			<path class="st0" d="M137.1,53.7l0.1-0.1C137.1,53.6,137.1,53.6,137.1,53.7z"/>
			<path class="st0" d="M138,54.1l-0.4-0.3c0.2-0.2,0.2-0.3,0.5-0.1c0-0.1-0.3-0.2-0.5-0.2l0.1,0.1c-0.1,0-0.2,0-0.3,0
				C137.7,53.8,137.5,54.5,138,54.1z"/>
			<path class="st0" d="M138.4,54.4c0.2,0,0.3,0.1,0.3,0.1c-0.1-0.2-0.6-0.5-0.6-0.2C138.1,54.4,138.2,54.4,138.4,54.4z"/>
			<path class="st0" d="M138.4,55.1c0.1,0.1,0.1,0.1,0.2,0.2c-0.1-0.3,0.2,0.1,0.3,0.1C138.7,54.8,138.6,55.2,138.4,55.1z"/>
			<path class="st0" d="M133.8,53.5l0,0.1C133.8,53.6,133.8,53.6,133.8,53.5z"/>
			<path class="st0" d="M139.1,56L139.1,56c0,0.1,0.1,0.1,0.1,0.1L139.1,56z"/>
			<path class="st0" d="M130.4,54.2L130.4,54.2L130.4,54.2C130.4,54.2,130.4,54.2,130.4,54.2C130.4,54.2,130.4,54.2,130.4,54.2
				C130.4,54.2,130.4,54.2,130.4,54.2z"/>
			<path class="st0" d="M130.3,54.7c0,0,0-0.1,0-0.1C130.3,54.7,130.3,54.8,130.3,54.7L130.3,54.7z"/>
			<path class="st0" d="M130.4,54.3C130.4,54.3,130.4,54.3,130.4,54.3C130.4,54.3,130.4,54.3,130.4,54.3
				C130.4,54.3,130.4,54.3,130.4,54.3C130.4,54.3,130.4,54.4,130.4,54.3c0,0.1,0,0.2,0,0.2C130.4,54.4,130.4,54.4,130.4,54.3
				C130.4,54.3,130.4,54.3,130.4,54.3C130.4,54.3,130.4,54.3,130.4,54.3C130.4,54.3,130.4,54.3,130.4,54.3
				C130.4,54.3,130.4,54.3,130.4,54.3z"/>
			<path class="st0" d="M145.1,66.7l-0.2,0.4c-0.1,0-0.1-0.3,0-0.5c-0.2,0-0.2,0.6-0.4,0.6c0-0.4,0.1-0.6,0.2-0.7
				c0.1-0.2,0.2-0.7,0.2-1.1c-0.1,0-0.2,0.1-0.3,0.2c-0.1,0.1-0.3,0.1-0.4-0.2c0.3,0,0.3-0.6,0.7-0.2c-0.3-0.5,0.1-0.5-0.3-0.8
				c0,0,0,0.1,0,0.2c-0.2,0.2-0.2-0.2-0.3-0.3c0.1-0.3,0.3-0.5,0.2-0.8l-0.4-0.7c0,0,0.1,0,0.1,0c-0.4-0.7-0.5-1.5-0.9-1.9
				c-0.2,0-0.4-0.1-0.2,0.2c-0.4-0.2-0.3-0.7-0.3-1l0.4,0.1c-0.5-0.8-0.6-2.1-1.4-2.7l-0.1,0.3c-0.2-0.2-0.2-0.3-0.4-0.5
				c-0.2-0.3-0.4-0.6-0.5-0.7c-0.2-0.3-0.4-0.5-0.7-0.6c0.1,0.7-0.5-0.1-0.6-0.1c0.3,0.5,1.2,0.8,1.1,1l0-0.1c0,0,0.4,0.3,0.6,0.6
				c0.2,0.3,0.4,0.4,0.4,0.4l-0.3,0.2c0.7-0.4,0.5,1.5,1,0.9c0.2,0.3,0,0.5-0.2,0.6l0.6,0.7c-0.1,0.1-0.5,0.1-0.5,0
				c-0.1-0.3-0.7-0.6-0.5-1.1c-0.3-0.1-0.2,0.4-0.6-0.1c0-0.3-0.1-0.5-0.2-0.8c-0.1-0.1-0.1-0.2-0.2-0.4c-0.1-0.1-0.2-0.3-0.3-0.4
				c-0.1-0.2-0.2-0.2-0.3-0.3c-0.1-0.1-0.2-0.2-0.2-0.3c-0.1-0.2-0.3-0.3-0.3-0.5c0,0.2,0.1,0.3-0.1,0.3l-0.1-0.5
				c-0.3-0.2-0.8-0.1-0.7-0.3c-0.1,0.1-0.1,0.1,0,0.3c0.1,0.2,0.3,0.4,0.3,0.5c-0.4,0.2-0.5-0.1-0.5-0.3c-0.1-0.2,0-0.4-0.4-0.4
				c-0.2,0.1,0,0.3,0.1,0.4c0.2,0.1,0.3,0.3,0,0.4c0,0-0.1-0.1-0.1-0.2c-0.1-0.1-0.1-0.2-0.1-0.2c-0.2,0.6,0.7,0.5,0.4,0.9
				c-0.2-0.2-0.4-0.4-0.5-0.5c0,0,0,0,0,0c0,0,0,0,0,0c0,0-0.1-0.1-0.1-0.1c-0.3-0.4-0.6-0.6-1-0.9c0.3-0.3,0.9,0,1,0.2
				c0-0.3-0.4-0.6-0.6-0.7l0.2,0.4c-0.4-0.3-0.6,0-0.9-0.1c-0.1-0.1-0.3-0.2-0.5-0.4c0-0.1,0.3-0.3,0.2-0.4
				c-0.6-0.2-0.2-0.1-0.4,0.2c-0.4-0.2-0.4-0.5-1-0.8c0.4,0.1,0.6,0,0.8,0.3l0.1-0.3c-0.4-0.1-0.9-0.1-1.4-0.1
				c-0.1,0-0.2-0.1-0.2-0.2l0-0.1c-0.1,0-0.3-0.1-0.7-0.3c-0.1,0-0.1-0.1-0.1-0.1c-0.4-0.1-0.7-0.2-0.9-0.3
				c-0.1-0.2-0.2-0.3-0.2-0.4c-0.1-0.1-0.1-0.2-0.1-0.2c-0.2,0.2-0.4,0.3-0.6,0.4c-0.3-0.1-0.9-0.1-1-0.1c-0.6,0-1.1,0.4-1.1,0.7
				c0,0,0,0,0,0c0,0,0,0,0,0c0,0.2,0.7,0.4,1.1,0.8c0,0,0.3-0.1,0.3-0.1c0,0,0,0,0,0c0,0,0,0.1,0,0.1l0.3,0.4c0,0,0.3,0.6,0.3,0.6
				v0.2l0,0V55c0,0-0.3-0.4-0.3-0.4l0.1-0.2c0,0,0.1-0.1,0.1-0.1v0c0,0,0-0.1,0-0.1v0V54h-0.6c0,0,0,0.1,0,0.1c0,0,0,0,0,0
				c0.4,0.4,0.8,0.9,1,1.1l0.1,0.2c0,0,0,0.1,0.1,0.1c0,0,0,0,0.1,0l1,1.6c0,0,0,0,0,0c0,0,0,0.1,0.1,0.1l0.5,0.8
				c1.1,1.6,1.5,3.5,1.7,5.1c0,0,0,0-0.1,0l0.1,0c0,0.1,0,0.2,0,0.3c-0.3,0-0.8-0.2-0.7,0.3c0.2-0.4,0.8-0.1,0.7,0.1c0,0,0,0,0,0
				c0,0.1,0,0.1,0,0.2c-0.2-0.2-0.4,0.1-0.3,0.4c0-0.2,0.2-0.4,0.3-0.3c0,0.1,0,0.2,0,0.3c0,0,0-0.1-0.1-0.1c-0.2,0-0.3,0.2-0.4,0.4
				l-0.1,0.4c0,0.1-0.1,0.2-0.1,0.2c0.1,0.2,0.2,0.2,0.4,0.3c-0.2,0-0.3,0.2-0.5,0.2c0.1,0.3,0,0.4-0.2,0.5
				c-0.2,0.1-0.3,0.1-0.3,0.3c0,0-0.1,0-0.1-0.1l0,0l0.1,0c0,0.1-0.1,0.2-0.3,0.3c0,0,0.1,0,0.1,0c0,0,0.1,0,0.2,0
				c-0.2,0.1-0.4,0.1-0.6,0.2l-0.1-0.1c-0.2,0-0.4,0-0.5,0c0.2,0,0.4,0.1,0.4,0.2c0,0-0.1,0-0.1,0.1c0,0-0.1,0-0.1,0
				c-0.1,0-0.2-0.1-0.2-0.1s-0.1,0.2-0.2,0.4c0,0,0,0,0,0c-0.5,0.4-0.7,0.9-0.5,1.7c0.1,0.3,0.2,0.5,0.4,0.6
				c-0.1-0.1-0.3-0.2-0.4-0.3c-0.2-0.2-0.2-0.3-0.3-0.3c0,0,0,0.2,0.1,0.4c0.1,0.2,0.3,0.4,0.5,0.5c0.1,0.1,0.2,0.2,0.3,0.2
				c0.1-0.1,0.3-0.1,0.4-0.1c0.5,0.2,1.1,0.3,1.8,0.4c0,0,0,0,0,0c0,0,0.1,0,0.1,0c0,0,0,0,0.1,0c0,0,0.1,0,0.1,0c0,0,0,0,0,0
				c0,0,0,0,0,0c0,0,0,0,0,0c0.1,0,0.1,0,0.2,0c0,0,0,0,0.1,0l0,0c0,0,0.1,0,0.2,0c0.3,0,0.6,0.1,0.9,0.2c-0.2,0.2-0.8-0.1-0.9,0.3
				l0.4,0c-0.2,0.2,0.1,0.3-0.1,0.5c0,0,0,0,0.1,0c0.1,0,0.2,0.1,0.3,0.2c0.1,0.1,0.2,0.1,0.3,0.2c0.1,0.1,0.2,0.1,0.2,0.1l-0.1,0.3
				c0,0-0.2-0.4-0.2-0.4c-0.2,0.1-0.2,0.1-0.2,0.2c0,0,0.1,0.1,0.2,0.2c0.3,0.2,0.7,0.4,0.8,0.7l0.1-0.2c0.6,0.5,0.7,0.5,0.8,0.6
				c0.1,0.1,0.2,0.2,0.8,0.4c0,0,0.1-0.1,0.2-0.1c0.1-0.1,0.2-0.1,0.2-0.1c0,0-0.2,0.1-0.5,0.1c-0.3,0-0.6-0.1-0.5-0.2
				c0.8,0,1.9-0.1,2.5-0.7c0,0-0.1,0.2-0.2,0.4c-0.1,0.2-0.2,0.4-0.2,0.4c0.1-0.2,0.3-0.2,0.6-0.2c0.3,0,0.7,0,1-0.3
				c0,0-0.7,0.2-0.7,0.2c0.2-0.4,0.6-0.6,1-1c0.4-0.3,0.9-0.9,0.9-1.2c-0.1,0.1-0.2,0.3-0.4,0.3c0-0.1,0.1-0.3,0.2-0.4
				c0.1-0.1,0.2-0.2,0.3-0.3c0.1,0.1,0.1,0.2,0.1,0.4c0,0.1,0,0.2-0.1,0.2c0,0.1-0.1,0.2-0.2,0.3c-0.3,0.5-0.6,0.9-0.4,1
				c0.4-0.4,0.7-1,0.7-1.4c0.1-0.4,0.1-0.6,0.2-0.8l0.1,0.5l0.1-0.3l-0.1,0.1c-0.2-0.3,0.2-0.3,0.3-0.7l0.2,0.4c0,0,0.1-0.1,0.2-0.3
				c0.1-0.2,0.2-0.3,0.2-0.3c0,0-0.1,0-0.1,0c0.2-0.6,0.4-1.3,0.5-1.8C144.9,67.5,144.9,67.1,145.1,66.7z M135.1,64.5
				c0,0.1,0,0.2,0,0.3C134.9,64.8,135.1,64.6,135.1,64.5z M133,67.2L133,67.2C133.1,67.2,133,67.2,133,67.2
				C133,67.2,133,67.2,133,67.2z M137.5,71.9c-0.1,0.1-0.4,0.2-0.7,0.1l0.2-0.3l-0.4,0c-0.2-0.2-0.2-0.4-0.3-0.6c0,0,0,0,0,0
				c0.2,0.1,0.5,0.2,0.6,0.4c0.5,0.5,1,0.9,1.5,1.1c-0.1,0-0.2,0-0.2,0C137.9,72.5,137.6,72.3,137.5,71.9z M139.8,72.8
				c0,0,0.1,0,0.1,0C139.9,72.8,139.9,72.8,139.8,72.8C139.8,72.8,139.8,72.8,139.8,72.8z M141.4,72c0.1-0.1,0.3-0.2,0.4-0.3
				c0,0.1-0.1,0.2-0.2,0.2C141.4,72.1,141.4,72.1,141.4,72z"/>
			<path class="st0" d="M130.4,54.4C130.4,54.4,130.4,54.4,130.4,54.4C130.4,54.4,130.4,54.3,130.4,54.4
				C130.4,54.3,130.4,54.4,130.4,54.4z"/>
			<path class="st0" d="M130.4,54.2C130.4,54.2,130.4,54.2,130.4,54.2L130.4,54.2C130.4,54.2,130.4,54.2,130.4,54.2
				C130.4,54.2,130.4,54.2,130.4,54.2z"/>
			<path class="st0" d="M130.4,54.6c0,0,0-0.1,0-0.1C130.4,54.5,130.4,54.5,130.4,54.6C130.4,54.6,130.4,54.6,130.4,54.6z"/>
			<path class="st0" d="M130.4,54.2C130.4,54.3,130.4,54.3,130.4,54.2C130.4,54.3,130.4,54.2,130.4,54.2
				C130.4,54.2,130.4,54.2,130.4,54.2z"/>
			<path class="st0" d="M116.6,70.8c0,0-0.5-0.2-0.5-0.2l0.2,0.5C116.3,71,116.6,70.8,116.6,70.8z"/>
			<path class="st0" d="M117.3,68.8c0,0.1,0,0.2,0,0.3l0-0.1c0,0,0.1,0.4,0.1,0.9C117.4,69.3,117.8,69.5,117.3,68.8z"/>
			<path class="st0" d="M117.3,68.7C117.3,68.7,117.3,68.8,117.3,68.7C117.3,68.8,117.3,68.8,117.3,68.7
				C117.3,68.7,117.3,68.7,117.3,68.7z"/>
			<path class="st0" d="M117.4,68.5c0,0.1,0,0.2-0.1,0.3C117.5,68.8,117.4,68.7,117.4,68.5z"/>
			<path class="st0" d="M117.7,68.9c0-0.1-0.1,0.3,0,0.5c0.1,0-0.1-0.4,0.2-0.1C118,69.1,117.6,69.1,117.7,68.9z"/>
			<path class="st0" d="M117.6,67.9C117.6,67.9,117.6,67.9,117.6,67.9C117.6,67.9,117.6,67.9,117.6,67.9z"/>
			<path class="st0" d="M118.2,68.4C118.2,68.4,118.2,68.4,118.2,68.4c0,0-0.1,0.1-0.1,0.1C118.2,68.6,118.2,68.5,118.2,68.4z"/>
			<path class="st0" d="M117.8,68.5c0,0,0.1,0.1,0.1,0.2c0.1,0.1,0.1,0.2,0.1,0.2c0-0.2,0-0.3,0.1-0.3
				C118,68.5,117.8,68.4,117.8,68.5z"/>
			<path class="st0" d="M118.2,68.4c0-0.1,0.1-0.1,0-0.3c0,0-0.1,0.2-0.1,0.2c-0.2-0.2,0.1-0.3-0.2-0.4c-0.1,0-0.2,0-0.3,0
				C118.1,68.2,117.6,68.1,118.2,68.4z"/>
			<path class="st0" d="M118.6,67.1L118.6,67.1c0.1-0.1,0.2-0.2,0.2-0.3C118.7,66.8,118.6,66.9,118.6,67.1z"/>
			<path class="st0" d="M118.7,66.3l0-0.2C118.9,66,118.6,66.3,118.7,66.3z"/>
			<path class="st0" d="M118.3,67.3c0.1-0.1,0.4-0.1,0.4,0.1L118.3,67.3l0.4,0.6c-0.2-0.4,0.5-0.5-0.1-0.7l0.3-0.1l-0.3,0
				C118.5,67.2,118.4,67.3,118.3,67.3z"/>
			<path class="st0" d="M118.2,67.7l0,0.2C118.2,67.8,118.2,67.7,118.2,67.7z"/>
			<path class="st0" d="M118.2,67.7l0.1-0.3l-0.3,0C117.7,67.7,118.1,67.6,118.2,67.7z"/>
			<path class="st0" d="M117.4,59c0.1,0,0-0.3,0.2-0.4C117.4,58.7,117.1,58.8,117.4,59z"/>
			<path class="st0" d="M118.6,59.6C118.6,59.6,118.6,59.7,118.6,59.6C118.6,59.7,118.7,59.7,118.6,59.6L118.6,59.6z"/>
			<path class="st0" d="M118.5,59.5l0.2,0.1C118.6,59.5,118.5,59.5,118.5,59.5z"/>
			<path class="st0" d="M118.3,60.1l0.2-0.2c0.2,0.1,0.3,0.2,0.2,0.3c0.1,0,0.1-0.2,0.1-0.3l-0.1,0c0-0.1-0.1-0.2-0.1-0.2
				C118.5,59.9,117.9,59.8,118.3,60.1z"/>
			<path class="st0" d="M118.2,60.2l0.2,0.4C118.4,60.5,118.5,60.2,118.2,60.2z"/>
			<path class="st0" d="M117.8,60.8c0.3-0.2-0.1-0.2-0.1-0.4c0,0.1-0.1,0.1,0,0.2C117.9,60.4,117.8,60.7,117.8,60.8z"/>
			<path class="st0" d="M117.9,57.1L117.9,57.1C117.9,57.1,117.9,57.1,117.9,57.1z"/>
			<path class="st0" d="M117.2,61.2L117.2,61.2C117.2,61.2,117.2,61.2,117.2,61.2L117.2,61.2z"/>
			<path class="st0" d="M111.7,71.2c-0.4,0.4-0.5,0.8-0.8,1.4C111.2,72.2,111.5,71.7,111.7,71.2z"/>
			<path class="st0" d="M111.8,71.1C111.8,71.1,111.8,71.1,111.8,71.1C111.7,71.2,111.7,71.2,111.8,71.1
				C111.7,71.2,111.8,71.2,111.8,71.1z"/>
			<path class="st0" d="M108.1,76.5C108.1,76.5,108.1,76.6,108.1,76.5C108.2,76.5,108.1,76.5,108.1,76.5z"/>
			<path class="st0" d="M107.3,76.3c0,0,0.3-0.2,0.5-0.3c0.2-0.2,0.5-0.4,0.5-0.4c0,0.2-0.3,0.5-0.6,0.7c-0.3,0.2-0.6,0.4-0.6,0.6
				c0.1,0,0.4-0.1,0.7-0.2c0.1-0.1,0.2-0.1,0.3-0.1c0-0.3,0.2-0.5,0.4-0.8c0.2-0.3,0.3-0.4-0.2-0.4
				C108.1,75.6,107.8,75.9,107.3,76.3z"/>
			<path class="st0" d="M108.3,75.3C108.3,75.3,108.3,75.3,108.3,75.3c0.1-0.1,0.3-0.3,0.4-0.4c0-0.1,0.1-0.1,0.1-0.2
				C108.7,74.8,108.6,74.9,108.3,75.3z"/>
			<path class="st0" d="M101.9,72.8l-0.1-0.6C101.8,71.8,101.8,72.8,101.9,72.8z"/>
			<path class="st0" d="M106.3,76.9c-0.4,0.1-0.7,0.2-0.8,0.3c0.3-0.1,0.4-0.1,0.5-0.2C106.2,77,106.3,76.9,106.3,76.9z"/>
			<path class="st0" d="M121.2,45.2c0-0.2-0.1-0.4-0.2-0.6c-0.1-0.2-0.3-0.5-0.4-0.7c0.1,0.2,0.1,0.5,0.2,0.8
				C120.9,44.9,121,45.2,121.2,45.2z"/>
			<path class="st0" d="M122.5,44.7L122.5,44.7c0,0.1,0,0.2,0.1,0.3C122.6,44.9,122.6,44.8,122.5,44.7z"/>
			<path class="st0" d="M122.3,44.8l0.2,0C122.3,44.6,122.3,44.6,122.3,44.8z"/>
			<path class="st0" d="M122.6,46.4c0,0.4,0,0.6,0.3,0.7c0,0,0-0.3,0-0.6c0-0.3-0.1-0.6-0.1-0.6c0.2,0,0.4,0,0.4,0.7
				c0.1-0.2-0.2-0.9-0.3-1.2c0,0,0,0.3,0,0.3c-0.1-0.1-0.2-0.4-0.4-0.7C122.7,45.5,122.7,46,122.6,46.4z"/>
			<path class="st0" d="M122.8,47.6c0,0,0,0.1,0,0.3c0,0.1,0,0.2,0,0.3c0,0.1,0,0.1,0,0.2c0.1,0.3,0.1,0.5,0.1,0.5
				c0-0.2,0.1-0.5,0-0.8C123,47.6,122.9,47.4,122.8,47.6z"/>
			<path class="st0" d="M122.3,49.5c0-0.1,0.1-0.2,0.1-0.1c0,0,0,0.1,0,0.2c0,0.1,0,0.2,0.1,0.2c0.1-0.2,0.1-0.1,0-0.3
				c-0.1-0.1-0.2-0.1-0.2-0.4C122.3,49.2,122.2,49.4,122.3,49.5z"/>
			<path class="st0" d="M122.3,49c0-0.1,0-0.2,0-0.3C122.3,48.8,122.3,48.9,122.3,49z"/>
			<path class="st0" d="M116.2,40.6l0.1,0.1C116.3,40.7,116.4,40.6,116.2,40.6z"/>
			<path class="st0" d="M122.1,50.6C122.1,50.6,122.1,50.6,122.1,50.6C122.1,50.6,122.1,50.6,122.1,50.6z"/>
			<path class="st0" d="M122,50.5L122,50.5C122,50.6,122,50.6,122,50.5C122,50.6,122,50.5,122,50.5z"/>
			<path class="st0" d="M129.5,58.6c0-0.4-0.1-0.7-0.1-1.1c-0.1-0.7-0.3-1.3-0.5-1.9c-0.1-0.3-0.2-0.6-0.4-1
				c-0.2-0.5-0.3-0.6-0.5-0.9c-0.3-0.5-0.7-1.1-1.2-1.5c0,0,0,0.1,0.1,0.3c0,0.1,0,0.3,0,0.3c-0.8-0.9-1.6-1.7-2.5-2.2
				c-0.1-0.1-0.2-0.1-0.4-0.2c-0.1,0-0.2-0.1-0.2-0.1l-0.1-0.1l-0.2-0.1l-0.2-0.1l-0.1,0l0,0c0,0-0.1,0-0.1,0.1
				c0,0.2-0.1,0.2-0.2,0.3c-0.1,0-0.3,0-0.4,0c0.1,0.2,0.4-0.1,0.6-0.1c0,0,0-0.2,0-0.2h0h0l0.1,0.2c0.1,0,0.3,0.2,0.3,0.2l0.1,0.1
				c0.1,0.1,0.2,0.1,0.4,0.2c0.2,0.1,0.3,0.2,0.4,0.2l0-0.1c0,0,0.2,0.1,0.4,0.2c0.3,0.1,0.6,0.3,0.9,0.6c0.6,0.5,1.2,1,1.2,1
				l-0.3,0.2c0.4-0.2,1,0.7,1.2,1.5c0.2,0.4,0.3,0.8,0.4,1.1c0.1,0.2,0.2,0.3,0.3,0.1c0.3,0.7,0.1,1.1-0.1,1.1c0,0,0.2,0.5,0.4,1
				c0.2,0.5,0.3,1.1,0.3,1.1c-0.1,0.3-0.5-0.2-0.5-0.4c-0.1-0.9-0.8-2-0.8-2.9c-0.5-0.5-0.1,0.7-0.8-0.6c-0.2-0.5-0.5-1.2-0.9-1.7
				c-0.4-0.6-1-1-1.5-1.4c-0.3-0.2-0.6-0.4-0.9-0.5c-0.1-0.1-0.3-0.1-0.4-0.2c-0.1,0-0.2-0.1-0.3-0.1l-0.1,0l-0.1,0
				c-0.2,0-0.4-0.1-0.5-0.2c0,0.1,0.2,0.1-0.1,0.3c0,0-0.1-0.1-0.1-0.2c-0.1-0.1-0.1-0.2-0.1-0.2c-0.1-0.1-0.1-0.1-0.1-0.2
				c0-0.1-0.1-0.1-0.1-0.2c-0.1-0.1-0.1-0.3,0.1-0.4c-0.1-0.1-0.2,0.2-0.3,0.5c-0.1,0.2-0.1,0.3-0.2,0.5c0,0.1-0.1,0.2-0.1,0.2
				c0,0.1,0,0.1,0.1,0.2c-0.2,0-0.3,0-0.4,0c0,0,0-0.1,0-0.2c0-0.2,0.1-0.4,0.2-0.6c0.2-0.4,0.4-0.6,0.1-1c-0.2-0.2-0.2,0.3-0.3,0.7
				c-0.1,0.4-0.1,0.8-0.4,0.6c0,0,0.1-0.3,0.2-0.5c0.1-0.3,0.1-0.5,0.1-0.5c-0.3,0.4-0.4,0.9-0.4,1.2c0,0.2,0,0.4-0.1,0.5
				c-0.1,0.1-0.1,0.3-0.1,0.4c-0.1-0.1-0.1-0.1-0.1-0.2c0.1-0.4,0.2-1,0.3-1.5c0,0,0,0,0-0.1c0,0,0,0,0,0c0.2-1.2,0.3-2.4,0.3-2.4
				c0-0.4,0-0.7-0.1-1c0.2,0,0.4,0.3,0.5,0.7c0,0.1,0.1,0.2,0.1,0.4c0,0.1,0,0.3,0,0.4c0,0.2,0,0.4,0,0.6c0.1-0.1,0.1-0.3,0.2-0.4
				c0-0.1,0-0.2,0.1-0.3c0-0.1,0-0.2,0-0.3c0-0.4-0.1-0.8-0.1-1.1c0,0,0,0.3,0,0.5c0,0.3-0.1,0.5-0.1,0.5c0-0.7-0.3-1-0.4-1.3
				c-0.1-0.1-0.2-0.3-0.3-0.5c0,0,0,0,0,0c-0.1-0.5-0.3-1-0.5-1.4c0-0.3,0.4,0,0.4-0.3c-0.9-1.2-0.3-0.4-0.6-0.2
				c-0.3-0.5-0.5-0.8-0.7-1.1c-0.2-0.3-0.5-0.7-1.1-1.2c0.8,0.5,1.1,0.5,1.6,1.3l0.1-0.4c-0.5-0.4-0.9-0.7-1.5-1
				c-0.4-0.2-0.8-0.3-1.2-0.4c-0.2-0.1-0.5-0.2-0.6-0.2l0-0.1c0,0-0.4,0.1-0.8,0.2c-0.2,0.1-0.5,0.1-0.8,0.3c0,0-0.1,0.1-0.1,0.1
				c0,0,0,0,0,0c0,0-0.1,0.1-0.1,0.1c0,0-0.1,0.1-0.1,0.1c0,0,0,0,0,0c0,0,0,0.1,0,0.1c0,0,0,0,0,0.1c0,0.1,0,0.2,0.2,0.4
				c0.7,0.5,1.3,1,1.3,1.5c0,0.2-0.5,2.3-0.6,2.5c-0.4,1-1.1,2.5-1.3,3.5l-0.9,3.2c-0.2,0.7-0.6,1.5-1.3,1.7l-0.6,0.2
				c-0.1,0-0.2,0-0.3,0.1c-0.1,0-0.1,0.1-0.1,0.1l-2.4,0.8c-0.2,0.1-1.3,1.4-1.5,1.6c0,0-0.1,0.8-0.1,0.8c0,0,0,0,0,0
				c-0.1,0-0.3-0.7-0.4-0.6c-0.5,0.2-1.1,0-1.4,0.1c-1.3,0.3-1.6,0.3-1.6,0.8c0,1.3,4.6,1.9,5.9,2c0.2,0,0.3,0,0.4,0.1l-0.4,1
				l-1.5,2.8c0,0,0,0,0-0.1l0,0.1l-0.3,0.6c-0.2-0.3-0.4-0.9-0.9,0c0.6-0.7,0.7,0.3,0.4,0.8c0,0,0,0,0,0l0,0.1l-0.2,0.3
				c0.1-0.5-0.4-0.1-0.7,0.5c0.3-0.5,0.6-0.6,0.7-0.5l-0.4,0.7c0-0.1,0-0.1,0-0.2c-0.3-0.3-1.3,1.3-1.9,1.8
				c-0.3,0.6-0.2,0.6-0.1,0.9c-0.1,0-0.3,0.1-0.4,0.2c-0.2,0.1-0.3,0.1-0.4,0.1c-0.2,0.3-0.4,0.5-0.6,0.7c-0.2,0.2-0.5,0.3-0.7,0.7
				c-0.1,0.2-0.3,0.5-0.3,0.7c0,0.2,0,0.4,0,0.5c0,0.3,0.1,0.6,0.2,0.9c0,0.1-0.1,0.1-0.1,0.1l0,0.1l0-0.1c0.1,0.2,0.2,0.5,0.3,0.8
				c0.1,1.5,0.5,3,1.7,3.5c0,0.1,0.1,0.1,0.1,0.1c0.1,0.1,0.3,0.1,0.4,0.2c0.1,0,0.1,0,0.2,0.1c0.1,0,0.2,0.2,0.3,0.3
				c0,0,0.1,0.2,0.1,0.2h0c0,0,0-0.2,0.1-0.2l0,0.1l0.1,0.1h0l0-0.2l0.1-0.1c0,0,0.1-0.1,0.1-0.1c0.2-0.1,0.1-0.1,0.1-0.2
				c-0.1-0.1,0-0.3,0.1-0.3c-0.1,0-0.2-0.1-0.3-0.1h-0.1h0l-0.1,0.1l0,0.1c0,0,0,0-0.1,0c0.2,0,0.4-0.1,0.7-0.2
				c1.3-0.5,2.6-1.8,3.5-2.8c-0.1,0.1-0.2,0.3-0.3,0.4c0.1,0,0.1-0.1,0.2-0.1c0.2,0,0.3-0.1,0.7-0.7l0-0.2c0.2-0.2,0.3-0.4,0.4-0.6
				c0,0.1,0.1,0.1,0.1,0.2c0.1,0.2,0.2,0.3,0.3,0.5c0.1,0.2,0.2,0.3,0.2,0.5c0,0.1,0,0-0.1,0.2l0.2,0c0.3,2,0,0.9,0.2,2.6l0.4,0.4
				c0.1,0.1-0.7-1.4-0.3-1.5c0.2,0.4,0.3,0.7,0.5,1.2c0.1,0.7,0.3,1.3,0.5,2.1c0,0.1,0.1,0.1,0.1,0.2c0,0,0,0,0,0c0,0,0,0,0,0
				c0.1,0.2,0.2,0.3,0.4,0.4c0.2,0.2,0.3,0.4,0.5,0.7c0.4,0.5,1,1,1.9,1.3c0,0-0.4-0.2-0.7-0.4c-0.1-0.1-0.3-0.2-0.4-0.3
				c0.2,0.1,0.5,0.1,0.7,0.1c0.5,0.2,1.1,0.4,1.8,0.4c0.6,0.1,1.3,0,1.9-0.2c0.1-0.1,0.3-0.1,0.4-0.2c0.1-0.1,0.2-0.1,0.3-0.2
				c0.2-0.1,0.4-0.3,0.5-0.4c-0.4,0.2-0.8,0.5-1,0.3c0,0,0,0,0.1-0.1c0.2-0.1,0.5-0.2,0.7-0.4c0.1-0.1,0.2-0.2,0.3-0.3
				c0.2-0.1,0.4-0.2,0.6-0.3c0.1,0.3-0.5,0.9-1.4,1.4c-0.5,0.3-1.1,0.5-1.5,0.6c-0.4,0.1-0.6,0.2-0.5,0.3c0.7,0,1.4-0.2,1.9-0.5
				c0.5-0.3,0.8-0.6,1.1-0.8c0.6-0.6,0.9-1.1,1.4-1.3c0,0-0.1,0.2-0.2,0.4c-0.1,0.2-0.2,0.4-0.2,0.4s0.1-0.2,0.3-0.3
				c0.1-0.2,0.3-0.3,0.3-0.3l-0.2,0.1c0-0.2,0.2-0.4,0.5-0.6c0.3-0.2,0.5-0.4,0.7-0.7l-0.1,0.6c0,0,0.2-0.2,0.4-0.4
				c0.2-0.2,0.4-0.4,0.4-0.4l-0.2,0c1.1-1.4,2.1-2.7,3-4.1c0,0.1-0.1,0.1-0.1,0.2c-0.2,0.2-0.3,0.4-0.3,0.4c0-0.1,0.3-0.6,0.5-1
				c-0.2,0-0.8,1.2-0.9,1c0.5-0.7,0.7-1.1,1-1.5c0.3-0.4,0.6-0.8,0.9-1.6c-0.1-0.2-0.9,0.8-0.6-0.5c0.3,0.2,0.7-0.9,0.8,0.1
				c0.1-1.2,0.5-0.8,0.4-1.8c0,0.1-0.1,0.3-0.1,0.4c-0.3,0.2-0.1-0.5,0-0.8c0.3-0.4,0.6-0.6,0.9-1.4c0,0,0-0.1,0.1-0.3
				c0-0.2,0.1-0.4,0.1-0.6c0-0.4,0.1-0.9,0.1-0.9c0.1-0.1,0.1,0,0.1,0c0-0.5,0.1-0.9,0.2-1.4c0.1-0.5,0.2-1,0.3-1.4
				c0-0.3,0-0.6,0.1-0.8c0-0.2,0-0.3,0-0.5c0-0.3,0-0.6,0-0.8c-0.1-0.2-0.3-0.6-0.3,0.3c-0.1-0.3-0.1-0.7,0-1.1
				c0-0.2,0.1-0.4,0.1-0.6c0-0.1,0.1-0.2,0.1-0.3c0-0.1,0-0.3,0-0.4c0,0,0,0.1,0.1,0.1c0,0.1,0.1,0.2,0.1,0.3
				c0.1,0.2,0.1,0.3,0.1,0.3l0-0.2l0-0.1l0-0.2C129.6,59,129.6,58.8,129.5,58.6z M110.9,71.8C110.9,71.8,110.9,71.8,110.9,71.8
				C110.9,71.8,110.9,71.8,110.9,71.8z M120.2,64.4c0,0.1,0,0.2-0.1,0.2C119.9,64.5,120.1,64.5,120.2,64.4z M113.4,67.8l0.4-0.1
				c-0.2-0.1-0.4-0.3,0-0.4c0.1,0.2,0.4,0.3,0.5,0.3c0.2,0,0.3,0,0.3,0.3c-0.1,0-0.1,0-0.1,0.1c0.3,0,0.7,0,0.7,0.4l-0.3,0.1
				c0.2,0.2,0.2,0.3,0.3,0.5c0.1,0.1,0.2,0.3,0.3,0.3c0-0.2,0.2-0.3,0.3-0.3c0.1,0.2-0.1,0.1-0.1,0.4c-0.1,0.3,0.1,0.3,0.2,0.3
				c0.1,0,0.2-0.1,0.3-0.1c-0.1,0.1,0.2,0.6,0,0.7c0.1,0.2,0.2,0.1,0.3,0.1c0.1,0,0.1,0,0.3,0.4c0-0.2,0-0.6,0.1-0.7l0.1,0.6
				c0,0,0-0.5,0-0.5c0.1-0.1,0.5,0.9,0.5,0.2c0,0.1,0,0.2-0.1-0.1c-0.1-0.5,0-0.9-0.3-1.4c0,0,0,0.1,0,0.2c0,0.1,0,0.2,0,0.2
				c-0.1-0.4-0.2-0.2-0.3-0.6c0,0-0.1,0.5-0.1,0.5l-0.1-0.5c0,0,0.1,0.2,0.1,0.2c-0.1-0.5-0.1-0.5-0.1-0.4c0,0.1-0.1,0.2-0.1-0.1
				l0,0.4c-0.2-0.4-0.1-0.4-0.2-0.8c0,0,0,0.1,0,0.2c0,0.1,0,0.2,0,0.2c0,0.1,0.1-0.4,0.1,0.2c-0.1,0.3-0.2,0.1-0.4,0.3
				c0,0,0.2-0.7,0.2-0.7c-0.1,0.4,0-0.4,0-0.4c0,0,0,0.3,0,0.3c-0.1,0.3-0.2,0.2-0.2,0.2c0-0.1,0-0.2-0.2-0.1c0,0,0,0.1,0,0.2
				c-0.1,0.1-0.1-0.1-0.1-0.2c0.4-0.4,0.4,0,0.6-0.5c0,0-0.1,0.1-0.2,0.2c-0.1,0.1-0.3,0.2-0.2,0.1c0,0,0.3-0.2,0.3-0.2l-0.1,0l0,0
				c-0.1,0.1-0.1,0.1-0.1,0c0,0,0-0.2-0.1-0.2l0.3-0.1l-0.2-0.2l-0.1,0.1c-0.2-0.1-0.4-0.3-0.5-0.5c0-0.1,0,0,0-0.1
				c0,0,0.1-0.1,0.1-0.1c0,0-0.1,0.1-0.1,0.1c-0.1,0-0.1,0-0.1,0c-0.2,0.1-0.1,0.1-0.3,0.2c0-0.1,0.2-0.2,0.4-0.3
				c-0.2,0-0.6,0.2-0.8,0.1c0.3,0,0.5-0.1,0.8-0.1c-0.3,0,0.3,0-0.1,0c0,0,0,0,0,0c-0.2,0-0.2,0-0.2,0c0.3,0,0.5,0,0.5,0
				c-0.1,0-0.1,0-0.1-0.1l0,0c0,0,0.1,0.1,0.1,0.1c0.1-0.5,0.5-0.9,0.5-1.3c-0.1-0.1-0.2-0.3-0.3-0.1c-0.2-0.3,0.2-0.4,0.4-0.6
				l0.2,0.3c0.2-0.6,0.9-1.1,0.9-1.7l-0.3,0c0.1-0.5,0.6-0.9,0.6-1.2c-0.5,0.2-0.1-0.4-0.2-0.5c-0.3,0.3-0.3,1-0.4,0.9l0.1,0
				l-0.1,0.8l-0.3-0.2c0.7,0.4-0.7,0.7,0,0.9c-0.1,0.2-0.4,0.1-0.5,0l0,0.6c-0.2,0-0.4-0.3-0.4-0.3c0.1-0.2,0-0.7,0.4-0.7
				c-0.1-0.3-0.4,0-0.3-0.4c0.7-0.4,0.7-1.3,1.2-1.6c-0.2,0-0.2,0.1-0.3-0.1l0.4-0.2c0.1-0.3-0.3-0.6,0-0.7
				c-0.2-0.2-0.4,0.3-0.6,0.4c-0.6-0.6,0.6-0.3,0.2-0.8c-0.4-0.3-0.2,0.7-0.6,0.2l0.3-0.3c-0.6,0-0.1,0.6-0.6,0.5
				c0.1-0.2,0.2-0.3,0.2-0.5c0,0,0,0,0,0c0,0,0,0,0,0c0.2-0.3,0.3-0.7,0.5-1c0.3,0.2,0.3,0.6,0.2,0.8c0.3,0,0.3-0.3,0.4-0.5
				l-0.3,0.2c0.1-0.3-0.2-0.5-0.2-0.7c0.1-0.1,0.1-0.3,0.2-0.4c0.1,0,0.3,0.2,0.5,0.2c0-0.5,0.1-0.1-0.3-0.3
				c0.1-0.3,0.3-0.3,0.5-0.8c0,0.3,0.2,0.4-0.1,0.6l0.3,0.1c0-0.2-0.1-0.4-0.2-0.8c0-0.1,0-0.2,0-0.4c0,0,0.1-0.1,0.1-0.1l0.1,0.1
				c0-0.1,0.2-0.2,0.5-0.4c0.9-0.5,2.3-1,2.6-1c0.5,0,0.6,0.4,0.6,1.5c0,0.1,0,0.1,0,0.2c0,0,0,0.1,0,0.1c0,0,0,0,0,0
				c0,0.4-0.1,0.8-0.1,1.4c0,0,0,0,0,0c0,0,0,0.1,0,0.1c-0.2,1.3-0.5,2.9-0.9,4.6c0,0,0,0-0.1,0l0.1,0c0,0.1,0,0.1,0,0.2
				c-0.3-0.1-0.7-0.4-0.7,0c0.3-0.2,0.8,0.1,0.6,0.3c0,0,0,0,0,0c0,0,0,0.1,0,0.1c-0.2-0.2-0.4,0-0.4,0.2c0.1-0.2,0.2-0.2,0.4-0.1
				c0,0.1,0,0.2-0.1,0.2c0,0,0-0.1-0.1-0.1c-0.4-0.1-0.5,0.4-0.8,0.6c0,0.2,0.1,0.2,0.3,0.3c-0.2,0-0.3,0.2-0.6,0.2
				c0.2,0.5-0.4,0.5-0.2,1c0,0-0.1,0-0.1,0l0,0l0.1,0c0.1,0.1,0.1,0.3,0,0.4c0.2-0.2,0.6-0.3,0.9-0.5c0,0.1-0.1,0.2-0.1,0.3
				c0,0,0,0,0,0.1c-0.4,1.5-0.9,2.8-1.3,3.8l-0.1-0.1c0,0,0,0.1,0.1,0.2c0,0.1-0.1,0.2-0.1,0.3c-0.2-0.1-0.2,0.1-0.2,0.3
				c-0.1,0.1-0.1,0.2-0.2,0.4c0-0.1,0-0.1,0-0.1c0,0.1,0,0.1,0,0.2c-0.1,0.1-0.2,0.3-0.3,0.3c0-0.1,0-0.2,0-0.5
				c-0.1,0.2-0.3,0.4-0.4,0.3c-0.2-0.1-0.3-0.3-0.4-0.5c0.1,0.3,0.1,0.3,0.2,0.5c-0.1-0.1-0.3-0.1-0.5-0.2c-0.1-0.1-0.2-0.2-0.3-0.3
				c0-0.1,0-0.2,0-0.2c-0.1-0.6-0.5-0.8-0.8-1.2l0.1,0.4c0,0.1-0.1,0.2-0.1,0.3c-0.1-0.1-0.2-0.3-0.4-0.4c0-0.3,0.1-0.5-0.1-0.5
				c0,0.3,0,0.3,0,0.3c-0.1-0.1-0.1-0.2-0.2-0.3c0.1-0.1,0.2-0.2,0.2-0.3c-0.2,0-0.1,0.3-0.2,0.3c0,0,0-0.1-0.1-0.1
				c0-0.3,0-0.2-0.2-0.2c0,0,0,0,0,0c-0.1-0.1-0.1-0.2-0.2-0.2c0,0,0,0,0,0l0.3,0C114.2,68.7,113.7,68.2,113.4,67.8z M111.2,69.3
				c0.1-0.1,0.2-0.2,0.3-0.3c0,0,0,0,0.1,0c0,0.1,0.1,0.2,0.1,0.3c0,0.1,0,0.3,0,0.5l-0.4,0C111.3,69.5,111.2,69.4,111.2,69.3z
				 M106.2,66.6l-0.4,0.6C105.6,67,106,66.9,106.2,66.6z M110.3,73.4l-0.1-0.6c0-0.1,0.1-0.1,0.1-0.2c0,0.2,0.1,0.2,0.1,0.3l0.1,0.3
				L110.3,73.4z M111.1,73.4l0.3-0.1c0,0-0.1-0.1-0.2-0.2c-0.1-0.1-0.2-0.2-0.2-0.2c0-0.2-0.1-0.2-0.1-0.5l0,0.1c0-0.2,0-0.4,0-0.5
				c0.2-0.4,0.6-1.2,0.5-1.3c-0.2,0.1-0.3,0.6-0.5,0.9c0,0,0-0.1,0-0.1c0.2-0.4,0.3-0.9,0.4-1.3c0-0.1,0-0.2,0-0.3l0.4,0
				c0,0.2,0,0.4,0,0.5c-0.2,0.4-0.4,0.8,0,0.8c0,0,0-0.1,0.1-0.1c0,0.3,0.1,0.7,0.1,0.9c-0.1,0-0.2-0.1-0.3-0.5
				c0.1,0.3,0.1,0.6,0.2,0.8l0,0c0.1,0.3,0.2,0.5,0.3,0.7c-0.3,0.2-0.6,0.5-0.6,0.9C111.3,73.7,111.2,73.6,111.1,73.4z M113,79.8
				C113.1,79.8,113.1,79.8,113,79.8C113.1,79.8,113.1,79.8,113,79.8C113.1,79.8,113.1,79.8,113,79.8C113.1,79.8,113.1,79.8,113,79.8
				z M116.3,81c-0.5-0.1-0.6-0.2-0.5-0.2c0.3,0.1,0.7,0.1,1,0.2C116.6,81,116.5,81,116.3,81z"/>
			<path class="st0" d="M124.4,50.9L124.4,50.9C124.4,50.9,124.4,50.9,124.4,50.9z"/>
			<path class="st0" d="M126.1,74.1c0.1-0.2,0.2-0.3,0.2-0.3C126.2,74,126.2,74.1,126.1,74.1z"/>
		</g>
	</g>
</g>
</svg>
